<?xml version="1.0" standalone="no"?>
<!DOCTYPE svg PUBLIC "-//W3C//DTD SVG 1.1//EN" "http://www.w3.org/Graphics/SVG/1.1/DTD/svg11.dtd" >
<svg xmlns="http://www.w3.org/2000/svg" xmlns:xlink="http://www.w3.org/1999/xlink" version="1.1">
<metadata>
Created by FontForge 20170731 at Mon Mar 29 06:20:28 2021
 By Aleksey,,,
Copyright (C) 2000, 2007 Hoefler &#38; Frere-Jones. http://www.typography.com
</metadata>
<defs>
<font id="Archer-Book" horiz-adv-x="1249" >
  <font-face 
    font-family="Archer Book"
    font-weight="325"
    font-stretch="normal"
    units-per-em="2048"
    panose-1="2 0 0 0 0 0 0 0 0 0"
    ascent="1638"
    descent="-410"
    x-height="860"
    cap-height="1348"
    bbox="-109 -537 2890 2093"
    underline-thickness="102"
    underline-position="-307"
    unicode-range="U+0020-FB04"
  />
<missing-glyph horiz-adv-x="1024" 
d="M0 -410v2048h1024v-2048h-1024zM145 1536l367 -799l367 799h-734zM102 -156l353 770l-353 770v-1540zM922 1384l-353 -770l353 -770v1540zM512 492l-367 -799h734z" />
    <glyph glyph-name="f_f" unicode="ff" horiz-adv-x="1216" 
d="M346 860h483v301q0 199 82 281q74 74 179 74q64 0 103.5 -27t39.5 -76q0 -35 -21.5 -57.5t-54.5 -22.5q-73 0 -94 84q-50 -7 -78 -41q-51 -57 -51 -182v-334h223v-94h-223v-672h168v-94h-416v94h143v672h-483v-672h168v-94h-416v94h144v672h-156v94h156v260q0 199 82 281
q74 74 178 74q64 0 103.5 -27t39.5 -76q0 -35 -21.5 -57.5t-54.5 -22.5q-72 0 -94 86q-44 -7 -76 -41q-53 -56 -53 -184v-293z" />
    <glyph glyph-name="fi" unicode="fi" horiz-adv-x="1128" 
d="M903 860v-766h154v-94h-406v94h148v672h-453v-672h164v-94h-412v94h144v672h-156v94h156v270q0 220 106 312q80 74 195 74q83 0 135.5 -40.5t52.5 -95.5q0 -36 -23 -60t-59 -24q-39 0 -62.5 33.5t-17.5 77.5q-20 10 -45 10q-64 0 -116 -61q-62 -72 -62 -193v-303h557z
" />
    <glyph glyph-name="fl" unicode="fl" horiz-adv-x="1146" 
d="M666 94h151v672h-471v-672h168v-94h-416v94h144v672h-156v94h156v277q0 184 100 284q95 95 250 95q143 0 231 -91l39 82h60v-1413h153v-94h-409v94zM582 1421q-99 0 -164 -65q-72 -72 -72 -211v-285h471v285q0 21 -2 31q-31 4 -51.5 30t-20.5 58q0 35 25 63q-9 15 -23 29
q-65 65 -163 65z" />
    <glyph glyph-name="f_f_i" unicode="ffi" horiz-adv-x="1703" 
d="M1307 1380q0 -36 -23 -60t-59 -24q-39 0 -62.5 33.5t-17.5 77.5q-20 10 -43 10q-60 0 -111 -51q-69 -73 -69 -203v-303h557v-766h153v-94h-405v94h147v672h-452v-672h163v-94h-411v94h143v672h-471v-672h168v-94h-416v94h144v672h-156v94h156v264q0 176 88 267
q84 84 213 84q67 0 125 -23q100 -42 100 -125q0 -36 -19 -57t-55 -21q-42 0 -67 35.5t-19 83.5q-40 14 -69 14q-95 0 -146 -67q-47 -66 -47 -191v-264h471v270q0 219 107 312q80 74 194 74q83 0 136 -40.5t53 -95.5z" />
    <glyph glyph-name="f_f_l" unicode="ffl" horiz-adv-x="1722" 
d="M346 1124v-264h471v277q0 183 101 284q95 95 249 95q141 0 232 -91l39 82h59v-1413h154v-94h-410v94h152v672h-471v-672h168v-94h-416v94h143v672h-471v-672h168v-94h-416v94h144v672h-156v94h156v264q0 176 88 267q84 84 213 84q67 0 125 -23q100 -42 100 -125
q0 -36 -19 -57t-55 -21q-42 0 -67 35.5t-19 83.5q-40 14 -69 14q-95 0 -146 -67q-47 -66 -47 -191zM922 1145v-285h471v285q0 21 -2 31q-31 4 -51.5 30t-20.5 58q0 36 24 63q-11 18 -22 29q-65 65 -164 65t-164 -65q-71 -71 -71 -211z" />
    <glyph glyph-name="f_b" unicode="fb" horiz-adv-x="1755" 
d="M817 0v766h-471v-672h168v-94h-416v94h144v672h-156v94h156v277q0 184 100 284q95 95 250 95q143 0 231 -91l39 82h60v-768q67 67 138 102.5t175 35.5q172 0 295 -126t123 -323q0 -188 -124 -316t-319 -128q-82 0 -159 29t-133 79l-41 -92h-60zM1214 78q141 0 234.5 98
t93.5 252q0 156 -89.5 255t-229.5 99q-170 0 -301 -145v-453q130 -106 292 -106zM743 1264q0 35 25 63q-9 15 -23 29q-65 65 -163 65q-99 0 -164 -65q-72 -72 -72 -211v-285h471v285q0 21 -2 31q-31 4 -51.5 30t-20.5 58z" />
    <glyph glyph-name="f_h" unicode="fh" horiz-adv-x="1736" 
d="M817 94v672h-471v-672h168v-94h-416v94h144v672h-156v94h156v277q0 184 100 284q95 95 250 95q143 0 231 -91l39 82h60v-813q66 82 153 132.5t176 50.5q151 0 224 -93q57 -75 57 -200v-490h143v-94h-391v94h143v475q0 98 -43 150q-47 59 -151 59q-167 0 -311 -176v-508
h143v-94h-391v94h143zM743 1264q0 35 25 63q-9 15 -23 29q-65 65 -163 65q-99 0 -164 -65q-72 -72 -72 -211v-285h471v285q0 21 -2 31q-31 4 -51.5 30t-20.5 58z" />
    <glyph glyph-name="f_j" unicode="fj" horiz-adv-x="1069" 
d="M799 766h-453v-672h164v-94h-412v94h144v672h-156v94h156v270q0 220 106 312q80 74 195 74q83 0 135.5 -40.5t52.5 -95.5q0 -36 -23 -60t-59 -24q-39 0 -62.5 33.5t-17.5 77.5q-20 10 -45 10q-64 0 -116 -61q-62 -72 -62 -193v-303h557v-837q0 -144 -33 -248
q-62 -185 -235 -185q-77 0 -123.5 34.5t-46.5 86.5q0 33 21.5 58.5t56.5 25.5q32 0 51.5 -20.5t19.5 -53.5q0 -21 -8 -40q15 -5 35 -5q97 0 135 134q23 80 23 196v760z" />
    <glyph glyph-name="f_k" unicode="fk" horiz-adv-x="1652" 
d="M922 1507v-1093l409 356h-190v90h477v-94h-150l-305 -262l289 -410h166v-94h-223l-308 449l-165 -142v-213h153v-94h-401v94h143v672h-471v-672h168v-94h-416v94h144v672h-156v94h156v277q0 184 100 284q95 95 250 95q143 0 231 -91l39 82h60zM346 1145v-285h471v285
q0 21 -2 31q-31 4 -51.5 30t-20.5 58q0 35 25 63q-9 15 -23 29q-65 65 -163 65q-99 0 -164 -65q-72 -72 -72 -211z" />
    <glyph glyph-name="f_f_b" unicode="ffb" horiz-adv-x="2330" 
d="M1393 0v766h-471v-672h168v-94h-416v94h143v672h-471v-672h168v-94h-416v94h144v672h-156v94h156v264q0 176 88 267q84 84 213 84q67 0 125 -23q100 -42 100 -125q0 -36 -19 -57t-55 -21q-42 0 -67 35.5t-19 83.5q-40 14 -69 14q-95 0 -146 -67q-47 -66 -47 -191v-264
h471v277q0 183 101 284q95 95 249 95q141 0 232 -91l39 82h59v-768q67 67 138 102.5t175 35.5q172 0 295 -126t123 -323q0 -188 -123.5 -316t-318.5 -128q-82 0 -159.5 29t-133.5 79l-41 -92h-59zM1790 78q141 0 234.5 98t93.5 252q0 156 -90 255t-230 99q-170 0 -301 -145
v-453q130 -106 293 -106zM1319 1264q0 36 24 63q-11 18 -22 29q-65 65 -164 65t-164 -65q-71 -71 -71 -211v-285h471v285q0 21 -2 31q-31 4 -51.5 30t-20.5 58z" />
    <glyph glyph-name="f_f_h" unicode="ffh" horiz-adv-x="2312" 
d="M1497 1507v-813q66 82 153.5 132.5t176.5 50.5q150 0 223 -93q57 -75 57 -200v-490h144v-94h-391v94h143v475q0 98 -43 150q-47 59 -152 59q-167 0 -311 -176v-508h143v-94h-391v94h144v672h-471v-672h168v-94h-416v94h143v672h-471v-672h168v-94h-416v94h144v672h-156
v94h156v264q0 176 88 267q84 84 213 84q67 0 125 -23q100 -42 100 -125q0 -36 -19 -57t-55 -21q-42 0 -67 35.5t-19 83.5q-40 14 -69 14q-95 0 -146 -67q-47 -66 -47 -191v-264h471v277q0 183 101 284q95 95 249 95q141 0 232 -91l39 82h59zM922 1145v-285h471v285
q0 21 -2 31q-31 4 -51.5 30t-20.5 58q0 36 24 63q-11 18 -22 29q-65 65 -164 65t-164 -65q-71 -71 -71 -211z" />
    <glyph glyph-name="f_f_j" unicode="ffj" horiz-adv-x="1644" 
d="M1479 860v-837q0 -144 -33 -248q-62 -185 -236 -185q-77 0 -123.5 34.5t-46.5 86.5q0 33 21.5 58.5t56.5 25.5q32 0 52 -21t20 -53q0 -21 -8 -40q15 -5 35 -5q97 0 135 134q22 77 22 196v760h-452v-672h163v-94h-411v94h143v672h-471v-672h168v-94h-416v94h144v672h-156
v94h156v264q0 176 88 267q84 84 213 84q67 0 125 -23q100 -42 100 -125q0 -36 -19 -57t-55 -21q-42 0 -67 35.5t-19 83.5q-40 14 -69 14q-95 0 -146 -67q-47 -66 -47 -191v-264h471v270q0 219 107 312q80 74 194 74q83 0 136 -40.5t53 -95.5q0 -36 -23 -60t-59 -24
q-39 0 -62.5 33.5t-17.5 77.5q-20 10 -43 10q-60 0 -111 -51q-69 -73 -69 -203v-303h557z" />
    <glyph glyph-name="f_f_k" unicode="ffk" horiz-adv-x="2228" 
d="M1497 1507v-1093l410 356h-191v90h477v-94h-149l-305 -262l289 -410h165v-94h-223l-307 449l-166 -142v-213h154v-94h-402v94h144v672h-471v-672h168v-94h-416v94h143v672h-471v-672h168v-94h-416v94h144v672h-156v94h156v264q0 176 88 267q84 84 213 84q67 0 125 -23
q100 -42 100 -125q0 -36 -19 -57t-55 -21q-42 0 -67 35.5t-19 83.5q-40 14 -69 14q-95 0 -146 -67q-47 -66 -47 -191v-264h471v277q0 183 101 284q95 95 249 95q141 0 232 -91l39 82h59zM922 1145v-285h471v285q0 21 -2 31q-31 4 -51.5 30t-20.5 58q0 36 24 63
q-11 18 -22 29q-65 65 -164 65t-164 -65q-71 -71 -71 -211z" />
    <glyph glyph-name=".notdef" horiz-adv-x="1024" 
d="M0 -410v2048h1024v-2048h-1024zM145 1536l367 -799l367 799h-734zM102 -156l353 770l-353 770v-1540zM922 1384l-353 -770l353 -770v1540zM512 492l-367 -799h734z" />
    <glyph glyph-name=".null" horiz-adv-x="0" 
 />
    <glyph glyph-name="nonmarkingreturn" horiz-adv-x="682" 
 />
    <glyph glyph-name="space" unicode=" " horiz-adv-x="471" 
 />
    <glyph glyph-name="exclam" unicode="!" horiz-adv-x="499" 
d="M221 356l-41 990h139l-40 -990h-58zM250 -16q-43 0 -73 30.5t-30 73.5t30.5 75t72.5 32t72 -32t30 -75t-29.5 -73.5t-72.5 -30.5z" />
    <glyph glyph-name="quotedbl" unicode="&#x22;" horiz-adv-x="612" 
d="M438 901l-59 346q-10 55 13 90t67 35t67 -34t13 -91l-62 -346h-39zM131 901l-59 346q-10 55 13 90t67 35t66.5 -34t12.5 -91l-61 -346h-39z" />
    <glyph glyph-name="numbersign" unicode="#" horiz-adv-x="1005" 
d="M90 672v94h215l41 260h94l-41 -260h283l41 260h94l-41 -260h203v-94h-217l-49 -312h202v-94h-217l-41 -266h-94l41 266h-282l-41 -266h-95l41 266h-200v94h215l49 312h-201zM385 672l-49 -312h282l50 312h-283z" />
    <glyph glyph-name="dollar" unicode="$" horiz-adv-x="890" 
d="M551 1165l-10 -143q112 -13 183 -62.5t71 -111.5q0 -37 -21 -59.5t-53 -22.5q-34 0 -58 22.5t-24 57.5q0 28 14 53q-28 21 -125 35l-26 -363q68 -24 115 -47.5t92 -58t67.5 -82.5t22.5 -109q0 -90 -48.5 -153t-122 -91t-165.5 -30l-17 -215l-90 6l15 213q-125 13 -209 65
t-84 132q0 34 22.5 59t55.5 25q37 0 58.5 -22t21.5 -54q0 -27 -19 -59q16 -20 61.5 -37t106.5 -23l29 408q-52 17 -87 31.5t-76 38t-65 49.5t-40.5 65t-16.5 86q0 112 92 182.5t230 75.5l10 145zM696 276q0 70 -52.5 114t-149.5 79l-27 -383q101 3 165 51.5t64 138.5z
M231 768q0 -60 49.5 -97.5t141.5 -70.5l24 340q-96 -5 -155.5 -48t-59.5 -124z" />
    <glyph glyph-name="percent" unicode="%" horiz-adv-x="1273" 
d="M340 561q-99 0 -167.5 71t-68.5 171t68.5 170.5t167.5 70.5t167 -70.5t68 -170.5t-68 -171t-167 -71zM934 467q99 0 167 -71t68 -171t-68 -170.5t-167 -70.5t-167.5 70.5t-68.5 170.5t68.5 171t167.5 71zM266 -51l-67 53l395 516q368 479 395 518l70 -51l-400 -522z
M340 645q62 0 103.5 46.5t41.5 111.5t-41.5 111.5t-103.5 46.5t-103.5 -46.5t-41.5 -111.5t41.5 -111.5t103.5 -46.5zM934 383q-62 0 -104 -46.5t-42 -111.5t42 -111t104 -46t103.5 46t41.5 111t-41.5 111.5t-103.5 46.5z" />
    <glyph glyph-name="ampersand" unicode="&#x26;" horiz-adv-x="1220" 
d="M1174 541h-123q-57 -170 -133 -285q175 -168 229 -211l-70 -72q-73 63 -219 203q-169 -192 -428 -192q-90 0 -162.5 27t-117 72.5t-68 101t-23.5 116.5q0 116 67 202.5t216 182.5q-81 93 -107 154.5t-26 136.5q0 52 20 103.5t56.5 95.5t96 71t130.5 27q109 0 186.5 -70.5
t77.5 -177.5q0 -84 -61.5 -166t-225.5 -188q47 -51 150 -148q98 -96 211 -202q61 92 106 219h-118v94h336v-94zM430 82q210 0 358 162l-219 211q-68 63 -166 161q-129 -84 -180 -154.5t-51 -162.5q0 -87 67 -152t191 -65zM317 973q0 -52 22.5 -103.5t88.5 -130.5
q102 65 156.5 118.5t69 89t14.5 79.5q0 67 -44.5 110.5t-111.5 43.5q-86 0 -140.5 -58t-54.5 -149z" />
    <glyph glyph-name="quotesingle" unicode="'" horiz-adv-x="305" 
d="M131 901l-59 346q-10 55 13 90t67 35t66.5 -34t12.5 -91l-61 -346h-39z" />
    <glyph glyph-name="parenleft" unicode="(" horiz-adv-x="675" 
d="M684 -463q-178 106 -303 269t-183.5 346.5t-58.5 379.5t58.5 380t183.5 347t303 269l59 -84q-158 -96 -270.5 -245t-166.5 -318.5t-54 -348.5q0 -273 128 -520.5t363 -390.5z" />
    <glyph glyph-name="parenright" unicode=")" horiz-adv-x="675" 
d="M-8 -463l-60 84q158 96 270.5 244.5t167 318t54.5 348.5q0 272 -128.5 520.5t-363.5 391.5l60 84q178 -106 303 -269t183.5 -347t58.5 -380t-58.5 -379.5t-183.5 -346.5t-303 -269z" />
    <glyph glyph-name="asterisk" unicode="*" horiz-adv-x="778" 
d="M629 1124l-207 -20l149 -139q33 -30 34 -63.5t-25 -51.5q-28 -20 -59 -8.5t-48 49.5l-84 192l-84 -192q-17 -38 -47.5 -49.5t-58.5 8.5q-26 18 -25 51.5t33 63.5l149 139l-206 20q-41 4 -60.5 31.5t-9.5 58.5q9 30 42 38.5t68 -11.5l181 -98l-43 200q-9 40 10 68.5
t51 28.5t51.5 -28.5t10.5 -68.5l-43 -200l180 98q35 20 68 11.5t42 -38.5q10 -31 -9 -58.5t-60 -31.5z" />
    <glyph glyph-name="plus" unicode="+" horiz-adv-x="806" 
d="M352 215v279h-276v98h276v278h103v-278h276v-98h-276v-279h-103z" />
    <glyph glyph-name="comma" unicode="," horiz-adv-x="376" 
d="M25 -289l-27 43q92 67 133 130.5t43 111.5q-37 5 -66.5 35.5t-29.5 68.5q0 42 31 72.5t71 30.5q48 0 81.5 -37.5t33.5 -102.5q0 -90 -65.5 -185.5t-204.5 -166.5z" />
    <glyph glyph-name="hyphen" unicode="-" horiz-adv-x="561" 
d="M66 512v106h430v-106h-430z" />
    <glyph glyph-name="period" unicode="." horiz-adv-x="376" 
d="M188 -16q-45 0 -75.5 32t-30.5 78t30.5 78.5t75.5 32.5t76 -32.5t31 -78.5t-31 -78t-76 -32z" />
    <glyph glyph-name="slash" unicode="/" horiz-adv-x="911" 
d="M29 -424l-99 43l840 1897l98 -43z" />
    <glyph glyph-name="zero" unicode="0" horiz-adv-x="1110" 
d="M555 -16q-198 0 -326.5 151.5t-128.5 378.5q0 229 127.5 378.5t327.5 149.5q197 0 326 -150.5t129 -377.5q0 -228 -128.5 -379t-326.5 -151zM555 82q153 0 247.5 120.5t94.5 311.5q0 189 -94.5 309.5t-247.5 120.5q-152 0 -247 -120t-95 -310q0 -191 95 -311.5
t247 -120.5z" />
    <glyph glyph-name="one" unicode="1" horiz-adv-x="813" 
d="M133 0v94h246v815l-223 -59l-25 94l313 88h43v-938h242v-94h-596z" />
    <glyph glyph-name="two" unicode="2" horiz-adv-x="983" 
d="M461 944q-68 0 -126.5 -25.5t-90.5 -64.5q-13 -18 -17 -25q25 -6 43.5 -27.5t18.5 -47.5q0 -36 -23.5 -61t-58.5 -25q-40 0 -66 30.5t-26 79.5q0 53 37 109q45 67 130.5 111t186.5 44q170 0 263 -85.5t93 -208.5q0 -49 -18 -94t-41.5 -77.5t-70 -71.5t-79 -62t-92.5 -62
q-111 -72 -185.5 -136.5t-123.5 -150.5h545v180h100v-274h-768l-8 53q23 56 57 108t69 90t85.5 79.5t89 68t96.5 64.5q51 34 76.5 52t62.5 49.5t54.5 55.5t31 58t13.5 70q0 88 -68 142t-190 54z" />
    <glyph glyph-name="three" unicode="3" horiz-adv-x="997" 
d="M88 2q0 44 29 76.5t67 32.5q34 0 56 -23t22 -53q0 -27 -15.5 -50.5t-45.5 -31.5q7 -16 24 -33q37 -35 103 -55.5t145 -20.5q138 0 225.5 72.5t87.5 179.5q0 76 -41.5 134.5t-115.5 93.5q-100 47 -240 47h-39v96h45q134 0 242 65q131 79 131 195q0 101 -75.5 157
t-203.5 56q-160 0 -231 -82q-15 -20 -18 -29q26 -6 44.5 -28.5t18.5 -46.5q0 -35 -24.5 -56.5t-57.5 -21.5q-37 0 -64.5 30.5t-27.5 75.5q0 54 37 109q45 67 132 109t200 42q165 0 269.5 -92t104.5 -223q0 -75 -48 -145.5t-124 -112.5q-65 -36 -133 -45q47 -6 127 -39
q91 -42 144 -116.5t53 -166.5q0 -106 -56.5 -188.5t-151.5 -126t-212 -43.5q-113 0 -207.5 41t-140.5 109q-35 50 -35 108z" />
    <glyph glyph-name="four" unicode="4" horiz-adv-x="1005" 
d="M629 -246v375h-586l-16 39l647 872l82 -59l-561 -758h434v316l102 43v-359h242v-94h-242v-375h-102z" />
    <glyph glyph-name="five" unicode="5" horiz-adv-x="964" 
d="M90 -45q0 40 26 71t66 31q35 0 58.5 -21.5t23.5 -55.5q0 -46 -41 -72q17 -17 29 -25q67 -45 199 -45q136 0 225.5 85.5t89.5 217.5q0 131 -84.5 214t-220.5 83q-149 0 -285 -57l-45 27l72 618h604v-102h-518l-49 -426q107 34 225 34q181 0 296.5 -109t115.5 -282
q0 -171 -122.5 -284t-299.5 -113q-99 0 -179.5 24.5t-128.5 67.5q-57 51 -57 119z" />
    <glyph glyph-name="six" unicode="6" horiz-adv-x="1058" 
d="M600 1206q-158 0 -265 -161.5t-116 -446.5q43 81 135 134.5t201 53.5q175 0 290.5 -112.5t115.5 -270.5q0 -177 -117.5 -298t-298.5 -121q-184 0 -297 116q-133 139 -133 435q0 164 29.5 297t78.5 219.5t114 145t133 83.5t140 25q68 0 135 -25t109 -68q49 -49 49 -110
q0 -51 -28.5 -79t-65.5 -28t-59.5 24t-22.5 60q0 47 37 66q-52 61 -164 61zM545 82q139 0 222 89t83 232q0 124 -80.5 204.5t-214.5 80.5q-141 0 -231.5 -93t-90.5 -218q0 -123 86 -209t226 -86z" />
    <glyph glyph-name="seven" unicode="7" horiz-adv-x="905" 
d="M283 -250l-99 41l516 1143h-538v-195h-103v287h768l17 -33z" />
    <glyph glyph-name="eight" unicode="8" horiz-adv-x="997" 
d="M498 -16q-172 0 -288 102.5t-116 255.5q0 109 72.5 198t177.5 124q-100 39 -161.5 125.5t-61.5 166.5q0 154 109 251.5t268 97.5q160 0 268 -97.5t108 -251.5q0 -87 -61.5 -169t-161.5 -123q105 -36 178.5 -124.5t73.5 -197.5q0 -154 -116 -256t-289 -102zM498 709
q110 0 189 72t79 173q0 106 -77 179t-191 73q-112 0 -189.5 -73t-77.5 -179q0 -101 79 -173t188 -72zM498 82q122 0 205 74.5t83 187.5q0 117 -83.5 192.5t-204.5 75.5q-119 0 -203 -76t-84 -192q0 -113 83.5 -187.5t203.5 -74.5z" />
    <glyph glyph-name="nine" unicode="9" horiz-adv-x="1058" 
d="M430 -256q-69 0 -137.5 25.5t-110.5 70.5q-45 48 -45 107q0 51 28.5 78.5t65.5 27.5t59.5 -24t22.5 -60q0 -46 -37 -65q52 -62 164 -62q169 0 278 153.5t118 428.5q-42 -78 -134 -128t-200 -50q-176 0 -291 109.5t-115 267.5q0 177 117.5 298t298.5 121t297 -116
q133 -133 133 -434q0 -139 -22 -254t-60.5 -195t-87.5 -139.5t-108 -93.5t-116.5 -50t-117.5 -16zM737 858q-86 86 -225 86t-222 -89t-83 -232q0 -123 80 -201t215 -78q142 0 231.5 90t89.5 215q0 123 -86 209z" />
    <glyph glyph-name="colon" unicode=":" horiz-adv-x="413" 
d="M209 530q-45 0 -76 32.5t-31 78.5t31 78.5t76 32.5t75.5 -32.5t30.5 -78.5t-30.5 -78.5t-75.5 -32.5zM209 -16q-45 0 -76 32t-31 78t31 78.5t76 32.5t75.5 -32.5t30.5 -78.5t-30.5 -78t-75.5 -32z" />
    <glyph glyph-name="semicolon" unicode=";" horiz-adv-x="413" 
d="M209 530q-45 0 -76 32.5t-31 78.5t31 78.5t76 32.5t75.5 -32.5t30.5 -78.5t-30.5 -78.5t-75.5 -32.5zM45 -289l-27 43q92 67 133.5 130.5t43.5 111.5q-38 5 -67.5 35.5t-29.5 68.5q0 42 31.5 72.5t71.5 30.5q48 0 81 -37.5t33 -102.5q0 -90 -65.5 -185.5t-204.5 -166.5z
" />
    <glyph glyph-name="less" unicode="&#x3c;" horiz-adv-x="765" 
d="M582 172l-508 334v41l508 334l53 -80l-418 -275l418 -274z" />
    <glyph glyph-name="equal" unicode="=" horiz-adv-x="806" 
d="M76 627v98h655v-98h-655zM76 322v98h655v-98h-655z" />
    <glyph glyph-name="greater" unicode="&#x3e;" horiz-adv-x="765" 
d="M184 172l-53 80l418 274l-418 275l53 80l508 -334v-41z" />
    <glyph glyph-name="question" unicode="?" horiz-adv-x="874" 
d="M41 1092q0 72 49 137q48 64 135 103.5t189 39.5q185 0 295 -100t110 -254q0 -135 -102.5 -245.5t-272.5 -154.5l-22 -262h-55l-29 330q178 38 274.5 123.5t96.5 204.5q0 120 -78.5 189t-214.5 69q-81 0 -144 -25.5t-96 -70.5q-10 -12 -18 -33q35 -7 55 -31t20 -55
q0 -35 -25.5 -60.5t-60.5 -25.5q-42 0 -74 34.5t-32 86.5zM397 -16q-43 0 -72.5 30.5t-29.5 73.5t30 75t72 32t72.5 -32t30.5 -75t-30 -73.5t-73 -30.5z" />
    <glyph glyph-name="at" unicode="@" horiz-adv-x="1642" 
d="M676 -356q-173 0 -306 80.5t-202.5 216t-69.5 301.5q0 205 72 390t191.5 316t280.5 208t335 77q264 0 419.5 -158t155.5 -420q0 -158 -52 -291t-140 -209.5t-191 -76.5q-89 0 -131 52t-32 120q-42 -79 -115.5 -125.5t-159.5 -46.5q-115 0 -190.5 78.5t-75.5 210.5
q0 113 53 212t141 156.5t187 57.5q100 0 158.5 -52t70.5 -123l41 168h96l-112 -452q-22 -83 -2.5 -128.5t76.5 -45.5q80 0 148.5 71.5t107 185.5t38.5 240q0 219 -134 359.5t-359 140.5q-158 0 -304 -71.5t-253.5 -193t-171.5 -292.5t-64 -360q0 -104 35 -198t98 -166
t157.5 -114.5t205.5 -42.5q178 0 330 82l34 -67q-166 -90 -366 -90zM752 170q82 0 150.5 52t104 128.5t35.5 155.5q0 92 -52 143t-142 51q-117 0 -196 -98.5t-79 -232.5q0 -94 46 -146.5t133 -52.5z" />
    <glyph glyph-name="A" unicode="A" horiz-adv-x="1454" 
d="M41 0v102h135l432 1143h-155v103h548v-103h-155l432 -1143h135v-102h-420v102h158l-141 381h-572l-141 -381h164v-102h-420zM475 584h498l-248 671z" />
    <glyph glyph-name="B" unicode="B" horiz-adv-x="1247" 
d="M106 0v102h181v1143h-181v103h541q114 0 200.5 -28t136.5 -76.5t74.5 -107t24.5 -124.5q0 -120 -69 -203.5t-185 -118.5q293 -75 293 -325q0 -159 -121.5 -262t-328.5 -103h-566zM403 102h273q157 0 244.5 75t87.5 190q0 133 -102.5 202.5t-287.5 69.5h-215v-537z
M403 737h215q173 0 262 72t89 195q0 114 -84 177.5t-242 63.5h-240v-508z" />
    <glyph glyph-name="C" unicode="C" horiz-adv-x="1437" 
d="M805 -25q-151 0 -281 59t-216.5 156t-135.5 220.5t-49 253.5q0 154 56 288t149.5 225t215.5 143t253 52q98 0 190.5 -30t158.5 -77.5t106 -108t40 -120.5q0 -50 -30 -83t-76 -33q-38 0 -65 27t-27 65q0 33 20 57.5t47 30.5q-33 62 -131.5 115t-232.5 53
q-120 0 -224.5 -50t-176.5 -133.5t-113 -192.5t-41 -226q0 -111 42 -217t114.5 -187.5t179 -131.5t227.5 -50q237 0 430 172l63 -84q-100 -95 -229.5 -144t-263.5 -49z" />
    <glyph glyph-name="D" unicode="D" horiz-adv-x="1505" 
d="M106 0v102h181v1143h-181v103h502q348 0 561 -181.5t213 -478.5q0 -150 -53.5 -277t-151.5 -218t-243 -142t-322 -51h-506zM403 102h220q312 0 476.5 161t164.5 429q0 252 -178.5 402.5t-479.5 150.5h-203v-1143z" />
    <glyph glyph-name="E" unicode="E" horiz-adv-x="1214" 
d="M106 0v102h181v1143h-181v103h967v-306h-112v203h-558v-506h457v-102h-457v-535h558v203h112v-305h-967z" />
    <glyph glyph-name="F" unicode="F" horiz-adv-x="1169" 
d="M106 0v102h181v1143h-181v103h951v-306h-113v203h-541v-530h449v-103h-449v-510h191v-102h-488z" />
    <glyph glyph-name="G" unicode="G" horiz-adv-x="1519" 
d="M782 -25q-129 0 -247.5 47.5t-210 133t-146.5 216.5t-55 287q0 158 57 293t153 226t221.5 142.5t262.5 51.5q108 0 203.5 -28.5t158.5 -73.5t99.5 -98.5t36.5 -104.5q0 -49 -27.5 -79t-70.5 -30q-38 0 -65.5 27.5t-27.5 65.5q0 52 45 79q-47 56 -143 97t-213 41
q-126 0 -234 -48.5t-181 -131t-114.5 -193.5t-41.5 -236q0 -128 43.5 -237.5t118 -184t175 -117t212.5 -42.5q227 0 432 147v312h-389v100h503v-637h-110v123q-204 -148 -445 -148z" />
    <glyph glyph-name="H" unicode="H" horiz-adv-x="1609" 
d="M106 0v102h181v1143h-181v103h478v-103h-181v-500h803v500h-180v103h477v-103h-180v-1143h180v-102h-477v102h180v539h-803v-539h181v-102h-478z" />
    <glyph glyph-name="I" unicode="I" horiz-adv-x="714" 
d="M109 0v102h190v1143h-190v103h497v-103h-190v-1143h190v-102h-497z" />
    <glyph glyph-name="J" unicode="J" horiz-adv-x="1073" 
d="M426 -25q-149 0 -256 94.5t-107 231.5q0 65 33 107.5t84 42.5q34 0 62 -26t28 -65q0 -35 -23 -61.5t-63 -30.5q-3 -60 65 -121t177 -61q119 0 197 78q86 86 86 299v782h-211v103h495v-103h-168v-784q0 -261 -116 -377q-109 -109 -283 -109z" />
    <glyph glyph-name="K" unicode="K" horiz-adv-x="1376" 
d="M106 0v102h181v1143h-181v103h478v-103h-181v-645l644 645h-193v103h487v-103h-153l-465 -467l467 -676h166v-102h-244l-473 702l-236 -235v-365h181v-102h-478z" />
    <glyph glyph-name="L" unicode="L" horiz-adv-x="1140" 
d="M106 0v102h181v1143h-181v103h488v-103h-191v-1143h510v213h113v-315h-920z" />
    <glyph glyph-name="M" unicode="M" horiz-adv-x="1824" 
d="M96 0v102h183l51 1143h-187v103h312l452 -990l455 990h307v-103h-186l51 -1143h182v-102h-471v102h176l-37 1053l-456 -981h-45l-457 981l-37 -1053h176v-102h-469z" />
    <glyph glyph-name="N" unicode="N" horiz-adv-x="1583" 
d="M1264 -6l-867 1155v-1047h181v-102h-472v102h181v1143h-181v103h283l830 -1108v1005h-181v103h465v-103h-174v-1251h-65z" />
    <glyph glyph-name="O" unicode="O" horiz-adv-x="1601" 
d="M797 -25q-189 0 -344 92.5t-242.5 252.5t-87.5 352q0 146 52 275.5t142 223t217 147.5t271 54q189 0 344 -92.5t242.5 -252t87.5 -351.5q0 -195 -88 -355.5t-245 -253t-349 -92.5zM801 82q162 0 290.5 78.5t198.5 213t70 298.5q0 165 -70 300.5t-198.5 214.5t-290.5 79
t-290.5 -78.5t-198.5 -213t-70 -298.5q0 -165 70 -300.5t198.5 -214.5t290.5 -79z" />
    <glyph glyph-name="P" unicode="P" horiz-adv-x="1189" 
d="M106 0v102h181v1143h-181v103h506q214 0 354 -115t140 -303q0 -195 -132.5 -310.5t-352.5 -115.5q-128 0 -218 4v-406h191v-102h-488zM625 606q168 0 266 86.5t98 235.5q0 148 -104.5 232.5t-263.5 84.5h-218v-635q98 -4 222 -4z" />
    <glyph glyph-name="Q" unicode="Q" horiz-adv-x="1601" 
d="M1364 -285q-66 0 -133.5 23t-108 47.5t-104.5 69t-88 59.5q-88 54 -215 74q-226 37 -361 155q-108 93 -169.5 233t-61.5 296q0 146 52 275.5t142 223t217 147.5t271 54q189 0 344 -92.5t242.5 -252t87.5 -351.5q0 -163 -62 -303t-181 -237t-278 -128q58 -20 134 -71
q93 -61 149.5 -87t122.5 -26q48 0 81 10.5t75 36.5l45 -96q-97 -60 -201 -60zM801 82q162 0 290.5 78.5t198.5 213t70 298.5q0 165 -70 300.5t-198.5 214.5t-290.5 79t-290.5 -78.5t-198.5 -213t-70 -298.5q0 -135 49 -253t137 -200q154 -141 373 -141z" />
    <glyph glyph-name="R" unicode="R" horiz-adv-x="1263" 
d="M106 0v102h181v1143h-181v103h506q218 0 345.5 -105.5t127.5 -277.5q0 -137 -83 -233.5t-222 -137.5l316 -492h166v-102h-246l-359 569q-50 -4 -77 -4q-87 0 -177 4v-467h181v-102h-478zM584 668q171 0 278 77t107 218q0 134 -98 208t-265 74h-203v-573q98 -4 181 -4z
" />
    <glyph glyph-name="S" unicode="S" horiz-adv-x="1120" 
d="M559 -23q-124 0 -226 42.5t-154 102.5t-52 120q0 51 27.5 82.5t66.5 31.5q38 0 63 -24t25 -60q0 -49 -41 -94q36 -41 115.5 -68.5t179.5 -27.5q144 0 226.5 71t82.5 191q0 55 -22 98.5t-67 77.5t-90 57t-115 50q-55 21 -93.5 38t-83.5 40t-75.5 45t-60.5 52t-47.5 62
t-28.5 73.5t-11 88.5q0 154 110 250t292 96q154 0 267.5 -78t113.5 -178q0 -47 -27 -74.5t-66 -27.5q-40 0 -66 26t-26 64q0 43 37 84q-27 34 -99.5 57t-138.5 23q-129 0 -205.5 -65.5t-76.5 -168.5q0 -46 16.5 -84t41 -65.5t69.5 -55t85.5 -46t104.5 -44.5q73 -29 122 -52
t101.5 -57.5t83 -71.5t50.5 -89.5t20 -116.5q0 -169 -121 -272t-307 -103z" />
    <glyph glyph-name="T" unicode="T" horiz-adv-x="1304" 
d="M403 0v102h191v1147h-379v-217h-113v316h1100v-316h-112v217h-379v-1147h190v-102h-498z" />
    <glyph glyph-name="U" unicode="U" horiz-adv-x="1470" 
d="M731 -25q-230 0 -353.5 126t-123.5 352v792h-180v103h477v-103h-184v-782q0 -190 94.5 -285.5t271.5 -95.5q178 0 274.5 95t96.5 282v786h-184v103h477v-103h-180v-784q0 -229 -128 -357.5t-358 -128.5z" />
    <glyph glyph-name="V" unicode="V" horiz-adv-x="1433" 
d="M682 -23l-504 1268h-137v103h420v-103h-158l418 -1079l418 1079h-166v103h420v-103h-138l-503 -1268h-70z" />
    <glyph glyph-name="W" unicode="W" horiz-adv-x="1996" 
d="M592 -25l-389 1270h-162v103h448v-103h-165l311 -1050l340 979h65l342 -977l308 1048h-172v103h446v-103h-162l-383 -1270h-69l-342 973l-346 -973h-70z" />
    <glyph glyph-name="X" unicode="X" horiz-adv-x="1488" 
d="M96 0v102h140l438 586l-410 557h-143v103h426v-99h-150l348 -489l355 489h-158v99h426v-103h-141l-414 -557l440 -586h140v-102h-426v98h153l-377 523l-381 -523h160v-98h-426z" />
    <glyph glyph-name="Y" unicode="Y" horiz-adv-x="1312" 
d="M397 0v102h199v449l-406 694h-147v103h428v-103h-147l333 -594l338 594h-153v103h428v-103h-150l-405 -692v-451h198v-102h-516z" />
    <glyph glyph-name="Z" unicode="Z" horiz-adv-x="1222" 
d="M92 0v49l854 1202h-696v-209h-113v306h979v-50l-854 -1202h756v209h112v-305h-1038z" />
    <glyph glyph-name="bracketleft" unicode="[" horiz-adv-x="698" 
d="M217 -410v1909h440v-102h-327v-1704h327v-103h-440z" />
    <glyph glyph-name="backslash" unicode="\" horiz-adv-x="911" 
d="M883 -424l-840 1897l98 43l840 -1897z" />
    <glyph glyph-name="bracketright" unicode="]" horiz-adv-x="698" 
d="M41 -410v103h328v1704h-328v102h440v-1909h-440z" />
    <glyph glyph-name="asciicircum" unicode="^" horiz-adv-x="901" 
d="M207 764l-51 61l295 275l294 -275l-51 -61l-243 186z" />
    <glyph glyph-name="underscore" unicode="_" horiz-adv-x="1054" 
d="M-10 -287v107h1075v-107h-1075z" />
    <glyph glyph-name="grave" unicode="`" horiz-adv-x="1024" 
d="M604 1042l-311 156q-32 17 -52 39t-20 41q0 36 22 58t52 22q34 0 78 -41l256 -236z" />
    <glyph glyph-name="a" unicode="a" horiz-adv-x="993" 
d="M389 -16q-129 0 -209 70.5t-80 178.5q0 116 92.5 188.5t233.5 72.5q64 0 145 -17t117 -33v144q0 76 -41 123q-64 71 -196 71q-91 0 -156 -45q14 -28 14 -55q0 -33 -21.5 -55.5t-56.5 -22.5q-36 0 -57.5 23.5t-21.5 58.5q0 76 85.5 133.5t225.5 57.5q173 0 262 -95
q63 -66 63 -170v-518h144v-94h-240v117q-57 -58 -138 -95.5t-165 -37.5zM410 76q156 0 278 141v145q-134 44 -258 44q-109 0 -167 -46.5t-58 -119.5q0 -72 53.5 -118t151.5 -46z" />
    <glyph glyph-name="b" unicode="b" horiz-adv-x="1112" 
d="M567 -16q-82 0 -159.5 29t-133.5 79l-41 -92h-59v1405h-143v94h248v-760q67 67 138 102.5t175 35.5q172 0 295 -126t123 -323q0 -188 -124 -316t-319 -128zM571 78q141 0 234.5 98t93.5 252q0 156 -89.5 255t-229.5 99q-170 0 -301 -145v-453q130 -106 292 -106z" />
    <glyph glyph-name="c" unicode="c" horiz-adv-x="944" 
d="M543 -16q-192 0 -320.5 127.5t-128.5 312.5t126 319t300 134q133 0 233.5 -74t100.5 -170q0 -41 -27.5 -72t-68.5 -31q-29 0 -51.5 19.5t-22.5 58.5q0 46 49 70q-19 48 -81.5 76t-131.5 28q-54 0 -109 -23.5t-101.5 -66.5t-75.5 -114t-29 -156q0 -150 96.5 -246
t255.5 -96q139 0 279 96l-11 -106q-58 -42 -137 -64t-145 -22z" />
    <glyph glyph-name="d" unicode="d" horiz-adv-x="1116" 
d="M512 -16q-174 0 -294 122.5t-120 317.5q0 91 30.5 173t85 144.5t137 99t181.5 36.5q164 0 281 -111v639h-178v94h283v-1405h143v-94h-244v133q-126 -149 -305 -149zM518 78q164 0 295 145v449q-126 110 -285 110q-142 0 -229.5 -101.5t-89.5 -254.5q-1 -153 86 -250.5
t223 -97.5z" />
    <glyph glyph-name="e" unicode="e" horiz-adv-x="978" 
d="M883 406h-682q12 -160 104 -243t250 -83q82 0 145.5 22.5t151.5 73.5l-10 -106q-133 -86 -301 -86q-203 0 -327 124t-124 320q0 89 29 170t81 143t131.5 99t174.5 37q119 0 208 -58t132 -148.5t43 -197.5q0 -40 -6 -67zM496 782q-114 0 -196 -77.5t-97 -206.5h579
q-9 131 -82 207.5t-204 76.5z" />
    <glyph glyph-name="f" unicode="f" horiz-adv-x="628" 
d="M569 1333q-73 0 -94 84q-50 -7 -78 -41q-51 -57 -51 -182v-334h223v-94h-223v-672h168v-94h-416v94h144v672h-156v94h156v301q0 199 82 281q74 74 178 74q64 0 103.5 -27t39.5 -76q0 -35 -21.5 -57.5t-54.5 -22.5z" />
    <glyph glyph-name="g" unicode="g" horiz-adv-x="1136" 
d="M926 766v-807q0 -155 -78 -246q-104 -123 -332 -123q-92 0 -162 24t-108 62q-43 43 -43 95q0 42 26 69t66 27q31 0 50.5 -22t19.5 -54q0 -31 -25 -67q18 -14 68.5 -26.5t119.5 -12.5q163 0 238 90q55 68 55 174v188q-130 -137 -305 -137q-174 0 -296 123.5t-122 308.5
q0 114 52 214.5t154 165.5t233 65q168 0 288 -117v100h244v-94h-143zM532 782q-142 0 -232.5 -102t-90.5 -246q0 -146 88.5 -243t224.5 -97q167 0 299 146v432q-126 110 -289 110z" />
    <glyph glyph-name="h" unicode="h" horiz-adv-x="1130" 
d="M211 1405h-143v94h247v-805q66 82 153.5 132.5t176.5 50.5q150 0 223 -93q58 -76 58 -200v-490h143v-94h-391v94h143v475q0 98 -43 150q-47 59 -151 59q-168 0 -312 -176v-508h144v-94h-391v94h143v1311z" />
    <glyph glyph-name="i" unicode="i" horiz-adv-x="579" 
d="M285 1122q-40 0 -68.5 29.5t-28.5 69.5t28.5 69t68.5 29q38 0 66 -29t28 -69t-28 -69.5t-66 -29.5zM98 0v94h152v672h-152v94h256v-766h154v-94h-410z" />
    <glyph glyph-name="j" unicode="j" horiz-adv-x="495" 
d="M-109 -289q0 33 21.5 58.5t56.5 25.5q32 0 52 -21t20 -53q0 -21 -8 -40q15 -5 35 -5q97 0 135 134q22 77 22 196v760h-166v94h271v-837q0 -144 -33 -248q-62 -185 -236 -185q-77 0 -123.5 34.5t-46.5 86.5zM260 1122q-39 0 -67.5 29.5t-28.5 69.5t28 69t68 29
q38 0 66 -29t28 -69t-28 -69.5t-66 -29.5z" />
    <glyph glyph-name="k" unicode="k" horiz-adv-x="1046" 
d="M68 0v94h143v1311h-143v94h247v-1085l410 356h-190v90h477v-94h-150l-305 -262l289 -410h166v-94h-224l-307 449l-166 -142v-213h154v-94h-401z" />
    <glyph glyph-name="l" unicode="l" horiz-adv-x="555" 
d="M74 0v94h151v1311h-151v94h256v-1405h153v-94h-409z" />
    <glyph glyph-name="m" unicode="m" horiz-adv-x="1697" 
d="M92 0v94h144v672h-144v94h244v-170q62 81 148.5 134t174.5 53q162 0 220 -107q16 -30 26 -76q79 83 164 133t166 50q173 0 229 -125q29 -68 29 -168v-490h143v-94h-391v94h144v475q0 74 -19 123q-36 86 -151 86q-82 0 -153 -44t-148 -128v-512h141v-94h-391v94h145v475
q0 77 -18 123q-36 86 -152 86q-85 0 -158 -47t-145 -129v-508h143v-94h-391z" />
    <glyph glyph-name="n" unicode="n" horiz-adv-x="1144" 
d="M336 860v-170q63 80 154 133.5t178 53.5q166 0 231 -111q41 -69 41 -182v-490h143v-94h-391v94h144v475q0 78 -23 125q-43 84 -162 84q-167 0 -311 -176v-508h143v-94h-391v94h144v672h-144v94h244z" />
    <glyph glyph-name="o" unicode="o" horiz-adv-x="1069" 
d="M535 -16q-192 0 -314.5 128.5t-122.5 317.5t122.5 318t314.5 129t314 -129t122 -318t-122 -317.5t-314 -128.5zM535 78q144 0 234.5 98t90.5 254q0 154 -90.5 253t-234.5 99t-235 -99t-91 -253q0 -155 90.5 -253.5t235.5 -98.5z" />
    <glyph glyph-name="p" unicode="p" horiz-adv-x="1132" 
d="M68 -401v94h143v1073h-143v94h243v-133q127 150 305 150q174 0 294 -123t120 -318q0 -122 -51 -224t-151.5 -165t-231.5 -63q-77 0 -151 28t-130 78v-397h179v-94h-426zM600 78q142 0 230 101.5t90 254.5q1 153 -86.5 250.5t-223.5 97.5q-164 0 -295 -145v-453
q122 -106 285 -106z" />
    <glyph glyph-name="q" unicode="q" horiz-adv-x="1087" 
d="M651 -401v94h178v428q-67 -67 -138 -102t-175 -35q-172 0 -295 125.5t-123 322.5q0 188 124 316.5t319 128.5q82 0 159 -29.5t134 -79.5l40 92h60v-1167h143v-94h-426zM528 78q170 0 301 145v453q-130 106 -292 106q-141 0 -234.5 -98t-93.5 -252q0 -156 89.5 -255
t229.5 -99z" />
    <glyph glyph-name="r" unicode="r" horiz-adv-x="727" 
d="M592 877q54 0 85.5 -29t31.5 -70q0 -36 -24.5 -62t-59.5 -26q-32 0 -58 20.5t-35 49.5q-50 -13 -103.5 -67.5t-88.5 -123.5v-475h168v-94h-416v94h144v672h-144v94h244v-194q46 89 119.5 150t136.5 61z" />
    <glyph glyph-name="s" unicode="s" horiz-adv-x="876" 
d="M741 698q0 -37 -20.5 -59.5t-52.5 -22.5q-34 0 -58 22.5t-24 57.5q0 33 14 54q-52 36 -166 36q-94 0 -151.5 -43t-57.5 -100q0 -25 11.5 -45t28.5 -33.5t51.5 -27t64 -22t82.5 -21.5q58 -14 95 -25.5t83.5 -33t73.5 -47t46 -65.5t19 -90q0 -113 -97.5 -181t-238.5 -68
q-93 0 -175 26t-126 70q-47 47 -47 104q0 35 21.5 59.5t54.5 24.5q37 0 58.5 -21.5t21.5 -53.5q0 -28 -19 -60q21 -23 78 -41t131 -18q102 0 169 42t67 111q0 27 -12 49.5t-30 37.5t-49 28.5t-59 22t-69 18.5q-69 17 -111.5 29.5t-90.5 33.5t-74.5 45.5t-44 62t-17.5 85.5
q0 99 88.5 168.5t226.5 69.5q88 0 156 -23t106 -61q43 -43 43 -95z" />
    <glyph glyph-name="t" unicode="t" horiz-adv-x="649" 
d="M385 -16q-125 0 -170 94q-20 41 -20 110v578h-156v94h156v223l104 37v-260h266v-94h-266v-567q0 -43 12 -70q23 -45 107 -45q68 0 157 55l-16 -108q-92 -47 -174 -47z" />
    <glyph glyph-name="u" unicode="u" horiz-adv-x="1120" 
d="M477 -16q-168 0 -233 114q-39 71 -39 178v490h-144v94h248v-569q0 -73 27 -129q42 -80 158 -80q150 0 311 176v508h-143v94h247v-766h144v-94h-244v170q-63 -80 -154 -133t-178 -53z" />
    <glyph glyph-name="v" unicode="v" horiz-adv-x="1054" 
d="M508 -35l-373 801h-119v94h381v-94h-143l276 -625l277 625h-150v94h381v-94h-118l-373 -801h-39z" />
    <glyph glyph-name="w" unicode="w" horiz-adv-x="1396" 
d="M391 -37l-248 803h-127v94h377v-90h-143l174 -602l256 592h41l256 -590l174 600h-147v90h376v-94h-129l-245 -803h-41l-267 615l-266 -615h-41z" />
    <glyph glyph-name="x" unicode="x" horiz-adv-x="1001" 
d="M49 0v94h117l278 344l-258 328h-127v94h351v-88h-111l203 -274l205 274h-115v88h350v-94h-127l-258 -324l277 -348h118v-94h-360v88h129l-221 295l-226 -295h136v-88h-361z" />
    <glyph glyph-name="y" unicode="y" horiz-adv-x="1032" 
d="M414 -250q-52 -80 -104.5 -120t-114.5 -40q-54 0 -94 28t-40 75q0 35 21.5 57.5t54.5 22.5t57.5 -24.5t32.5 -57.5q60 23 119 119q27 44 78 147l45 94l-332 715h-123v94h381v-94h-139q17 -38 44.5 -100t85.5 -193.5t96.5 -219t37.5 -87.5l268 600h-145v94h375v-94h-123
l-410 -883q-46 -95 -71 -133z" />
    <glyph glyph-name="z" unicode="z" horiz-adv-x="909" 
d="M82 0v33l567 737h-434v-172h-96v262h702v-33l-567 -737h479v172h96v-262h-747z" />
    <glyph glyph-name="braceleft" unicode="{" horiz-adv-x="671" 
d="M559 -444q-198 4 -314 90.5t-116 222.5q0 39 9 71t33 66.5t46 59.5t68 73q49 51 74.5 90t25.5 80q0 83 -76 133t-180 50h-29v98h29q104 0 180 49.5t76 132.5q0 41 -25.5 80t-74.5 90q-46 48 -68 73t-46 59.5t-33 66.5t-9 71q0 136 116 223t314 91v-88q-161 -7 -241 -73.5
t-80 -152.5q0 -45 31.5 -91.5t95.5 -116.5q63 -68 96 -120.5t33 -109.5q0 -31 -11 -62.5t-36 -65t-73.5 -62t-115.5 -43.5q67 -15 115.5 -43.5t73.5 -62.5t36 -65.5t11 -62.5q0 -39 -20.5 -82t-44 -72.5t-64.5 -74.5q-64 -69 -95.5 -116.5t-31.5 -92.5q0 -85 80 -151.5
t241 -73.5v-88z" />
    <glyph glyph-name="bar" unicode="|" horiz-adv-x="540" 
d="M221 -410v1909h98v-1909h-98z" />
    <glyph glyph-name="braceright" unicode="}" horiz-adv-x="671" 
d="M113 -444v88q161 7 241 73.5t80 151.5q0 45 -31.5 92.5t-95.5 116.5q-41 45 -64.5 74.5t-44 72.5t-20.5 82q0 31 11 62.5t36 65.5t73.5 62.5t115.5 43.5q-67 15 -115.5 43.5t-73.5 62t-36 65t-11 62.5q0 57 33 109.5t96 120.5q64 70 95.5 116.5t31.5 91.5q0 86 -80 152.5
t-241 73.5v88q198 -4 314 -91t116 -223q0 -39 -9 -71t-33 -66.5t-46 -59.5t-68 -73q-49 -51 -74.5 -90t-25.5 -80q0 -83 76 -132.5t180 -49.5h28v-98h-28q-104 0 -180 -50t-76 -133q0 -41 25.5 -80t74.5 -90q46 -48 68 -73t46 -59.5t33 -66.5t9 -71q0 -136 -116 -222.5
t-314 -90.5z" />
    <glyph glyph-name="asciitilde" unicode="~" horiz-adv-x="860" 
d="M569 397q-54 0 -93.5 21t-84.5 61q-35 30 -55 41.5t-41 11.5q-36 0 -59 -31.5t-31 -84.5l-92 20q4 86 57.5 146.5t120.5 60.5q54 0 93.5 -21t84.5 -61q35 -30 55 -41.5t41 -11.5q36 0 59 32t31 85l93 -21q-4 -86 -58 -146.5t-121 -60.5z" />
    <glyph glyph-name="uni00A0" unicode="&#xa0;" horiz-adv-x="471" 
 />
    <glyph glyph-name="exclamdown" unicode="&#xa1;" horiz-adv-x="499" 
d="M250 1151q-42 0 -72.5 31.5t-30.5 74.5t30 74t73 31q42 0 72 -31t30 -74t-30 -74.5t-72 -31.5zM180 0l41 989h58l40 -989h-139z" />
    <glyph glyph-name="cent" unicode="&#xa2;" horiz-adv-x="985" 
d="M895 713q0 -37 -28 -70t-68 -33q-29 0 -51.5 19.5t-22.5 58.5q0 13 13.5 36t35.5 34q-17 37 -66.5 64t-109.5 36l-61 -696q16 -2 51 -2q149 0 289 96l-11 -106q-58 -42 -136.5 -63t-145.5 -21q-38 0 -56 2l-24 -283l-90 8l24 291q-153 43 -248.5 161t-95.5 265
q0 172 124 302.5t296 141.5l21 220l90 -9l-19 -213q119 -19 204 -88.5t85 -150.5zM205 508q0 -120 63.5 -207.5t177.5 -122.5l60 684q-55 -7 -107 -33.5t-96 -69.5t-71 -108.5t-27 -142.5z" />
    <glyph glyph-name="sterling" unicode="&#xa3;" horiz-adv-x="917" 
d="M690 258h-338q0 -7 1 -22.5t1 -22.5q0 -164 -112 -276q88 -8 211 -48q115 -41 204 -41q65 0 101.5 24.5t68.5 84.5l82 -47q-42 -81 -101.5 -120.5t-145.5 -39.5q-113 0 -246 53q-100 41 -185 41q-33 0 -47 -2q-34 -44 -77 -68t-80 -24q-33 0 -55.5 17.5t-22.5 42.5
q0 47 48.5 82t141.5 45q119 119 119 276q0 31 -2 45h-201v90h181l-21 70q-43 146 -43 250q0 154 99 264t259 110q126 0 219 -61.5t93 -140.5q0 -51 -25 -79t-59 -28t-55 22t-21 56q0 23 10.5 43t22.5 29q-53 67 -187 67q-115 0 -185.5 -82.5t-70.5 -199.5q0 -103 41 -238
l25 -82h352v-90z" />
    <glyph glyph-name="yen" unicode="&#xa5;" horiz-adv-x="985" 
d="M164 469v88h229l-237 375h-117v94h336v-94h-111l230 -371l225 371h-113v94h336v-94h-119l-239 -375h233v-88h-280v-137h280v-88h-280v-154h157v-90h-405v90h157v154h-282v88h282v137h-282z" />
    <glyph glyph-name="section" unicode="&#xa7;" horiz-adv-x="923" 
d="M479 1040q115 0 200 -46t85 -115q0 -35 -19.5 -58.5t-52.5 -23.5q-35 0 -55.5 22t-20.5 58q0 15 7 36q-18 14 -62 26.5t-82 12.5q-85 0 -131.5 -29t-46.5 -73q0 -42 46 -70t167 -61q139 -35 210 -83.5t71 -127.5q0 -117 -162 -176q108 -56 108 -156q0 -80 -81 -139.5
t-214 -59.5q-116 0 -201 46.5t-85 115.5q0 34 19 57t52 23q35 0 56.5 -21.5t21.5 -56.5q0 -21 -8 -37q18 -17 60 -27.5t83 -10.5q85 0 132 29t47 71q0 44 -45 71t-168 60q-140 37 -210.5 84t-70.5 123q0 62 45 108.5t117 71.5q-109 54 -109 158q0 77 81.5 137.5t215.5 60.5z
M465 387l70 -18q141 48 141 125q0 49 -46 77.5t-171 59.5l-72 18q-61 -22 -100 -54.5t-39 -70.5q0 -49 46 -78.5t171 -58.5z" />
    <glyph glyph-name="dieresis" unicode="&#xa8;" horiz-adv-x="1024" 
d="M676 1075q-42 0 -71.5 31t-29.5 74t29.5 73.5t71.5 30.5t71 -30.5t29 -73.5t-29 -74t-71 -31zM348 1075q-42 0 -71 31t-29 74t29 73.5t71 30.5t71.5 -30.5t29.5 -73.5t-29.5 -74t-71.5 -31z" />
    <glyph glyph-name="copyright" unicode="&#xa9;" horiz-adv-x="1224" 
d="M612 -16q-146 0 -264.5 70.5t-184 191.5t-65.5 266t65.5 266.5t184 192.5t264.5 71t264.5 -71t184 -192.5t65.5 -266.5t-65.5 -266t-184 -191.5t-264.5 -70.5zM612 49q188 0 313.5 135.5t125.5 329.5t-125.5 329.5t-313.5 135.5t-313 -135.5t-125 -329.5t125 -329.5
t313 -135.5zM629 729q-79 0 -134 -60.5t-55 -144.5q0 -86 56 -146.5t143 -60.5t158 68l43 -51q-75 -84 -203 -84q-121 0 -198 77t-77 193q0 119 80.5 197t186.5 78q89 0 145.5 -41t56.5 -86q0 -24 -14 -41t-35 -17q-20 0 -33.5 13.5t-13.5 33.5q0 21 10 31q-29 41 -116 41z
" />
    <glyph glyph-name="ordfeminine" unicode="&#xaa;" horiz-adv-x="694" 
d="M254 840q-75 0 -122.5 40.5t-47.5 106.5q0 70 55 113t142 43q81 0 149 -25v74q0 58 -39 86q-36 25 -96 25q-54 0 -82 -21q6 -12 6 -31q0 -22 -14 -36.5t-37 -14.5q-24 0 -38.5 14.5t-14.5 38.5q0 48 51.5 83.5t138.5 35.5q79 0 133 -33q70 -45 70 -135v-286h82v-68h-158
v65q-79 -75 -178 -75zM102 625v75h488v-75h-488zM274 905q86 0 156 74v86q-74 20 -141 20q-60 0 -92.5 -25.5t-32.5 -66.5q0 -39 28.5 -63.5t81.5 -24.5z" />
    <glyph glyph-name="guillemotleft" unicode="&#xab;" horiz-adv-x="919" 
d="M741 233l-327 324l327 324l68 -64l-256 -260l256 -260zM395 233l-327 324l327 324l68 -64l-256 -260l256 -260z" />
    <glyph glyph-name="registered" unicode="&#xae;" horiz-adv-x="790" 
d="M395 688q-153 0 -258.5 106t-105.5 259q0 154 105 260t259 106q153 0 259 -106.5t106 -259.5q0 -151 -107 -258t-258 -107zM395 1358q-125 0 -210 -88t-85 -217q0 -128 85.5 -215.5t209.5 -87.5q122 0 208.5 88.5t86.5 214.5q0 129 -85 217t-210 88zM254 883v53h41v248
h-41v53h139q62 0 100.5 -28t38.5 -79q0 -33 -18.5 -58.5t-48.5 -37.5l55 -98h41v-53h-82l-73 135h-52v-82h47v-53h-147zM354 1069h37q37 0 58.5 15t21.5 44q0 56 -80 56h-37v-115z" />
    <glyph glyph-name="macron" unicode="&#xaf;" horiz-adv-x="1024" 
d="M215 1106v106h594v-106h-594z" />
    <glyph glyph-name="degree" unicode="&#xb0;" horiz-adv-x="614" 
d="M307 854q-113 0 -185.5 76t-72.5 184t72.5 184t185.5 76q111 0 181.5 -75.5t70.5 -184.5q0 -108 -71 -184t-181 -76zM307 926q74 0 122 54t48 134t-48 134.5t-122 54.5q-77 0 -125.5 -54t-48.5 -135t48.5 -134.5t125.5 -53.5z" />
    <glyph glyph-name="plusminus" unicode="&#xb1;" horiz-adv-x="806" 
d="M352 293v278h-276v99h276v278h103v-278h276v-99h-276v-278h-103zM76 37v98h655v-98h-655z" />
    <glyph glyph-name="two.sup" unicode="&#xb2;" horiz-adv-x="722" 
d="M125 883l-25 41q17 56 46 104t68 88t71 66.5t77 58.5q76 54 111 94.5t35 96.5q0 55 -44.5 92t-105.5 37q-58 0 -97.5 -22.5t-45.5 -43.5q15 -6 25 -21.5t10 -33.5q0 -25 -18 -43.5t-44 -18.5q-32 0 -49.5 22.5t-17.5 59.5q0 68 67 123t174 55q99 0 169.5 -58t70.5 -148
q0 -43 -13 -77.5t-43 -66.5t-55.5 -52t-74.5 -54q-165 -112 -207 -224h326v117h79v-192h-489z" />
    <glyph glyph-name="three.sup" unicode="&#xb3;" horiz-adv-x="722" 
d="M350 870q-101 0 -178.5 47.5t-77.5 114.5q0 31 20 52.5t48 21.5q27 0 43 -17.5t16 -44.5q0 -31 -24 -45q14 -16 56 -34.5t97 -18.5q76 0 126 40t50 97q0 65 -56 104.5t-155 39.5h-45v80h49q82 0 136.5 38t54.5 97q0 55 -44.5 86t-113.5 31q-49 0 -84 -14t-49 -32
q25 -17 25 -45q0 -25 -16.5 -42t-41.5 -17q-27 0 -47 20.5t-20 53.5q0 56 64 103.5t173 47.5q106 0 175 -54.5t69 -133.5q0 -63 -51.5 -112.5t-122.5 -63.5q78 -14 135 -68t57 -121q0 -92 -76 -151.5t-192 -59.5z" />
    <glyph glyph-name="acute" unicode="&#xb4;" horiz-adv-x="1024" 
d="M420 1042l-25 39l256 236q44 41 78 41q30 0 52 -22t22 -58q0 -19 -20 -41t-52 -39z" />
    <glyph glyph-name="paragraph" unicode="&#xb6;" horiz-adv-x="1150" 
d="M432 0v90h164v305q-35 -2 -164 -2q-159 0 -260.5 87.5t-101.5 234.5q0 136 105 223.5t263 87.5h625v-94h-156v-838h156v-94h-631zM692 90h119v846h-119v-846z" />
    <glyph glyph-name="periodcentered" unicode="&#xb7;" horiz-adv-x="540" 
d="M270 401q-45 0 -75.5 32.5t-30.5 78.5t30.5 78.5t75.5 32.5t76 -32.5t31 -78.5t-31 -78.5t-76 -32.5z" />
    <glyph glyph-name="cedilla" unicode="&#xb8;" horiz-adv-x="1024" 
d="M559 -408q-114 0 -217 54l29 65q35 -16 87 -27.5t91 -11.5q41 0 65.5 17.5t24.5 46.5q0 32 -27.5 49.5t-74.5 17.5q-27 0 -45 -6l-35 25l61 223l62 -12l-17 -135q89 -1 134.5 -44t45.5 -108q0 -67 -48 -110.5t-136 -43.5z" />
    <glyph glyph-name="one.sup" unicode="&#xb9;" horiz-adv-x="722" 
d="M135 883v80h199v567l-191 -45l-18 80l254 63h43v-665h196v-80h-483z" />
    <glyph glyph-name="ordmasculine" unicode="&#xba;" horiz-adv-x="720" 
d="M127 625v75h467v-75h-467zM362 838q-117 0 -191.5 78t-74.5 190t74.5 190t191.5 78q116 0 189.5 -77.5t73.5 -190.5q0 -112 -73.5 -190t-189.5 -78zM362 907q79 0 129 56t50 143t-50 143t-129 56q-81 0 -131.5 -56t-50.5 -143t50.5 -143t131.5 -56z" />
    <glyph glyph-name="guillemotright" unicode="&#xbb;" horiz-adv-x="919" 
d="M524 233l-67 64l256 260l-256 260l67 64l328 -324zM178 233l-67 64l256 260l-256 260l67 64l328 -324z" />
    <glyph glyph-name="onequarter" unicode="&#xbc;" horiz-adv-x="1628" 
d="M1171 -2v76h138v141h-346l-19 39l389 506l66 -51l-328 -420h238v153l84 35v-188h123v-74h-123v-141h98v-76h-320zM492 -25l-68 41l401 662l396 649l67 -41l-395 -649zM111 575v80h198v568l-190 -45l-19 79l254 64h43v-666h197v-80h-483z" />
    <glyph glyph-name="onehalf" unicode="&#xbd;" horiz-adv-x="1628" 
d="M1028 -2l-24 41q17 56 46 104t68 88t71 66.5t77 58.5q76 54 110.5 94.5t34.5 96.5q0 55 -44 92t-105 37q-58 0 -98 -22.5t-46 -43.5q15 -6 25 -21.5t10 -33.5q0 -25 -17.5 -43t-43.5 -18q-32 0 -50 22t-18 59q0 68 67.5 123.5t174.5 55.5q99 0 169 -58.5t70 -148.5
q0 -43 -13 -77.5t-43 -66.5t-55.5 -52t-74.5 -54q-165 -112 -207 -223h326v116h80v-192h-490zM471 -25l-68 41l402 662l395 649l68 -41l-396 -649zM109 575v80h198v568l-190 -45l-19 79l254 64h43v-666h197v-80h-483z" />
    <glyph glyph-name="threequarters" unicode="&#xbe;" horiz-adv-x="1628" 
d="M381 563q-101 0 -178.5 47.5t-77.5 114.5q0 31 20 52.5t48 21.5q27 0 43 -17.5t16 -44.5q0 -31 -25 -45q14 -16 56.5 -34.5t97.5 -18.5q76 0 126 40t50 97q0 65 -56 104.5t-155 39.5h-45v79h49q82 0 136.5 38t54.5 98q0 55 -44.5 85.5t-113.5 30.5q-49 0 -84 -13.5
t-49 -31.5q24 -16 24 -45q0 -25 -16 -42t-41 -17q-27 0 -47 20.5t-20 53.5q0 56 64 103.5t173 47.5q106 0 175 -54.5t69 -133.5q0 -63 -51.5 -112.5t-122.5 -63.5q78 -14 135 -68t57 -121q0 -92 -76 -151.5t-192 -59.5zM1165 -2v76h138v141h-347l-18 39l389 506l66 -51
l-328 -420h238v153l83 35v-188h123v-74h-123v-141h99v-76h-320zM496 -25l-68 41l401 662l396 649l67 -41l-395 -649z" />
    <glyph glyph-name="questiondown" unicode="&#xbf;" horiz-adv-x="874" 
d="M834 256q0 -71 -50 -137q-49 -65 -135 -104.5t-188 -39.5q-185 0 -295.5 100.5t-110.5 254.5q0 135 102.5 245t272.5 154l23 262h55l29 -329q-178 -38 -274.5 -123.5t-96.5 -204.5q0 -120 78.5 -189t214.5 -69q81 0 143.5 25.5t95.5 70.5q12 15 19 33q-35 7 -55.5 31
t-20.5 55q0 35 25.5 60.5t60.5 25.5q42 0 74.5 -34.5t32.5 -86.5zM477 1364q43 0 73 -30.5t30 -73.5t-30.5 -75t-72.5 -32t-72 32t-30 75t29.5 73.5t72.5 30.5z" />
    <glyph glyph-name="Agrave" unicode="&#xc0;" horiz-adv-x="1454" 
d="M41 0v102h135l432 1143h-155v103h548v-103h-155l432 -1143h135v-102h-420v102h158l-141 381h-572l-141 -381h164v-102h-420zM475 584h498l-248 671zM803 1473l-311 155q-32 17 -52 39t-20 41q0 36 22 58t52 22q33 0 77 -41l256 -236z" />
    <glyph glyph-name="Aacute" unicode="&#xc1;" horiz-adv-x="1454" 
d="M41 0v102h135l432 1143h-155v103h548v-103h-155l432 -1143h135v-102h-420v102h158l-141 381h-572l-141 -381h164v-102h-420zM475 584h498l-248 671zM651 1473l-24 38l256 236q44 41 78 41q29 0 51 -22t22 -58q0 -19 -19.5 -41t-51.5 -39z" />
    <glyph glyph-name="Acircumflex" unicode="&#xc2;" horiz-adv-x="1454" 
d="M41 0v102h135l432 1143h-155v103h548v-103h-155l432 -1143h135v-102h-420v102h158l-141 381h-572l-141 -381h164v-102h-420zM475 584h498l-248 671zM483 1460l-51 62l295 274l295 -274l-51 -62l-244 187z" />
    <glyph glyph-name="Atilde" unicode="&#xc3;" horiz-adv-x="1454" 
d="M41 0v102h135l432 1143h-155v103h548v-103h-155l432 -1143h135v-102h-420v102h158l-141 381h-572l-141 -381h164v-102h-420zM475 584h498l-248 671zM872 1475q-54 0 -94 20.5t-86 58.5q-36 30 -55.5 41t-40.5 11q-36 0 -59 -33t-29 -86l-92 18q3 87 55 149t119 62
q54 0 93.5 -20.5t86.5 -59.5q35 -29 55 -40t41 -11q36 0 59 33t29 86l93 -18q-3 -87 -55.5 -149t-119.5 -62z" />
    <glyph glyph-name="Adieresis" unicode="&#xc4;" horiz-adv-x="1454" 
d="M41 0v102h135l432 1143h-155v103h548v-103h-155l432 -1143h135v-102h-420v102h158l-141 381h-572l-141 -381h164v-102h-420zM475 584h498l-248 671zM891 1505q-42 0 -71 31t-29 74t29 73.5t71 30.5t71 -30.5t29 -73.5t-29 -74t-71 -31zM563 1505q-42 0 -71 31t-29 74
t29 73.5t71 30.5t71.5 -30.5t29.5 -73.5t-29.5 -74t-71.5 -31z" />
    <glyph glyph-name="Aring" unicode="&#xc5;" horiz-adv-x="1454" 
d="M928 1495q0 -88 -68 -147h141v-103h-155l432 -1143h135v-102h-420v102h158l-141 381h-572l-141 -381h164v-102h-420v102h135l432 1143h-155v103h135q-66 63 -66 147q0 79 59.5 139t143.5 60t143.5 -60t59.5 -139zM475 584h498l-248 671zM725 1360q51 0 84 36t33 89
t-33 89t-84 36t-84 -36t-33 -89t33 -89t84 -36z" />
    <glyph glyph-name="AE" unicode="&#xc6;" horiz-adv-x="1792" 
d="M-16 0v102h157l572 1143h-140v103h1078v-306h-113v203h-557v-506h457v-102h-457v-535h557v203h113v-305h-946v102h159v381h-418l-190 -381h147v-102h-419zM496 584h368v661h-37z" />
    <glyph glyph-name="Ccedilla" unicode="&#xc7;" horiz-adv-x="1437" 
d="M799 -408q-114 0 -217 54l28 65q35 -16 87 -27.5t91 -11.5q41 0 66 17.5t25 46.5q0 32 -28 49.5t-75 17.5q-27 0 -45 -6l-35 25l43 155q-138 12 -255.5 75t-195.5 158t-121.5 213t-43.5 241q0 154 56 288t149.5 225t215.5 143t253 52q98 0 190.5 -30t158.5 -77.5
t106 -108t40 -120.5q0 -50 -30 -83t-76 -33q-38 0 -65 27t-27 65q0 33 20 57.5t47 30.5q-33 62 -131.5 115t-232.5 53q-120 0 -224.5 -50t-176.5 -133.5t-113 -192.5t-41 -226q0 -111 42 -217t114.5 -187.5t179 -131.5t227.5 -50q237 0 430 172l63 -84
q-98 -94 -226.5 -142.5t-260.5 -50.5l-8 -77q89 -1 134.5 -44t45.5 -108q0 -67 -48 -110.5t-136 -43.5z" />
    <glyph glyph-name="Egrave" unicode="&#xc8;" horiz-adv-x="1214" 
d="M106 0v102h181v1143h-181v103h967v-306h-112v203h-558v-506h457v-102h-457v-535h558v203h112v-305h-967zM666 1473l-312 155q-32 17 -51.5 39t-19.5 41q0 36 21.5 58t51.5 22q34 0 78 -41l256 -236z" />
    <glyph glyph-name="Eacute" unicode="&#xc9;" horiz-adv-x="1214" 
d="M106 0v102h181v1143h-181v103h967v-306h-112v203h-558v-506h457v-102h-457v-535h558v203h112v-305h-967zM514 1473l-25 38l256 236q44 41 78 41q30 0 52 -22t22 -58q0 -19 -20 -41t-52 -39z" />
    <glyph glyph-name="Ecircumflex" unicode="&#xca;" horiz-adv-x="1214" 
d="M106 0v102h181v1143h-181v103h967v-306h-112v203h-558v-506h457v-102h-457v-535h558v203h112v-305h-967zM346 1460l-51 62l295 274l295 -274l-51 -62l-244 187z" />
    <glyph glyph-name="Edieresis" unicode="&#xcb;" horiz-adv-x="1214" 
d="M106 0v102h181v1143h-181v103h967v-306h-112v203h-558v-506h457v-102h-457v-535h558v203h112v-305h-967zM754 1505q-42 0 -71.5 31t-29.5 74t29.5 73.5t71.5 30.5t71 -30.5t29 -73.5t-29 -74t-71 -31zM426 1505q-42 0 -71 31t-29 74t29 73.5t71 30.5t71 -30.5t29 -73.5
t-29 -74t-71 -31z" />
    <glyph glyph-name="Igrave" unicode="&#xcc;" horiz-adv-x="714" 
d="M109 0v102h190v1143h-190v103h497v-103h-190v-1143h190v-102h-497zM432 1473l-311 155q-32 17 -52 39t-20 41q0 36 22 58t52 22q34 0 78 -41l256 -236z" />
    <glyph glyph-name="Iacute" unicode="&#xcd;" horiz-adv-x="714" 
d="M109 0v102h190v1143h-190v103h497v-103h-190v-1143h190v-102h-497zM281 1473l-25 38l256 236q44 41 78 41q30 0 52 -22t22 -58q0 -19 -20 -41t-52 -39z" />
    <glyph glyph-name="Icircumflex" unicode="&#xce;" horiz-adv-x="714" 
d="M109 0v102h190v1143h-190v103h497v-103h-190v-1143h190v-102h-497zM113 1460l-52 62l295 274l295 -274l-51 -62l-244 187z" />
    <glyph glyph-name="Idieresis" unicode="&#xcf;" horiz-adv-x="714" 
d="M109 0v102h190v1143h-190v103h497v-103h-190v-1143h190v-102h-497zM520 1505q-42 0 -71 31t-29 74t29 73.5t71 30.5t71.5 -30.5t29.5 -73.5t-29.5 -74t-71.5 -31zM193 1505q-42 0 -71.5 31t-29.5 74t29.5 73.5t71.5 30.5t71 -30.5t29 -73.5t-29 -74t-71 -31z" />
    <glyph glyph-name="Eth" unicode="&#xd0;" horiz-adv-x="1515" 
d="M297 639h-139v102h139v504h-180v103h501q229 0 405 -81.5t273 -232t97 -346.5q0 -150 -53.5 -277t-151.5 -218t-243 -142t-322 -51h-506v102h180v537zM414 102h219q312 0 476.5 161t164.5 429q0 252 -178.5 402.5t-479.5 150.5h-202v-504h317v-102h-317v-537z" />
    <glyph glyph-name="Ntilde" unicode="&#xd1;" horiz-adv-x="1583" 
d="M1264 -6l-867 1155v-1047h181v-102h-472v102h181v1143h-181v103h283l830 -1108v1005h-181v103h465v-103h-174v-1251h-65zM934 1475q-54 0 -94 20.5t-86 58.5q-36 29 -56 40.5t-41 11.5q-36 0 -59 -33t-29 -86l-92 18q3 87 55 149t119 62q54 0 93.5 -20.5t86.5 -59.5
q35 -29 55.5 -40t41.5 -11q36 0 59 33t29 86l92 -18q-3 -87 -55 -149t-119 -62z" />
    <glyph glyph-name="Ograve" unicode="&#xd2;" horiz-adv-x="1601" 
d="M797 -25q-189 0 -344 92.5t-242.5 252.5t-87.5 352q0 146 52 275.5t142 223t217 147.5t271 54q189 0 344 -92.5t242.5 -252t87.5 -351.5q0 -195 -88 -355.5t-245 -253t-349 -92.5zM801 82q162 0 290.5 78.5t198.5 213t70 298.5q0 165 -70 300.5t-198.5 214.5t-290.5 79
t-290.5 -78.5t-198.5 -213t-70 -298.5q0 -165 70 -300.5t198.5 -214.5t290.5 -79zM877 1473l-312 155q-32 17 -51.5 39t-19.5 41q0 36 22 58t51 22q34 0 78 -41l256 -236z" />
    <glyph glyph-name="Oacute" unicode="&#xd3;" horiz-adv-x="1601" 
d="M797 -25q-189 0 -344 92.5t-242.5 252.5t-87.5 352q0 146 52 275.5t142 223t217 147.5t271 54q189 0 344 -92.5t242.5 -252t87.5 -351.5q0 -195 -88 -355.5t-245 -253t-349 -92.5zM801 82q162 0 290.5 78.5t198.5 213t70 298.5q0 165 -70 300.5t-198.5 214.5t-290.5 79
t-290.5 -78.5t-198.5 -213t-70 -298.5q0 -165 70 -300.5t198.5 -214.5t290.5 -79zM725 1473l-25 38l256 236q44 41 78 41q30 0 52 -22t22 -58q0 -19 -20 -41t-52 -39z" />
    <glyph glyph-name="Ocircumflex" unicode="&#xd4;" horiz-adv-x="1601" 
d="M797 -25q-189 0 -344 92.5t-242.5 252.5t-87.5 352q0 146 52 275.5t142 223t217 147.5t271 54q189 0 344 -92.5t242.5 -252t87.5 -351.5q0 -195 -88 -355.5t-245 -253t-349 -92.5zM801 82q162 0 290.5 78.5t198.5 213t70 298.5q0 165 -70 300.5t-198.5 214.5t-290.5 79
t-290.5 -78.5t-198.5 -213t-70 -298.5q0 -165 70 -300.5t198.5 -214.5t290.5 -79zM557 1460l-51 62l295 274l295 -274l-52 -62l-243 187z" />
    <glyph glyph-name="Otilde" unicode="&#xd5;" horiz-adv-x="1601" 
d="M797 -25q-189 0 -344 92.5t-242.5 252.5t-87.5 352q0 146 52 275.5t142 223t217 147.5t271 54q189 0 344 -92.5t242.5 -252t87.5 -351.5q0 -195 -88 -355.5t-245 -253t-349 -92.5zM801 82q162 0 290.5 78.5t198.5 213t70 298.5q0 165 -70 300.5t-198.5 214.5t-290.5 79
t-290.5 -78.5t-198.5 -213t-70 -298.5q0 -165 70 -300.5t198.5 -214.5t290.5 -79zM946 1475q-54 0 -94 20.5t-86 58.5q-36 30 -55.5 41t-40.5 11q-36 0 -59 -33t-29 -86l-93 18q3 87 55.5 149t119.5 62q54 0 93.5 -20.5t86.5 -59.5q35 -29 55 -40t41 -11q36 0 59 33t29 86
l92 -18q-3 -87 -55 -149t-119 -62z" />
    <glyph glyph-name="Odieresis" unicode="&#xd6;" horiz-adv-x="1601" 
d="M797 -25q-189 0 -344 92.5t-242.5 252.5t-87.5 352q0 146 52 275.5t142 223t217 147.5t271 54q189 0 344 -92.5t242.5 -252t87.5 -351.5q0 -195 -88 -355.5t-245 -253t-349 -92.5zM801 82q162 0 290.5 78.5t198.5 213t70 298.5q0 165 -70 300.5t-198.5 214.5t-290.5 79
t-290.5 -78.5t-198.5 -213t-70 -298.5q0 -165 70 -300.5t198.5 -214.5t290.5 -79zM965 1505q-42 0 -71.5 31t-29.5 74t29.5 73.5t71.5 30.5t71 -30.5t29 -73.5t-29 -74t-71 -31zM637 1505q-42 0 -71 31t-29 74t29 73.5t71 30.5t71 -30.5t29 -73.5t-29 -74t-71 -31z" />
    <glyph glyph-name="multiply" unicode="&#xd7;" horiz-adv-x="806" 
d="M618 254l-217 219l-215 -217l-69 70l217 215l-219 217l71 71l217 -219l215 217l70 -69l-217 -215l219 -217z" />
    <glyph glyph-name="Oslash" unicode="&#xd8;" horiz-adv-x="1601" 
d="M797 -25q-241 0 -420 146l-170 -199l-74 64l174 200q-88 95 -136 220.5t-48 265.5q0 146 52 275.5t142 223t217 147.5t271 54q227 0 403 -133l162 188l74 -63l-164 -188q94 -95 146.5 -225t52.5 -275q0 -195 -88 -355.5t-245 -253t-349 -92.5zM801 82q162 0 290.5 78.5
t198.5 213t70 298.5q0 259 -154 426l-762 -895q146 -121 357 -121zM242 676q0 -248 141 -414l758 895q-147 109 -340 109q-162 0 -290.5 -78.5t-198.5 -213t-70 -298.5z" />
    <glyph glyph-name="Ugrave" unicode="&#xd9;" horiz-adv-x="1470" 
d="M731 -25q-230 0 -353.5 126t-123.5 352v792h-180v103h477v-103h-184v-782q0 -190 94.5 -285.5t271.5 -95.5q178 0 274.5 95t96.5 282v786h-184v103h477v-103h-180v-784q0 -229 -128 -357.5t-358 -128.5zM811 1473l-311 155q-32 17 -52 39t-20 41q0 36 22 58t52 22
q34 0 78 -41l256 -236z" />
    <glyph glyph-name="Uacute" unicode="&#xda;" horiz-adv-x="1470" 
d="M731 -25q-230 0 -353.5 126t-123.5 352v792h-180v103h477v-103h-184v-782q0 -190 94.5 -285.5t271.5 -95.5q178 0 274.5 95t96.5 282v786h-184v103h477v-103h-180v-784q0 -229 -128 -357.5t-358 -128.5zM659 1473l-24 38l256 236q44 41 78 41q29 0 51 -22t22 -58
q0 -19 -19.5 -41t-51.5 -39z" />
    <glyph glyph-name="Ucircumflex" unicode="&#xdb;" horiz-adv-x="1470" 
d="M731 -25q-230 0 -353.5 126t-123.5 352v792h-180v103h477v-103h-184v-782q0 -190 94.5 -285.5t271.5 -95.5q178 0 274.5 95t96.5 282v786h-184v103h477v-103h-180v-784q0 -229 -128 -357.5t-358 -128.5zM492 1460l-52 62l295 274l295 -274l-51 -62l-244 187z" />
    <glyph glyph-name="Udieresis" unicode="&#xdc;" horiz-adv-x="1470" 
d="M731 -25q-230 0 -353.5 126t-123.5 352v792h-180v103h477v-103h-184v-782q0 -190 94.5 -285.5t271.5 -95.5q178 0 274.5 95t96.5 282v786h-184v103h477v-103h-180v-784q0 -229 -128 -357.5t-358 -128.5zM899 1505q-42 0 -71 31t-29 74t29 73.5t71 30.5t71 -30.5t29 -73.5
t-29 -74t-71 -31zM571 1505q-42 0 -71 31t-29 74t29 73.5t71 30.5t71.5 -30.5t29.5 -73.5t-29.5 -74t-71.5 -31z" />
    <glyph glyph-name="Yacute" unicode="&#xdd;" horiz-adv-x="1312" 
d="M397 0v102h199v449l-406 694h-147v103h428v-103h-147l333 -594l338 594h-153v103h428v-103h-150l-405 -692v-451h198v-102h-516zM580 1473l-25 38l256 236q44 41 78 41q30 0 52 -22t22 -58q0 -19 -20 -41t-52 -39z" />
    <glyph glyph-name="Thorn" unicode="&#xde;" horiz-adv-x="1218" 
d="M106 0v102h181v1143h-181v103h478v-99h-181v-170q66 4 224 4q212 0 345.5 -108.5t133.5 -288.5q0 -186 -128 -295.5t-347 -109.5q-138 0 -228 4v-187h191v-98h-488zM635 383q167 0 260.5 80t93.5 221t-98 219t-256 78t-232 -4v-590q98 -4 232 -4z" />
    <glyph glyph-name="germandbls" unicode="&#xdf;" horiz-adv-x="1089" 
d="M698 -16q-90 0 -147 41t-57 100q0 37 22.5 60.5t54.5 23.5q31 0 52.5 -21.5t21.5 -52.5q0 -12 -5 -26.5t-9 -18.5q9 -6 31.5 -11t35.5 -5q95 0 156 56.5t61 152.5q0 76 -43.5 129.5t-128.5 99.5q-75 41 -116 72t-65.5 76t-24.5 106q0 58 23 108.5t87 112.5q61 59 84 115
t23 123q0 82 -62 138t-145 56q-113 0 -168 -96q-33 -61 -33 -139v-1184h-248v94h144v672h-156v94h156v311q0 127 55 213q85 132 262 132q127 0 213 -83t86 -208q0 -89 -31 -160.5t-100 -138.5q-53 -52 -70.5 -85t-17.5 -75q0 -45 34.5 -80.5t125.5 -87.5q105 -60 162 -134
t57 -181q0 -133 -91.5 -216t-228.5 -83z" />
    <glyph glyph-name="agrave" unicode="&#xe0;" horiz-adv-x="993" 
d="M389 -16q-129 0 -209 70.5t-80 178.5q0 116 92.5 188.5t233.5 72.5q64 0 145 -17t117 -33v144q0 76 -41 123q-64 71 -196 71q-91 0 -156 -45q14 -28 14 -55q0 -33 -21.5 -55.5t-56.5 -22.5q-36 0 -57.5 23.5t-21.5 58.5q0 76 85.5 133.5t225.5 57.5q173 0 262 -95
q63 -66 63 -170v-518h144v-94h-240v117q-57 -58 -138 -95.5t-165 -37.5zM410 76q156 0 278 141v145q-134 44 -258 44q-109 0 -167 -46.5t-58 -119.5q0 -72 53.5 -118t151.5 -46zM557 1042l-311 156q-32 17 -52 39t-20 41q0 36 22 58t52 22q34 0 78 -41l256 -236z" />
    <glyph glyph-name="aacute" unicode="&#xe1;" horiz-adv-x="993" 
d="M389 -16q-129 0 -209 70.5t-80 178.5q0 116 92.5 188.5t233.5 72.5q64 0 145 -17t117 -33v144q0 76 -41 123q-64 71 -196 71q-91 0 -156 -45q14 -28 14 -55q0 -33 -21.5 -55.5t-56.5 -22.5q-36 0 -57.5 23.5t-21.5 58.5q0 76 85.5 133.5t225.5 57.5q173 0 262 -95
q63 -66 63 -170v-518h144v-94h-240v117q-57 -58 -138 -95.5t-165 -37.5zM410 76q156 0 278 141v145q-134 44 -258 44q-109 0 -167 -46.5t-58 -119.5q0 -72 53.5 -118t151.5 -46zM406 1042l-25 39l256 236q44 41 78 41q29 0 51 -22t22 -58q0 -19 -19.5 -41t-51.5 -39z" />
    <glyph glyph-name="acircumflex" unicode="&#xe2;" horiz-adv-x="993" 
d="M389 -16q-129 0 -209 70.5t-80 178.5q0 116 92.5 188.5t233.5 72.5q64 0 145 -17t117 -33v144q0 76 -41 123q-64 71 -196 71q-91 0 -156 -45q14 -28 14 -55q0 -33 -21.5 -55.5t-56.5 -22.5q-36 0 -57.5 23.5t-21.5 58.5q0 76 85.5 133.5t225.5 57.5q173 0 262 -95
q63 -66 63 -170v-518h144v-94h-240v117q-57 -58 -138 -95.5t-165 -37.5zM410 76q156 0 278 141v145q-134 44 -258 44q-109 0 -167 -46.5t-58 -119.5q0 -72 53.5 -118t151.5 -46zM238 1030l-52 62l295 274l295 -274l-51 -62l-244 187z" />
    <glyph glyph-name="atilde" unicode="&#xe3;" horiz-adv-x="993" 
d="M389 -16q-129 0 -209 70.5t-80 178.5q0 116 92.5 188.5t233.5 72.5q64 0 145 -17t117 -33v144q0 76 -41 123q-64 71 -196 71q-91 0 -156 -45q14 -28 14 -55q0 -33 -21.5 -55.5t-56.5 -22.5q-36 0 -57.5 23.5t-21.5 58.5q0 76 85.5 133.5t225.5 57.5q173 0 262 -95
q63 -66 63 -170v-518h144v-94h-240v117q-57 -58 -138 -95.5t-165 -37.5zM410 76q156 0 278 141v145q-134 44 -258 44q-109 0 -167 -46.5t-58 -119.5q0 -72 53.5 -118t151.5 -46zM627 1044q-54 0 -94.5 20.5t-86.5 59.5q-36 30 -55.5 41t-40.5 11q-36 0 -59 -33t-29 -86
l-92 18q3 87 55 149t119 62q54 0 93.5 -20.5t86.5 -59.5q35 -29 55.5 -40t41.5 -11q36 0 59 33t29 86l92 -19q-3 -87 -55 -149t-119 -62z" />
    <glyph glyph-name="adieresis" unicode="&#xe4;" horiz-adv-x="993" 
d="M389 -16q-129 0 -209 70.5t-80 178.5q0 116 92.5 188.5t233.5 72.5q64 0 145 -17t117 -33v144q0 76 -41 123q-64 71 -196 71q-91 0 -156 -45q14 -28 14 -55q0 -33 -21.5 -55.5t-56.5 -22.5q-36 0 -57.5 23.5t-21.5 58.5q0 76 85.5 133.5t225.5 57.5q173 0 262 -95
q63 -66 63 -170v-518h144v-94h-240v117q-57 -58 -138 -95.5t-165 -37.5zM410 76q156 0 278 141v145q-134 44 -258 44q-109 0 -167 -46.5t-58 -119.5q0 -72 53.5 -118t151.5 -46zM645 1075q-42 0 -71 31t-29 74t29 73.5t71 30.5t71 -30.5t29 -73.5t-29 -74t-71 -31zM317 1075
q-42 0 -71 31t-29 74t29 73.5t71 30.5t71.5 -30.5t29.5 -73.5t-29.5 -74t-71.5 -31z" />
    <glyph glyph-name="aring" unicode="&#xe5;" horiz-adv-x="993" 
d="M389 -16q-129 0 -209 70.5t-80 178.5q0 116 92.5 188.5t233.5 72.5q64 0 145 -17t117 -33v144q0 76 -41 123q-64 71 -196 71q-91 0 -156 -45q14 -28 14 -55q0 -33 -21.5 -55.5t-56.5 -22.5q-36 0 -57.5 23.5t-21.5 58.5q0 76 85.5 133.5t225.5 57.5q173 0 262 -95
q63 -66 63 -170v-518h144v-94h-240v117q-57 -58 -138 -95.5t-165 -37.5zM410 76q156 0 278 141v145q-134 44 -258 44q-109 0 -167 -46.5t-58 -119.5q0 -72 53.5 -118t151.5 -46zM481 1020q-84 0 -143 61t-59 148t59 148t143 61q85 0 144 -61.5t59 -147.5t-59 -147.5
t-144 -61.5zM481 1104q51 0 84 36t33 89t-33 89t-84 36q-50 0 -83 -36t-33 -89t33 -89t83 -36z" />
    <glyph glyph-name="ae" unicode="&#xe6;" horiz-adv-x="1548" 
d="M451 780q-94 0 -156 -43q14 -28 14 -55q0 -33 -21.5 -55.5t-56.5 -22.5q-36 0 -57.5 23.5t-21.5 58.5q0 76 85.5 133.5t225.5 57.5q174 0 258 -105q29 -41 37 -65q54 79 137 124.5t184 45.5q119 0 208 -58t132 -148.5t43 -197.5q0 -40 -6 -67h-682q10 -163 101.5 -244.5
t252.5 -81.5q82 0 145.5 22.5t151.5 73.5l-10 -106q-133 -86 -301 -86q-242 0 -356 168q-168 -168 -369 -168q-129 0 -209 70.5t-80 178.5q0 116 92.5 188.5t233.5 72.5q64 0 145 -17t117 -33v134q0 75 -43 124q-65 78 -194 78zM410 76q82 0 156 33t159 106q-28 67 -37 145
q-133 46 -258 46q-109 0 -167 -46.5t-58 -119.5q0 -72 53.5 -118t151.5 -46zM1069 782q-114 0 -196 -77.5t-97 -206.5h580q-9 130 -82.5 207t-204.5 77z" />
    <glyph glyph-name="ccedilla" unicode="&#xe7;" horiz-adv-x="1024" 
d="M532 -408q-114 0 -217 54l29 65q35 -16 87 -27.5t91 -11.5q41 0 65.5 17.5t24.5 46.5q0 32 -27.5 49.5t-74.5 17.5q-27 0 -45 -6l-35 25l45 168q-167 22 -274 144t-107 290q0 185 126 319t300 134q133 0 233.5 -74t100.5 -170q0 -41 -27.5 -72t-68.5 -31
q-29 0 -51.5 19.5t-22.5 58.5q0 46 49 70q-19 48 -81.5 76t-131.5 28q-54 0 -109 -23.5t-101.5 -66.5t-75.5 -114t-29 -156q0 -150 96.5 -246t255.5 -96q139 0 279 96l-11 -106q-58 -42 -134 -63t-144 -23l-10 -86q89 -1 134.5 -44t45.5 -108q0 -66 -48.5 -110t-136.5 -44z
" />
    <glyph glyph-name="egrave" unicode="&#xe8;" horiz-adv-x="978" 
d="M883 406h-682q12 -160 104 -243t250 -83q82 0 145.5 22.5t151.5 73.5l-10 -106q-133 -86 -301 -86q-203 0 -327 124t-124 320q0 89 29 170t81 143t131.5 99t174.5 37q119 0 208 -58t132 -148.5t43 -197.5q0 -40 -6 -67zM496 782q-114 0 -196 -77.5t-97 -206.5h579
q-9 131 -82 207.5t-204 76.5zM565 1042l-311 156q-32 17 -52 39t-20 41q0 36 22 58t52 22q34 0 78 -41l256 -236z" />
    <glyph glyph-name="eacute" unicode="&#xe9;" horiz-adv-x="978" 
d="M883 406h-682q12 -160 104 -243t250 -83q82 0 145.5 22.5t151.5 73.5l-10 -106q-133 -86 -301 -86q-203 0 -327 124t-124 320q0 89 29 170t81 143t131.5 99t174.5 37q119 0 208 -58t132 -148.5t43 -197.5q0 -40 -6 -67zM496 782q-114 0 -196 -77.5t-97 -206.5h579
q-9 131 -82 207.5t-204 76.5zM414 1042l-25 39l256 236q44 41 78 41q30 0 52 -22t22 -58q0 -19 -20 -41t-52 -39z" />
    <glyph glyph-name="ecircumflex" unicode="&#xea;" horiz-adv-x="978" 
d="M883 406h-682q12 -160 104 -243t250 -83q82 0 145.5 22.5t151.5 73.5l-10 -106q-133 -86 -301 -86q-203 0 -327 124t-124 320q0 89 29 170t81 143t131.5 99t174.5 37q119 0 208 -58t132 -148.5t43 -197.5q0 -40 -6 -67zM496 782q-114 0 -196 -77.5t-97 -206.5h579
q-9 131 -82 207.5t-204 76.5zM246 1030l-51 62l294 274l295 -274l-51 -62l-244 187z" />
    <glyph glyph-name="edieresis" unicode="&#xeb;" horiz-adv-x="978" 
d="M883 406h-682q12 -160 104 -243t250 -83q82 0 145.5 22.5t151.5 73.5l-10 -106q-133 -86 -301 -86q-203 0 -327 124t-124 320q0 89 29 170t81 143t131.5 99t174.5 37q119 0 208 -58t132 -148.5t43 -197.5q0 -40 -6 -67zM496 782q-114 0 -196 -77.5t-97 -206.5h579
q-9 131 -82 207.5t-204 76.5zM653 1075q-42 0 -71 31t-29 74t29 73.5t71 30.5t71.5 -30.5t29.5 -73.5t-29.5 -74t-71.5 -31zM326 1075q-42 0 -71.5 31t-29.5 74t29.5 73.5t71.5 30.5t71 -30.5t29 -73.5t-29 -74t-71 -31z" />
    <glyph glyph-name="igrave" unicode="&#xec;" horiz-adv-x="579" 
d="M98 0v94h152v672h-152v94h256v-766h154v-94h-410zM371 1042l-312 156q-32 17 -51.5 39t-19.5 41q0 36 22 58t51 22q34 0 78 -41l256 -236z" />
    <glyph glyph-name="iacute" unicode="&#xed;" horiz-adv-x="579" 
d="M98 0v94h152v672h-152v94h256v-766h154v-94h-410zM219 1042l-24 39l256 236q44 41 77 41q30 0 52 -22t22 -58q0 -19 -20 -41t-52 -39z" />
    <glyph glyph-name="icircumflex" unicode="&#xee;" horiz-adv-x="579" 
d="M98 0v94h152v672h-152v94h256v-766h154v-94h-410zM51 1030l-51 62l295 274l295 -274l-51 -62l-244 187z" />
    <glyph glyph-name="idieresis" unicode="&#xef;" horiz-adv-x="579" 
d="M98 0v94h152v672h-152v94h256v-766h154v-94h-410zM459 1075q-42 0 -71.5 31t-29.5 74t29.5 73.5t71.5 30.5t71 -30.5t29 -73.5t-29 -74t-71 -31zM131 1075q-42 0 -71 31t-29 74t29 73.5t71 30.5t71 -30.5t29 -73.5t-29 -74t-71 -31z" />
    <glyph glyph-name="eth" unicode="&#xf0;" horiz-adv-x="1067" 
d="M362 946l-61 74l254 229q-147 140 -258 160q0 -32 -23.5 -57t-58.5 -25t-60.5 26t-25.5 66q0 38 32.5 66t84.5 28q73 0 160 -43q123 -61 219 -155l202 182l62 -72l-199 -180q126 -144 202.5 -332.5t76.5 -406.5q0 -270 -140 -410q-112 -112 -294 -112q-192 0 -314.5 123
t-122.5 301q0 180 122.5 303t314.5 123q102 0 194.5 -52t136.5 -135q-11 145 -78 283.5t-167 251.5zM860 428q0 132 -91 221.5t-234 89.5q-145 0 -235.5 -92.5t-90.5 -238.5t90.5 -238t235.5 -92q134 0 225 94q48 51 74 119t26 137z" />
    <glyph glyph-name="ntilde" unicode="&#xf1;" horiz-adv-x="1144" 
d="M336 860v-170q63 80 154 133.5t178 53.5q166 0 231 -111q41 -69 41 -182v-490h143v-94h-391v94h144v475q0 78 -23 125q-43 84 -162 84q-167 0 -311 -176v-508h143v-94h-391v94h144v672h-144v94h244zM733 1044q-54 0 -93.5 20.5t-86.5 59.5q-36 30 -55.5 41t-40.5 11
q-36 0 -59 -33t-29 -86l-93 18q3 87 55.5 149t119.5 62q54 0 93.5 -20.5t86.5 -59.5q35 -29 55 -40t41 -11q36 0 59 33t29 86l92 -19q-3 -87 -55 -149t-119 -62z" />
    <glyph glyph-name="ograve" unicode="&#xf2;" horiz-adv-x="1069" 
d="M535 -16q-192 0 -314.5 128.5t-122.5 317.5t122.5 318t314.5 129t314 -129t122 -318t-122 -317.5t-314 -128.5zM535 78q144 0 234.5 98t90.5 254q0 154 -90.5 253t-234.5 99t-235 -99t-91 -253q0 -155 90.5 -253.5t235.5 -98.5zM610 1042l-311 156q-32 17 -52 39t-20 41
q0 36 22 58t52 22q34 0 78 -41l256 -236z" />
    <glyph glyph-name="oacute" unicode="&#xf3;" horiz-adv-x="1069" 
d="M535 -16q-192 0 -314.5 128.5t-122.5 317.5t122.5 318t314.5 129t314 -129t122 -318t-122 -317.5t-314 -128.5zM535 78q144 0 234.5 98t90.5 254q0 154 -90.5 253t-234.5 99t-235 -99t-91 -253q0 -155 90.5 -253.5t235.5 -98.5zM459 1042l-25 39l256 236q44 41 78 41
q30 0 52 -22t22 -58q0 -19 -20 -41t-52 -39z" />
    <glyph glyph-name="ocircumflex" unicode="&#xf4;" horiz-adv-x="1069" 
d="M535 -16q-192 0 -314.5 128.5t-122.5 317.5t122.5 318t314.5 129t314 -129t122 -318t-122 -317.5t-314 -128.5zM535 78q144 0 234.5 98t90.5 254q0 154 -90.5 253t-234.5 99t-235 -99t-91 -253q0 -155 90.5 -253.5t235.5 -98.5zM291 1030l-51 62l295 274l294 -274
l-51 -62l-243 187z" />
    <glyph glyph-name="otilde" unicode="&#xf5;" horiz-adv-x="1069" 
d="M535 -16q-192 0 -314.5 128.5t-122.5 317.5t122.5 318t314.5 129t314 -129t122 -318t-122 -317.5t-314 -128.5zM535 78q144 0 234.5 98t90.5 254q0 154 -90.5 253t-234.5 99t-235 -99t-91 -253q0 -155 90.5 -253.5t235.5 -98.5zM680 1044q-54 0 -93.5 20.5t-86.5 59.5
q-36 29 -56 40.5t-41 11.5q-36 0 -59 -33t-29 -86l-92 18q3 87 55 149t119 62q54 0 94.5 -20.5t86.5 -59.5q35 -29 55 -40t41 -11q36 0 59 33t29 86l92 -19q-3 -87 -55 -149t-119 -62z" />
    <glyph glyph-name="odieresis" unicode="&#xf6;" horiz-adv-x="1069" 
d="M535 -16q-192 0 -314.5 128.5t-122.5 317.5t122.5 318t314.5 129t314 -129t122 -318t-122 -317.5t-314 -128.5zM535 78q144 0 234.5 98t90.5 254q0 154 -90.5 253t-234.5 99t-235 -99t-91 -253q0 -155 90.5 -253.5t235.5 -98.5zM698 1075q-42 0 -71 31t-29 74t29 73.5
t71 30.5t71.5 -30.5t29.5 -73.5t-29.5 -74t-71.5 -31zM371 1075q-42 0 -71.5 31t-29.5 74t29.5 73.5t71.5 30.5t71 -30.5t29 -73.5t-29 -74t-71 -31z" />
    <glyph glyph-name="divide" unicode="&#xf7;" horiz-adv-x="806" 
d="M731 494h-655v98h655v-98zM403 723q-35 0 -60.5 26.5t-25.5 61.5t25.5 61.5t60.5 26.5q34 0 59 -26.5t25 -61.5t-25 -61.5t-59 -26.5zM403 186q-35 0 -60.5 26.5t-25.5 61.5t25.5 61.5t60.5 26.5q34 0 59 -26.5t25 -61.5t-25 -61.5t-59 -26.5z" />
    <glyph glyph-name="oslash" unicode="&#xf8;" horiz-adv-x="1069" 
d="M535 -16q-139 0 -252 82l-103 -121l-74 61l105 123q-113 126 -113 301q0 189 122.5 318t314.5 129q142 0 256 -84l100 118l74 -61l-105 -123q111 -127 111 -297q0 -189 -122 -317.5t-314 -128.5zM209 430q0 -139 74 -235l446 524q-81 63 -194 63q-144 0 -235 -99
t-91 -253zM535 78q144 0 234.5 98t90.5 254q0 131 -72 229l-446 -522q85 -59 193 -59z" />
    <glyph glyph-name="ugrave" unicode="&#xf9;" horiz-adv-x="1120" 
d="M477 -16q-168 0 -233 114q-39 71 -39 178v490h-144v94h248v-569q0 -73 27 -129q42 -80 158 -80q150 0 311 176v508h-143v94h247v-766h144v-94h-244v170q-63 -80 -154 -133t-178 -53zM627 1042l-312 156q-32 17 -51.5 39t-19.5 41q0 36 22 58t51 22q34 0 78 -41l256 -236z
" />
    <glyph glyph-name="uacute" unicode="&#xfa;" horiz-adv-x="1120" 
d="M477 -16q-168 0 -233 114q-39 71 -39 178v490h-144v94h248v-569q0 -73 27 -129q42 -80 158 -80q150 0 311 176v508h-143v94h247v-766h144v-94h-244v170q-63 -80 -154 -133t-178 -53zM475 1042l-24 39l256 236q44 41 77 41q30 0 52 -22t22 -58q0 -19 -20 -41t-52 -39z" />
    <glyph glyph-name="ucircumflex" unicode="&#xfb;" horiz-adv-x="1120" 
d="M477 -16q-168 0 -233 114q-39 71 -39 178v490h-144v94h248v-569q0 -73 27 -129q42 -80 158 -80q150 0 311 176v508h-143v94h247v-766h144v-94h-244v170q-63 -80 -154 -133t-178 -53zM307 1030l-51 62l295 274l295 -274l-51 -62l-244 187z" />
    <glyph glyph-name="udieresis" unicode="&#xfc;" horiz-adv-x="1120" 
d="M477 -16q-168 0 -233 114q-39 71 -39 178v490h-144v94h248v-569q0 -73 27 -129q42 -80 158 -80q150 0 311 176v508h-143v94h247v-766h144v-94h-244v170q-63 -80 -154 -133t-178 -53zM715 1075q-42 0 -71.5 31t-29.5 74t29.5 73.5t71.5 30.5t71 -30.5t29 -73.5t-29 -74
t-71 -31zM387 1075q-42 0 -71 31t-29 74t29 73.5t71 30.5t71 -30.5t29 -73.5t-29 -74t-71 -31z" />
    <glyph glyph-name="yacute" unicode="&#xfd;" horiz-adv-x="1032" 
d="M414 -250q-52 -80 -104.5 -120t-114.5 -40q-54 0 -94 28t-40 75q0 35 21.5 57.5t54.5 22.5t57.5 -24.5t32.5 -57.5q60 23 119 119q27 44 78 147l45 94l-332 715h-123v94h381v-94h-139q17 -38 44.5 -100t85.5 -193.5t96.5 -219t37.5 -87.5l268 600h-145v94h375v-94h-123
l-410 -883q-46 -95 -71 -133zM440 1042l-24 39l256 236q44 41 78 41q30 0 51.5 -22t21.5 -58q0 -19 -19.5 -41t-51.5 -39z" />
    <glyph glyph-name="thorn" unicode="&#xfe;" horiz-adv-x="1071" 
d="M6 -401v94h144v1712h-144v94h248v-762q63 67 135 103.5t166 36.5q174 0 294 -123t120 -318q0 -122 -51 -224t-151.5 -165t-231.5 -63q-156 0 -281 100v-391h178v-94h-426zM539 78q142 0 229.5 101.5t89.5 254.5q1 153 -86 250.5t-223 97.5q-164 0 -295 -145v-449
q126 -110 285 -110z" />
    <glyph glyph-name="ydieresis" unicode="&#xff;" horiz-adv-x="1032" 
d="M414 -250q-52 -80 -104.5 -120t-114.5 -40q-54 0 -94 28t-40 75q0 35 21.5 57.5t54.5 22.5t57.5 -24.5t32.5 -57.5q60 23 119 119q27 44 78 147l45 94l-332 715h-123v94h381v-94h-139q17 -38 44.5 -100t85.5 -193.5t96.5 -219t37.5 -87.5l268 600h-145v94h375v-94h-123
l-410 -883q-46 -95 -71 -133zM352 1075q-42 0 -71 31t-29 74t29 73.5t71 30.5t71.5 -30.5t29.5 -73.5t-29.5 -74t-71.5 -31zM680 1075q-42 0 -71 31t-29 74t29 73.5t71 30.5t71 -30.5t29 -73.5t-29 -74t-71 -31z" />
    <glyph glyph-name="Amacron" unicode="&#x100;" horiz-adv-x="1454" 
d="M41 0v102h135l432 1143h-155v103h548v-103h-155l432 -1143h135v-102h-420v102h158l-141 381h-572l-141 -381h164v-102h-420zM475 584h498l-248 671zM430 1536v106h594v-106h-594z" />
    <glyph glyph-name="amacron" unicode="&#x101;" horiz-adv-x="993" 
d="M389 -16q-129 0 -209 70.5t-80 178.5q0 116 92.5 188.5t233.5 72.5q64 0 145 -17t117 -33v144q0 76 -41 123q-64 71 -196 71q-91 0 -156 -45q14 -28 14 -55q0 -33 -21.5 -55.5t-56.5 -22.5q-36 0 -57.5 23.5t-21.5 58.5q0 76 85.5 133.5t225.5 57.5q173 0 262 -95
q63 -66 63 -170v-518h144v-94h-240v117q-57 -58 -138 -95.5t-165 -37.5zM410 76q156 0 278 141v145q-134 44 -258 44q-109 0 -167 -46.5t-58 -119.5q0 -72 53.5 -118t151.5 -46zM184 1106v106h594v-106h-594z" />
    <glyph glyph-name="Abreve" unicode="&#x102;" horiz-adv-x="1454" 
d="M41 0v102h135l432 1143h-155v103h548v-103h-155l432 -1143h135v-102h-420v102h158l-141 381h-572l-141 -381h164v-102h-420zM475 584h498l-248 671zM727 1473q-105 0 -185.5 68.5t-117.5 174.5l82 39q29 -77 90 -121.5t131 -44.5q74 0 133 46.5t88 119.5l82 -39
q-37 -106 -117.5 -174.5t-185.5 -68.5z" />
    <glyph glyph-name="abreve" unicode="&#x103;" horiz-adv-x="993" 
d="M389 -16q-129 0 -209 70.5t-80 178.5q0 116 92.5 188.5t233.5 72.5q64 0 145 -17t117 -33v144q0 76 -41 123q-64 71 -196 71q-91 0 -156 -45q14 -28 14 -55q0 -33 -21.5 -55.5t-56.5 -22.5q-36 0 -57.5 23.5t-21.5 58.5q0 76 85.5 133.5t225.5 57.5q173 0 262 -95
q63 -66 63 -170v-518h144v-94h-240v117q-57 -58 -138 -95.5t-165 -37.5zM410 76q156 0 278 141v145q-134 44 -258 44q-109 0 -167 -46.5t-58 -119.5q0 -72 53.5 -118t151.5 -46zM481 1042q-105 0 -185.5 69t-117.5 175l82 39q29 -77 90 -121.5t131 -44.5q74 0 133 46.5
t88 119.5l82 -39q-37 -106 -117.5 -175t-185.5 -69z" />
    <glyph glyph-name="Aogonek" unicode="&#x104;" horiz-adv-x="1454" 
d="M1214 -412q-102 0 -155 49.5t-53 133.5q0 67 39 126.5t104 102.5h-156v102h158l-141 381h-572l-141 -381h164v-102h-420v102h135l432 1143h-155v103h548v-103h-155l432 -1143h135v-102h-129q-80 -36 -128 -91t-48 -118q0 -51 29.5 -80.5t87.5 -29.5q88 0 166 40l-7 -86
q-26 -18 -72.5 -32.5t-97.5 -14.5zM475 584h498l-248 671z" />
    <glyph glyph-name="aogonek" unicode="&#x105;" horiz-adv-x="993" 
d="M754 -412q-102 0 -155.5 49.5t-53.5 133.5q0 68 40 129t107 102v115q-57 -58 -138 -95.5t-165 -37.5q-129 0 -209 70.5t-80 178.5q0 116 92.5 188.5t233.5 72.5q64 0 145 -17t117 -33v144q0 76 -41 123q-64 71 -196 71q-91 0 -156 -45q14 -28 14 -55q0 -33 -21.5 -55.5
t-56.5 -22.5q-36 0 -57.5 23.5t-21.5 58.5q0 76 85.5 133.5t225.5 57.5q173 0 262 -95q63 -66 63 -170v-518h144v-94h-109q-80 -36 -128 -91t-48 -118q0 -51 29.5 -80.5t87.5 -29.5q88 0 166 40l-6 -86q-26 -18 -72.5 -32.5t-97.5 -14.5zM410 76q156 0 278 141v145
q-134 44 -258 44q-109 0 -167 -46.5t-58 -119.5q0 -72 53.5 -118t151.5 -46z" />
    <glyph glyph-name="Cacute" unicode="&#x106;" horiz-adv-x="1437" 
d="M805 -25q-151 0 -281 59t-216.5 156t-135.5 220.5t-49 253.5q0 154 56 288t149.5 225t215.5 143t253 52q98 0 190.5 -30t158.5 -77.5t106 -108t40 -120.5q0 -50 -30 -83t-76 -33q-38 0 -65 27t-27 65q0 33 20 57.5t47 30.5q-33 62 -131.5 115t-232.5 53
q-120 0 -224.5 -50t-176.5 -133.5t-113 -192.5t-41 -226q0 -111 42 -217t114.5 -187.5t179 -131.5t227.5 -50q237 0 430 172l63 -84q-100 -95 -229.5 -144t-263.5 -49zM733 1473l-24 38l256 236q44 41 77 41q30 0 52 -22t22 -58q0 -19 -20 -41t-52 -39z" />
    <glyph glyph-name="cacute" unicode="&#x107;" horiz-adv-x="944" 
d="M543 -16q-192 0 -320.5 127.5t-128.5 312.5t126 319t300 134q133 0 233.5 -74t100.5 -170q0 -41 -27.5 -72t-68.5 -31q-29 0 -51.5 19.5t-22.5 58.5q0 46 49 70q-19 48 -81.5 76t-131.5 28q-54 0 -109 -23.5t-101.5 -66.5t-75.5 -114t-29 -156q0 -150 96.5 -246
t255.5 -96q139 0 279 96l-11 -106q-58 -42 -137 -64t-145 -22zM434 1042l-24 39l256 236q44 41 77 41q30 0 52 -22t22 -58q0 -19 -20 -41t-52 -39z" />
    <glyph glyph-name="Cdotaccent" unicode="&#x10a;" horiz-adv-x="1437" 
d="M805 -25q-151 0 -281 59t-216.5 156t-135.5 220.5t-49 253.5q0 154 56 288t149.5 225t215.5 143t253 52q98 0 190.5 -30t158.5 -77.5t106 -108t40 -120.5q0 -50 -30 -83t-76 -33q-38 0 -65 27t-27 65q0 33 20 57.5t47 30.5q-33 62 -131.5 115t-232.5 53
q-120 0 -224.5 -50t-176.5 -133.5t-113 -192.5t-41 -226q0 -111 42 -217t114.5 -187.5t179 -131.5t227.5 -50q237 0 430 172l63 -84q-100 -95 -229.5 -144t-263.5 -49zM809 1501q-44 0 -74 32t-30 77t30 76.5t74 31.5t74 -31.5t30 -76.5t-30 -77t-74 -32z" />
    <glyph glyph-name="cdotaccent" unicode="&#x10b;" horiz-adv-x="944" 
d="M543 -16q-192 0 -320.5 127.5t-128.5 312.5t126 319t300 134q133 0 233.5 -74t100.5 -170q0 -41 -27.5 -72t-68.5 -31q-29 0 -51.5 19.5t-22.5 58.5q0 46 49 70q-19 48 -81.5 76t-131.5 28q-54 0 -109 -23.5t-101.5 -66.5t-75.5 -114t-29 -156q0 -150 96.5 -246
t255.5 -96q139 0 279 96l-11 -106q-58 -42 -137 -64t-145 -22zM510 1071q-44 0 -74 32t-30 77t30 76.5t74 31.5t74 -31.5t30 -76.5t-30 -77t-74 -32z" />
    <glyph glyph-name="Ccaron" unicode="&#x10c;" horiz-adv-x="1437" 
d="M805 -25q-151 0 -281 59t-216.5 156t-135.5 220.5t-49 253.5q0 154 56 288t149.5 225t215.5 143t253 52q98 0 190.5 -30t158.5 -77.5t106 -108t40 -120.5q0 -50 -30 -83t-76 -33q-38 0 -65 27t-27 65q0 33 20 57.5t47 30.5q-33 62 -131.5 115t-232.5 53
q-120 0 -224.5 -50t-176.5 -133.5t-113 -192.5t-41 -226q0 -111 42 -217t114.5 -187.5t179 -131.5t227.5 -50q237 0 430 172l63 -84q-100 -95 -229.5 -144t-263.5 -49zM1053 1804l51 -61l-295 -275l-295 275l51 61l244 -186z" />
    <glyph glyph-name="ccaron" unicode="&#x10d;" horiz-adv-x="944" 
d="M543 -16q-192 0 -320.5 127.5t-128.5 312.5t126 319t300 134q133 0 233.5 -74t100.5 -170q0 -41 -27.5 -72t-68.5 -31q-29 0 -51.5 19.5t-22.5 58.5q0 46 49 70q-19 48 -81.5 76t-131.5 28q-54 0 -109 -23.5t-101.5 -66.5t-75.5 -114t-29 -156q0 -150 96.5 -246
t255.5 -96q139 0 279 96l-11 -106q-58 -42 -137 -64t-145 -22zM754 1374l51 -61l-295 -275l-295 275l51 61l244 -186z" />
    <glyph glyph-name="Dcaron" unicode="&#x10e;" horiz-adv-x="1505" 
d="M106 0v102h181v1143h-181v103h502q348 0 561 -181.5t213 -478.5q0 -150 -53.5 -277t-151.5 -218t-243 -142t-322 -51h-506zM403 102h220q312 0 476.5 161t164.5 429q0 252 -178.5 402.5t-479.5 150.5h-203v-1143zM950 1804l51 -61l-294 -275l-295 275l51 61l244 -186z
" />
    <glyph glyph-name="dcaron" unicode="&#x10f;" horiz-adv-x="1116" 
d="M512 -16q-174 0 -294 122.5t-120 317.5q0 91 30.5 173t85 144.5t137 99t181.5 36.5q164 0 281 -111v639h-178v94h283v-1405h143v-94h-244v133q-126 -149 -305 -149zM518 78q164 0 295 145v449q-126 110 -285 110q-142 0 -229.5 -101.5t-89.5 -254.5q-1 -153 86 -250.5
t223 -97.5zM1032 1075l-37 29q70 101 70 203q0 27 -5 63t-5 55q0 34 19 56t54 22q36 0 55 -22.5t19 -61.5q0 -84 -47 -174t-123 -170z" />
    <glyph glyph-name="Dcroat" unicode="&#x110;" horiz-adv-x="1515" 
d="M297 639h-139v102h139v504h-180v103h501q229 0 405 -81.5t273 -232t97 -346.5q0 -150 -53.5 -277t-151.5 -218t-243 -142t-322 -51h-506v102h180v537zM414 102h219q312 0 476.5 161t164.5 429q0 252 -178.5 402.5t-479.5 150.5h-202v-504h317v-102h-317v-537z" />
    <glyph glyph-name="dcroat" unicode="&#x111;" horiz-adv-x="1116" 
d="M487 1087v97h326v221h-178v94h283v-315h143v-97h-143v-993h143v-94h-244v133q-126 -149 -305 -149q-174 0 -294 122.5t-120 317.5q0 91 30.5 173t85 144.5t137 99t181.5 36.5q164 0 281 -111v321h-326zM518 78q164 0 295 145v449q-126 110 -285 110q-142 0 -229.5 -101.5
t-89.5 -254.5q-1 -153 86 -250.5t223 -97.5z" />
    <glyph glyph-name="Emacron" unicode="&#x112;" horiz-adv-x="1214" 
d="M106 0v102h181v1143h-181v103h967v-306h-112v203h-558v-506h457v-102h-457v-535h558v203h112v-305h-967zM293 1536v106h594v-106h-594z" />
    <glyph glyph-name="emacron" unicode="&#x113;" horiz-adv-x="978" 
d="M883 406h-682q12 -160 104 -243t250 -83q82 0 145.5 22.5t151.5 73.5l-10 -106q-133 -86 -301 -86q-203 0 -327 124t-124 320q0 89 29 170t81 143t131.5 99t174.5 37q119 0 208 -58t132 -148.5t43 -197.5q0 -40 -6 -67zM496 782q-114 0 -196 -77.5t-97 -206.5h579
q-9 131 -82 207.5t-204 76.5zM193 1106v106h593v-106h-593z" />
    <glyph glyph-name="Ebreve" unicode="&#x114;" horiz-adv-x="1214" 
d="M106 0v102h181v1143h-181v103h967v-306h-112v203h-558v-506h457v-102h-457v-535h558v203h112v-305h-967zM590 1473q-105 0 -185.5 68.5t-117.5 174.5l82 39q29 -77 90 -121.5t131 -44.5q74 0 133 46.5t88 119.5l82 -39q-37 -106 -117.5 -174.5t-185.5 -68.5z" />
    <glyph glyph-name="ebreve" unicode="&#x115;" horiz-adv-x="978" 
d="M883 406h-682q12 -160 104 -243t250 -83q82 0 145.5 22.5t151.5 73.5l-10 -106q-133 -86 -301 -86q-203 0 -327 124t-124 320q0 89 29 170t81 143t131.5 99t174.5 37q119 0 208 -58t132 -148.5t43 -197.5q0 -40 -6 -67zM496 782q-114 0 -196 -77.5t-97 -206.5h579
q-9 131 -82 207.5t-204 76.5zM489 1042q-105 0 -185.5 69t-117.5 175l82 39q29 -77 90 -121.5t131 -44.5q74 0 133.5 46.5t88.5 119.5l82 -39q-37 -106 -118 -175t-186 -69z" />
    <glyph glyph-name="Edotaccent" unicode="&#x116;" horiz-adv-x="1214" 
d="M106 0v102h181v1143h-181v103h967v-306h-112v203h-558v-506h457v-102h-457v-535h558v203h112v-305h-967zM590 1501q-44 0 -74.5 32t-30.5 77t30.5 76.5t74.5 31.5t74 -31.5t30 -76.5t-30 -77t-74 -32z" />
    <glyph glyph-name="edotaccent" unicode="&#x117;" horiz-adv-x="978" 
d="M883 406h-682q12 -160 104 -243t250 -83q82 0 145.5 22.5t151.5 73.5l-10 -106q-133 -86 -301 -86q-203 0 -327 124t-124 320q0 89 29 170t81 143t131.5 99t174.5 37q119 0 208 -58t132 -148.5t43 -197.5q0 -40 -6 -67zM496 782q-114 0 -196 -77.5t-97 -206.5h579
q-9 131 -82 207.5t-204 76.5zM489 1071q-44 0 -74 32t-30 77t30 76.5t74 31.5t74.5 -31.5t30.5 -76.5t-30.5 -77t-74.5 -32z" />
    <glyph glyph-name="Eogonek" unicode="&#x118;" horiz-adv-x="1214" 
d="M106 0v102h181v1143h-181v103h967v-306h-112v203h-558v-506h457v-102h-457v-535h558v203h112v-305h-108q-81 -36 -129 -91t-48 -118q0 -51 29.5 -80.5t87.5 -29.5q88 0 166 40l-6 -86q-26 -18 -72.5 -32.5t-97.5 -14.5q-102 0 -155.5 49.5t-53.5 133.5q0 67 39 126.5
t104 102.5h-723z" />
    <glyph glyph-name="eogonek" unicode="&#x119;" horiz-adv-x="978" 
d="M883 406h-682q12 -160 104 -243t250 -83q82 0 145.5 22.5t151.5 73.5l-10 -104q-18 -11 -55 -31.5t-59.5 -34t-55 -34.5t-52 -39.5t-39.5 -41t-29 -48t-9 -52.5q0 -51 29 -80.5t87 -29.5q88 0 166 40l-6 -86q-26 -18 -72.5 -32.5t-97.5 -14.5q-102 0 -155.5 49.5
t-53.5 133.5q0 128 117 213h-16q-203 0 -327 124t-124 320q0 89 29 170t81 143t131.5 99t174.5 37q119 0 208 -58t132 -148.5t43 -197.5q0 -40 -6 -67zM496 782q-114 0 -196 -77.5t-97 -206.5h579q-9 131 -82 207.5t-204 76.5z" />
    <glyph glyph-name="Ecaron" unicode="&#x11a;" horiz-adv-x="1214" 
d="M106 0v102h181v1143h-181v103h967v-306h-112v203h-558v-506h457v-102h-457v-535h558v203h112v-305h-967zM834 1804l51 -61l-295 -275l-295 275l51 61l244 -186z" />
    <glyph glyph-name="ecaron" unicode="&#x11b;" horiz-adv-x="978" 
d="M883 406h-682q12 -160 104 -243t250 -83q82 0 145.5 22.5t151.5 73.5l-10 -106q-133 -86 -301 -86q-203 0 -327 124t-124 320q0 89 29 170t81 143t131.5 99t174.5 37q119 0 208 -58t132 -148.5t43 -197.5q0 -40 -6 -67zM496 782q-114 0 -196 -77.5t-97 -206.5h579
q-9 131 -82 207.5t-204 76.5zM733 1374l51 -61l-295 -275l-294 275l51 61l243 -186z" />
    <glyph glyph-name="Gbreve" unicode="&#x11e;" horiz-adv-x="1519" 
d="M782 -25q-129 0 -247.5 47.5t-210 133t-146.5 216.5t-55 287q0 158 57 293t153 226t221.5 142.5t262.5 51.5q108 0 203.5 -28.5t158.5 -73.5t99.5 -98.5t36.5 -104.5q0 -49 -27.5 -79t-70.5 -30q-38 0 -65.5 27.5t-27.5 65.5q0 52 45 79q-47 56 -143 97t-213 41
q-126 0 -234 -48.5t-181 -131t-114.5 -193.5t-41.5 -236q0 -128 43.5 -237.5t118 -184t175 -117t212.5 -42.5q227 0 432 147v312h-389v100h503v-637h-110v123q-204 -148 -445 -148zM782 1473q-105 0 -185.5 68.5t-117.5 174.5l82 39q29 -77 90 -121.5t131 -44.5
q74 0 133.5 46.5t88.5 119.5l81 -39q-37 -106 -117.5 -174.5t-185.5 -68.5z" />
    <glyph glyph-name="gbreve" unicode="&#x11f;" horiz-adv-x="1136" 
d="M926 766v-807q0 -155 -78 -246q-104 -123 -332 -123q-92 0 -162 24t-108 62q-43 43 -43 95q0 42 26 69t66 27q31 0 50.5 -22t19.5 -54q0 -31 -25 -67q18 -14 68.5 -26.5t119.5 -12.5q163 0 238 90q55 68 55 174v188q-130 -137 -305 -137q-174 0 -296 123.5t-122 308.5
q0 114 52 214.5t154 165.5t233 65q168 0 288 -117v100h244v-94h-143zM532 782q-142 0 -232.5 -102t-90.5 -246q0 -146 88.5 -243t224.5 -97q167 0 299 146v432q-126 110 -289 110zM584 1042q-105 0 -185.5 69t-117.5 175l81 39q29 -77 90.5 -121.5t131.5 -44.5
q74 0 133 46.5t88 119.5l82 -39q-37 -106 -117.5 -175t-185.5 -69z" />
    <glyph glyph-name="Gdotaccent" unicode="&#x120;" horiz-adv-x="1519" 
d="M782 -25q-129 0 -247.5 47.5t-210 133t-146.5 216.5t-55 287q0 158 57 293t153 226t221.5 142.5t262.5 51.5q108 0 203.5 -28.5t158.5 -73.5t99.5 -98.5t36.5 -104.5q0 -49 -27.5 -79t-70.5 -30q-38 0 -65.5 27.5t-27.5 65.5q0 52 45 79q-47 56 -143 97t-213 41
q-126 0 -234 -48.5t-181 -131t-114.5 -193.5t-41.5 -236q0 -128 43.5 -237.5t118 -184t175 -117t212.5 -42.5q227 0 432 147v312h-389v100h503v-637h-110v123q-204 -148 -445 -148zM782 1501q-44 0 -74 32t-30 77t30 76.5t74 31.5t74.5 -31.5t30.5 -76.5t-30.5 -77
t-74.5 -32z" />
    <glyph glyph-name="gdotaccent" unicode="&#x121;" horiz-adv-x="1136" 
d="M926 766v-807q0 -155 -78 -246q-104 -123 -332 -123q-92 0 -162 24t-108 62q-43 43 -43 95q0 42 26 69t66 27q31 0 50.5 -22t19.5 -54q0 -31 -25 -67q18 -14 68.5 -26.5t119.5 -12.5q163 0 238 90q55 68 55 174v188q-130 -137 -305 -137q-174 0 -296 123.5t-122 308.5
q0 114 52 214.5t154 165.5t233 65q168 0 288 -117v100h244v-94h-143zM532 782q-142 0 -232.5 -102t-90.5 -246q0 -146 88.5 -243t224.5 -97q167 0 299 146v432q-126 110 -289 110zM584 1071q-44 0 -74.5 32t-30.5 77t30.5 76.5t74.5 31.5t74 -31.5t30 -76.5t-30 -77t-74 -32
z" />
    <glyph glyph-name="Gcommaaccent" unicode="&#x122;" horiz-adv-x="1519" 
d="M782 -25q-129 0 -247.5 47.5t-210 133t-146.5 216.5t-55 287q0 158 57 293t153 226t221.5 142.5t262.5 51.5q108 0 203.5 -28.5t158.5 -73.5t99.5 -98.5t36.5 -104.5q0 -49 -27.5 -79t-70.5 -30q-38 0 -65.5 27.5t-27.5 65.5q0 52 45 79q-47 56 -143 97t-213 41
q-126 0 -234 -48.5t-181 -131t-114.5 -193.5t-41.5 -236q0 -128 43.5 -237.5t118 -184t175 -117t212.5 -42.5q227 0 432 147v312h-389v100h503v-637h-110v123q-204 -148 -445 -148zM649 -537l-22 37q78 59 112.5 112.5t36.5 94.5q-34 5 -58 30t-24 58q0 39 25.5 64.5
t60.5 25.5q43 0 71 -32t28 -89q0 -76 -56 -158t-174 -143z" />
    <glyph glyph-name="gcommaaccent" unicode="&#x123;" horiz-adv-x="1136" 
d="M926 766v-807q0 -155 -78 -246q-104 -123 -332 -123q-92 0 -162 24t-108 62q-43 43 -43 95q0 42 26 69t66 27q31 0 50.5 -22t19.5 -54q0 -31 -25 -67q18 -14 68.5 -26.5t119.5 -12.5q163 0 238 90q55 68 55 174v188q-130 -137 -305 -137q-174 0 -296 123.5t-122 308.5
q0 114 52 214.5t154 165.5t233 65q168 0 288 -117v100h244v-94h-143zM532 782q-142 0 -232.5 -102t-90.5 -246q0 -146 88.5 -243t224.5 -97q167 0 299 146v432q-126 110 -289 110zM692 1516l23 -37q-78 -59 -113 -113t-37 -94q34 -5 58 -30t24 -58q0 -39 -25.5 -64.5
t-60.5 -25.5q-43 0 -70.5 31.5t-27.5 88.5q0 77 55.5 159t173.5 143z" />
    <glyph glyph-name="Hbar" unicode="&#x126;" horiz-adv-x="1609" 
d="M147 958v99h140v188h-181v103h478v-103h-181v-188h803v188h-180v103h477v-103h-180v-188h139v-99h-139v-856h180v-102h-477v102h180v539h-803v-539h181v-102h-478v102h181v856h-140zM403 745h803v213h-803v-213z" />
    <glyph glyph-name="hbar" unicode="&#x127;" horiz-adv-x="1130" 
d="M211 1405h-143v94h247v-315h326v-97h-326v-393q66 82 153.5 132.5t176.5 50.5q150 0 223 -93q58 -76 58 -200v-490h143v-94h-391v94h143v475q0 98 -43 150q-47 59 -151 59q-168 0 -312 -176v-508h144v-94h-391v94h143v993h-143v97h143v221z" />
    <glyph glyph-name="Imacron" unicode="&#x12a;" horiz-adv-x="714" 
d="M109 0v102h190v1143h-190v103h497v-103h-190v-1143h190v-102h-497zM59 1536v106h594v-106h-594z" />
    <glyph glyph-name="imacron" unicode="&#x12b;" horiz-adv-x="579" 
d="M98 0v94h152v672h-152v94h256v-766h154v-94h-410zM-2 1106v106h594v-106h-594z" />
    <glyph glyph-name="Ibreve" unicode="&#x12c;" horiz-adv-x="714" 
d="M109 0v102h190v1143h-190v103h497v-103h-190v-1143h190v-102h-497zM356 1473q-105 0 -185.5 68.5t-117.5 174.5l82 39q29 -77 90 -121.5t131 -44.5q74 0 133.5 46.5t88.5 119.5l81 -39q-37 -106 -117.5 -174.5t-185.5 -68.5z" />
    <glyph glyph-name="ibreve" unicode="&#x12d;" horiz-adv-x="579" 
d="M98 0v94h152v672h-152v94h256v-766h154v-94h-410zM295 1042q-105 0 -185.5 69t-117.5 175l82 39q29 -77 90 -121.5t131 -44.5q74 0 133 46.5t88 119.5l82 -39q-37 -106 -117.5 -175t-185.5 -69z" />
    <glyph glyph-name="Iogonek" unicode="&#x12e;" horiz-adv-x="714" 
d="M109 0v102h190v1143h-190v103h497v-103h-190v-1143h190v-102h-153q-81 -36 -129 -91t-48 -118q0 -51 29.5 -80.5t87.5 -29.5q88 0 166 40l-6 -86q-26 -18 -72.5 -32.5t-97.5 -14.5q-102 0 -155.5 49.5t-53.5 133.5q0 67 39 126.5t104 102.5h-208z" />
    <glyph glyph-name="iogonek" unicode="&#x12f;" horiz-adv-x="579" 
d="M98 0v94h152v672h-152v94h256v-766h154v-94h-133q-80 -36 -128 -91t-48 -118q0 -51 29 -80.5t87 -29.5q88 0 166 40l-6 -86q-26 -18 -72.5 -32.5t-97.5 -14.5q-102 0 -155.5 49.5t-53.5 133.5q0 67 39 126.5t105 102.5h-142zM285 1122q-40 0 -68.5 29.5t-28.5 69.5
t28.5 69t68.5 29q38 0 66 -29t28 -69t-28 -69.5t-66 -29.5z" />
    <glyph glyph-name="Idotaccent" unicode="&#x130;" horiz-adv-x="714" 
d="M109 0v102h190v1143h-190v103h497v-103h-190v-1143h190v-102h-497zM356 1501q-44 0 -74 32t-30 77t30 76.5t74 31.5t74.5 -31.5t30.5 -76.5t-30.5 -77t-74.5 -32z" />
    <glyph glyph-name="dotlessi" unicode="&#x131;" horiz-adv-x="579" 
d="M98 0v94h152v672h-152v94h256v-766h154v-94h-410z" />
    <glyph glyph-name="Kcommaaccent" unicode="&#x136;" horiz-adv-x="1376" 
d="M106 0v102h181v1143h-181v103h478v-103h-181v-645l644 645h-193v103h487v-103h-153l-465 -467l467 -676h166v-102h-244l-473 702l-236 -235v-365h181v-102h-478zM598 -537l-23 37q78 59 113 113t37 94q-34 5 -58 30t-24 58q0 39 25.5 64.5t60.5 25.5q43 0 70.5 -32
t27.5 -89q0 -77 -55.5 -158.5t-173.5 -142.5z" />
    <glyph glyph-name="kcommaaccent" unicode="&#x137;" horiz-adv-x="1046" 
d="M68 0v94h143v1311h-143v94h247v-1085l410 356h-190v90h477v-94h-150l-305 -262l289 -410h166v-94h-224l-307 449l-166 -142v-213h154v-94h-401zM406 -537l-23 37q78 59 112.5 112.5t36.5 94.5q-34 5 -57.5 30t-23.5 58q0 39 25.5 64.5t60.5 25.5q43 0 70.5 -32t27.5 -89
q0 -77 -55.5 -158.5t-173.5 -142.5z" />
    <glyph glyph-name="Lacute" unicode="&#x139;" horiz-adv-x="1140" 
d="M106 0v102h181v1143h-181v103h488v-103h-191v-1143h510v213h113v-315h-920zM305 1503l-24 39l256 236q44 41 77 41q30 0 52 -22t22 -58q0 -19 -20 -41t-52 -39z" />
    <glyph glyph-name="lacute" unicode="&#x13a;" horiz-adv-x="555" 
d="M74 0v94h151v1311h-151v94h256v-1405h153v-94h-409zM244 1565l-25 39l256 235q44 41 78 41q30 0 52 -22t22 -58q0 -19 -20 -41t-52 -39z" />
    <glyph glyph-name="Lcommaaccent" unicode="&#x13b;" horiz-adv-x="1140" 
d="M106 0v102h181v1143h-181v103h488v-103h-191v-1143h510v213h113v-315h-920zM432 -537l-22 37q78 59 112.5 112.5t36.5 94.5q-34 5 -58 30t-24 58q0 39 25.5 64.5t60.5 25.5q43 0 71 -32t28 -89q0 -76 -56 -158t-174 -143z" />
    <glyph glyph-name="lcommaaccent" unicode="&#x13c;" horiz-adv-x="555" 
d="M74 0v94h151v1311h-151v94h256v-1405h153v-94h-409zM145 -537l-22 37q78 59 112.5 112.5t36.5 94.5q-34 5 -58 30t-24 58q0 39 25.5 64.5t60.5 25.5q43 0 71 -32t28 -89q0 -76 -56 -158t-174 -143z" />
    <glyph glyph-name="Lcaron" unicode="&#x13d;" horiz-adv-x="1140" 
d="M106 0v102h181v1143h-181v103h488v-103h-191v-1143h510v213h113v-315h-920zM694 924l-37 28q70 101 70 203q0 27 -5 63.5t-5 55.5q0 34 19.5 56t54.5 22q36 0 54.5 -22.5t18.5 -61.5q0 -84 -47 -174t-123 -170z" />
    <glyph glyph-name="lcaron" unicode="&#x13e;" horiz-adv-x="555" 
d="M74 0v94h151v1311h-151v94h256v-1405h153v-94h-409zM442 1075l-36 29q69 100 69 203q0 27 -5 63t-5 55q0 34 19.5 56t54.5 22q36 0 54.5 -22.5t18.5 -61.5q0 -84 -47 -174t-123 -170z" />
    <glyph glyph-name="Ldot" unicode="&#x13f;" horiz-adv-x="1140" 
d="M106 0v102h181v1143h-181v103h488v-103h-191v-1143h510v213h113v-315h-920zM915 602q-44 0 -74 32t-30 77t30 76.5t74 31.5t74.5 -31.5t30.5 -76.5t-30.5 -77t-74.5 -32z" />
    <glyph glyph-name="ldot" unicode="&#x140;" horiz-adv-x="595" 
d="M74 0v94h151v1311h-151v94h256v-1405h153v-94h-409zM575 582q-44 0 -74 31.5t-30 76.5t30 77t74 32t74.5 -32t30.5 -77t-30.5 -76.5t-74.5 -31.5z" />
    <glyph glyph-name="Lslash" unicode="&#x141;" horiz-adv-x="1159" 
d="M125 0v102h180v449l-168 -100l-51 86l219 129v579h-180v103h487v-103h-190v-510l317 191l52 -84l-369 -221v-519h510v213h112v-315h-919z" />
    <glyph glyph-name="lslash" unicode="&#x142;" horiz-adv-x="595" 
d="M94 0v94h152v658l-189 -113l-47 80l236 141v545h-152v94h256v-577l164 96l47 -78l-211 -127v-719h154v-94h-410z" />
    <glyph glyph-name="Nacute" unicode="&#x143;" horiz-adv-x="1583" 
d="M1264 -6l-867 1155v-1047h181v-102h-472v102h181v1143h-181v103h283l830 -1108v1005h-181v103h465v-103h-174v-1251h-65zM713 1473l-25 38l256 236q44 41 78 41q30 0 52 -22t22 -58q0 -19 -20 -41t-52 -39z" />
    <glyph glyph-name="nacute" unicode="&#x144;" horiz-adv-x="1144" 
d="M336 860v-170q63 80 154 133.5t178 53.5q166 0 231 -111q41 -69 41 -182v-490h143v-94h-391v94h144v475q0 78 -23 125q-43 84 -162 84q-167 0 -311 -176v-508h143v-94h-391v94h144v672h-144v94h244zM512 1042l-25 39l256 236q44 41 78 41q30 0 52 -22t22 -58
q0 -19 -20 -41t-52 -39z" />
    <glyph glyph-name="Ncommaaccent" unicode="&#x145;" horiz-adv-x="1583" 
d="M1264 -6l-867 1155v-1047h181v-102h-472v102h181v1143h-181v103h283l830 -1108v1005h-181v103h465v-103h-174v-1251h-65zM655 -537l-22 37q78 59 112.5 112.5t36.5 94.5q-34 5 -58 30t-24 58q0 39 25.5 64.5t60.5 25.5q43 0 71 -32t28 -89q0 -76 -56 -158t-174 -143z" />
    <glyph glyph-name="ncommaaccent" unicode="&#x146;" horiz-adv-x="1144" 
d="M336 860v-170q63 80 154 133.5t178 53.5q166 0 231 -111q41 -69 41 -182v-490h143v-94h-391v94h144v475q0 78 -23 125q-43 84 -162 84q-167 0 -311 -176v-508h143v-94h-391v94h144v672h-144v94h244zM455 -537l-23 37q78 59 113 113t37 94q-34 5 -58 30t-24 58
q0 39 25.5 64.5t60.5 25.5q43 0 70.5 -32t27.5 -89q0 -77 -55.5 -158.5t-173.5 -142.5z" />
    <glyph glyph-name="Ncaron" unicode="&#x147;" horiz-adv-x="1583" 
d="M1264 -6l-867 1155v-1047h181v-102h-472v102h181v1143h-181v103h283l830 -1108v1005h-181v103h465v-103h-174v-1251h-65zM1032 1804l51 -61l-295 -275l-294 275l51 61l243 -186z" />
    <glyph glyph-name="ncaron" unicode="&#x148;" horiz-adv-x="1144" 
d="M336 860v-170q63 80 154 133.5t178 53.5q166 0 231 -111q41 -69 41 -182v-490h143v-94h-391v94h144v475q0 78 -23 125q-43 84 -162 84q-167 0 -311 -176v-508h143v-94h-391v94h144v672h-144v94h244zM831 1374l52 -61l-295 -275l-295 275l51 61l244 -186z" />
    <glyph glyph-name="Omacron" unicode="&#x14c;" horiz-adv-x="1601" 
d="M797 -25q-189 0 -344 92.5t-242.5 252.5t-87.5 352q0 146 52 275.5t142 223t217 147.5t271 54q189 0 344 -92.5t242.5 -252t87.5 -351.5q0 -195 -88 -355.5t-245 -253t-349 -92.5zM801 82q162 0 290.5 78.5t198.5 213t70 298.5q0 165 -70 300.5t-198.5 214.5t-290.5 79
t-290.5 -78.5t-198.5 -213t-70 -298.5q0 -165 70 -300.5t198.5 -214.5t290.5 -79zM504 1536v106h594v-106h-594z" />
    <glyph glyph-name="omacron" unicode="&#x14d;" horiz-adv-x="1069" 
d="M535 -16q-192 0 -314.5 128.5t-122.5 317.5t122.5 318t314.5 129t314 -129t122 -318t-122 -317.5t-314 -128.5zM535 78q144 0 234.5 98t90.5 254q0 154 -90.5 253t-234.5 99t-235 -99t-91 -253q0 -155 90.5 -253.5t235.5 -98.5zM238 1106v106h593v-106h-593z" />
    <glyph glyph-name="Obreve" unicode="&#x14e;" horiz-adv-x="1601" 
d="M797 -25q-189 0 -344 92.5t-242.5 252.5t-87.5 352q0 146 52 275.5t142 223t217 147.5t271 54q189 0 344 -92.5t242.5 -252t87.5 -351.5q0 -195 -88 -355.5t-245 -253t-349 -92.5zM801 82q162 0 290.5 78.5t198.5 213t70 298.5q0 165 -70 300.5t-198.5 214.5t-290.5 79
t-290.5 -78.5t-198.5 -213t-70 -298.5q0 -165 70 -300.5t198.5 -214.5t290.5 -79zM801 1473q-105 0 -185.5 68.5t-117.5 174.5l82 39q29 -77 90 -121.5t131 -44.5q74 0 133 46.5t88 119.5l82 -39q-37 -106 -117.5 -174.5t-185.5 -68.5z" />
    <glyph glyph-name="obreve" unicode="&#x14f;" horiz-adv-x="1069" 
d="M535 -16q-192 0 -314.5 128.5t-122.5 317.5t122.5 318t314.5 129t314 -129t122 -318t-122 -317.5t-314 -128.5zM535 78q144 0 234.5 98t90.5 254q0 154 -90.5 253t-234.5 99t-235 -99t-91 -253q0 -155 90.5 -253.5t235.5 -98.5zM535 1042q-105 0 -186 69t-118 175l82 39
q29 -77 90.5 -121.5t131.5 -44.5q74 0 133 46.5t88 119.5l82 -39q-37 -106 -117.5 -175t-185.5 -69z" />
    <glyph glyph-name="Ohungarumlaut" unicode="&#x150;" horiz-adv-x="1601" 
d="M797 -25q-189 0 -344 92.5t-242.5 252.5t-87.5 352q0 146 52 275.5t142 223t217 147.5t271 54q189 0 344 -92.5t242.5 -252t87.5 -351.5q0 -195 -88 -355.5t-245 -253t-349 -92.5zM801 82q162 0 290.5 78.5t198.5 213t70 298.5q0 165 -70 300.5t-198.5 214.5t-290.5 79
t-290.5 -78.5t-198.5 -213t-70 -298.5q0 -165 70 -300.5t198.5 -214.5t290.5 -79zM555 1477l-25 39l258 235q44 41 78 41q29 0 49.5 -19.5t20.5 -54.5q0 -19 -20 -41t-52 -39zM922 1487l-21 41l275 217q44 35 75 35q32 0 50 -20t18 -52q0 -51 -78 -82z" />
    <glyph glyph-name="ohungarumlaut" unicode="&#x151;" horiz-adv-x="1069" 
d="M535 -16q-192 0 -314.5 128.5t-122.5 317.5t122.5 318t314.5 129t314 -129t122 -318t-122 -317.5t-314 -128.5zM535 78q144 0 234.5 98t90.5 254q0 154 -90.5 253t-234.5 99t-235 -99t-91 -253q0 -155 90.5 -253.5t235.5 -98.5zM289 1047l-25 38l258 236q44 41 78 41
q29 0 49.5 -19.5t20.5 -54.5q0 -19 -20 -41t-52 -39zM655 1057l-20 41l274 217q44 35 76 35t50 -20t18 -52q0 -51 -78 -82z" />
    <glyph glyph-name="OE" unicode="&#x152;" horiz-adv-x="1906" 
d="M856 0q-157 0 -292.5 47.5t-232.5 132.5t-152.5 209t-55.5 270q0 304 201.5 496.5t527.5 192.5h913v-306h-112v203h-557v-506h456v-102h-456v-535h557v203h112v-305h-909zM858 102h121v1143h-137q-284 0 -442 -162t-158 -428q0 -165 79 -291.5t218.5 -194t318.5 -67.5z
" />
    <glyph glyph-name="oe" unicode="&#x153;" horiz-adv-x="1724" 
d="M1309 80q82 0 145.5 22.5t151.5 73.5l-11 -106q-133 -86 -301 -86q-139 0 -238.5 61t-150.5 170q-49 -106 -144.5 -168.5t-225.5 -62.5q-192 0 -314.5 128.5t-122.5 317.5t122.5 318t314.5 129q130 0 226.5 -63.5t143.5 -170.5q47 107 137.5 170.5t217.5 63.5
q90 0 164 -33.5t120.5 -90t72 -129t25.5 -151.5q0 -40 -6 -67h-682q12 -160 104.5 -243t250.5 -83zM535 78q144 0 234.5 98t90.5 254q0 154 -90.5 253t-234.5 99t-235 -99t-91 -253q0 -155 90.5 -253.5t235.5 -98.5zM1249 782q-114 0 -196 -77.5t-97 -206.5h580
q-9 130 -82.5 207t-204.5 77z" />
    <glyph glyph-name="Racute" unicode="&#x154;" horiz-adv-x="1263" 
d="M106 0v102h181v1143h-181v103h506q218 0 345.5 -105.5t127.5 -277.5q0 -137 -83 -233.5t-222 -137.5l316 -492h166v-102h-246l-359 569q-50 -4 -77 -4q-87 0 -177 4v-467h181v-102h-478zM584 668q171 0 278 77t107 218q0 134 -98 208t-265 74h-203v-573q98 -4 181 -4z
M561 1473l-24 38l256 236q44 41 77 41q30 0 52 -22t22 -58q0 -19 -20 -41t-52 -39z" />
    <glyph glyph-name="racute" unicode="&#x155;" horiz-adv-x="727" 
d="M592 877q54 0 85.5 -29t31.5 -70q0 -36 -24.5 -62t-59.5 -26q-32 0 -58 20.5t-35 49.5q-50 -13 -103.5 -67.5t-88.5 -123.5v-475h168v-94h-416v94h144v672h-144v94h244v-194q46 89 119.5 150t136.5 61zM324 1042l-25 39l256 236q44 41 78 41q30 0 52 -22t22 -58
q0 -19 -20 -41t-52 -39z" />
    <glyph glyph-name="Rcommaaccent" unicode="&#x156;" horiz-adv-x="1263" 
d="M106 0v102h181v1143h-181v103h506q218 0 345.5 -105.5t127.5 -277.5q0 -137 -83 -233.5t-222 -137.5l316 -492h166v-102h-246l-359 569q-50 -4 -77 -4q-87 0 -177 4v-467h181v-102h-478zM584 668q171 0 278 77t107 218q0 134 -98 208t-265 74h-203v-573q98 -4 181 -4z
M504 -537l-23 37q78 59 113 113t37 94q-34 5 -58 30t-24 58q0 39 25.5 64.5t60.5 25.5q43 0 70.5 -32t27.5 -89q0 -77 -55.5 -158.5t-173.5 -142.5z" />
    <glyph glyph-name="rcommaaccent" unicode="&#x157;" horiz-adv-x="727" 
d="M592 877q54 0 85.5 -29t31.5 -70q0 -36 -24.5 -62t-59.5 -26q-32 0 -58 20.5t-35 49.5q-50 -13 -103.5 -67.5t-88.5 -123.5v-475h168v-94h-416v94h144v672h-144v94h244v-194q46 89 119.5 150t136.5 61zM147 -537l-22 37q78 59 112.5 112.5t36.5 94.5q-34 5 -57.5 30
t-23.5 58q0 39 25.5 64.5t60.5 25.5q43 0 70.5 -32t27.5 -89q0 -76 -56 -158t-174 -143z" />
    <glyph glyph-name="Rcaron" unicode="&#x158;" horiz-adv-x="1263" 
d="M106 0v102h181v1143h-181v103h506q218 0 345.5 -105.5t127.5 -277.5q0 -137 -83 -233.5t-222 -137.5l316 -492h166v-102h-246l-359 569q-50 -4 -77 -4q-87 0 -177 4v-467h181v-102h-478zM584 668q171 0 278 77t107 218q0 134 -98 208t-265 74h-203v-573q98 -4 181 -4z
M881 1804l51 -61l-295 -275l-295 275l51 61l244 -186z" />
    <glyph glyph-name="rcaron" unicode="&#x159;" horiz-adv-x="727" 
d="M592 877q54 0 85.5 -29t31.5 -70q0 -36 -24.5 -62t-59.5 -26q-32 0 -58 20.5t-35 49.5q-50 -13 -103.5 -67.5t-88.5 -123.5v-475h168v-94h-416v94h144v672h-144v94h244v-194q46 89 119.5 150t136.5 61zM643 1374l51 -61l-295 -275l-295 275l52 61l243 -186z" />
    <glyph glyph-name="Sacute" unicode="&#x15a;" horiz-adv-x="1120" 
d="M559 -23q-124 0 -226 42.5t-154 102.5t-52 120q0 51 27.5 82.5t66.5 31.5q38 0 63 -24t25 -60q0 -49 -41 -94q36 -41 115.5 -68.5t179.5 -27.5q144 0 226.5 71t82.5 191q0 55 -22 98.5t-67 77.5t-90 57t-115 50q-55 21 -93.5 38t-83.5 40t-75.5 45t-60.5 52t-47.5 62
t-28.5 73.5t-11 88.5q0 154 110 250t292 96q154 0 267.5 -78t113.5 -178q0 -47 -27 -74.5t-66 -27.5q-40 0 -66 26t-26 64q0 43 37 84q-27 34 -99.5 57t-138.5 23q-129 0 -205.5 -65.5t-76.5 -168.5q0 -46 16.5 -84t41 -65.5t69.5 -55t85.5 -46t104.5 -44.5q73 -29 122 -52
t101.5 -57.5t83 -71.5t50.5 -89.5t20 -116.5q0 -169 -121 -272t-307 -103zM504 1473l-25 38l256 236q44 41 78 41q30 0 52 -22t22 -58q0 -19 -20 -41t-52 -39z" />
    <glyph glyph-name="sacute" unicode="&#x15b;" horiz-adv-x="876" 
d="M741 698q0 -37 -20.5 -59.5t-52.5 -22.5q-34 0 -58 22.5t-24 57.5q0 33 14 54q-52 36 -166 36q-94 0 -151.5 -43t-57.5 -100q0 -25 11.5 -45t28.5 -33.5t51.5 -27t64 -22t82.5 -21.5q58 -14 95 -25.5t83.5 -33t73.5 -47t46 -65.5t19 -90q0 -113 -97.5 -181t-238.5 -68
q-93 0 -175 26t-126 70q-47 47 -47 104q0 35 21.5 59.5t54.5 24.5q37 0 58.5 -21.5t21.5 -53.5q0 -28 -19 -60q21 -23 78 -41t131 -18q102 0 169 42t67 111q0 27 -12 49.5t-30 37.5t-49 28.5t-59 22t-69 18.5q-69 17 -111.5 29.5t-90.5 33.5t-74.5 45.5t-44 62t-17.5 85.5
q0 99 88.5 168.5t226.5 69.5q88 0 156 -23t106 -61q43 -43 43 -95zM362 1042l-24 39l256 236q44 41 78 41q30 0 51.5 -22t21.5 -58q0 -19 -19.5 -41t-51.5 -39z" />
    <glyph glyph-name="Scedilla" unicode="&#x15e;" horiz-adv-x="1120" 
d="M561 -408q-114 0 -217 54l29 65q35 -16 87 -27.5t91 -11.5q41 0 65.5 17.5t24.5 46.5q0 32 -27.5 49.5t-74.5 17.5q-27 0 -45 -6l-35 25l43 158q-163 14 -269 94.5t-106 167.5q0 51 27.5 82.5t66.5 31.5q38 0 63 -24t25 -60q0 -49 -41 -94q36 -41 115.5 -68.5
t179.5 -27.5q144 0 226.5 71t82.5 191q0 55 -22 98.5t-67 77.5t-90 57t-115 50q-55 21 -93.5 38t-83.5 40t-75.5 45t-60.5 52t-47.5 62t-28.5 73.5t-11 88.5q0 154 110 250t292 96q154 0 267.5 -78t113.5 -178q0 -47 -27 -74.5t-66 -27.5q-40 0 -66 26t-26 64q0 43 37 84
q-27 34 -99.5 57t-138.5 23q-129 0 -205.5 -65.5t-76.5 -168.5q0 -46 16.5 -84t41 -65.5t69.5 -55t85.5 -46t104.5 -44.5q73 -29 122 -52t101.5 -57.5t83 -71.5t50.5 -89.5t20 -116.5q0 -166 -116 -268t-298 -107l-8 -79q89 -1 134.5 -44t45.5 -108q0 -67 -48 -110.5
t-136 -43.5z" />
    <glyph glyph-name="scedilla" unicode="&#x15f;" horiz-adv-x="876" 
d="M455 -408q-114 0 -217 54l28 65q35 -16 87 -27.5t91 -11.5q41 0 66 17.5t25 46.5q0 32 -28 49.5t-75 17.5q-27 0 -45 -6l-35 25l45 164q-81 6 -149 30.5t-105 63.5q-47 47 -47 104q0 35 21.5 59.5t54.5 24.5q37 0 58.5 -21.5t21.5 -53.5q0 -28 -19 -60q21 -23 78 -41
t131 -18q102 0 169 42t67 111q0 27 -12 49.5t-30 37.5t-49 28.5t-59 22t-69 18.5q-69 17 -111.5 29.5t-90.5 33.5t-74.5 45.5t-44 62t-17.5 85.5q0 99 88.5 168.5t226.5 69.5q88 0 156 -23t106 -61q43 -43 43 -95q0 -37 -20.5 -59.5t-52.5 -22.5q-34 0 -58 22.5t-24 57.5
q0 33 14 54q-52 36 -166 36q-94 0 -151.5 -43t-57.5 -100q0 -25 11.5 -45t28.5 -33.5t51.5 -27t64 -22t82.5 -21.5q58 -14 95 -25.5t83.5 -33t73.5 -47t46 -65.5t19 -90q0 -108 -89.5 -174.5t-221.5 -72.5l-10 -88q89 -1 134.5 -44t45.5 -108q0 -67 -48 -110.5t-136 -43.5z
" />
    <glyph glyph-name="Scaron" unicode="&#x160;" horiz-adv-x="1120" 
d="M559 -23q-124 0 -226 42.5t-154 102.5t-52 120q0 51 27.5 82.5t66.5 31.5q38 0 63 -24t25 -60q0 -49 -41 -94q36 -41 115.5 -68.5t179.5 -27.5q144 0 226.5 71t82.5 191q0 55 -22 98.5t-67 77.5t-90 57t-115 50q-55 21 -93.5 38t-83.5 40t-75.5 45t-60.5 52t-47.5 62
t-28.5 73.5t-11 88.5q0 154 110 250t292 96q154 0 267.5 -78t113.5 -178q0 -47 -27 -74.5t-66 -27.5q-40 0 -66 26t-26 64q0 43 37 84q-27 34 -99.5 57t-138.5 23q-129 0 -205.5 -65.5t-76.5 -168.5q0 -46 16.5 -84t41 -65.5t69.5 -55t85.5 -46t104.5 -44.5q73 -29 122 -52
t101.5 -57.5t83 -71.5t50.5 -89.5t20 -116.5q0 -169 -121 -272t-307 -103zM823 1804l51 -61l-294 -275l-295 275l51 61l244 -186z" />
    <glyph glyph-name="scaron" unicode="&#x161;" horiz-adv-x="876" 
d="M741 698q0 -37 -20.5 -59.5t-52.5 -22.5q-34 0 -58 22.5t-24 57.5q0 33 14 54q-52 36 -166 36q-94 0 -151.5 -43t-57.5 -100q0 -25 11.5 -45t28.5 -33.5t51.5 -27t64 -22t82.5 -21.5q58 -14 95 -25.5t83.5 -33t73.5 -47t46 -65.5t19 -90q0 -113 -97.5 -181t-238.5 -68
q-93 0 -175 26t-126 70q-47 47 -47 104q0 35 21.5 59.5t54.5 24.5q37 0 58.5 -21.5t21.5 -53.5q0 -28 -19 -60q21 -23 78 -41t131 -18q102 0 169 42t67 111q0 27 -12 49.5t-30 37.5t-49 28.5t-59 22t-69 18.5q-69 17 -111.5 29.5t-90.5 33.5t-74.5 45.5t-44 62t-17.5 85.5
q0 99 88.5 168.5t226.5 69.5q88 0 156 -23t106 -61q43 -43 43 -95zM682 1374l51 -61l-295 -275l-295 275l52 61l243 -186z" />
    <glyph glyph-name="Tcommaaccent" unicode="&#x162;" horiz-adv-x="1304" 
d="M403 0v102h191v1147h-379v-217h-113v316h1100v-316h-112v217h-379v-1147h190v-102h-498zM518 -537l-22 37q78 59 112.5 112.5t36.5 94.5q-34 5 -58 30t-24 58q0 39 25.5 64.5t60.5 25.5q43 0 71 -32t28 -89q0 -76 -56 -158t-174 -143z" />
    <glyph glyph-name="tcommaaccent" unicode="&#x163;" horiz-adv-x="649" 
d="M385 -16q-125 0 -170 94q-20 41 -20 110v578h-156v94h156v223l104 37v-260h266v-94h-266v-567q0 -43 12 -70q23 -45 107 -45q68 0 157 55l-16 -108q-92 -47 -174 -47zM233 -537l-22 37q78 59 112.5 112.5t36.5 94.5q-34 5 -57.5 30t-23.5 58q0 39 25.5 64.5t60.5 25.5
q43 0 70.5 -32t27.5 -89q0 -76 -56 -158t-174 -143z" />
    <glyph glyph-name="Tcaron" unicode="&#x164;" horiz-adv-x="1304" 
d="M403 0v102h191v1147h-379v-217h-113v316h1100v-316h-112v217h-379v-1147h190v-102h-498zM895 1804l51 -61l-295 -275l-295 275l52 61l243 -186z" />
    <glyph glyph-name="tcaron" unicode="&#x165;" horiz-adv-x="649" 
d="M385 -16q-125 0 -170 94q-20 41 -20 110v578h-156v94h156v223l104 37v-260h266v-94h-266v-567q0 -43 12 -70q23 -45 107 -45q68 0 157 55l-16 -108q-92 -47 -174 -47zM432 971l-37 28q70 101 70 203q0 27 -5 63.5t-5 55.5q0 34 19 56t54 22q36 0 55 -22.5t19 -61.5
q0 -84 -47 -174t-123 -170z" />
    <glyph glyph-name="Umacron" unicode="&#x16a;" horiz-adv-x="1470" 
d="M731 -25q-230 0 -353.5 126t-123.5 352v792h-180v103h477v-103h-184v-782q0 -190 94.5 -285.5t271.5 -95.5q178 0 274.5 95t96.5 282v786h-184v103h477v-103h-180v-784q0 -229 -128 -357.5t-358 -128.5zM438 1536v106h594v-106h-594z" />
    <glyph glyph-name="umacron" unicode="&#x16b;" horiz-adv-x="1120" 
d="M477 -16q-168 0 -233 114q-39 71 -39 178v490h-144v94h248v-569q0 -73 27 -129q42 -80 158 -80q150 0 311 176v508h-143v94h247v-766h144v-94h-244v170q-63 -80 -154 -133t-178 -53zM254 1106v106h594v-106h-594z" />
    <glyph glyph-name="Ubreve" unicode="&#x16c;" horiz-adv-x="1470" 
d="M731 -25q-230 0 -353.5 126t-123.5 352v792h-180v103h477v-103h-184v-782q0 -190 94.5 -285.5t271.5 -95.5q178 0 274.5 95t96.5 282v786h-184v103h477v-103h-180v-784q0 -229 -128 -357.5t-358 -128.5zM735 1473q-105 0 -185.5 68.5t-117.5 174.5l82 39
q29 -77 90 -121.5t131 -44.5q74 0 133 46.5t88 119.5l82 -39q-37 -106 -117.5 -174.5t-185.5 -68.5z" />
    <glyph glyph-name="ubreve" unicode="&#x16d;" horiz-adv-x="1120" 
d="M477 -16q-168 0 -233 114q-39 71 -39 178v490h-144v94h248v-569q0 -73 27 -129q42 -80 158 -80q150 0 311 176v508h-143v94h247v-766h144v-94h-244v170q-63 -80 -154 -133t-178 -53zM551 1042q-105 0 -185.5 69t-117.5 175l82 39q29 -77 90 -121.5t131 -44.5
q74 0 133 46.5t88 119.5l82 -39q-37 -106 -117.5 -175t-185.5 -69z" />
    <glyph glyph-name="Uring" unicode="&#x16e;" horiz-adv-x="1470" 
d="M731 -25q-230 0 -353.5 126t-123.5 352v792h-180v103h477v-103h-184v-782q0 -190 94.5 -285.5t271.5 -95.5q178 0 274.5 95t96.5 282v786h-184v103h477v-103h-180v-784q0 -229 -128 -357.5t-358 -128.5zM735 1450q-85 0 -144 61.5t-59 147.5t59 147.5t144 61.5t144 -61.5
t59 -147.5t-59 -147.5t-144 -61.5zM735 1534q51 0 84 36t33 89t-33 89t-84 36t-84 -36t-33 -89t33 -89t84 -36z" />
    <glyph glyph-name="uring" unicode="&#x16f;" horiz-adv-x="1120" 
d="M477 -16q-168 0 -233 114q-39 71 -39 178v490h-144v94h248v-569q0 -73 27 -129q42 -80 158 -80q150 0 311 176v508h-143v94h247v-766h144v-94h-244v170q-63 -80 -154 -133t-178 -53zM551 1020q-85 0 -144 61.5t-59 147.5t59 147.5t144 61.5t144 -61.5t59 -147.5
t-59 -147.5t-144 -61.5zM551 1104q51 0 84 36t33 89t-33 89t-84 36t-84 -36t-33 -89t33 -89t84 -36z" />
    <glyph glyph-name="Uhungarumlaut" unicode="&#x170;" horiz-adv-x="1470" 
d="M731 -25q-230 0 -353.5 126t-123.5 352v792h-180v103h477v-103h-184v-782q0 -190 94.5 -285.5t271.5 -95.5q178 0 274.5 95t96.5 282v786h-184v103h477v-103h-180v-784q0 -229 -128 -357.5t-358 -128.5zM489 1477l-24 39l258 235q44 41 78 41q29 0 49 -19.5t20 -54.5
q0 -19 -19.5 -41t-51.5 -39zM856 1487l-20 41l274 217q44 35 76 35q31 0 49 -20t18 -52q0 -52 -77 -82z" />
    <glyph glyph-name="uhungarumlaut" unicode="&#x171;" horiz-adv-x="1120" 
d="M477 -16q-168 0 -233 114q-39 71 -39 178v490h-144v94h248v-569q0 -73 27 -129q42 -80 158 -80q150 0 311 176v508h-143v94h247v-766h144v-94h-244v170q-63 -80 -154 -133t-178 -53zM305 1047l-24 38l258 236q44 41 77 41q29 0 49.5 -19.5t20.5 -54.5q0 -19 -20 -41
t-52 -39zM672 1057l-21 41l275 217q44 35 75 35q32 0 50 -20t18 -52q0 -51 -78 -82z" />
    <glyph glyph-name="Uogonek" unicode="&#x172;" horiz-adv-x="1470" 
d="M788 -412q-102 0 -155 49.5t-53 133.5q0 117 110 206q-211 10 -323.5 134.5t-112.5 341.5v792h-180v103h477v-103h-184v-782q0 -190 94.5 -285.5t271.5 -95.5q178 0 274.5 95t96.5 282v786h-184v103h477v-103h-180v-784q0 -205 -103.5 -330.5t-292.5 -148.5
q-65 -36 -102 -85.5t-37 -105.5q0 -51 29.5 -80.5t87.5 -29.5q88 0 166 40l-7 -86q-26 -18 -72.5 -32.5t-97.5 -14.5z" />
    <glyph glyph-name="uogonek" unicode="&#x173;" horiz-adv-x="1120" 
d="M870 -412q-102 0 -155 49.5t-53 133.5q0 68 40 129t107 102v168q-63 -80 -154 -133t-178 -53q-168 0 -233 114q-39 71 -39 178v490h-144v94h248v-569q0 -73 27 -129q42 -80 158 -80q150 0 311 176v508h-143v94h247v-766h144v-94h-113q-80 -36 -128 -91t-48 -118
q0 -51 29.5 -80.5t87.5 -29.5q88 0 166 40l-7 -86q-26 -18 -72.5 -32.5t-97.5 -14.5z" />
    <glyph glyph-name="Wcircumflex" unicode="&#x174;" horiz-adv-x="1996" 
d="M592 -25l-389 1270h-162v103h448v-103h-165l311 -1050l340 979h65l342 -977l308 1048h-172v103h446v-103h-162l-383 -1270h-69l-342 973l-346 -973h-70zM758 1460l-51 62l294 274l295 -274l-51 -62l-244 187z" />
    <glyph glyph-name="wcircumflex" unicode="&#x175;" horiz-adv-x="1396" 
d="M391 -37l-248 803h-127v94h377v-90h-143l174 -602l256 592h41l256 -590l174 600h-147v90h376v-94h-129l-245 -803h-41l-267 615l-266 -615h-41zM455 1030l-52 62l295 274l295 -274l-51 -62l-244 187z" />
    <glyph glyph-name="Ycircumflex" unicode="&#x176;" horiz-adv-x="1312" 
d="M397 0v102h199v449l-406 694h-147v103h428v-103h-147l333 -594l338 594h-153v103h428v-103h-150l-405 -692v-451h198v-102h-516zM412 1460l-52 62l295 274l295 -274l-51 -62l-244 187z" />
    <glyph glyph-name="ycircumflex" unicode="&#x177;" horiz-adv-x="1032" 
d="M414 -250q-52 -80 -104.5 -120t-114.5 -40q-54 0 -94 28t-40 75q0 35 21.5 57.5t54.5 22.5t57.5 -24.5t32.5 -57.5q60 23 119 119q27 44 78 147l45 94l-332 715h-123v94h381v-94h-139q17 -38 44.5 -100t85.5 -193.5t96.5 -219t37.5 -87.5l268 600h-145v94h375v-94h-123
l-410 -883q-46 -95 -71 -133zM272 1030l-51 62l295 274l295 -274l-51 -62l-244 187z" />
    <glyph glyph-name="Ydieresis" unicode="&#x178;" horiz-adv-x="1312" 
d="M397 0v102h199v449l-406 694h-147v103h428v-103h-147l333 -594l338 594h-153v103h428v-103h-150l-405 -692v-451h198v-102h-516zM819 1505q-42 0 -71 31t-29 74t29 73.5t71 30.5t71.5 -30.5t29.5 -73.5t-29.5 -74t-71.5 -31zM492 1505q-42 0 -71.5 31t-29.5 74t29.5 73.5
t71.5 30.5t71 -30.5t29 -73.5t-29 -74t-71 -31z" />
    <glyph glyph-name="Zacute" unicode="&#x179;" horiz-adv-x="1222" 
d="M92 0v49l854 1202h-696v-209h-113v306h979v-50l-854 -1202h756v209h112v-305h-1038zM535 1473l-25 38l256 236q44 41 78 41q30 0 52 -22t22 -58q0 -19 -20 -41t-52 -39z" />
    <glyph glyph-name="zacute" unicode="&#x17a;" horiz-adv-x="909" 
d="M82 0v33l567 737h-434v-172h-96v262h702v-33l-567 -737h479v172h96v-262h-747zM379 1042l-25 39l256 236q44 41 78 41q30 0 52 -22t22 -58q0 -19 -20 -41t-52 -39z" />
    <glyph glyph-name="Zdotaccent" unicode="&#x17b;" horiz-adv-x="1222" 
d="M92 0v49l854 1202h-696v-209h-113v306h979v-50l-854 -1202h756v209h112v-305h-1038zM610 1501q-44 0 -74 32t-30 77t30 76.5t74 31.5t74.5 -31.5t30.5 -76.5t-30.5 -77t-74.5 -32z" />
    <glyph glyph-name="zdotaccent" unicode="&#x17c;" horiz-adv-x="909" 
d="M82 0v33l567 737h-434v-172h-96v262h702v-33l-567 -737h479v172h96v-262h-747zM455 1071q-44 0 -74.5 32t-30.5 77t30.5 76.5t74.5 31.5t74 -31.5t30 -76.5t-30 -77t-74 -32z" />
    <glyph glyph-name="Zcaron" unicode="&#x17d;" horiz-adv-x="1222" 
d="M92 0v49l854 1202h-696v-209h-113v306h979v-50l-854 -1202h756v209h112v-305h-1038zM854 1804l51 -61l-295 -275l-295 275l52 61l243 -186z" />
    <glyph glyph-name="zcaron" unicode="&#x17e;" horiz-adv-x="909" 
d="M82 0v33l567 737h-434v-172h-96v262h702v-33l-567 -737h479v172h96v-262h-747zM698 1374l52 -61l-295 -275l-295 275l51 61l244 -186z" />
    <glyph glyph-name="Aringacute" unicode="&#x1fa;" horiz-adv-x="1454" 
d="M928 1495q0 -88 -68 -147h141v-103h-155l432 -1143h135v-102h-420v102h158l-141 381h-572l-141 -381h164v-102h-420v102h135l432 1143h-155v103h135q-66 63 -66 147q0 79 59.5 139t143.5 60t143.5 -60t59.5 -139zM475 584h498l-248 671zM725 1360q51 0 84 36t33 89
t-33 89t-84 36t-84 -36t-33 -89t33 -89t84 -36zM649 1778l-24 39l256 235q44 41 77 41q30 0 52 -22t22 -58q0 -19 -19.5 -41t-51.5 -39z" />
    <glyph glyph-name="aringacute" unicode="&#x1fb;" horiz-adv-x="993" 
d="M389 -16q-129 0 -209 70.5t-80 178.5q0 116 92.5 188.5t233.5 72.5q64 0 145 -17t117 -33v144q0 76 -41 123q-64 71 -196 71q-91 0 -156 -45q14 -28 14 -55q0 -33 -21.5 -55.5t-56.5 -22.5q-36 0 -57.5 23.5t-21.5 58.5q0 76 85.5 133.5t225.5 57.5q173 0 262 -95
q63 -66 63 -170v-518h144v-94h-240v117q-57 -58 -138 -95.5t-165 -37.5zM410 76q156 0 278 141v145q-134 44 -258 44q-109 0 -167 -46.5t-58 -119.5q0 -72 53.5 -118t151.5 -46zM498 1020q-85 0 -144 61.5t-59 147.5t59 147.5t144 61.5q84 0 143 -61t59 -148t-59 -148
t-143 -61zM498 1104q50 0 83 36t33 89t-33 89t-83 36q-51 0 -84 -36t-33 -89t33 -89t84 -36zM422 1542l-25 39l256 236q44 41 78 41q30 0 52 -22t22 -58q0 -19 -20 -41t-52 -39z" />
    <glyph glyph-name="AEacute" unicode="&#x1fc;" horiz-adv-x="1792" 
d="M-16 0v102h157l572 1143h-140v103h1078v-306h-113v203h-557v-506h457v-102h-457v-535h557v203h113v-305h-946v102h159v381h-418l-190 -381h147v-102h-419zM496 584h368v661h-37zM920 1473l-25 38l256 236q44 41 78 41q30 0 52 -22t22 -58q0 -19 -20 -41t-52 -39z" />
    <glyph glyph-name="aeacute" unicode="&#x1fd;" horiz-adv-x="1548" 
d="M451 780q-94 0 -156 -43q14 -28 14 -55q0 -33 -21.5 -55.5t-56.5 -22.5q-36 0 -57.5 23.5t-21.5 58.5q0 76 85.5 133.5t225.5 57.5q174 0 258 -105q29 -41 37 -65q54 79 137 124.5t184 45.5q119 0 208 -58t132 -148.5t43 -197.5q0 -40 -6 -67h-682q10 -163 101.5 -244.5
t252.5 -81.5q82 0 145.5 22.5t151.5 73.5l-10 -106q-133 -86 -301 -86q-242 0 -356 168q-168 -168 -369 -168q-129 0 -209 70.5t-80 178.5q0 116 92.5 188.5t233.5 72.5q64 0 145 -17t117 -33v134q0 75 -43 124q-65 78 -194 78zM410 76q82 0 156 33t159 106q-28 67 -37 145
q-133 46 -258 46q-109 0 -167 -46.5t-58 -119.5q0 -72 53.5 -118t151.5 -46zM1069 782q-114 0 -196 -77.5t-97 -206.5h580q-9 130 -82.5 207t-204.5 77zM705 1042l-25 39l256 236q44 41 78 41q30 0 51.5 -22t21.5 -58q0 -19 -19.5 -41t-51.5 -39z" />
    <glyph glyph-name="Oslashacute" unicode="&#x1fe;" horiz-adv-x="1601" 
d="M797 -25q-241 0 -420 146l-170 -199l-74 64l174 200q-88 95 -136 220.5t-48 265.5q0 146 52 275.5t142 223t217 147.5t271 54q227 0 403 -133l162 188l74 -63l-164 -188q94 -95 146.5 -225t52.5 -275q0 -195 -88 -355.5t-245 -253t-349 -92.5zM801 82q162 0 290.5 78.5
t198.5 213t70 298.5q0 259 -154 426l-762 -895q146 -121 357 -121zM242 676q0 -248 141 -414l758 895q-147 109 -340 109q-162 0 -290.5 -78.5t-198.5 -213t-70 -298.5zM725 1473l-25 38l256 236q44 41 78 41q30 0 52 -22t22 -58q0 -19 -20 -41t-52 -39z" />
    <glyph glyph-name="oslashacute" unicode="&#x1ff;" horiz-adv-x="1069" 
d="M535 -16q-139 0 -252 82l-103 -121l-74 61l105 123q-113 126 -113 301q0 189 122.5 318t314.5 129q142 0 256 -84l100 118l74 -61l-105 -123q111 -127 111 -297q0 -189 -122 -317.5t-314 -128.5zM209 430q0 -139 74 -235l446 524q-81 63 -194 63q-144 0 -235 -99
t-91 -253zM535 78q144 0 234.5 98t90.5 254q0 131 -72 229l-446 -522q85 -59 193 -59zM459 1042l-25 39l256 236q44 41 78 41q30 0 52 -22t22 -58q0 -19 -20 -41t-52 -39z" />
    <glyph glyph-name="Scommaaccent" unicode="&#x218;" horiz-adv-x="1120" 
d="M559 -23q-124 0 -226 42.5t-154 102.5t-52 120q0 51 27.5 82.5t66.5 31.5q38 0 63 -24t25 -60q0 -49 -41 -94q36 -41 115.5 -68.5t179.5 -27.5q144 0 226.5 71t82.5 191q0 55 -22 98.5t-67 77.5t-90 57t-115 50q-55 21 -93.5 38t-83.5 40t-75.5 45t-60.5 52t-47.5 62
t-28.5 73.5t-11 88.5q0 154 110 250t292 96q154 0 267.5 -78t113.5 -178q0 -47 -27 -74.5t-66 -27.5q-40 0 -66 26t-26 64q0 43 37 84q-27 34 -99.5 57t-138.5 23q-129 0 -205.5 -65.5t-76.5 -168.5q0 -46 16.5 -84t41 -65.5t69.5 -55t85.5 -46t104.5 -44.5q73 -29 122 -52
t101.5 -57.5t83 -71.5t50.5 -89.5t20 -116.5q0 -169 -121 -272t-307 -103zM446 -537l-22 37q78 59 112.5 112.5t36.5 94.5q-34 5 -57.5 30t-23.5 58q0 39 25.5 64.5t60.5 25.5q43 0 70.5 -32t27.5 -89q0 -76 -56 -158t-174 -143z" />
    <glyph glyph-name="scommaaccent" unicode="&#x219;" horiz-adv-x="876" 
d="M741 698q0 -37 -20.5 -59.5t-52.5 -22.5q-34 0 -58 22.5t-24 57.5q0 33 14 54q-52 36 -166 36q-94 0 -151.5 -43t-57.5 -100q0 -25 11.5 -45t28.5 -33.5t51.5 -27t64 -22t82.5 -21.5q58 -14 95 -25.5t83.5 -33t73.5 -47t46 -65.5t19 -90q0 -113 -97.5 -181t-238.5 -68
q-93 0 -175 26t-126 70q-47 47 -47 104q0 35 21.5 59.5t54.5 24.5q37 0 58.5 -21.5t21.5 -53.5q0 -28 -19 -60q21 -23 78 -41t131 -18q102 0 169 42t67 111q0 27 -12 49.5t-30 37.5t-49 28.5t-59 22t-69 18.5q-69 17 -111.5 29.5t-90.5 33.5t-74.5 45.5t-44 62t-17.5 85.5
q0 99 88.5 168.5t226.5 69.5q88 0 156 -23t106 -61q43 -43 43 -95zM305 -537l-22 37q78 59 112.5 112.5t36.5 94.5q-34 5 -58 30t-24 58q0 39 25.5 64.5t60.5 25.5q43 0 71 -32t28 -89q0 -76 -56 -158t-174 -143z" />
    <glyph glyph-name="schwa" unicode="&#x259;" horiz-adv-x="978" 
d="M473 -16q-90 0 -164 33.5t-121 90t-72.5 128.5t-25.5 151q0 41 6 68h680q-10 159 -103 242t-249 83q-82 0 -145.5 -22.5t-151.5 -73.5l10 107q133 86 301 86q202 0 326.5 -124.5t124.5 -320.5q0 -89 -29 -169.5t-81 -142.5t-131.5 -99t-174.5 -37zM483 78q113 0 195.5 78
t95.5 206h-577q9 -131 82 -207.5t204 -76.5z" />
    <glyph glyph-name="circumflex" unicode="&#x2c6;" horiz-adv-x="1024" 
d="M268 1030l-51 62l295 274l295 -274l-51 -62l-244 187z" />
    <glyph glyph-name="caron" unicode="&#x2c7;" horiz-adv-x="1024" 
d="M756 1374l51 -61l-295 -275l-295 275l51 61l244 -186z" />
    <glyph glyph-name="breve" unicode="&#x2d8;" horiz-adv-x="1024" 
d="M512 1042q-105 0 -185.5 69t-117.5 175l82 39q29 -77 90 -121.5t131 -44.5q74 0 133 46.5t88 119.5l82 -39q-37 -106 -117.5 -175t-185.5 -69z" />
    <glyph glyph-name="dotaccent" unicode="&#x2d9;" horiz-adv-x="1024" 
d="M512 1071q-44 0 -74 32t-30 77t30 76.5t74 31.5t74 -31.5t30 -76.5t-30 -77t-74 -32z" />
    <glyph glyph-name="ring" unicode="&#x2da;" horiz-adv-x="1024" 
d="M512 1020q-85 0 -144 61.5t-59 147.5t59 147.5t144 61.5t144 -61.5t59 -147.5t-59 -147.5t-144 -61.5zM512 1104q51 0 84 36t33 89t-33 89t-84 36t-84 -36t-33 -89t33 -89t84 -36z" />
    <glyph glyph-name="ogonek" unicode="&#x2db;" horiz-adv-x="1036" 
d="M520 -412q-102 0 -155.5 49.5t-53.5 133.5q0 96 79 175t192 113l98 -28q-117 -30 -191.5 -95t-74.5 -145q0 -51 29 -80.5t87 -29.5q88 0 166 40l-6 -86q-26 -18 -72.5 -32.5t-97.5 -14.5z" />
    <glyph glyph-name="tilde" unicode="&#x2dc;" horiz-adv-x="1024" 
d="M653 1044q-54 0 -93.5 20.5t-86.5 59.5q-36 30 -55.5 41t-40.5 11q-36 0 -59 -33t-29 -86l-92 18q3 87 55 149t119 62q54 0 93.5 -20.5t86.5 -59.5q35 -29 55 -40t41 -11q36 0 59 33t29 86l92 -19q-3 -87 -55 -149t-119 -62z" />
    <glyph glyph-name="hungarumlaut" unicode="&#x2dd;" horiz-adv-x="1024" 
d="M123 1047l-25 38l258 236q44 41 78 41q29 0 49.5 -19.5t20.5 -54.5q0 -19 -20 -41t-52 -39zM489 1057l-20 41l274 217q44 35 76 35t50 -20t18 -52q0 -51 -78 -82z" />
    <glyph glyph-name="commaaccent" unicode="&#x326;" horiz-adv-x="471" 
d="M135 -537l-22 37q78 59 112.5 112.5t36.5 94.5q-34 5 -58 30t-24 58q0 39 25.5 64.5t60.5 25.5q43 0 71 -32t28 -89q0 -76 -56 -158t-174 -143z" />
    <glyph glyph-name="Wgrave" unicode="&#x1e80;" horiz-adv-x="1996" 
d="M592 -25l-389 1270h-162v103h448v-103h-165l311 -1050l340 979h65l342 -977l308 1048h-172v103h446v-103h-162l-383 -1270h-69l-342 973l-346 -973h-70zM1077 1473l-311 155q-32 17 -52 39t-20 41q0 36 22 58t52 22q34 0 78 -41l256 -236z" />
    <glyph glyph-name="wgrave" unicode="&#x1e81;" horiz-adv-x="1396" 
d="M391 -37l-248 803h-127v94h377v-90h-143l174 -602l256 592h41l256 -590l174 600h-147v90h376v-94h-129l-245 -803h-41l-267 615l-266 -615h-41zM774 1042l-311 156q-32 17 -52 39t-20 41q0 36 22 58t52 22q34 0 78 -41l256 -236z" />
    <glyph glyph-name="Wacute" unicode="&#x1e82;" horiz-adv-x="1996" 
d="M592 -25l-389 1270h-162v103h448v-103h-165l311 -1050l340 979h65l342 -977l308 1048h-172v103h446v-103h-162l-383 -1270h-69l-342 973l-346 -973h-70zM926 1473l-25 38l256 236q44 41 78 41q30 0 52 -22t22 -58q0 -19 -20 -41t-52 -39z" />
    <glyph glyph-name="wacute" unicode="&#x1e83;" horiz-adv-x="1396" 
d="M391 -37l-248 803h-127v94h377v-90h-143l174 -602l256 592h41l256 -590l174 600h-147v90h376v-94h-129l-245 -803h-41l-267 615l-266 -615h-41zM623 1042l-25 39l256 236q44 41 78 41q30 0 52 -22t22 -58q0 -19 -20 -41t-52 -39z" />
    <glyph glyph-name="Wdieresis" unicode="&#x1e84;" horiz-adv-x="1996" 
d="M592 -25l-389 1270h-162v103h448v-103h-165l311 -1050l340 979h65l342 -977l308 1048h-172v103h446v-103h-162l-383 -1270h-69l-342 973l-346 -973h-70zM1165 1505q-42 0 -71 31t-29 74t29 73.5t71 30.5t71.5 -30.5t29.5 -73.5t-29.5 -74t-71.5 -31zM838 1505
q-42 0 -71.5 31t-29.5 74t29.5 73.5t71.5 30.5t71 -30.5t29 -73.5t-29 -74t-71 -31z" />
    <glyph glyph-name="wdieresis" unicode="&#x1e85;" horiz-adv-x="1396" 
d="M391 -37l-248 803h-127v94h377v-90h-143l174 -602l256 592h41l256 -590l174 600h-147v90h376v-94h-129l-245 -803h-41l-267 615l-266 -615h-41zM862 1075q-42 0 -71 31t-29 74t29 73.5t71 30.5t71.5 -30.5t29.5 -73.5t-29.5 -74t-71.5 -31zM535 1075q-42 0 -71.5 31
t-29.5 74t29.5 73.5t71.5 30.5t71 -30.5t29 -73.5t-29 -74t-71 -31z" />
    <glyph glyph-name="Ygrave" unicode="&#x1ef2;" horiz-adv-x="1312" 
d="M397 0v102h199v449l-406 694h-147v103h428v-103h-147l333 -594l338 594h-153v103h428v-103h-150l-405 -692v-451h198v-102h-516zM731 1473l-311 155q-32 17 -52 39t-20 41q0 36 22 58t52 22q34 0 78 -41l256 -236z" />
    <glyph glyph-name="ygrave" unicode="&#x1ef3;" horiz-adv-x="1032" 
d="M414 -250q-52 -80 -104.5 -120t-114.5 -40q-54 0 -94 28t-40 75q0 35 21.5 57.5t54.5 22.5t57.5 -24.5t32.5 -57.5q60 23 119 119q27 44 78 147l45 94l-332 715h-123v94h381v-94h-139q17 -38 44.5 -100t85.5 -193.5t96.5 -219t37.5 -87.5l268 600h-145v94h375v-94h-123
l-410 -883q-46 -95 -71 -133zM592 1042l-311 156q-32 17 -52 39t-20 41q0 36 22 58t52 22q33 0 77 -41l256 -236z" />
    <glyph glyph-name="enspace" unicode="&#x2002;" horiz-adv-x="1024" 
 />
    <glyph glyph-name="emspace" unicode="&#x2003;" horiz-adv-x="2048" 
 />
    <glyph glyph-name="threeperemspace" unicode="&#x2004;" horiz-adv-x="681" 
 />
    <glyph glyph-name="fourperemspace" unicode="&#x2005;" horiz-adv-x="512" 
 />
    <glyph glyph-name="figurespace" unicode="&#x2007;" horiz-adv-x="1085" 
 />
    <glyph glyph-name="thinspace" unicode="&#x2009;" horiz-adv-x="272" 
 />
    <glyph glyph-name="hairspace" unicode="&#x200a;" horiz-adv-x="153" 
 />
    <glyph glyph-name="endash" unicode="&#x2013;" horiz-adv-x="868" 
d="M45 512v106h778v-106h-778z" />
    <glyph glyph-name="emdash" unicode="&#x2014;" horiz-adv-x="1452" 
d="M45 512v106h1362v-106h-1362z" />
    <glyph glyph-name="quoteleft" unicode="&#x2018;" horiz-adv-x="391" 
d="M184 887q-52 0 -86.5 39t-34.5 108q0 60 26 126.5t91 139t160 119.5l27 -43q-48 -34 -84.5 -74t-55 -77t-27.5 -67t-10 -54q39 -5 71 -37.5t32 -71.5q0 -45 -33.5 -76.5t-75.5 -31.5z" />
    <glyph glyph-name="quoteright" unicode="&#x2019;" horiz-adv-x="391" 
d="M51 858l-26 43q91 64 132.5 140t43.5 133q-39 5 -71 37t-32 71q0 45 33.5 77t75.5 32q52 0 86.5 -39.5t34.5 -108.5q0 -60 -26 -126.5t-91 -139t-160 -119.5z" />
    <glyph glyph-name="quotesinglbase" unicode="&#x201a;" horiz-adv-x="376" 
d="M25 -289l-27 43q92 67 133 130.5t43 111.5q-37 5 -66.5 35.5t-29.5 68.5q0 42 31 72.5t71 30.5q48 0 81.5 -37.5t33.5 -102.5q0 -90 -65.5 -185.5t-204.5 -166.5z" />
    <glyph glyph-name="quotedblleft" unicode="&#x201c;" horiz-adv-x="749" 
d="M543 887q-52 0 -86.5 39t-34.5 108q0 60 25.5 126.5t90.5 139t160 119.5l27 -43q-91 -64 -132.5 -140t-43.5 -132q39 -5 70.5 -37.5t31.5 -71.5q0 -45 -33 -76.5t-75 -31.5zM184 887q-52 0 -86.5 39t-34.5 108q0 60 26 126.5t91 139t160 119.5l27 -43q-48 -34 -84.5 -74
t-55 -77t-27.5 -67t-10 -54q39 -5 71 -37.5t32 -71.5q0 -45 -33.5 -76.5t-75.5 -31.5z" />
    <glyph glyph-name="quotedblright" unicode="&#x201d;" horiz-adv-x="749" 
d="M410 858l-27 43q91 64 132.5 140t43.5 133q-39 5 -70.5 37t-31.5 71q0 45 33 77t75 32q52 0 86.5 -39.5t34.5 -108.5q0 -60 -25.5 -126.5t-90.5 -139t-160 -119.5zM51 858l-26 43q91 64 132.5 140t43.5 133q-39 5 -71 37t-32 71q0 45 33.5 77t75.5 32q52 0 86.5 -39.5
t34.5 -108.5q0 -60 -26 -126.5t-91 -139t-160 -119.5z" />
    <glyph glyph-name="quotedblbase" unicode="&#x201e;" horiz-adv-x="737" 
d="M385 -289l-27 43q92 67 133.5 130.5t43.5 111.5q-38 5 -67.5 35.5t-29.5 68.5q0 42 31.5 72.5t71.5 30.5q48 0 81 -37.5t33 -102.5q0 -90 -65.5 -185.5t-204.5 -166.5zM25 -289l-27 43q92 67 133 130.5t43 111.5q-37 5 -66.5 35.5t-29.5 68.5q0 42 31 72.5t71 30.5
q48 0 81.5 -37.5t33.5 -102.5q0 -90 -65.5 -185.5t-204.5 -166.5z" />
    <glyph glyph-name="dagger" unicode="&#x2020;" horiz-adv-x="909" 
d="M424 -4l-21 811l-184 24q4 -51 -24 -84.5t-68 -33.5t-64 28t-24 64q0 46 31.5 76t85.5 30q21 0 61 -8l211 -45l-47 320q-9 58 11 92.5t63 34.5t62.5 -34t10.5 -93l-47 -320l211 45q40 8 62 8q54 0 85 -30t31 -76q0 -36 -24 -64t-64 -28t-68 33.5t-24 84.5l-184 -24
l-21 -811h-61z" />
    <glyph glyph-name="daggerdbl" unicode="&#x2021;" horiz-adv-x="909" 
d="M455 -250q-43 0 -63 34.5t-11 92.5l41 256l-174 -39q-40 -8 -62 -8q-52 0 -86 30t-34 72q0 36 25.5 63.5t66.5 27.5q40 0 68 -31.5t24 -81.5l149 20l31 340l-31 342l-149 21q4 -50 -24 -81.5t-68 -31.5q-41 0 -66.5 27t-25.5 63q0 42 34.5 72.5t85.5 30.5q22 0 62 -8
l174 -39l-41 256q-9 58 11 92.5t63 34.5t62.5 -35t10.5 -92l-41 -256l175 39q40 8 61 8q52 0 86.5 -30.5t34.5 -72.5q0 -36 -25.5 -63t-66.5 -27t-69 31.5t-24 81.5l-149 -21l-31 -342l31 -340l149 -20q-4 50 24 81.5t69 31.5t66.5 -27.5t25.5 -63.5q0 -42 -34.5 -72
t-86.5 -30q-21 0 -61 8l-175 39l41 -256q9 -57 -10.5 -92t-62.5 -35z" />
    <glyph glyph-name="bullet" unicode="&#x2022;" horiz-adv-x="540" 
d="M270 373q-73 0 -121.5 51t-48.5 125t48.5 126t121.5 52t121.5 -52t48.5 -126t-48.5 -125t-121.5 -51z" />
    <glyph glyph-name="ellipsis" unicode="&#x2026;" horiz-adv-x="1212" 
d="M1004 -16q-45 0 -76 32t-31 78t31 78.5t76 32.5t75.5 -32.5t30.5 -78.5t-30.5 -78t-75.5 -32zM606 -16q-45 0 -75.5 32t-30.5 78t30.5 78.5t75.5 32.5t76 -32.5t31 -78.5t-31 -78t-76 -32zM209 -16q-45 0 -76 32t-31 78t31 78.5t76 32.5t75.5 -32.5t30.5 -78.5t-30.5 -78
t-75.5 -32z" />
    <glyph glyph-name="perthousand" unicode="&#x2030;" horiz-adv-x="1820" 
d="M340 561q-99 0 -167.5 71t-68.5 171t68.5 170.5t167.5 70.5t167 -70.5t68 -170.5t-68 -171t-167 -71zM934 -16q-99 0 -167.5 70.5t-68.5 170.5t68.5 171t167.5 71t167 -71t68 -171t-68 -170.5t-167 -70.5zM1481 -16q-99 0 -167.5 70.5t-68.5 170.5t68.5 171t167.5 71
t167 -71t68 -171t-68 -170.5t-167 -70.5zM266 -51l-67 53l395 516q368 479 395 518l70 -51l-400 -522zM1481 68q62 0 103.5 46t41.5 111t-41.5 111.5t-103.5 46.5t-104 -46.5t-42 -111.5t42 -111t104 -46zM340 645q62 0 103.5 46.5t41.5 111.5t-41.5 111.5t-103.5 46.5
t-103.5 -46.5t-41.5 -111.5t41.5 -111.5t103.5 -46.5zM934 68q62 0 103.5 46t41.5 111t-41.5 111.5t-103.5 46.5t-104 -46.5t-42 -111.5t42 -111t104 -46z" />
    <glyph glyph-name="guilsinglleft" unicode="&#x2039;" horiz-adv-x="573" 
d="M395 233l-327 324l327 324l68 -64l-256 -260l256 -260z" />
    <glyph glyph-name="guilsinglright" unicode="&#x203a;" horiz-adv-x="573" 
d="M178 233l-67 64l256 260l-256 260l67 64l328 -324z" />
    <glyph glyph-name="fraction" unicode="&#x2044;" horiz-adv-x="1024" 
d="M147 -25l-67 41l401 662l396 649l67 -41l-395 -649z" />
    <glyph glyph-name="zero.sup" unicode="&#x2070;" horiz-adv-x="722" 
d="M360 868q-123 0 -200.5 105.5t-77.5 275.5q0 173 78 279t202 106q123 0 201 -105.5t78 -275.5q0 -173 -78.5 -279t-202.5 -106zM360 950q84 0 136.5 83.5t52.5 215.5q0 135 -52 219t-137 84q-83 0 -134.5 -83.5t-51.5 -215.5q0 -135 51.5 -219t134.5 -84z" />
    <glyph glyph-name="four.sup" unicode="&#x2074;" horiz-adv-x="722" 
d="M297 883v75h137v142h-346l-18 39l389 506l65 -52l-327 -419h237v153l84 35v-188h123v-74h-123v-142h98v-75h-319z" />
    <glyph glyph-name="five.sup" unicode="&#x2075;" horiz-adv-x="722" 
d="M338 868q-104 0 -171 41.5t-67 96.5q0 28 18.5 47.5t47.5 19.5q28 0 44.5 -16.5t16.5 -42.5q0 -23 -12 -35q14 -12 47 -21.5t74 -9.5q87 0 137.5 48.5t50.5 125.5q0 65 -47.5 108.5t-134.5 43.5q-86 0 -166 -39l-41 20l37 369h395v-86h-319l-21 -203q64 19 121 19
q118 0 192 -63t74 -169q0 -114 -79.5 -184t-196.5 -70z" />
    <glyph glyph-name="six.sup" unicode="&#x2076;" horiz-adv-x="722" 
d="M592 1507q0 -30 -17.5 -47.5t-44.5 -17.5q-30 0 -45.5 15.5t-15.5 41.5q0 22 10 35q-9 11 -31.5 19t-46.5 8q-94 0 -156 -91.5t-63 -238.5q11 19 33 41q67 67 172 67q109 0 177.5 -65t68.5 -166q0 -102 -71.5 -171t-186.5 -69q-119 0 -199 80t-80 256q0 213 88.5 323.5
t218.5 110.5q98 0 154 -53q35 -35 35 -78zM375 948q74 0 121 45t47 113q0 69 -45.5 112.5t-122.5 43.5q-76 0 -126 -44.5t-50 -109.5q0 -66 45 -111q49 -49 131 -49z" />
    <glyph glyph-name="seven.sup" unicode="&#x2077;" horiz-adv-x="722" 
d="M219 883l305 665h-319v-125h-82v201h489l19 -39l-318 -702h-94z" />
    <glyph glyph-name="eight.sup" unicode="&#x2078;" horiz-adv-x="722" 
d="M362 870q-115 0 -189.5 58.5t-74.5 144.5q0 66 49 121t123 74q-73 23 -113 71t-40 105q0 85 70 137.5t175 52.5q104 0 175 -53t71 -137q0 -57 -41 -105t-114 -71q74 -19 123 -74t49 -121q0 -86 -74.5 -144.5t-188.5 -58.5zM362 1303q64 0 109 36.5t45 90.5q0 55 -44 90.5
t-110 35.5q-68 0 -111.5 -35.5t-43.5 -90.5q0 -54 45 -90.5t110 -36.5zM362 950q74 0 122 39t48 98q0 57 -50 99.5t-120 42.5q-71 0 -120 -42t-49 -100q0 -59 47.5 -98t121.5 -39z" />
    <glyph glyph-name="nine.sup" unicode="&#x2079;" horiz-adv-x="722" 
d="M131 999q0 30 17.5 48t44.5 18q30 0 45.5 -15.5t15.5 -41.5q0 -21 -12 -37q9 -11 32 -18t48 -7q94 0 155 91t64 239q-20 -28 -33 -41q-68 -68 -172 -68q-109 0 -177.5 65.5t-68.5 166.5q0 102 71.5 170.5t186.5 68.5q120 0 199 -79q80 -80 80 -256q0 -213 -89 -324
t-219 -111q-96 0 -153 54q-35 35 -35 77zM348 1559q-74 0 -121 -45t-47 -113q0 -69 45.5 -112.5t122.5 -43.5q76 0 126 44.5t50 109.5t-45 110q-50 50 -131 50z" />
    <glyph glyph-name="zero.inf" unicode="&#x2080;" horiz-adv-x="722" 
d="M360 -299q-123 0 -200.5 105.5t-77.5 275.5q0 173 78 279t202 106q123 0 201 -105.5t78 -275.5q0 -173 -78.5 -279t-202.5 -106zM360 -217q84 0 136.5 83.5t52.5 215.5q0 135 -52 219t-137 84q-83 0 -134.5 -83.5t-51.5 -215.5q0 -135 51.5 -219t134.5 -84z" />
    <glyph glyph-name="one.inf" unicode="&#x2081;" horiz-adv-x="722" 
d="M135 -285v80h199v567l-191 -45l-18 80l254 64h43v-666h196v-80h-483z" />
    <glyph glyph-name="two.inf" unicode="&#x2082;" horiz-adv-x="722" 
d="M125 -285l-25 41q33 104 99.5 177t162.5 141q77 55 111.5 94.5t34.5 95.5q0 55 -44.5 92t-105.5 37q-58 0 -97.5 -22t-45.5 -43q15 -6 25 -21.5t10 -34.5q0 -25 -18 -43t-44 -18q-32 0 -49.5 22.5t-17.5 59.5q0 68 67 123t174 55q99 0 169.5 -58.5t70.5 -148.5
q0 -43 -13 -77.5t-43 -66.5t-55.5 -52t-74.5 -54q-165 -112 -207 -223h326v117h79v-193h-489z" />
    <glyph glyph-name="three.inf" unicode="&#x2083;" horiz-adv-x="722" 
d="M350 -297q-101 0 -178.5 47.5t-77.5 114.5q0 31 20 52.5t48 21.5q27 0 43 -17.5t16 -44.5q0 -31 -24 -45q14 -16 56 -34.5t97 -18.5q76 0 126 40t50 97q0 65 -56 104t-155 39h-45v80h49q82 0 136.5 38t54.5 97q0 55 -44.5 86t-113.5 31q-49 0 -84 -13.5t-49 -31.5
q25 -17 25 -45q0 -25 -16.5 -42t-41.5 -17q-27 0 -47 20t-20 53q0 56 64 104t173 48q106 0 175 -54.5t69 -133.5q0 -63 -51.5 -113t-122.5 -64q78 -14 135 -67.5t57 -120.5q0 -92 -76 -151.5t-192 -59.5z" />
    <glyph glyph-name="four.inf" unicode="&#x2084;" horiz-adv-x="722" 
d="M297 -285v76h137v141h-346l-18 39l389 506l65 -51l-327 -420h237v154l84 35v-189h123v-74h-123v-141h98v-76h-319z" />
    <glyph glyph-name="five.inf" unicode="&#x2085;" horiz-adv-x="722" 
d="M338 -299q-104 0 -171 41t-67 96q0 28 18.5 48t47.5 20q28 0 44.5 -17t16.5 -43q0 -22 -12 -34q14 -12 47 -21.5t74 -9.5q87 0 137.5 48.5t50.5 125.5q0 65 -47.5 108t-134.5 43q-88 0 -166 -38l-41 20l37 369h395v-86h-319l-21 -203q61 18 121 18q119 0 192.5 -62.5
t73.5 -168.5q0 -114 -79.5 -184t-196.5 -70z" />
    <glyph glyph-name="six.inf" unicode="&#x2086;" horiz-adv-x="722" 
d="M592 340q0 -30 -17.5 -48t-44.5 -18q-30 0 -45.5 16t-15.5 42q0 22 10 35q-22 26 -78 26q-94 0 -156 -91.5t-63 -238.5q11 19 33 41q68 68 172 68q109 0 177.5 -65t68.5 -166q0 -102 -71.5 -171t-186.5 -69q-119 0 -199 80t-80 256q0 213 88.5 323.5t218.5 110.5
q98 0 154 -53q35 -35 35 -78zM375 -219q74 0 121 45t47 113q0 69 -45.5 112t-122.5 43q-76 0 -126 -44t-50 -109q0 -66 45 -111q49 -49 131 -49z" />
    <glyph glyph-name="seven.inf" unicode="&#x2087;" horiz-adv-x="722" 
d="M219 -285l305 666h-319v-125h-82v201h489l19 -39l-318 -703h-94z" />
    <glyph glyph-name="eight.inf" unicode="&#x2088;" horiz-adv-x="722" 
d="M362 -297q-115 0 -189.5 58.5t-74.5 144.5q0 66 49 120.5t123 73.5q-73 23 -113 71t-40 105q0 85 70 138t175 53q104 0 175 -53.5t71 -137.5q0 -57 -41 -105t-114 -71q74 -19 123 -73.5t49 -120.5q0 -86 -74.5 -144.5t-188.5 -58.5zM362 135q64 0 109 36.5t45 90.5
q0 55 -44 91t-110 36q-68 0 -111.5 -36t-43.5 -91q0 -54 45 -90.5t110 -36.5zM362 -217q74 0 122 39t48 98q0 57 -50 99t-120 42q-71 0 -120 -41.5t-49 -99.5q0 -59 47.5 -98t121.5 -39z" />
    <glyph glyph-name="nine.inf" unicode="&#x2089;" horiz-adv-x="722" 
d="M131 -168q0 30 17.5 48t44.5 18q30 0 45.5 -16t15.5 -42q0 -17 -12 -37q21 -24 80 -24q94 0 155 91.5t64 238.5q-20 -28 -33 -41q-68 -68 -172 -68q-109 0 -177.5 65t-68.5 166q0 102 71.5 171t186.5 69q119 0 199 -80t80 -256q0 -213 -89 -323.5t-219 -110.5
q-97 0 -153 53q-35 35 -35 78zM348 391q-74 0 -121 -45t-47 -113q0 -69 45.5 -112t122.5 -43q76 0 126 44t50 109q0 66 -45 111q-49 49 -131 49z" />
    <glyph glyph-name="Euro" unicode="&#x20ac;" horiz-adv-x="1150" 
d="M76 588v88h133q51 164 185 264t298 100q152 0 262.5 -78.5t110.5 -173.5q0 -41 -26 -69.5t-64 -28.5q-32 0 -54 22t-22 54q0 25 13.5 45t29.5 25q-24 41 -91 74.5t-159 33.5q-128 0 -227 -74.5t-143 -193.5h409v-88h-432q-6 -41 -6 -80q0 -44 6 -84h432v-88h-403
q46 -115 144 -186.5t226 -71.5q173 0 312 133l63 -78q-75 -73 -174 -112t-201 -39q-179 0 -308.5 99t-178.5 255h-135v88h114q-6 40 -6 82t6 82h-114z" />
    <glyph glyph-name="published" unicode="&#x2117;" horiz-adv-x="1224" 
d="M612 -16q-146 0 -264.5 70.5t-184 191.5t-65.5 266t65.5 266.5t184 192.5t264.5 71t264.5 -71t184 -192.5t65.5 -266.5t-65.5 -266t-184 -191.5t-264.5 -70.5zM612 49q188 0 313.5 135.5t125.5 329.5t-125.5 329.5t-313.5 135.5t-313 -135.5t-125 -329.5t125 -329.5
t313 -135.5zM645 426q-56 0 -70 2v-129h72v-63h-209v63h68v414h-68v63h211q87 0 144 -47.5t57 -124.5q0 -85 -55.5 -131.5t-149.5 -46.5zM649 487q60 0 94.5 31.5t34.5 85.5q0 50 -36.5 79.5t-94.5 29.5h-72v-224q4 0 29 -1t45 -1z" />
    <glyph glyph-name="servicemark" unicode="&#x2120;" horiz-adv-x="1132" 
d="M459 846v67h73l19 367h-76v68h164l147 -326l150 326h164v-68h-78l16 -367h78v-67h-207v67h62l-13 334l-155 -340h-35l-158 340l-10 -334h64v-67h-205zM201 838q-76 0 -130.5 35t-54.5 79q0 24 13 39t34 15q22 0 35 -13.5t13 -29.5q0 -13 -9 -31q33 -29 99 -29
q50 0 78 20.5t28 57.5q0 31 -27.5 49.5t-80.5 36.5q-83 27 -122.5 58.5t-39.5 91.5q0 59 47.5 99t122.5 40q70 0 120 -31.5t50 -75.5q0 -23 -13 -36t-34 -13q-24 0 -37.5 12t-13.5 31q0 13 12 25q-29 22 -84 22q-46 0 -72 -18.5t-26 -50.5t29 -50.5t85 -37.5
q83 -28 121.5 -58t38.5 -90q0 -66 -51.5 -106.5t-130.5 -40.5z" />
    <glyph glyph-name="trademark" unicode="&#x2122;" horiz-adv-x="1216" 
d="M543 846v67h73l19 367h-76v68h164l147 -326l150 326h164v-68h-78l16 -367h78v-67h-207v67h62l-13 334l-155 -340h-35l-158 340l-10 -334h64v-67h-205zM141 846v67h78v371h-133v-76h-70v140h478v-140h-72v76h-131v-371h76v-67h-226z" />
    <glyph glyph-name="onethird" unicode="&#x2153;" horiz-adv-x="1628" 
d="M1264 -14q-102 0 -179 47.5t-77 113.5q0 31 19.5 52.5t47.5 21.5q27 0 43.5 -17t16.5 -44q0 -31 -25 -45q14 -16 56.5 -35t97.5 -19q76 0 126 40.5t50 97.5q0 65 -56 104t-155 39h-45v80h49q82 0 136 37.5t54 97.5q0 55 -44 86t-113 31q-49 0 -84 -13.5t-49 -31.5
q24 -16 24 -45q0 -25 -16.5 -42.5t-40.5 -17.5q-27 0 -47.5 20.5t-20.5 53.5q0 56 64.5 104t173.5 48q106 0 174.5 -55t68.5 -134q0 -63 -51.5 -112.5t-122.5 -63.5q78 -14 135.5 -67.5t57.5 -120.5q0 -92 -76 -151.5t-192 -59.5zM463 -25l-68 41l402 662l395 649l68 -41
l-396 -649zM109 575v80h198v568l-190 -45l-19 79l254 64h43v-666h197v-80h-483z" />
    <glyph glyph-name="twothirds" unicode="&#x2154;" horiz-adv-x="1628" 
d="M119 575l-25 41q33 104 99.5 177t162.5 141q77 55 111.5 94.5t34.5 95.5q0 55 -44.5 92t-105.5 37q-58 0 -97.5 -22t-45.5 -43q15 -6 25 -21.5t10 -33.5q0 -25 -18 -43.5t-44 -18.5q-32 0 -49.5 22.5t-17.5 59.5q0 68 67 123t174 55q99 0 169.5 -58.5t70.5 -148.5
q0 -43 -13 -77.5t-43 -66.5t-55.5 -52t-74.5 -54q-165 -112 -207 -223h325v117h80v-193h-489zM1266 -14q-102 0 -179 47.5t-77 113.5q0 31 19.5 52.5t47.5 21.5q27 0 43.5 -17t16.5 -44q0 -31 -25 -45q14 -16 56.5 -35t97.5 -19q76 0 126 40.5t50 97.5q0 65 -56 104t-155 39
h-45v80h49q82 0 136 37.5t54 97.5q0 55 -44 86t-113 31q-49 0 -84 -13.5t-49 -31.5q24 -16 24 -45q0 -25 -16.5 -42.5t-40.5 -17.5q-27 0 -47.5 20.5t-20.5 53.5q0 56 64.5 104t173.5 48q106 0 175 -55t69 -134q0 -63 -51.5 -112.5t-123.5 -63.5q78 -14 135.5 -67.5
t57.5 -120.5q0 -92 -76 -151.5t-192 -59.5zM487 -25l-67 41l401 662l396 649l67 -41l-395 -649z" />
    <glyph glyph-name="onefifth" unicode="&#x2155;" horiz-adv-x="1628" 
d="M1276 -16q-104 0 -171 41t-67 96q0 28 18.5 47.5t47.5 19.5q28 0 44.5 -16.5t16.5 -42.5q0 -23 -12 -35q14 -12 47 -21.5t74 -9.5q87 0 137.5 49t50.5 126q0 65 -47.5 108t-134.5 43q-86 0 -166 -39l-41 21l37 368h395v-86h-319l-21 -202q61 18 121 18q119 0 192.5 -62.5
t73.5 -168.5q0 -114 -79.5 -184t-196.5 -70zM471 -25l-68 41l402 662l395 649l68 -41l-396 -649zM109 575v80h198v568l-190 -45l-19 79l254 64h43v-666h197v-80h-483z" />
    <glyph glyph-name="twofifths" unicode="&#x2156;" horiz-adv-x="1628" 
d="M127 575l-25 41q23 73 70.5 137.5t89.5 100.5t103 80q76 54 110.5 94t34.5 96q0 55 -44.5 92t-105.5 37q-58 0 -97.5 -22t-45.5 -43q15 -6 25 -21.5t10 -33.5q0 -25 -18 -43.5t-44 -18.5q-32 0 -49.5 22.5t-17.5 59.5q0 68 67.5 123t174.5 55q99 0 169 -58.5t70 -148.5
q0 -43 -13 -77.5t-43 -66.5t-55.5 -52t-74.5 -54q-165 -112 -207 -223h326v117h79v-193h-489zM1284 -16q-104 0 -170.5 41t-66.5 96q0 28 18 47.5t47 19.5q28 0 45 -17t17 -42q0 -22 -13 -35q14 -12 47 -21.5t74 -9.5q87 0 137.5 49t50.5 126q0 65 -47.5 108t-134.5 43
q-86 0 -166 -39l-41 21l37 368h395v-86h-319l-20 -202q61 18 120 18q119 0 193 -62.5t74 -168.5q0 -114 -80 -184t-197 -70zM504 -25l-68 41l402 662l395 649l67 -41l-395 -649z" />
    <glyph glyph-name="threefifths" unicode="&#x2157;" horiz-adv-x="1628" 
d="M1274 -16q-104 0 -171 41t-67 96q0 28 18.5 47.5t47.5 19.5q28 0 44.5 -16.5t16.5 -42.5q0 -23 -12 -35q14 -12 47 -21.5t74 -9.5q87 0 137.5 49t50.5 126q0 65 -47.5 108t-134.5 43q-86 0 -166 -39l-41 21l37 368h395v-86h-319l-21 -202q61 18 121 18q119 0 192.5 -62.5
t73.5 -168.5q0 -114 -79.5 -184t-196.5 -70zM362 563q-101 0 -178.5 47.5t-77.5 114.5q0 31 20 52.5t48 21.5q27 0 43 -17.5t16 -44.5q0 -31 -24 -45q14 -16 56 -34.5t97 -18.5q77 0 127 40t50 97q0 65 -56 104.5t-155 39.5h-45v79h49q82 0 136 38t54 98q0 55 -44 85.5
t-113 30.5q-49 0 -84.5 -13.5t-49.5 -31.5q25 -17 25 -45q0 -25 -16 -42t-41 -17q-27 0 -47.5 20.5t-20.5 53.5q0 56 64.5 103.5t173.5 47.5q106 0 174.5 -54.5t68.5 -133.5q0 -63 -51.5 -112.5t-122.5 -63.5q78 -14 135.5 -68t57.5 -121q0 -92 -76.5 -151.5t-192.5 -59.5z
M461 -25l-68 41l402 662l395 649l67 -41l-395 -649z" />
    <glyph glyph-name="fourfifths" unicode="&#x2158;" horiz-adv-x="1628" 
d="M1274 -16q-104 0 -171 41t-67 96q0 28 18.5 47.5t47.5 19.5q28 0 44.5 -16.5t16.5 -42.5q0 -23 -12 -35q14 -12 47 -21.5t74 -9.5q87 0 137.5 49t50.5 126q0 65 -47.5 108t-134.5 43q-86 0 -166 -39l-41 21l37 368h395v-86h-319l-21 -202q61 18 121 18q119 0 192.5 -62.5
t73.5 -168.5q0 -114 -79.5 -184t-196.5 -70zM303 575v76h137v142h-346l-18 38l389 506l65 -51l-327 -420h237v154l84 35v-189h123v-73h-123v-142h99v-76h-320zM500 -25l-68 41l402 662l395 649l67 -41l-395 -649z" />
    <glyph glyph-name="onesixth" unicode="&#x2159;" horiz-adv-x="1628" 
d="M1487 623q0 -30 -17.5 -48t-44.5 -18q-30 0 -45.5 15.5t-15.5 41.5q0 22 10 35q-9 11 -31.5 19t-46.5 8q-94 0 -156 -91.5t-63 -238.5q11 19 33 41q68 68 172 68q109 0 177.5 -65.5t68.5 -166.5q0 -102 -71.5 -170.5t-186.5 -68.5q-120 0 -199 79q-80 80 -80 256
q0 213 88.5 324t218.5 111q97 0 154 -54q35 -35 35 -77zM459 -25l-68 41l402 662l395 649l67 -41l-395 -649zM96 575v80h199v568l-191 -45l-18 79l254 64h43v-666h197v-80h-484zM1270 63q74 0 121 45t47 113q0 69 -45.5 112.5t-122.5 43.5q-76 0 -126 -44.5t-50 -109.5
t45 -110q50 -50 131 -50z" />
    <glyph glyph-name="fivesixths" unicode="&#x215a;" horiz-adv-x="1628" 
d="M1491 623q0 -30 -17 -48t-44 -18q-30 0 -46 15.5t-16 41.5q0 22 10 35q-9 11 -31.5 19t-46.5 8q-94 0 -156 -91.5t-63 -238.5q11 19 33 41q68 68 172 68q109 0 177.5 -65.5t68.5 -166.5q0 -102 -71.5 -170.5t-186.5 -68.5q-120 0 -199 79q-80 80 -80 256q0 213 89 324
t219 111q96 0 153 -54q35 -35 35 -77zM348 561q-104 0 -170.5 41t-66.5 96q0 28 18 48t47 20q28 0 45 -17t17 -42q0 -22 -13 -35q14 -12 47 -21.5t74 -9.5q87 0 138 48.5t51 125.5q0 65 -48 108.5t-135 43.5q-86 0 -166 -39l-41 20l37 369h396v-86h-320l-20 -203
q64 19 120 19q119 0 193 -63t74 -169q0 -114 -80 -184t-197 -70zM463 -25l-68 41l402 662l395 649l68 -41l-396 -649zM1274 63q74 0 121 45t47 113q0 69 -45.5 112.5t-122.5 43.5q-76 0 -126 -44.5t-50 -109.5t45 -110q50 -50 131 -50z" />
    <glyph glyph-name="oneeighth" unicode="&#x215b;" horiz-adv-x="1628" 
d="M1274 -14q-116 0 -190 58t-74 144q0 66 49 121t123 74q-73 23 -113.5 71t-40.5 105q0 85 70.5 138t175.5 53q104 0 175 -53.5t71 -137.5q0 -57 -41.5 -105t-114.5 -71q74 -19 123 -74t49 -121q0 -86 -74 -144t-188 -58zM444 -25l-67 41l401 662l396 649l67 -41l-395 -649
zM98 575v80h199v568l-191 -45l-18 79l254 64h43v-666h197v-80h-484zM1274 66q74 0 122 39t48 98q0 57 -50 99t-120 42q-71 0 -120.5 -41.5t-49.5 -99.5q0 -59 48 -98t122 -39zM1274 418q63 0 108 36.5t45 90.5q0 55 -43.5 91t-109.5 36q-68 0 -112 -36t-44 -91
q0 -54 45.5 -90.5t110.5 -36.5z" />
    <glyph glyph-name="threeeighths" unicode="&#x215c;" horiz-adv-x="1628" 
d="M1274 -14q-116 0 -190 58t-74 144q0 66 49 121t123 74q-73 23 -113.5 71t-40.5 105q0 85 70.5 138t175.5 53q104 0 175 -53.5t71 -137.5q0 -57 -41.5 -105t-114.5 -71q74 -19 123 -74t49 -121q0 -86 -74 -144t-188 -58zM362 563q-101 0 -178.5 47.5t-77.5 114.5
q0 31 20 52.5t48 21.5q27 0 43 -17.5t16 -44.5q0 -31 -24 -45q14 -16 56 -34.5t97 -18.5q77 0 127 40t50 97q0 65 -56 104.5t-155 39.5h-45v79h49q82 0 136 38t54 98q0 55 -44 85.5t-113 30.5q-49 0 -84.5 -13.5t-49.5 -31.5q25 -17 25 -45q0 -25 -16 -42t-41 -17
q-27 0 -47.5 20.5t-20.5 53.5q0 56 64.5 103.5t173.5 47.5q106 0 174.5 -54.5t68.5 -133.5q0 -63 -51.5 -112.5t-122.5 -63.5q78 -14 135.5 -68t57.5 -121q0 -92 -76.5 -151.5t-192.5 -59.5zM449 -25l-68 41l401 662l396 649l67 -41l-395 -649zM1274 66q74 0 122 39t48 98
q0 57 -50 99t-120 42q-71 0 -120.5 -41.5t-49.5 -99.5q0 -59 48 -98t122 -39zM1274 418q63 0 108 36.5t45 90.5q0 55 -43.5 91t-109.5 36q-68 0 -112 -36t-44 -91q0 -54 45.5 -90.5t110.5 -36.5z" />
    <glyph glyph-name="fiveeighths" unicode="&#x215d;" horiz-adv-x="1628" 
d="M1257 -14q-116 0 -190 58t-74 144q0 66 49 121t123 74q-73 23 -113 71t-40 105q0 85 70 138t175 53q104 0 175 -53.5t71 -137.5q0 -57 -41 -105t-114 -71q74 -19 123 -74t49 -121q0 -86 -74.5 -144t-188.5 -58zM326 561q-104 0 -171 41t-67 96q0 28 18.5 48t47.5 20
q28 0 44.5 -16.5t16.5 -42.5q0 -23 -12 -35q14 -12 47 -21.5t74 -9.5q87 0 137.5 48.5t50.5 125.5q0 65 -47.5 108.5t-134.5 43.5q-86 0 -166 -39l-41 20l37 369h395v-86h-319l-21 -203q64 19 121 19q118 0 192 -63t74 -169q0 -114 -79.5 -184t-196.5 -70zM426 -25l-68 41
l402 662l395 649l68 -41l-396 -649zM1257 66q74 0 122 39t48 98q0 57 -50 99t-120 42q-71 0 -120.5 -41.5t-49.5 -99.5q0 -59 48 -98t122 -39zM1257 418q64 0 109 36.5t45 90.5q0 55 -44 91t-110 36q-68 0 -111.5 -36t-43.5 -91q0 -54 45 -90.5t110 -36.5z" />
    <glyph glyph-name="seveneighths" unicode="&#x215e;" horiz-adv-x="1628" 
d="M1223 -14q-116 0 -190.5 58t-74.5 144q0 66 49 121t123 74q-73 23 -113 71t-40 105q0 85 70.5 138t175.5 53q103 0 174 -53t71 -138q0 -57 -41 -105t-114 -71q74 -19 123 -74t49 -121q0 -86 -74 -144t-188 -58zM367 -25l-68 41l401 662l396 649l67 -41l-395 -649z
M246 575l305 666h-320v-125h-81v201h489l18 -39l-317 -703h-94zM1223 66q74 0 122 39t48 98q0 57 -50 99t-120 42q-71 0 -120.5 -41.5t-49.5 -99.5q0 -59 48 -98t122 -39zM1223 418q63 0 108 36.5t45 90.5q0 55 -43.5 91t-109.5 36q-68 0 -112 -36t-44 -91q0 -54 45.5 -90.5
t110.5 -36.5z" />
    <glyph glyph-name="minus" unicode="&#x2212;" horiz-adv-x="806" 
d="M76 494v98h655v-98h-655z" />
    <glyph glyph-name="Q.alt" horiz-adv-x="1601" 
d="M1204 -223l-155 243q-121 -45 -252 -45q-189 0 -344 92.5t-242.5 252.5t-87.5 352q0 146 52 275.5t142 223t217 147.5t271 54q189 0 344 -92.5t242.5 -252t87.5 -351.5q0 -195 -89.5 -355.5t-244.5 -252.5l149 -238zM801 82q102 0 190 31l-157 252l92 55l164 -262
q126 74 198 210t72 304q0 165 -70 300.5t-198.5 214.5t-290.5 79t-290.5 -78.5t-198.5 -213t-70 -298.5q0 -165 70 -300.5t198.5 -214.5t290.5 -79z" />
    <glyph glyph-name="a.sc" horiz-adv-x="1177" 
d="M328 1026h522v-94h-158l322 -838h133v-94h-408v94h166l-96 254h-447l-94 -254h166v-94h-403v94h133l319 838h-155v94zM586 938l-187 -494h373z" />
    <glyph glyph-name="b.sc" horiz-adv-x="1073" 
d="M383 94h217q121 0 185.5 52.5t64.5 138.5q0 192 -279 192h-188v-383zM383 567h186q124 0 188 51t64 140q0 83 -63.5 128.5t-184.5 45.5h-190v-365zM594 0h-502v94h184v838h-184v94h483q181 0 268 -73t87 -185q0 -93 -54.5 -155.5t-146.5 -86.5q229 -57 229 -245
q0 -127 -94.5 -204t-269.5 -77z" />
    <glyph glyph-name="c.sc" horiz-adv-x="1124" 
d="M950 215l62 -74q-76 -76 -178.5 -117.5t-210.5 -41.5q-151 0 -271 70.5t-185 191.5t-65 270q0 146 66.5 268t187.5 194.5t271 72.5q153 0 266 -80t113 -174q0 -44 -25.5 -73.5t-65.5 -29.5q-37 0 -60.5 23.5t-23.5 58.5q0 49 43 68q-26 41 -91.5 74.5t-155.5 33.5
q-179 0 -296.5 -124.5t-117.5 -311.5q0 -190 116 -312t294 -122q183 0 327 135z" />
    <glyph glyph-name="d.sc" horiz-adv-x="1234" 
d="M383 94h172q227 0 348 117t121 315q0 188 -130 297t-351 109h-160v-838zM543 0h-451v94h184v838h-184v94h451q270 0 430 -136t160 -366q0 -237 -156.5 -380.5t-433.5 -143.5z" />
    <glyph glyph-name="e.sc" horiz-adv-x="1038" 
d="M915 0h-823v94h184v838h-184v94h823v-281h-102v187h-430v-365h352v-96h-352v-377h430v187h102v-281z" />
    <glyph glyph-name="f.sc" horiz-adv-x="995" 
d="M575 0h-483v94h184v838h-184v94h821v-281h-102v187h-428v-377h346v-96h-346v-365h192v-94z" />
    <glyph glyph-name="g.sc" horiz-adv-x="1202" 
d="M635 952q-187 0 -304.5 -127.5t-117.5 -316.5t118 -308.5t285 -119.5q179 0 328 100v230h-291v94h396v-504h-103v86q-142 -104 -338 -104q-98 0 -189 36.5t-161.5 102.5t-113 166.5t-42.5 218.5q0 119 43.5 222t116.5 172.5t171 109t206 39.5q169 0 281 -76t112 -164
q0 -44 -24.5 -71t-63.5 -27q-35 0 -58.5 21.5t-23.5 55.5q0 45 37 66q-35 39 -105.5 68.5t-158.5 29.5z" />
    <glyph glyph-name="h.sc" horiz-adv-x="1366" 
d="M92 0v94h184v838h-184v94h477v-94h-186v-365h600v365h-186v94h477v-94h-184v-838h184v-94h-477v94h186v375h-600v-375h186v-94h-477z" />
    <glyph glyph-name="i.sc" horiz-adv-x="667" 
d="M575 0h-483v94h189v838h-189v94h483v-94h-188v-838h188v-94z" />
    <glyph glyph-name="j.sc" horiz-adv-x="884" 
d="M350 82q90 0 144 57q65 71 65 226v567h-190v94h465v-94h-168v-572q0 -195 -95 -290q-85 -88 -223 -88q-123 0 -210 75.5t-87 184.5q0 52 26.5 84t69.5 32q34 0 58 -22t24 -57q0 -29 -17.5 -51.5t-47.5 -26.5q4 -40 55 -79.5t131 -39.5z" />
    <glyph glyph-name="k.sc" horiz-adv-x="1179" 
d="M989 930l-352 -355l340 -481h172v-94h-238l-348 502l-176 -174v-234h180l2 -94h-477v94h189v838h-189v94h465v-94h-170v-479l479 479h-164v94h428v-96h-141z" />
    <glyph glyph-name="l.sc" horiz-adv-x="976" 
d="M797 94v197h102v-291h-807v94h184v838h-184v94h481v-94h-190v-838h414z" />
    <glyph glyph-name="m.sc" horiz-adv-x="1507" 
d="M1102 1026h293v-94h-185l41 -838h185v-94h-480v94h189l-27 754l-346 -705h-39l-348 705l-27 -754h191v-94h-477v94h186l37 838h-184v94h295l348 -715z" />
    <glyph glyph-name="n.sc" horiz-adv-x="1339" 
d="M373 1026l618 -811v717h-186v94h471v-94h-184v-938h-64l-651 858v-758h186v-94h-471v94h184v838h-184v94h281z" />
    <glyph glyph-name="o.sc" 
d="M625 1049q151 0 271 -71t185.5 -192.5t65.5 -269.5q0 -227 -147 -380.5t-377 -153.5q-150 0 -270 71t-185.5 192.5t-65.5 270.5q0 148 65.5 269.5t186 192.5t271.5 71zM623 80q183 0 298 122t115 314q0 188 -115 311t-296 123t-296.5 -122t-115.5 -312q0 -192 115 -314
t295 -122z" />
    <glyph glyph-name="p.sc" horiz-adv-x="1001" 
d="M92 1026h451q166 0 274.5 -87t108.5 -232q0 -157 -104 -245.5t-279 -88.5q-131 0 -160 2v-281h188v-94h-479v94h184v838h-184v94zM549 467q124 0 196 64t72 174q0 105 -76 166t-196 61h-162v-463q31 -2 166 -2z" />
    <glyph glyph-name="q.sc" 
d="M1040 -217q-49 0 -100 17.5t-82.5 36t-80 51.5t-66.5 44q-60 39 -158 56q-177 33 -281 125q-79 68 -124.5 174.5t-45.5 228.5q0 148 65.5 269.5t186 192.5t271.5 71t271 -71t185.5 -192.5t65.5 -269.5q0 -190 -107.5 -328.5t-281.5 -175.5q47 -20 92 -49q64 -42 102 -59
t86 -17q62 0 125 39l47 -90q-69 -53 -170 -53zM623 80q177 0 295 126t118 310q0 188 -115 311t-296 123t-296.5 -122t-115.5 -312q0 -100 35 -185t98 -145q112 -106 277 -106z" />
    <glyph glyph-name="q.sc_alt" 
d="M1147 516q0 -147 -64.5 -267t-177.5 -190l113 -180l-84 -51l-119 186q-91 -32 -192 -32q-150 0 -270 71t-185.5 192.5t-65.5 270.5q0 148 65.5 269.5t186 192.5t271.5 71t271 -71t185.5 -192.5t65.5 -269.5zM1036 516q0 188 -115 311t-296 123t-296.5 -122t-115.5 -312
q0 -192 115 -314t295 -122q78 0 139 20l-117 189l84 53l123 -197q86 56 135 153t49 218z" />
    <glyph glyph-name="r.sc" horiz-adv-x="1093" 
d="M543 932h-160v-416q49 -2 152 -2q129 0 207.5 56.5t78.5 158.5q0 97 -74.5 150t-203.5 53zM383 422v-328h188v-94h-479v94h184v838h-184v94h455q175 0 278 -79.5t103 -215.5q0 -103 -62.5 -178t-165.5 -107l222 -352h159v-94h-233l-256 422q-33 -2 -72 -2q-98 0 -137 2z
" />
    <glyph glyph-name="s.sc" horiz-adv-x="931" 
d="M643 836q0 38 25 67q-19 22 -74 37.5t-115 15.5q-105 0 -168 -47t-63 -123q0 -24 8 -45t18.5 -37t33 -33t38 -27t49 -25t50 -22t55.5 -22q54 -20 83.5 -32.5t75 -34t70.5 -42t51 -49.5t37.5 -64.5t11.5 -78.5q0 -134 -103.5 -213t-262.5 -79q-155 0 -258 66.5t-103 146.5
q0 44 22.5 71t59.5 27q36 0 59 -21.5t23 -54.5q0 -41 -26 -74q28 -28 87 -47.5t138 -19.5q120 0 188 51.5t68 140.5q0 23 -8 43.5t-19.5 36t-33.5 32t-38.5 26.5t-47.5 24t-48 21t-51 20q-42 16 -59.5 23t-54.5 22.5t-53.5 24.5t-46 26t-43 31t-32.5 34.5t-27.5 41t-15 47
t-6.5 55.5q0 122 95 197.5t251 75.5q136 0 230 -60t94 -145q0 -39 -23 -63.5t-55 -24.5q-39 0 -62.5 22.5t-23.5 57.5z" />
    <glyph glyph-name="t.sc" horiz-adv-x="1071" 
d="M293 0v94h188v838h-295v-187h-102v281h903v-281h-104v187h-295v-838h188v-94h-483z" />
    <glyph glyph-name="u.sc" 
d="M338 932v-561q0 -138 77 -215.5t210 -77.5t209.5 76.5t76.5 214.5v563h-184v94h463v-94h-172v-561q0 -186 -104.5 -287.5t-290.5 -101.5t-289 99.5t-103 285.5v565h-172v94h463v-94h-184z" />
    <glyph glyph-name="v.sc" horiz-adv-x="1132" 
d="M535 -16l-385 948h-130v94h408v-94h-164l305 -772l305 772h-163v94h401v-94h-127l-387 -948h-63z" />
    <glyph glyph-name="w.sc" horiz-adv-x="1581" 
d="M461 -25l-289 957h-149v94h430v-94h-166l219 -748l264 703h49l266 -703l218 748h-166v94h422v-94h-150l-289 -957h-61l-268 719l-269 -719h-61z" />
    <glyph glyph-name="x.sc" horiz-adv-x="1146" 
d="M1096 98v-98h-410v94h145l-262 367l-266 -367h166v-94h-418v98h133l322 424l-299 410h-137v94h417v-94h-153l239 -344l246 344h-153v94h411v-94h-143l-299 -406l319 -428h142z" />
    <glyph glyph-name="y.sc" horiz-adv-x="1071" 
d="M1059 1026v-94h-146l-325 -543v-295h186v-94h-479v94h186v295l-323 543h-146v94h424v-94h-162l265 -455l264 455h-162v94h418z" />
    <glyph glyph-name="z.sc" horiz-adv-x="989" 
d="M92 0v57l656 877h-527v-182h-102v274h782v-55l-653 -877h555v180h104v-274h-815z" />
    <glyph glyph-name="aacute.sc" horiz-adv-x="1177" 
d="M328 1026h522v-94h-158l322 -838h133v-94h-408v94h166l-96 254h-447l-94 -254h166v-94h-403v94h133l319 838h-155v94zM586 938l-187 -494h373zM514 1165l-25 39l256 236q44 41 78 41q30 0 52 -22t22 -58q0 -19 -20 -41t-52 -39z" />
    <glyph glyph-name="abreve.sc" horiz-adv-x="1177" 
d="M328 1026h522v-94h-158l322 -838h133v-94h-408v94h166l-96 254h-447l-94 -254h166v-94h-403v94h133l319 838h-155v94zM586 938l-187 -494h373zM590 1165q-105 0 -185.5 69t-117.5 175l82 39q29 -77 90 -121.5t131 -44.5q74 0 133 46.5t88 119.5l82 -39
q-37 -106 -117.5 -175t-185.5 -69z" />
    <glyph glyph-name="acircumflex.sc" horiz-adv-x="1177" 
d="M328 1026h522v-94h-158l322 -838h133v-94h-408v94h166l-96 254h-447l-94 -254h166v-94h-403v94h133l319 838h-155v94zM586 938l-187 -494h373zM346 1153l-51 61l295 275l295 -275l-51 -61l-244 186z" />
    <glyph glyph-name="adieresis.sc" horiz-adv-x="1177" 
d="M328 1026h522v-94h-158l322 -838h133v-94h-408v94h166l-96 254h-447l-94 -254h166v-94h-403v94h133l319 838h-155v94zM586 938l-187 -494h373zM754 1198q-42 0 -71.5 31t-29.5 74t29.5 73.5t71.5 30.5t71 -30.5t29 -73.5t-29 -74t-71 -31zM426 1198q-42 0 -71 31t-29 74
t29 73.5t71 30.5t71 -30.5t29 -73.5t-29 -74t-71 -31z" />
    <glyph glyph-name="ae.sc" horiz-adv-x="1411" 
d="M465 0v94h184v264h-315l-137 -264h157v-94h-385v94h117l444 838h-141v94h899v-281h-102v187h-430v-365h352v-96h-352v-377h430v187h102v-281h-823zM635 932l-250 -477h264v477h-14z" />
    <glyph glyph-name="aeacute.sc" horiz-adv-x="1411" 
d="M465 0v94h184v264h-315l-137 -264h157v-94h-385v94h117l444 838h-141v94h899v-281h-102v187h-430v-365h352v-96h-352v-377h430v187h102v-281h-823zM635 932l-250 -477h264v477h-14zM694 1165l-24 39l256 236q44 41 78 41q30 0 51.5 -21.5t21.5 -58.5q0 -19 -19.5 -41
t-51.5 -39z" />
    <glyph glyph-name="agrave.sc" horiz-adv-x="1177" 
d="M328 1026h522v-94h-158l322 -838h133v-94h-408v94h166l-96 254h-447l-94 -254h166v-94h-403v94h133l319 838h-155v94zM586 938l-187 -494h373zM666 1165l-312 156q-32 17 -51.5 39t-19.5 41q0 37 21.5 58.5t51.5 21.5q34 0 78 -41l256 -236z" />
    <glyph glyph-name="amacron.sc" horiz-adv-x="1177" 
d="M328 1026h522v-94h-158l322 -838h133v-94h-408v94h166l-96 254h-447l-94 -254h166v-94h-403v94h133l319 838h-155v94zM586 938l-187 -494h373zM293 1229v106h594v-106h-594z" />
    <glyph glyph-name="aogonek.sc" horiz-adv-x="1177" 
d="M961 -412q-102 0 -155.5 49.5t-53.5 133.5q0 67 39 126.5t104 102.5h-156v94h166l-96 254h-447l-94 -254h166v-94h-403v94h133l319 838h-155v94h522v-94h-158l322 -838h133v-94h-117q-80 -36 -128 -91t-48 -118q0 -51 29.5 -80.5t87.5 -29.5q88 0 166 40l-7 -86
q-26 -18 -72 -32.5t-97 -14.5zM586 938l-187 -494h373z" />
    <glyph glyph-name="aring.sc" horiz-adv-x="1177" 
d="M434 0h-403v94h133l319 838h-155v94h104q-49 55 -49 129q0 86 59 147.5t144 61.5q84 0 143 -61t59 -148q0 -70 -49 -129h111v-94h-158l322 -838h133v-94h-408v94h166l-96 254h-447l-94 -254h166v-94zM586 938l-187 -494h373zM586 1030q50 0 83 36t33 89t-33 89t-83 36
q-51 0 -84 -36t-33 -89t33 -89t84 -36z" />
    <glyph glyph-name="aringacute.sc" horiz-adv-x="1177" 
d="M434 0h-403v94h133l319 838h-155v94h104q-49 55 -49 129q0 86 59 147.5t144 61.5q84 0 143 -61t59 -148q0 -70 -49 -129h111v-94h-158l322 -838h133v-94h-408v94h166l-96 254h-447l-94 -254h166v-94zM586 938l-187 -494h373zM508 1462l-25 39l256 236q44 41 78 41
q30 0 52 -22t22 -58q0 -19 -20 -41t-52 -39zM586 1030q50 0 83 36t33 89t-33 89t-83 36q-51 0 -84 -36t-33 -89t33 -89t84 -36z" />
    <glyph glyph-name="atilde.sc" horiz-adv-x="1177" 
d="M328 1026h522v-94h-158l322 -838h133v-94h-408v94h166l-96 254h-447l-94 -254h166v-94h-403v94h133l319 838h-155v94zM586 938l-187 -494h373zM735 1167q-54 0 -93.5 20.5t-86.5 59.5q-35 29 -55 40t-41 11q-36 0 -59 -32.5t-29 -85.5l-92 18q3 87 55 149t119 62
q54 0 93.5 -20.5t86.5 -59.5q35 -29 55 -40t41 -11q36 0 59 33t29 86l92 -19q-3 -87 -55 -149t-119 -62z" />
    <glyph glyph-name="cacute.sc" horiz-adv-x="1124" 
d="M950 215l62 -74q-76 -76 -178.5 -117.5t-210.5 -41.5q-151 0 -271 70.5t-185 191.5t-65 270q0 146 66.5 268t187.5 194.5t271 72.5q153 0 266 -80t113 -174q0 -44 -25.5 -73.5t-65.5 -29.5q-37 0 -60.5 23.5t-23.5 58.5q0 49 43 68q-26 41 -91.5 74.5t-155.5 33.5
q-179 0 -296.5 -124.5t-117.5 -311.5q0 -190 116 -312t294 -122q183 0 327 135zM530 1165l-24 39l256 236q44 41 78 41q30 0 51.5 -21.5t21.5 -58.5q0 -19 -19.5 -41t-51.5 -39z" />
    <glyph glyph-name="ccaron.sc" horiz-adv-x="1124" 
d="M950 215l62 -74q-76 -76 -178.5 -117.5t-210.5 -41.5q-151 0 -271 70.5t-185 191.5t-65 270q0 146 66.5 268t187.5 194.5t271 72.5q153 0 266 -80t113 -174q0 -44 -25.5 -73.5t-65.5 -29.5q-37 0 -60.5 23.5t-23.5 58.5q0 49 43 68q-26 41 -91.5 74.5t-155.5 33.5
q-179 0 -296.5 -124.5t-117.5 -311.5q0 -190 116 -312t294 -122q183 0 327 135zM850 1497l51 -61l-295 -275l-295 275l51 61l244 -186z" />
    <glyph glyph-name="ccedilla.sc" horiz-adv-x="1124" 
d="M612 -408q-114 0 -217 54l29 65q35 -16 87 -27.5t91 -11.5q41 0 65.5 17.5t24.5 46.5q0 32 -27.5 49.5t-74.5 17.5q-27 0 -45 -6l-35 25l45 164q-202 23 -327.5 171t-125.5 357q0 146 66.5 268t187.5 194.5t271 72.5q153 0 266 -80t113 -174q0 -44 -25.5 -73.5
t-65.5 -29.5q-37 0 -60.5 23.5t-23.5 58.5q0 49 43 68q-26 41 -91.5 74.5t-155.5 33.5q-179 0 -296.5 -124.5t-117.5 -311.5q0 -190 116 -312t294 -122q183 0 327 135l62 -74q-75 -75 -176.5 -116t-208.5 -43l-11 -84q89 -1 135 -44.5t46 -107.5q0 -66 -48.5 -110
t-136.5 -44z" />
    <glyph glyph-name="cdotaccent.sc" horiz-adv-x="1124" 
d="M950 215l62 -74q-76 -76 -178.5 -117.5t-210.5 -41.5q-151 0 -271 70.5t-185 191.5t-65 270q0 146 66.5 268t187.5 194.5t271 72.5q153 0 266 -80t113 -174q0 -44 -25.5 -73.5t-65.5 -29.5q-37 0 -60.5 23.5t-23.5 58.5q0 49 43 68q-26 41 -91.5 74.5t-155.5 33.5
q-179 0 -296.5 -124.5t-117.5 -311.5q0 -190 116 -312t294 -122q183 0 327 135zM606 1194q-44 0 -74 32t-30 77t30 76.5t74 31.5t74.5 -31.5t30.5 -76.5t-30.5 -77t-74.5 -32z" />
    <glyph glyph-name="dcaron.sc" horiz-adv-x="1241" 
d="M389 94h172q227 0 348 117t121 315q0 188 -130 297t-351 109h-160v-838zM549 0h-451v94h185v838h-185v94h451q270 0 430 -136t160 -366q0 -237 -156.5 -380.5t-433.5 -143.5zM831 1497l52 -61l-295 -275l-295 275l51 61l244 -186z" />
    <glyph glyph-name="dcroat.sc" horiz-adv-x="1241" 
d="M549 0h-451v94h185v385h-144v94h144v359h-185v94h451q270 0 430 -136t160 -366q0 -237 -156.5 -380.5t-433.5 -143.5zM389 94h172q227 0 348 117t121 315q0 188 -130 297t-351 109h-160v-359h242v-94h-242v-385z" />
    <glyph glyph-name="eacute.sc" horiz-adv-x="1044" 
d="M922 0h-824v94h185v838h-185v94h824v-281h-103v187h-430v-365h352v-96h-352v-377h430v187h103v-281zM434 1165l-24 39l256 236q44 41 77 41q30 0 52 -22t22 -58q0 -19 -20 -41t-52 -39z" />
    <glyph glyph-name="ebreve.sc" horiz-adv-x="1044" 
d="M922 0h-824v94h185v838h-185v94h824v-281h-103v187h-430v-365h352v-96h-352v-377h430v187h103v-281zM510 1165q-105 0 -185.5 69t-117.5 175l82 39q29 -77 90 -121.5t131 -44.5q74 0 133 46.5t88 119.5l82 -39q-37 -106 -117.5 -175t-185.5 -69z" />
    <glyph glyph-name="ecaron.sc" horiz-adv-x="1044" 
d="M922 0h-824v94h185v838h-185v94h824v-281h-103v187h-430v-365h352v-96h-352v-377h430v187h103v-281zM754 1497l51 -61l-295 -275l-295 275l51 61l244 -186z" />
    <glyph glyph-name="ecircumflex.sc" horiz-adv-x="1044" 
d="M922 0h-824v94h185v838h-185v94h824v-281h-103v187h-430v-365h352v-96h-352v-377h430v187h103v-281zM266 1153l-51 61l295 275l295 -275l-51 -61l-244 186z" />
    <glyph glyph-name="edieresis.sc" horiz-adv-x="1044" 
d="M922 0h-824v94h185v838h-185v94h824v-281h-103v187h-430v-365h352v-96h-352v-377h430v187h103v-281zM674 1198q-42 0 -71.5 31t-29.5 74t29.5 73.5t71.5 30.5t71 -30.5t29 -73.5t-29 -74t-71 -31zM346 1198q-42 0 -71 31t-29 74t29 73.5t71 30.5t71 -30.5t29 -73.5
t-29 -74t-71 -31z" />
    <glyph glyph-name="edotaccent.sc" horiz-adv-x="1044" 
d="M922 0h-824v94h185v838h-185v94h824v-281h-103v187h-430v-365h352v-96h-352v-377h430v187h103v-281zM510 1194q-44 0 -74 32t-30 77t30 76.5t74 31.5t74 -31.5t30 -76.5t-30 -77t-74 -32z" />
    <glyph glyph-name="egrave.sc" horiz-adv-x="1044" 
d="M922 0h-824v94h185v838h-185v94h824v-281h-103v187h-430v-365h352v-96h-352v-377h430v187h103v-281zM586 1165l-312 156q-32 17 -51.5 39t-19.5 41q0 37 21.5 58.5t51.5 21.5q34 0 78 -41l256 -236z" />
    <glyph glyph-name="emacron.sc" horiz-adv-x="1044" 
d="M922 0h-824v94h185v838h-185v94h824v-281h-103v187h-430v-365h352v-96h-352v-377h430v187h103v-281zM213 1229v106h594v-106h-594z" />
    <glyph glyph-name="eogonek.sc" horiz-adv-x="1044" 
d="M745 -412q-102 0 -155 49.5t-53 133.5q0 67 39 126.5t104 102.5h-582v94h185v838h-185v94h824v-281h-103v187h-430v-365h352v-96h-352v-377h430v187h103v-281h-107q-80 -36 -128 -91t-48 -118q0 -51 29.5 -80.5t87.5 -29.5q88 0 166 40l-7 -86q-26 -18 -72.5 -32.5
t-97.5 -14.5z" />
    <glyph glyph-name="eth.sc" horiz-adv-x="1241" 
d="M549 0h-451v94h185v385h-144v94h144v359h-185v94h451q270 0 430 -136t160 -366q0 -237 -156.5 -380.5t-433.5 -143.5zM389 94h172q227 0 348 117t121 315q0 188 -130 297t-351 109h-160v-359h242v-94h-242v-385z" />
    <glyph glyph-name="gbreve.sc" horiz-adv-x="1202" 
d="M635 952q-187 0 -304.5 -127.5t-117.5 -316.5t118 -308.5t285 -119.5q179 0 328 100v230h-291v94h396v-504h-103v86q-142 -104 -338 -104q-98 0 -189 36.5t-161.5 102.5t-113 166.5t-42.5 218.5q0 119 43.5 222t116.5 172.5t171 109t206 39.5q169 0 281 -76t112 -164
q0 -44 -24.5 -71t-63.5 -27q-35 0 -58.5 21.5t-23.5 55.5q0 45 37 66q-35 39 -105.5 68.5t-158.5 29.5zM616 1165q-105 0 -185.5 69t-117.5 175l82 39q29 -77 90 -121.5t131 -44.5q74 0 133.5 46.5t88.5 119.5l82 -39q-37 -106 -118 -175t-186 -69z" />
    <glyph glyph-name="gcommaaccent.sc" horiz-adv-x="1202" 
d="M635 952q-187 0 -304.5 -127.5t-117.5 -316.5t118 -308.5t285 -119.5q179 0 328 100v230h-291v94h396v-504h-103v86q-142 -104 -338 -104q-98 0 -189 36.5t-161.5 102.5t-113 166.5t-42.5 218.5q0 119 43.5 222t116.5 172.5t171 109t206 39.5q169 0 281 -76t112 -164
q0 -44 -24.5 -71t-63.5 -27q-35 0 -58.5 21.5t-23.5 55.5q0 45 37 66q-35 39 -105.5 68.5t-158.5 29.5zM483 -537l-22 37q78 59 112.5 112.5t36.5 94.5q-34 5 -58 30t-24 58q0 39 25.5 64.5t60.5 25.5q43 0 71 -32t28 -89q0 -76 -56 -158t-174 -143z" />
    <glyph glyph-name="gdotaccent.sc" horiz-adv-x="1202" 
d="M635 952q-187 0 -304.5 -127.5t-117.5 -316.5t118 -308.5t285 -119.5q179 0 328 100v230h-291v94h396v-504h-103v86q-142 -104 -338 -104q-98 0 -189 36.5t-161.5 102.5t-113 166.5t-42.5 218.5q0 119 43.5 222t116.5 172.5t171 109t206 39.5q169 0 281 -76t112 -164
q0 -44 -24.5 -71t-63.5 -27q-35 0 -58.5 21.5t-23.5 55.5q0 45 37 66q-35 39 -105.5 68.5t-158.5 29.5zM616 1194q-44 0 -74 32t-30 77t30 76.5t74 31.5t74.5 -31.5t30.5 -76.5t-30.5 -77t-74.5 -32z" />
    <glyph glyph-name="hbar.sc" horiz-adv-x="1378" 
d="M1239 797v-95h-143v-608h184v-94h-477v94h186v375h-600v-375h186v-94h-477v94h185v608h-144v95h144v135h-185v94h477v-94h-186v-135h600v135h-186v94h477v-94h-184v-135h143zM389 567h600v135h-600v-135z" />
    <glyph glyph-name="iacute.sc" horiz-adv-x="679" 
d="M582 0h-484v94h189v838h-189v94h484v-94h-189v-838h189v-94zM264 1165l-24 39l256 236q44 41 77 41q30 0 52 -22t22 -58q0 -19 -20 -41t-52 -39z" />
    <glyph glyph-name="ibreve.sc" horiz-adv-x="679" 
d="M582 0h-484v94h189v838h-189v94h484v-94h-189v-838h189v-94zM340 1165q-105 0 -185.5 69t-117.5 175l82 39q29 -77 90 -121.5t131 -44.5q74 0 133 46.5t88 119.5l82 -39q-37 -106 -117.5 -175t-185.5 -69z" />
    <glyph glyph-name="icircumflex.sc" horiz-adv-x="679" 
d="M582 0h-484v94h189v838h-189v94h484v-94h-189v-838h189v-94zM96 1153l-51 61l295 275l295 -275l-51 -61l-244 186z" />
    <glyph glyph-name="idieresis.sc" horiz-adv-x="679" 
d="M582 0h-484v94h189v838h-189v94h484v-94h-189v-838h189v-94zM504 1198q-42 0 -71.5 31t-29.5 74t29.5 73.5t71.5 30.5t71 -30.5t29 -73.5t-29 -74t-71 -31zM176 1198q-42 0 -71 31t-29 74t29 73.5t71 30.5t71 -30.5t29 -73.5t-29 -74t-71 -31z" />
    <glyph glyph-name="idotaccent.sc" horiz-adv-x="679" 
d="M582 0h-484v94h189v838h-189v94h484v-94h-189v-838h189v-94zM340 1194q-44 0 -74 32t-30 77t30 76.5t74 31.5t74 -31.5t30 -76.5t-30 -77t-74 -32z" />
    <glyph glyph-name="dotlessi.sc" horiz-adv-x="679" 
d="M582 0h-484v94h189v838h-189v94h484v-94h-189v-838h189v-94z" />
    <glyph glyph-name="igrave.sc" horiz-adv-x="679" 
d="M582 0h-484v94h189v838h-189v94h484v-94h-189v-838h189v-94zM416 1165l-312 156q-32 17 -51.5 39t-19.5 41q0 37 21.5 58.5t51.5 21.5q34 0 78 -41l256 -236z" />
    <glyph glyph-name="imacron.sc" horiz-adv-x="679" 
d="M582 0h-484v94h189v838h-189v94h484v-94h-189v-838h189v-94zM43 1229v106h594v-106h-594z" />
    <glyph glyph-name="iogonek.sc" horiz-adv-x="679" 
d="M334 -412q-102 0 -155.5 49.5t-53.5 133.5q0 67 39 126.5t104 102.5h-170v94h189v838h-189v94h484v-94h-189v-838h189v-94h-179q-80 -36 -128 -91t-48 -118q0 -51 29.5 -80.5t87.5 -29.5q88 0 166 40l-6 -86q-26 -18 -72.5 -32.5t-97.5 -14.5z" />
    <glyph glyph-name="kcommaaccent.sc" horiz-adv-x="1185" 
d="M995 930l-352 -355l340 -481h172v-94h-237l-349 502l-176 -174v-234h180l2 -94h-477v94h189v838h-189v94h465v-94h-170v-479l479 479h-163v94h428v-96h-142zM494 -537l-23 37q78 59 113 113t37 94q-34 5 -58 30t-24 58q0 39 25.5 64.5t60.5 25.5q43 0 70.5 -32t27.5 -89
q0 -77 -55.5 -158.5t-173.5 -142.5z" />
    <glyph glyph-name="lacute.sc" horiz-adv-x="983" 
d="M803 94v197h102v-291h-807v94h185v838h-185v94h482v-94h-191v-838h414zM293 1165l-25 39l256 236q44 41 78 41q30 0 52 -22t22 -58q0 -19 -20 -41t-52 -39z" />
    <glyph glyph-name="lcaron.sc" horiz-adv-x="983" 
d="M803 94v197h102v-291h-807v94h185v838h-185v94h482v-94h-191v-838h414zM659 598l-36 29q69 100 69 202q0 27 -5 63.5t-5 55.5q0 34 19.5 56t54.5 22q36 0 54.5 -22.5t18.5 -61.5q0 -84 -47 -174t-123 -170z" />
    <glyph glyph-name="lcommaaccent.sc" horiz-adv-x="983" 
d="M803 94v197h102v-291h-807v94h185v838h-185v94h482v-94h-191v-838h414zM369 -537l-23 37q78 59 113 113t37 94q-34 5 -58 30t-24 58q0 39 25.5 64.5t60.5 25.5q43 0 70.5 -32t27.5 -89q0 -77 -55.5 -158.5t-173.5 -142.5z" />
    <glyph glyph-name="ldot.sc" horiz-adv-x="983" 
d="M803 94v197h102v-291h-807v94h185v838h-185v94h482v-94h-191v-838h414zM827 463q-44 0 -74 31.5t-30 76.5t30 77t74 32t74.5 -32t30.5 -77t-30.5 -76.5t-74.5 -31.5z" />
    <glyph glyph-name="lslash.sc" horiz-adv-x="1001" 
d="M821 94v197h103v-291h-807v94h184v320l-174 -95l-45 82l219 119v412h-184v94h481v-94h-190v-354l272 149l45 -82l-317 -172v-379h413z" />
    <glyph glyph-name="nacute.sc" horiz-adv-x="1345" 
d="M375 1026l618 -811v717h-186v94h471v-94h-184v-938h-64l-651 858v-758h186v-94h-471v94h185v838h-185v94h281zM596 1165l-25 39l256 236q44 41 78 41q30 0 52 -22t22 -58q0 -19 -20 -41t-52 -39z" />
    <glyph glyph-name="ncaron.sc" horiz-adv-x="1345" 
d="M375 1026l618 -811v717h-186v94h471v-94h-184v-938h-64l-651 858v-758h186v-94h-471v94h185v838h-185v94h281zM915 1497l52 -61l-295 -275l-295 275l51 61l244 -186z" />
    <glyph glyph-name="ncommaaccent.sc" horiz-adv-x="1345" 
d="M375 1026l618 -811v717h-186v94h471v-94h-184v-938h-64l-651 858v-758h186v-94h-471v94h185v838h-185v94h281zM539 -537l-23 37q78 59 113 113t37 94q-34 5 -58 30t-24 58q0 39 25.5 64.5t60.5 25.5q43 0 70.5 -32t27.5 -89q0 -77 -55.5 -158.5t-173.5 -142.5z" />
    <glyph glyph-name="ntilde.sc" horiz-adv-x="1345" 
d="M375 1026l618 -811v717h-186v94h471v-94h-184v-938h-64l-651 858v-758h186v-94h-471v94h185v838h-185v94h281zM817 1167q-54 0 -93.5 20.5t-86.5 59.5q-35 29 -55 40t-41 11q-36 0 -59 -32.5t-29 -85.5l-93 18q3 87 55.5 149t119.5 62q54 0 93.5 -20.5t86.5 -59.5
q35 -29 55 -40t41 -11q36 0 59 33t29 86l92 -19q-3 -87 -55 -149t-119 -62z" />
    <glyph glyph-name="oacute.sc" 
d="M625 1049q151 0 271 -71t185.5 -192.5t65.5 -269.5q0 -227 -147 -380.5t-377 -153.5q-150 0 -270 71t-185.5 192.5t-65.5 270.5q0 148 65.5 269.5t186 192.5t271.5 71zM623 80q183 0 298 122t115 314q0 188 -115 311t-296 123t-296.5 -122t-115.5 -312q0 -192 115 -314
t295 -122zM549 1165l-25 39l256 236q44 41 78 41q30 0 52 -22t22 -58q0 -19 -20 -41t-52 -39z" />
    <glyph glyph-name="obreve.sc" 
d="M625 1049q151 0 271 -71t185.5 -192.5t65.5 -269.5q0 -227 -147 -380.5t-377 -153.5q-150 0 -270 71t-185.5 192.5t-65.5 270.5q0 148 65.5 269.5t186 192.5t271.5 71zM623 80q183 0 298 122t115 314q0 188 -115 311t-296 123t-296.5 -122t-115.5 -312q0 -192 115 -314
t295 -122zM625 1165q-105 0 -185.5 69t-117.5 175l81 39q29 -77 90.5 -121.5t131.5 -44.5q74 0 133 46.5t88 119.5l82 -39q-37 -106 -117.5 -175t-185.5 -69z" />
    <glyph glyph-name="ocircumflex.sc" 
d="M625 1049q151 0 271 -71t185.5 -192.5t65.5 -269.5q0 -227 -147 -380.5t-377 -153.5q-150 0 -270 71t-185.5 192.5t-65.5 270.5q0 148 65.5 269.5t186 192.5t271.5 71zM623 80q183 0 298 122t115 314q0 188 -115 311t-296 123t-296.5 -122t-115.5 -312q0 -192 115 -314
t295 -122zM381 1153l-51 61l295 275l295 -275l-52 -61l-243 186z" />
    <glyph glyph-name="odieresis.sc" 
d="M625 1049q151 0 271 -71t185.5 -192.5t65.5 -269.5q0 -227 -147 -380.5t-377 -153.5q-150 0 -270 71t-185.5 192.5t-65.5 270.5q0 148 65.5 269.5t186 192.5t271.5 71zM623 80q183 0 298 122t115 314q0 188 -115 311t-296 123t-296.5 -122t-115.5 -312q0 -192 115 -314
t295 -122zM788 1198q-42 0 -71 31t-29 74t29 73.5t71 30.5t71.5 -30.5t29.5 -73.5t-29.5 -74t-71.5 -31zM461 1198q-42 0 -71.5 31t-29.5 74t29.5 73.5t71.5 30.5t71 -30.5t29 -73.5t-29 -74t-71 -31z" />
    <glyph glyph-name="oe.sc" horiz-adv-x="1546" 
d="M784 94v838h-106q-206 0 -333.5 -110.5t-127.5 -295.5q0 -194 118 -313t331 -119h118zM678 1026h745v-281h-102v187h-430v-365h352v-96h-352v-377h430v187h102v-281h-745q-263 0 -416 144t-153 380q0 229 156.5 365.5t412.5 136.5z" />
    <glyph glyph-name="ograve.sc" 
d="M625 1049q151 0 271 -71t185.5 -192.5t65.5 -269.5q0 -227 -147 -380.5t-377 -153.5q-150 0 -270 71t-185.5 192.5t-65.5 270.5q0 148 65.5 269.5t186 192.5t271.5 71zM623 80q183 0 298 122t115 314q0 188 -115 311t-296 123t-296.5 -122t-115.5 -312q0 -192 115 -314
t295 -122zM700 1165l-311 156q-32 17 -52 39t-20 41q0 36 22 58t52 22q34 0 78 -41l256 -236z" />
    <glyph glyph-name="ohungarumlaut.sc" 
d="M625 1049q151 0 271 -71t185.5 -192.5t65.5 -269.5q0 -227 -147 -380.5t-377 -153.5q-150 0 -270 71t-185.5 192.5t-65.5 270.5q0 148 65.5 269.5t186 192.5t271.5 71zM623 80q183 0 298 122t115 314q0 188 -115 311t-296 123t-296.5 -122t-115.5 -312q0 -192 115 -314
t295 -122zM379 1169l-25 39l258 236q44 41 78 41q29 0 49.5 -19.5t20.5 -54.5q0 -19 -20 -41t-52 -39zM745 1180l-20 41l274 217q44 35 76 35t50 -20t18 -52q0 -51 -78 -82z" />
    <glyph glyph-name="omacron.sc" 
d="M625 1049q151 0 271 -71t185.5 -192.5t65.5 -269.5q0 -227 -147 -380.5t-377 -153.5q-150 0 -270 71t-185.5 192.5t-65.5 270.5q0 148 65.5 269.5t186 192.5t271.5 71zM623 80q183 0 298 122t115 314q0 188 -115 311t-296 123t-296.5 -122t-115.5 -312q0 -192 115 -314
t295 -122zM328 1229v106h594v-106h-594z" />
    <glyph glyph-name="oslash.sc" horiz-adv-x="1261" 
d="M629 -18q-184 0 -320 104l-131 -152l-69 62l133 151q-133 152 -133 369q0 148 65.5 269.5t185.5 192.5t271 71q175 0 311 -99l131 150l72 -64l-133 -147q141 -150 141 -373q0 -227 -147 -380.5t-377 -153.5zM629 80q183 0 298 122t115 314q0 177 -104 297l-563 -649
q108 -84 254 -84zM219 516q0 -175 96 -295l562 649q-111 80 -246 80q-181 0 -296.5 -122t-115.5 -312z" />
    <glyph glyph-name="oslashacute.sc" horiz-adv-x="1261" 
d="M629 -18q-184 0 -320 104l-131 -152l-69 62l133 151q-133 152 -133 369q0 148 65.5 269.5t185.5 192.5t271 71q175 0 311 -99l131 150l72 -64l-133 -147q141 -150 141 -373q0 -227 -147 -380.5t-377 -153.5zM629 80q183 0 298 122t115 314q0 177 -104 297l-563 -649
q108 -84 254 -84zM219 516q0 -175 96 -295l562 649q-111 80 -246 80q-181 0 -296.5 -122t-115.5 -312zM555 1165l-25 39l256 236q44 41 78 41q30 0 52 -22t22 -58q0 -19 -20 -41t-52 -39z" />
    <glyph glyph-name="otilde.sc" 
d="M625 1049q151 0 271 -71t185.5 -192.5t65.5 -269.5q0 -227 -147 -380.5t-377 -153.5q-150 0 -270 71t-185.5 192.5t-65.5 270.5q0 148 65.5 269.5t186 192.5t271.5 71zM623 80q183 0 298 122t115 314q0 188 -115 311t-296 123t-296.5 -122t-115.5 -312q0 -192 115 -314
t295 -122zM770 1167q-54 0 -93.5 20.5t-86.5 59.5q-35 29 -55 40t-41 11q-36 0 -59 -32.5t-29 -85.5l-93 18q3 87 55 149t119 62q54 0 94.5 -20.5t86.5 -59.5q35 -29 55 -40t41 -11q36 0 59 33t29 86l92 -19q-3 -87 -55 -149t-119 -62z" />
    <glyph glyph-name="racute.sc" horiz-adv-x="1099" 
d="M549 932h-160v-416q49 -2 152 -2q129 0 207.5 56.5t78.5 158.5q0 97 -74.5 150t-203.5 53zM389 422v-328h189v-94h-480v94h185v838h-185v94h455q175 0 278 -79.5t103 -215.5q0 -103 -62 -178t-165 -107l221 -352h159v-94h-233l-256 422q-33 -2 -72 -2q-98 0 -137 2z
M477 1165l-24 39l256 236q44 41 77 41q30 0 52 -22t22 -58q0 -19 -20 -41t-52 -39z" />
    <glyph glyph-name="rcaron.sc" horiz-adv-x="1099" 
d="M549 932h-160v-416q49 -2 152 -2q129 0 207.5 56.5t78.5 158.5q0 97 -74.5 150t-203.5 53zM389 422v-328h189v-94h-480v94h185v838h-185v94h455q175 0 278 -79.5t103 -215.5q0 -103 -62 -178t-165 -107l221 -352h159v-94h-233l-256 422q-33 -2 -72 -2q-98 0 -137 2z
M797 1497l51 -61l-295 -275l-295 275l51 61l244 -186z" />
    <glyph glyph-name="rcommaaccent.sc" horiz-adv-x="1099" 
d="M549 932h-160v-416q49 -2 152 -2q129 0 207.5 56.5t78.5 158.5q0 97 -74.5 150t-203.5 53zM389 422v-328h189v-94h-480v94h185v838h-185v94h455q175 0 278 -79.5t103 -215.5q0 -103 -62 -178t-165 -107l221 -352h159v-94h-233l-256 422q-33 -2 -72 -2q-98 0 -137 2z
M451 -537l-23 37q78 59 113 113t37 94q-34 5 -58 30t-24 58q0 39 25.5 64.5t60.5 25.5q43 0 70.5 -32t27.5 -89q0 -77 -55.5 -158.5t-173.5 -142.5z" />
    <glyph glyph-name="sacute.sc" horiz-adv-x="931" 
d="M643 836q0 38 25 67q-19 22 -74 37.5t-115 15.5q-105 0 -168 -47t-63 -123q0 -24 8 -45t18.5 -37t33 -33t38 -27t49 -25t50 -22t55.5 -22q54 -20 83.5 -32.5t75 -34t70.5 -42t51 -49.5t37.5 -64.5t11.5 -78.5q0 -134 -103.5 -213t-262.5 -79q-155 0 -258 66.5t-103 146.5
q0 44 22.5 71t59.5 27q36 0 59 -21.5t23 -54.5q0 -41 -26 -74q28 -28 87 -47.5t138 -19.5q120 0 188 51.5t68 140.5q0 23 -8 43.5t-19.5 36t-33.5 32t-38.5 26.5t-47.5 24t-48 21t-51 20q-42 16 -59.5 23t-54.5 22.5t-53.5 24.5t-46 26t-43 31t-32.5 34.5t-27.5 41t-15 47
t-6.5 55.5q0 122 95 197.5t251 75.5q136 0 230 -60t94 -145q0 -39 -23 -63.5t-55 -24.5q-39 0 -62.5 22.5t-23.5 57.5zM410 1165l-25 39l256 236q44 41 78 41q30 0 52 -22t22 -58q0 -19 -20 -41t-52 -39z" />
    <glyph glyph-name="scaron.sc" horiz-adv-x="931" 
d="M643 836q0 38 25 67q-19 22 -74 37.5t-115 15.5q-105 0 -168 -47t-63 -123q0 -24 8 -45t18.5 -37t33 -33t38 -27t49 -25t50 -22t55.5 -22q54 -20 83.5 -32.5t75 -34t70.5 -42t51 -49.5t37.5 -64.5t11.5 -78.5q0 -134 -103.5 -213t-262.5 -79q-155 0 -258 66.5t-103 146.5
q0 44 22.5 71t59.5 27q36 0 59 -21.5t23 -54.5q0 -41 -26 -74q28 -28 87 -47.5t138 -19.5q120 0 188 51.5t68 140.5q0 23 -8 43.5t-19.5 36t-33.5 32t-38.5 26.5t-47.5 24t-48 21t-51 20q-42 16 -59.5 23t-54.5 22.5t-53.5 24.5t-46 26t-43 31t-32.5 34.5t-27.5 41t-15 47
t-6.5 55.5q0 122 95 197.5t251 75.5q136 0 230 -60t94 -145q0 -39 -23 -63.5t-55 -24.5q-39 0 -62.5 22.5t-23.5 57.5zM729 1497l51 -61l-295 -275l-295 275l52 61l243 -186z" />
    <glyph glyph-name="scedilla.sc" horiz-adv-x="956" 
d="M475 -408q-114 0 -217 54l29 65q35 -16 87 -27.5t91 -11.5q41 0 65.5 17.5t24.5 46.5q0 32 -27.5 49.5t-74.5 17.5q-27 0 -45 -6l-35 25l45 164q-133 12 -218 74.5t-85 134.5q0 44 22.5 71t59.5 27q36 0 59 -21.5t23 -54.5q0 -39 -27 -74q28 -28 87 -47.5t138 -19.5
q120 0 188 51.5t68 140.5q0 23 -8 43.5t-19.5 36t-33.5 32t-38.5 26.5t-47.5 24t-48 21t-51 20q-41 16 -59 23t-54.5 22.5t-53.5 24.5t-46 26t-43 31t-32.5 34.5t-27 41t-15 47t-6.5 55.5q0 122 95 197.5t251 75.5q136 0 229.5 -60t93.5 -145q0 -39 -23 -63.5t-55 -24.5
q-39 0 -62.5 22.5t-23.5 57.5q0 38 25 67q-19 22 -73.5 37.5t-114.5 15.5q-105 0 -168.5 -47t-63.5 -123q0 -24 8 -45t18.5 -37t33 -33t38 -27t49 -25t50 -22t55.5 -22q47 -18 72 -28t66 -28.5t63.5 -33.5t50.5 -38.5t42.5 -47.5t25 -56t10.5 -69q0 -130 -99.5 -208.5
t-253.5 -83.5l-10 -84q89 -1 134.5 -44t45.5 -108q0 -67 -48 -110.5t-136 -43.5z" />
    <glyph glyph-name="scommaaccent.sc" horiz-adv-x="931" 
d="M643 836q0 38 25 67q-19 22 -74 37.5t-115 15.5q-105 0 -168 -47t-63 -123q0 -24 8 -45t18.5 -37t33 -33t38 -27t49 -25t50 -22t55.5 -22q54 -20 83.5 -32.5t75 -34t70.5 -42t51 -49.5t37.5 -64.5t11.5 -78.5q0 -134 -103.5 -213t-262.5 -79q-155 0 -258 66.5t-103 146.5
q0 44 22.5 71t59.5 27q36 0 59 -21.5t23 -54.5q0 -41 -26 -74q28 -28 87 -47.5t138 -19.5q120 0 188 51.5t68 140.5q0 23 -8 43.5t-19.5 36t-33.5 32t-38.5 26.5t-47.5 24t-48 21t-51 20q-42 16 -59.5 23t-54.5 22.5t-53.5 24.5t-46 26t-43 31t-32.5 34.5t-27.5 41t-15 47
t-6.5 55.5q0 122 95 197.5t251 75.5q136 0 230 -60t94 -145q0 -39 -23 -63.5t-55 -24.5q-39 0 -62.5 22.5t-23.5 57.5zM352 -537l-22 37q78 59 112.5 112.5t36.5 94.5q-34 5 -58 30t-24 58q0 39 25.5 64.5t60.5 25.5q43 0 71 -32t28 -89q0 -76 -56 -158t-174 -143z" />
    <glyph glyph-name="tcaron.sc" horiz-adv-x="1071" 
d="M293 0v94h188v838h-295v-187h-102v281h903v-281h-104v187h-295v-838h188v-94h-483zM778 1497l51 -61l-294 -275l-295 275l51 61l244 -186z" />
    <glyph glyph-name="tcommaaccent.sc" horiz-adv-x="1071" 
d="M293 0v94h188v838h-295v-187h-102v281h903v-281h-104v187h-295v-838h188v-94h-483zM401 -537l-22 37q78 59 112.5 112.5t36.5 94.5q-34 5 -58 30t-24 58q0 39 25.5 64.5t60.5 25.5q43 0 71 -32t28 -89q0 -76 -56 -158t-174 -143z" />
    <glyph glyph-name="thorn.sc" horiz-adv-x="1013" 
d="M389 825q49 2 160 2q173 0 278 -83t105 -224t-105 -224t-278 -83q-111 0 -160 2v-121h189v-94h-480v94h185v838h-185v94h480v-94h-189v-107zM389 309q51 -2 166 -2q122 0 195 58.5t73 154.5t-73 154.5t-195 58.5q-115 0 -166 -2v-422z" />
    <glyph glyph-name="uacute.sc" 
d="M338 932v-561q0 -138 77 -215.5t210 -77.5t209.5 76.5t76.5 214.5v563h-184v94h463v-94h-172v-561q0 -186 -104.5 -287.5t-290.5 -101.5t-289 99.5t-103 285.5v565h-172v94h463v-94h-184zM549 1165l-25 39l256 236q44 41 78 41q30 0 52 -22t22 -58q0 -19 -20 -41t-52 -39
z" />
    <glyph glyph-name="ubreve.sc" 
d="M338 932v-561q0 -138 77 -215.5t210 -77.5t209.5 76.5t76.5 214.5v563h-184v94h463v-94h-172v-561q0 -186 -104.5 -287.5t-290.5 -101.5t-289 99.5t-103 285.5v565h-172v94h463v-94h-184zM625 1165q-105 0 -185.5 69t-117.5 175l81 39q29 -77 90.5 -121.5t131.5 -44.5
q74 0 133 46.5t88 119.5l82 -39q-37 -106 -117.5 -175t-185.5 -69z" />
    <glyph glyph-name="ucircumflex.sc" 
d="M338 932v-561q0 -138 77 -215.5t210 -77.5t209.5 76.5t76.5 214.5v563h-184v94h463v-94h-172v-561q0 -186 -104.5 -287.5t-290.5 -101.5t-289 99.5t-103 285.5v565h-172v94h463v-94h-184zM381 1153l-51 61l295 275l295 -275l-52 -61l-243 186z" />
    <glyph glyph-name="udieresis.sc" 
d="M338 932v-561q0 -138 77 -215.5t210 -77.5t209.5 76.5t76.5 214.5v563h-184v94h463v-94h-172v-561q0 -186 -104.5 -287.5t-290.5 -101.5t-289 99.5t-103 285.5v565h-172v94h463v-94h-184zM788 1198q-42 0 -71 31t-29 74t29 73.5t71 30.5t71.5 -30.5t29.5 -73.5t-29.5 -74
t-71.5 -31zM461 1198q-42 0 -71.5 31t-29.5 74t29.5 73.5t71.5 30.5t71 -30.5t29 -73.5t-29 -74t-71 -31z" />
    <glyph glyph-name="ugrave.sc" 
d="M338 932v-561q0 -138 77 -215.5t210 -77.5t209.5 76.5t76.5 214.5v563h-184v94h463v-94h-172v-561q0 -186 -104.5 -287.5t-290.5 -101.5t-289 99.5t-103 285.5v565h-172v94h463v-94h-184zM700 1165l-311 156q-32 17 -52 39t-20 41q0 36 22 58t52 22q34 0 78 -41l256 -236
z" />
    <glyph glyph-name="uhungarumlaut.sc" 
d="M338 932v-561q0 -138 77 -215.5t210 -77.5t209.5 76.5t76.5 214.5v563h-184v94h463v-94h-172v-561q0 -186 -104.5 -287.5t-290.5 -101.5t-289 99.5t-103 285.5v565h-172v94h463v-94h-184zM379 1169l-25 39l258 236q44 41 78 41q29 0 49.5 -19.5t20.5 -54.5q0 -19 -20 -41
t-52 -39zM745 1180l-20 41l274 217q44 35 76 35t50 -20t18 -52q0 -51 -78 -82z" />
    <glyph glyph-name="umacron.sc" 
d="M338 932v-561q0 -138 77 -215.5t210 -77.5t209.5 76.5t76.5 214.5v563h-184v94h463v-94h-172v-561q0 -186 -104.5 -287.5t-290.5 -101.5t-289 99.5t-103 285.5v565h-172v94h463v-94h-184zM328 1229v106h594v-106h-594z" />
    <glyph glyph-name="uogonek.sc" 
d="M338 932v-561q0 -138 77 -215.5t210 -77.5t209.5 76.5t76.5 214.5v563h-184v94h463v-94h-172v-561q0 -170 -89 -270t-247 -115q-68 -36 -106.5 -87t-38.5 -108q0 -51 29 -80.5t87 -29.5q88 0 166 40l-6 -86q-26 -18 -72.5 -32.5t-97.5 -14.5q-102 0 -155.5 49.5
t-53.5 133.5q0 124 123 215q-156 15 -241 113.5t-85 267.5v565h-172v94h463v-94h-184z" />
    <glyph glyph-name="uring.sc" 
d="M338 932v-561q0 -138 77 -215.5t210 -77.5t209.5 76.5t76.5 214.5v563h-184v94h463v-94h-172v-561q0 -186 -104.5 -287.5t-290.5 -101.5t-289 99.5t-103 285.5v565h-172v94h463v-94h-184zM625 1143q-85 0 -144 61.5t-59 147.5t59 147.5t144 61.5q84 0 143 -61t59 -148
t-59 -148t-143 -61zM625 1227q50 0 83 36t33 89t-33 89t-83 36q-51 0 -84 -36t-33 -89t33 -89t84 -36z" />
    <glyph glyph-name="wacute.sc" horiz-adv-x="1581" 
d="M461 -25l-289 957h-149v94h430v-94h-166l219 -748l264 703h49l266 -703l218 748h-166v94h422v-94h-150l-289 -957h-61l-268 719l-269 -719h-61zM717 1165l-25 39l256 236q44 41 78 41q30 0 52 -22t22 -58q0 -19 -20 -41t-52 -39z" />
    <glyph glyph-name="wcircumflex.sc" horiz-adv-x="1581" 
d="M461 -25l-289 957h-149v94h430v-94h-166l219 -748l264 703h49l266 -703l218 748h-166v94h422v-94h-150l-289 -957h-61l-268 719l-269 -719h-61zM549 1153l-51 61l295 275l294 -275l-51 -61l-243 186z" />
    <glyph glyph-name="wdieresis.sc" horiz-adv-x="1581" 
d="M461 -25l-289 957h-149v94h430v-94h-166l219 -748l264 703h49l266 -703l218 748h-166v94h422v-94h-150l-289 -957h-61l-268 719l-269 -719h-61zM956 1198q-42 0 -71 31t-29 74t29 73.5t71 30.5t71.5 -30.5t29.5 -73.5t-29.5 -74t-71.5 -31zM629 1198q-42 0 -71.5 31
t-29.5 74t29.5 73.5t71.5 30.5t71 -30.5t29 -73.5t-29 -74t-71 -31z" />
    <glyph glyph-name="wgrave.sc" horiz-adv-x="1581" 
d="M461 -25l-289 957h-149v94h430v-94h-166l219 -748l264 703h49l266 -703l218 748h-166v94h422v-94h-150l-289 -957h-61l-268 719l-269 -719h-61zM868 1165l-311 156q-32 17 -52 39t-20 41q0 36 22 58t52 22q34 0 78 -41l256 -236z" />
    <glyph glyph-name="yacute.sc" horiz-adv-x="1071" 
d="M1059 1026v-94h-146l-325 -543v-295h186v-94h-479v94h186v295l-323 543h-146v94h424v-94h-162l265 -455l264 455h-162v94h418zM463 1165l-25 39l256 236q44 41 78 41q30 0 52 -22t22 -58q0 -19 -20 -41t-52 -39z" />
    <glyph glyph-name="ycircumflex.sc" horiz-adv-x="1071" 
d="M1059 1026v-94h-146l-325 -543v-295h186v-94h-479v94h186v295l-323 543h-146v94h424v-94h-162l265 -455l264 455h-162v94h418zM295 1153l-51 61l295 275l295 -275l-52 -61l-243 186z" />
    <glyph glyph-name="ydieresis.sc" horiz-adv-x="1071" 
d="M1059 1026v-94h-146l-325 -543v-295h186v-94h-479v94h186v295l-323 543h-146v94h424v-94h-162l265 -455l264 455h-162v94h418zM702 1198q-42 0 -71 31t-29 74t29 73.5t71 30.5t71.5 -30.5t29.5 -73.5t-29.5 -74t-71.5 -31zM375 1198q-42 0 -71.5 31t-29.5 74t29.5 73.5
t71.5 30.5t71 -30.5t29 -73.5t-29 -74t-71 -31z" />
    <glyph glyph-name="ygrave.sc" horiz-adv-x="1071" 
d="M1059 1026v-94h-146l-325 -543v-295h186v-94h-479v94h186v295l-323 543h-146v94h424v-94h-162l265 -455l264 455h-162v94h418zM614 1165l-311 156q-32 17 -52 39t-20 41q0 36 22 58t52 22q34 0 78 -41l256 -236z" />
    <glyph glyph-name="zacute.sc" horiz-adv-x="989" 
d="M92 0v57l656 877h-527v-182h-102v274h782v-55l-653 -877h555v180h104v-274h-815zM424 1165l-25 39l256 236q44 41 78 41q30 0 52 -22t22 -58q0 -19 -20 -41t-52 -39z" />
    <glyph glyph-name="zcaron.sc" horiz-adv-x="989" 
d="M92 0v57l656 877h-527v-182h-102v274h782v-55l-653 -877h555v180h104v-274h-815zM743 1497l52 -61l-295 -275l-295 275l51 61l244 -186z" />
    <glyph glyph-name="zdotaccent.sc" horiz-adv-x="989" 
d="M92 0v57l656 877h-527v-182h-102v274h782v-55l-653 -877h555v180h104v-274h-815zM500 1194q-44 0 -74.5 32t-30.5 77t30.5 76.5t74.5 31.5t74 -31.5t30 -76.5t-30 -77t-74 -32z" />
    <glyph glyph-name="zero.lin" horiz-adv-x="1275" 
d="M635 -25q-220 0 -366 194t-146 503q0 313 147.5 506.5t370.5 193.5q143 0 259.5 -86t184.5 -246t68 -364q0 -313 -147.5 -507t-370.5 -194zM637 82q179 0 288 162.5t109 427.5q0 266 -109 430t-288 164q-178 0 -286.5 -162.5t-108.5 -427.5q0 -266 108.5 -430t286.5 -164
z" />
    <glyph glyph-name="one.lin" horiz-adv-x="849" 
d="M100 0v102h285v1119l-270 -70l-25 109l359 94h53v-1252h278v-102h-680z" />
    <glyph glyph-name="two.lin" horiz-adv-x="1122" 
d="M137 1071q0 61 41 123q51 77 149.5 127.5t225.5 50.5q166 0 285.5 -101.5t119.5 -258.5q0 -64 -16.5 -119.5t-41.5 -97t-74.5 -88.5t-94 -81.5t-121.5 -88.5q-309 -216 -366 -435h622v203h113v-305h-848l-29 51q24 96 69.5 181t109 156t126.5 125t144 112q76 54 120 91
t87 85t61.5 99t18.5 112q0 109 -87.5 181.5t-201.5 72.5q-95 0 -167.5 -33t-102.5 -76q-11 -14 -15 -29q30 -7 50 -33.5t20 -56.5q0 -38 -27 -65t-65 -27q-47 0 -76 31.5t-29 93.5z" />
    <glyph glyph-name="three.lin" horiz-adv-x="1046" 
d="M494 84q153 0 243 81t90 191q0 168 -165 244q-104 49 -252 49h-41v103h49q141 0 244 67q60 38 94.5 93t34.5 120q0 111 -78 170.5t-215 59.5q-84 0 -146.5 -21t-95.5 -51q-18 -18 -20 -21q61 -24 61 -86q0 -37 -25.5 -62.5t-62.5 -25.5q-39 0 -68.5 31.5t-29.5 81.5
q0 56 36 109q47 69 140 112t219 43q171 0 285 -91.5t114 -248.5q0 -86 -46.5 -157t-125.5 -117q-66 -37 -135 -51q83 -13 139 -41q94 -44 148.5 -123.5t54.5 -180.5q0 -166 -125.5 -276.5t-322.5 -110.5q-116 0 -219.5 44t-155.5 116q-39 55 -39 115q0 48 28.5 82.5
t69.5 34.5q36 0 62 -27t26 -64q0 -30 -16.5 -51.5t-42.5 -29.5q9 -15 24 -27q38 -35 108 -59.5t157 -24.5z" />
    <glyph glyph-name="four.lin" horiz-adv-x="1097" 
d="M418 0v102h246v299h-621l-18 45l690 930l88 -63l-604 -811h465v313l116 53v-366h238v-101h-238v-299h197v-102h-559z" />
    <glyph glyph-name="five.lin" horiz-adv-x="1052" 
d="M492 84q150 0 244.5 96t94.5 246q0 130 -88 217.5t-241 87.5q-143 0 -289 -67l-51 22l69 662h639v-117h-544l-45 -430q100 41 229 41q122 0 220.5 -47t159 -142.5t60.5 -224.5q0 -141 -65 -245.5t-170 -156t-232 -51.5q-96 0 -180.5 29.5t-136.5 77.5q-64 58 -64 127
q0 41 27 71.5t72 30.5q34 0 61 -27t27 -63q0 -45 -33 -71q15 -15 27 -21q75 -45 209 -45z" />
    <glyph glyph-name="six.lin" horiz-adv-x="1173" 
d="M977 1147q0 -45 -26.5 -74t-65.5 -29q-38 0 -65 27.5t-27 65.5q0 43 28 67q-21 25 -68.5 42.5t-103.5 17.5q-177 0 -291 -186t-122 -478q30 62 83 109q125 112 289 112q196 0 319.5 -118.5t123.5 -301.5q0 -181 -126.5 -303.5t-316.5 -122.5q-205 0 -334 129
q-151 151 -151 463q0 171 32 309.5t84.5 229t122.5 152t144 88t151 26.5q147 0 242 -78q78 -65 78 -147zM608 82q140 0 233 89t93 226q0 138 -93 228t-233 90q-146 0 -246 -93t-100 -225q0 -126 105 -221q104 -94 241 -94z" />
    <glyph glyph-name="seven.lin" horiz-adv-x="1003" 
d="M225 0l553 1245h-608v-203h-113v306h863l16 -33l-586 -1315h-125z" />
    <glyph glyph-name="eight.lin" horiz-adv-x="1130" 
d="M565 -25q-194 0 -322 106.5t-128 280.5q0 123 90.5 221t191.5 119q-108 34 -181 122t-73 190q0 87 34.5 156.5t94 113t134.5 66t159 22.5t159 -22.5t134.5 -66t94 -113t34.5 -156.5q0 -102 -73 -190t-181 -122q101 -21 192 -119t91 -221q0 -174 -128.5 -280.5
t-322.5 -106.5zM565 754q127 0 217 75t90 181q0 111 -86.5 183.5t-220.5 72.5t-220.5 -72.5t-86.5 -183.5q0 -106 90 -181t217 -75zM565 82q147 0 241.5 78t94.5 202q0 116 -100 200.5t-236 84.5t-236 -84.5t-100 -200.5q0 -124 94.5 -202t241.5 -78z" />
    <glyph glyph-name="nine.lin" horiz-adv-x="1173" 
d="M182 201q0 45 26.5 73.5t65.5 28.5q38 0 65.5 -27t27.5 -65q0 -42 -29 -68q13 -17 33 -28q58 -35 159 -35q82 0 154 41.5t128.5 120t90.5 203t35 280.5l-12 -23q-56 -89 -152 -140.5t-209 -51.5q-198 0 -320 117.5t-122 310.5q0 189 125.5 311.5t316.5 122.5
q203 0 328 -125q158 -158 158 -477q0 -172 -29 -309t-78 -226.5t-117.5 -149t-144 -85t-160.5 -25.5q-139 0 -250 80q-41 30 -65.5 68.5t-24.5 77.5zM565 616q147 0 246.5 91.5t99.5 224.5q0 138 -100 235q-102 99 -246 99q-139 0 -232 -90t-93 -234q0 -146 92 -236t233 -90
z" />
    <glyph glyph-name="bullet.alt" horiz-adv-x="1282" 
d="M641 -96q-152 0 -272 72t-185 194t-65 270t65 270t185 194.5t272 72.5q153 0 273.5 -72.5t185.5 -194.5t65 -270t-65 -270t-185.5 -194t-273.5 -72z" />
    <glyph glyph-name="hyphen.lin" horiz-adv-x="561" 
d="M66 639v106h430v-106h-430z" />
    <glyph glyph-name="endash.lin" horiz-adv-x="868" 
d="M45 639v106h778v-106h-778z" />
    <glyph glyph-name="emdash.lin" horiz-adv-x="1452" 
d="M45 639v106h1362v-106h-1362z" />
    <glyph glyph-name="parenleft.lin" horiz-adv-x="675" 
d="M684 -340q-178 106 -303 269t-183.5 346.5t-58.5 379.5t58.5 380t183.5 347t303 269l59 -84q-158 -96 -270.5 -245t-166.5 -318.5t-54 -348.5q0 -273 128 -520.5t363 -390.5z" />
    <glyph glyph-name="parenright.lin" horiz-adv-x="675" 
d="M-8 -340l-60 84q158 96 270.5 244.5t167 318t54.5 348.5q0 272 -128.5 520.5t-363.5 391.5l60 84q178 -106 303 -269t183.5 -347t58.5 -380t-58.5 -379.5t-183.5 -346.5t-303 -269z" />
    <glyph glyph-name="bracketleft.lin" horiz-adv-x="698" 
d="M217 -287v1909h440v-102h-327v-1704h327v-103h-440z" />
    <glyph glyph-name="bracketright.lin" horiz-adv-x="698" 
d="M41 -287v103h328v1704h-328v102h440v-1909h-440z" />
    <glyph glyph-name="braceleft.lin" horiz-adv-x="671" 
d="M559 -322q-198 4 -314 91t-116 223q0 39 9 71t33 66.5t46 59.5t68 73q49 51 74.5 90t25.5 80q0 83 -76 132.5t-180 49.5h-29v99h29q104 0 180 49.5t76 132.5q0 41 -25.5 80t-74.5 90q-46 48 -68 73t-46 59.5t-33 66.5t-9 71q0 136 116 223t314 91v-88q-161 -7 -241 -73.5
t-80 -152.5q0 -45 31.5 -92.5t95.5 -116.5q41 -45 64.5 -74.5t44 -72.5t20.5 -82q0 -31 -11 -62.5t-36 -65t-73.5 -62t-115.5 -43.5q67 -15 115.5 -43.5t73.5 -62.5t36 -65.5t11 -62.5q0 -39 -20.5 -82t-44 -72.5t-64.5 -74.5q-64 -69 -95.5 -116.5t-31.5 -92.5
q0 -85 80 -151.5t241 -73.5v-89z" />
    <glyph glyph-name="braceright.lin" horiz-adv-x="671" 
d="M113 -322v89q161 7 241 73.5t80 151.5q0 45 -31.5 92.5t-95.5 116.5q-41 45 -64.5 74.5t-44 72.5t-20.5 82q0 31 11 62.5t36 65.5t73.5 62.5t115.5 43.5q-67 15 -115.5 43.5t-73.5 62t-36 65t-11 62.5q0 39 20.5 82t44 72.5t64.5 74.5q64 69 95.5 116.5t31.5 92.5
q0 86 -80 152.5t-241 73.5v88q198 -4 314 -91t116 -223q0 -39 -9 -71t-33 -66.5t-46 -59.5t-68 -73q-49 -51 -74.5 -90t-25.5 -80q0 -83 76 -132.5t180 -49.5h28v-99h-28q-104 0 -180 -49.5t-76 -132.5q0 -41 25.5 -80t74.5 -90q46 -48 68 -73t46 -59.5t33 -66.5t9 -71
q0 -136 -116 -223t-314 -91z" />
    <glyph glyph-name="registered.alt" horiz-adv-x="1224" 
d="M612 -16q-146 0 -264.5 70.5t-184 191.5t-65.5 266t65.5 266.5t184 192.5t264.5 71t264.5 -71t184 -192.5t65.5 -266.5t-65.5 -266t-184 -191.5t-264.5 -70.5zM612 49q188 0 313.5 135.5t125.5 329.5t-125.5 329.5t-313.5 135.5t-313 -135.5t-125 -329.5t125 -329.5
t313 -135.5zM610 254h-207v63h68v414h-68v62h205q93 0 148 -42t55 -116q0 -52 -31 -91t-82 -57l105 -170h63v-63h-110l-125 215h-90v-152h69v-63zM606 731h-65v-203h61q62 0 99.5 28t37.5 77q0 48 -35.5 73t-97.5 25z" />
    <glyph glyph-name="copyright.lin" horiz-adv-x="1601" 
d="M801 -25q-189 0 -346.5 94t-247.5 254.5t-90 350.5q0 142 53 271t144 222.5t218 149t269 55.5t269 -55.5t218 -149t144 -222.5t53 -271q0 -190 -90 -350.5t-247.5 -254.5t-346.5 -94zM801 43q166 0 305.5 85t220 230t80.5 316t-80.5 316t-220 230t-305.5 85t-305.5 -85
t-220 -230t-80.5 -316t80.5 -316t220 -230t305.5 -85zM823 952q-109 0 -181.5 -78t-72.5 -190q0 -110 73 -189t187 -79q112 0 203 88l55 -62q-103 -106 -258 -106q-154 0 -252 99.5t-98 246.5q0 152 101.5 252t244.5 100q105 0 179.5 -51.5t74.5 -114.5q0 -31 -17.5 -51
t-45.5 -20q-27 0 -44.5 16.5t-17.5 42.5t21 39q-15 23 -55.5 40t-96.5 17z" />
    <glyph glyph-name="published.lin" horiz-adv-x="1601" 
d="M801 -25q-189 0 -346.5 94t-247.5 254.5t-90 350.5q0 142 53 271t144 222.5t218 149t269 55.5t269 -55.5t218 -149t144 -222.5t53 -271q0 -190 -90 -350.5t-247.5 -254.5t-346.5 -94zM801 43q166 0 305.5 85t220 230t80.5 316t-80.5 316t-220 230t-305.5 85t-305.5 -85
t-220 -230t-80.5 -316t80.5 -316t220 -230t305.5 -85zM827 575h-86v-159h90v-78h-262v78h84v518h-84v78h265q108 0 178.5 -59t70.5 -156q0 -106 -69 -164t-187 -58zM834 651q75 0 117 39t42 107q0 63 -45.5 100t-116.5 37h-90v-281q6 0 37 -1t56 -1z" />
    <glyph glyph-name="registered.lin" horiz-adv-x="1601" 
d="M801 -25q-189 0 -346.5 94t-247.5 254.5t-90 350.5q0 142 53 271t144 222.5t218 149t269 55.5t269 -55.5t218 -149t144 -222.5t53 -271q0 -190 -90 -350.5t-247.5 -254.5t-346.5 -94zM801 43q166 0 305.5 85t220 230t80.5 316t-80.5 316t-220 230t-305.5 85t-305.5 -85
t-220 -230t-80.5 -316t80.5 -316t220 -230t305.5 -85zM715 618v-190h88v-78h-258v78h84v518h-84v78h256q115 0 183.5 -52t68.5 -145q0 -67 -38 -115t-102 -69l129 -215h80v-78h-133l-153 268h-121zM715 694h78q75 0 122.5 34.5t47.5 94.5t-44 91.5t-122 31.5h-82v-252z" />
    <glyph glyph-name="dollar.lin" horiz-adv-x="1146" 
d="M541 -205l-103 8l19 203q-158 23 -259.5 102.5t-101.5 155.5q0 50 27.5 81.5t66.5 31.5q36 0 61 -24t25 -58q0 -51 -40 -94q28 -31 91.5 -59.5t141.5 -39.5l47 551q-82 28 -140 57t-107.5 69.5t-74 96t-24.5 125.5q0 149 110 246t293 101l17 180l102 -8l-16 -181
q133 -20 223 -90.5t90 -154.5q0 -46 -26.5 -73.5t-63.5 -27.5q-38 0 -64 25.5t-26 62.5q0 43 37 84q-23 26 -74 47.5t-108 30.5l-46 -512q76 -25 130 -46.5t109 -53.5t88 -68t54 -86t21 -110q0 -169 -131 -268t-332 -99zM909 358q0 99 -74.5 159t-226.5 108l-45 -529
q160 2 253 71t93 191zM281 1010q0 -90 60 -146t185 -102l43 489q-130 -4 -209 -72t-79 -169z" />
    <glyph glyph-name="sterling.lin" horiz-adv-x="1122" 
d="M72 49q0 45 53.5 81t153.5 36q96 126 96 297q0 17 -4 63h-209v95h188l-24 77q-58 168 -58 295q0 156 110.5 267.5t266.5 111.5q146 0 240 -71t94 -166q0 -44 -27.5 -72.5t-64.5 -28.5q-39 0 -65.5 25.5t-26.5 62.5q0 44 34 78q-53 70 -188 70q-108 0 -187 -81t-79 -194
q0 -49 8.5 -101.5t17 -82t25.5 -84.5q21 -65 31 -106h350v-95h-334q4 -46 4 -65q0 -98 -26 -175t-66 -118q68 -5 186 -41q84 -27 125.5 -36t87.5 -9q75 0 111.5 29t65.5 102l92 -39q-29 -99 -92.5 -149t-172.5 -50q-62 0 -110.5 12t-138.5 44q-48 16 -73 23t-64 14t-80 8
q-32 -47 -80 -75t-86 -28q-39 0 -61.5 21t-22.5 55z" />
    <glyph glyph-name="Euro.lin" horiz-adv-x="1460" 
d="M68 770v98h198q53 237 218.5 369.5t389.5 132.5q184 0 318.5 -103t134.5 -233q0 -46 -26 -78t-74 -32q-37 0 -60.5 26t-23.5 60q0 32 15 56.5t40 35.5q-20 53 -118.5 108.5t-209.5 55.5q-183 0 -311 -104t-172 -294h541v-98h-559q-4 -66 -4 -102q0 -60 6 -115h557v-98
h-537q45 -171 161 -272t296 -101q119 0 211 40.5t180 125.5l74 -78q-79 -90 -201 -142.5t-266 -52.5q-227 0 -376.5 132t-201.5 348h-200v98h184q-6 56 -6 113q0 52 6 104h-184z" />
    <glyph glyph-name="yen.lin" horiz-adv-x="1312" 
d="M397 0v102h201v199h-346v98h346v146h-346v98h289l-351 602h-147v103h428v-103h-147l335 -596l332 596h-149v103h428v-103h-150l-352 -602h291v-98h-346v-146h346v-98h-346v-199h200v-102h-516z" />
    <glyph glyph-name="cent.lin" horiz-adv-x="1001" 
d="M397 -29l27 295q-155 43 -248.5 159.5t-93.5 268.5q0 181 122 308.5t298 136.5l22 235l97 -8l-21 -231q116 -19 199.5 -89t83.5 -149q0 -39 -28 -75t-71 -36q-29 0 -52 19.5t-23 58.5q0 13 13.5 38t35.5 36q-15 36 -61 62.5t-105 37.5l-64 -690q18 -2 58 -2
q127 0 278 100l-10 -112q-58 -41 -136.5 -63.5t-142.5 -22.5q-39 0 -57 2l-24 -287zM199 692q0 -117 62 -202.5t171 -120.5l62 673q-58 -6 -109.5 -31t-94 -67t-67 -107t-24.5 -145z" />
    <glyph glyph-name="numbersign.lin" horiz-adv-x="1165" 
d="M119 866v86h276l62 394h96l-61 -394h264l61 394h96l-61 -394h278v-86h-290l-62 -401h269v-86h-283l-57 -379h-97l58 379h-265l-57 -379h-96l57 379h-272v86h287l61 401h-264zM479 866l-61 -401h264l61 401h-264z" />
    <glyph glyph-name="paragraph.lin" horiz-adv-x="1363" 
d="M520 0v102h191v404q-45 -2 -156 -2q-220 0 -352.5 115.5t-132.5 310.5q0 188 139.5 303t353.5 115h694v-103h-180v-1143h180v-102h-737zM827 96h134v1155h-134v-1155z" />
    <glyph glyph-name="section.lin" horiz-adv-x="1095" 
d="M244 274q39 0 64.5 -23t25.5 -61q0 -34 -15 -59q21 -21 84 -39t115 -18q121 0 192.5 41.5t71.5 105.5q0 41 -20.5 66.5t-83 52t-189.5 59.5q-182 47 -274 108.5t-92 162.5q0 80 63.5 143.5t157.5 101.5q-77 36 -113 84t-36 121q0 102 107 177t273 75q133 0 238 -55
q56 -29 88.5 -70t32.5 -82q0 -40 -23.5 -66t-58.5 -26q-39 0 -64.5 23t-25.5 61q0 37 14 60q-10 10 -41 24q-83 33 -157 33q-121 0 -193 -42t-72 -106q0 -41 20.5 -66.5t83 -52t189.5 -59.5q183 -47 275 -108t92 -162q0 -80 -61 -142.5t-156 -103.5q73 -32 108 -79t35 -120
q0 -108 -105.5 -183t-273.5 -75q-90 0 -168 26t-127 69q-63 54 -63 112q0 40 23.5 66t58.5 26zM539 856l-97 25q-87 -33 -140.5 -83.5t-53.5 -113.5q0 -31 12 -54t44 -47t94.5 -46.5t158.5 -44.5l96 -25q89 32 142 83.5t53 113.5q0 31 -12 54t-44 47t-94.5 46.5t-158.5 44.5
z" />
    <glyph glyph-name="ordfeminine.lin" horiz-adv-x="694" 
d="M254 989q-75 0 -122.5 41t-47.5 107q0 70 55 112.5t142 42.5q84 0 149 -24v73q0 58 -39 86q-36 25 -96 25q-55 0 -82 -20q6 -12 6 -31q0 -22 -14 -36.5t-37 -14.5q-24 0 -38.5 14.5t-14.5 38.5q0 48 51.5 83.5t138.5 35.5q79 0 133 -33q70 -45 70 -135v-287h82v-68h-158
v66q-80 -76 -178 -76zM102 774v76h488v-76h-488zM274 1055q87 0 156 73v86q-78 21 -141 21q-60 0 -92.5 -25.5t-32.5 -66.5q0 -39 28.5 -63.5t81.5 -24.5z" />
    <glyph glyph-name="ordmasculine.lin" horiz-adv-x="720" 
d="M127 774v76h467v-76h-467zM362 987q-117 0 -191.5 78t-74.5 190t74.5 190.5t191.5 78.5q116 0 189.5 -78t73.5 -191q0 -112 -73.5 -190t-189.5 -78zM362 1057q79 0 129 55.5t50 142.5t-50 143t-129 56q-81 0 -131.5 -56t-50.5 -143t50.5 -142.5t131.5 -55.5z" />
    <glyph glyph-name="degree.lin" horiz-adv-x="614" 
d="M307 1004q-113 0 -185.5 76t-72.5 184t72.5 184t185.5 76q111 0 181.5 -75.5t70.5 -184.5q0 -108 -71 -184t-181 -76zM307 1075q74 0 122 54.5t48 134.5t-48 134t-122 54q-77 0 -125.5 -53.5t-48.5 -134.5t48.5 -135t125.5 -54z" />
    <glyph glyph-name="percent.lin" horiz-adv-x="1304" 
d="M70 1077q0 122 83.5 208.5t204.5 86.5t205 -86.5t84 -208.5t-84 -208.5t-205 -86.5t-204.5 86.5t-83.5 208.5zM657 270q0 122 84 208.5t205 86.5t205 -86.5t84 -208.5t-84 -208.5t-205 -86.5t-205 86.5t-84 208.5zM219 -20l-80 53l471 665l475 670l80 -53l-477 -674z
M168 1077q0 -85 55.5 -146t134.5 -61t135 61t56 146t-56 146t-135 61t-134.5 -61t-55.5 -146zM756 270q0 -85 55.5 -146t134.5 -61t135 61t56 146t-56 146t-135 61t-134.5 -61t-55.5 -146z" />
    <glyph glyph-name="perthousand.lin" horiz-adv-x="1990" 
d="M70 1077q0 122 83.5 208.5t204.5 86.5t205 -86.5t84 -208.5t-84 -208.5t-205 -86.5t-204.5 86.5t-83.5 208.5zM657 270q0 122 84 208.5t205 86.5t205 -86.5t84 -208.5t-84 -208.5t-205 -86.5t-205 86.5t-84 208.5zM1343 270q0 122 84 208.5t205 86.5t205 -86.5t84 -208.5
t-84 -208.5t-205 -86.5t-205 86.5t-84 208.5zM219 -20l-80 53l471 665l475 670l80 -53l-477 -674zM168 1077q0 -85 55.5 -146t134.5 -61t135 61t56 146t-56 146t-135 61t-134.5 -61t-55.5 -146zM756 270q0 -85 55.5 -146t134.5 -61t135 61t56 146t-56 146t-135 61
t-134.5 -61t-55.5 -146zM1442 270q0 -85 55.5 -146t134.5 -61t135 61t56 146t-56 146t-135 61t-134.5 -61t-55.5 -146z" />
    <glyph glyph-name="quotedbl.lin" horiz-adv-x="612" 
d="M438 1051l-59 346q-10 55 13 90t67 35t67 -34t13 -91l-62 -346h-39zM131 1051l-59 346q-10 55 13 90t67 35t66.5 -34t12.5 -91l-61 -346h-39z" />
    <glyph glyph-name="quotesingle.lin" horiz-adv-x="305" 
d="M131 1051l-59 346q-10 55 13 90t67 35t66.5 -34t12.5 -91l-61 -346h-39z" />
    <glyph glyph-name="plus.lin" horiz-adv-x="806" 
d="M352 365v278h-276v98h276v279h103v-279h276v-98h-276v-278h-103z" />
    <glyph glyph-name="minus.lin" horiz-adv-x="806" 
d="M76 643v98h655v-98h-655z" />
    <glyph glyph-name="divide.lin" horiz-adv-x="806" 
d="M731 643h-655v98h655v-98zM403 872q-35 0 -60.5 26.5t-25.5 62.5q0 35 25.5 61.5t60.5 26.5q34 0 59 -26.5t25 -61.5t-25 -62t-59 -27zM403 336q-35 0 -60.5 26.5t-25.5 61.5t25.5 61.5t60.5 26.5q34 0 59 -26.5t25 -61.5t-25 -61.5t-59 -26.5z" />
    <glyph glyph-name="equal.lin" horiz-adv-x="806" 
d="M76 776v98h655v-98h-655zM76 471v98h655v-98h-655z" />
    <glyph glyph-name="multiply.lin" horiz-adv-x="806" 
d="M618 403l-217 220l-215 -217l-69 69l217 215l-219 217l71 72l217 -219l215 217l70 -70l-217 -215l219 -217z" />
    <glyph glyph-name="less.lin" horiz-adv-x="765" 
d="M582 322l-508 333v41l508 334l53 -80l-418 -274l418 -275z" />
    <glyph glyph-name="greater.lin" horiz-adv-x="765" 
d="M184 322l-53 79l418 275l-418 274l53 80l508 -334v-41z" />
    <glyph glyph-name="plusminus.lin" horiz-adv-x="806" 
d="M352 442v279h-276v98h276v279h103v-279h276v-98h-276v-279h-103zM76 186v99h655v-99h-655z" />
    <glyph glyph-name="zero.tab" horiz-adv-x="1085" 
d="M543 -25q-193 0 -320 192.5t-127 504.5q0 317 125.5 508.5t321.5 191.5t321 -191.5t125 -508.5q0 -312 -126.5 -504.5t-319.5 -192.5zM543 1264q-148 0 -238 -161t-90 -427q0 -268 90 -430t238 -162t237.5 162t89.5 430q0 267 -89.5 427.5t-237.5 160.5z" />
    <glyph glyph-name="one.tab" horiz-adv-x="1085" 
d="M156 0v102h346v1123l-332 -92l-25 108l408 113h65v-1252h340v-102h-802z" />
    <glyph glyph-name="two.tab" horiz-adv-x="1085" 
d="M936 1012q0 -46 -9 -87.5t-21.5 -74.5t-39.5 -68.5t-48.5 -60t-65 -60.5t-72.5 -58t-86 -64q-306 -226 -358 -437h606v203h112v-305h-831l-29 51q18 77 52.5 149t74.5 128t96.5 113t104 97t110.5 87q61 46 94.5 73t75.5 67.5t62.5 74.5t35.5 78.5t15 93.5q0 110 -87 182
t-202 72q-95 0 -165 -32.5t-99 -78.5q-10 -12 -14 -29q30 -7 49.5 -33.5t19.5 -56.5q0 -38 -27 -65t-65 -27q-47 0 -75.5 31.5t-28.5 93.5q0 63 41 125q50 77 147 127.5t226 50.5q107 0 198 -43t147 -126.5t56 -190.5z" />
    <glyph glyph-name="three.tab" horiz-adv-x="1085" 
d="M512 -25q-115 0 -221.5 49.5t-161.5 125.5q-41 56 -41 120q0 48 28.5 82.5t69.5 34.5q37 0 62.5 -26.5t25.5 -63.5q0 -30 -17 -53t-44 -31q13 -21 27 -33q42 -40 113.5 -70t158.5 -30q154 0 247 83t93 193q0 168 -176 244q-110 49 -254 49h-43v103h53q139 0 248 67
q63 38 99 93t36 120q0 111 -81 172.5t-218 61.5q-80 0 -144 -26.5t-102 -61.5q-13 -10 -24 -29q63 -23 63 -86q0 -37 -25.5 -62.5t-62.5 -25.5q-39 0 -68.5 30.5t-29.5 77.5q0 61 39 117q51 73 145.5 122.5t216.5 49.5q175 0 290.5 -91t115.5 -249q0 -87 -48.5 -156.5
t-133.5 -115.5q-71 -38 -148 -53q89 -13 148 -41q100 -44 158.5 -123.5t58.5 -180.5q0 -167 -127.5 -277t-325.5 -110z" />
    <glyph glyph-name="four.tab" horiz-adv-x="1085" 
d="M406 0v102h245v299h-608l-18 45l684 930l88 -63l-598 -811h452v313l117 53v-366h238v-101h-238v-299h197v-102h-559z" />
    <glyph glyph-name="five.tab" horiz-adv-x="1085" 
d="M498 -25q-98 0 -184 29.5t-140 77.5q-65 56 -65 127q0 41 26.5 71.5t71.5 30.5q34 0 61 -27t27 -63q0 -19 -9 -39t-24 -30q17 -17 29 -23q73 -45 217 -45q155 0 252.5 96t97.5 246q0 130 -91.5 217.5t-248.5 87.5q-147 0 -299 -67l-51 22l70 662h659v-117h-565l-45 -430
q109 41 239 41q125 0 226 -47t163 -142.5t62 -224.5q0 -141 -67 -245.5t-174.5 -156t-237.5 -51.5z" />
    <glyph glyph-name="six.tab" horiz-adv-x="1085" 
d="M838 1044q-38 0 -65.5 27.5t-27.5 65.5q0 41 27 65q-19 27 -65 44.5t-101 17.5q-113 0 -201.5 -84t-139 -235t-54.5 -345q25 58 80 109q55 52 127 82t147 30q186 0 303 -118.5t117 -301.5q0 -181 -121 -303.5t-303 -122.5q-194 0 -317 129q-146 152 -146 463
q0 171 31 309.5t82 229t119.5 152t140 88t147.5 26.5q141 0 236 -78q76 -66 76 -147q0 -45 -26.5 -74t-65.5 -29zM563 82q130 0 217.5 89t87.5 226t-87.5 227.5t-217.5 90.5q-137 0 -229 -93t-92 -225q0 -130 96 -223q92 -92 225 -92z" />
    <glyph glyph-name="seven.tab" horiz-adv-x="1085" 
d="M285 0l557 1245h-637v-203h-113v306h893l16 -33l-589 -1315h-127z" />
    <glyph glyph-name="eight.tab" horiz-adv-x="1085" 
d="M543 82q139 0 231 78.5t92 201.5q0 117 -95.5 201t-227.5 84t-228 -84t-96 -201q0 -123 92.5 -201.5t231.5 -78.5zM543 1372q110 0 201 -38.5t149.5 -121.5t58.5 -198q0 -103 -69.5 -190.5t-175.5 -121.5q100 -21 187 -118.5t87 -221.5q0 -173 -125.5 -280t-312.5 -107
t-313 107t-126 280q0 124 87.5 221.5t187.5 118.5q-106 34 -176 121.5t-70 190.5q0 87 34 156.5t91.5 113t130.5 66t154 22.5zM543 754q124 0 209.5 75t85.5 181q0 110 -84 183t-211 73t-211 -73t-84 -183q0 -106 85.5 -181t209.5 -75z" />
    <glyph glyph-name="nine.tab" horiz-adv-x="1085" 
d="M985 780q0 -171 -30.5 -309.5t-80.5 -229t-116.5 -152t-136.5 -88t-144 -26.5q-139 0 -244 78q-88 67 -88 146q0 45 27 73.5t66 28.5q38 0 65 -27t27 -65q0 -40 -31 -68q11 -13 33 -28q54 -33 160 -33q107 0 191 82.5t132.5 230.5t54.5 338q-26 -59 -77 -110
q-56 -53 -128.5 -84t-146.5 -31q-186 0 -303 121.5t-117 308.5q0 185 121 310.5t303 125.5q195 0 318 -129q145 -151 145 -463zM520 1266q-130 0 -217.5 -92.5t-87.5 -233.5q0 -142 87.5 -235t217.5 -93q137 0 229.5 96t92.5 232q0 135 -94 229q-44 44 -104 70.5t-124 26.5z
" />
    </font>
</defs>
</svg>
