<?xml version="1.0" standalone="no"?>
<!DOCTYPE svg PUBLIC "-//W3C//DTD SVG 1.1//EN" "http://www.w3.org/Graphics/SVG/1.1/DTD/svg11.dtd" >
<svg xmlns="http://www.w3.org/2000/svg" xmlns:xlink="http://www.w3.org/1999/xlink" version="1.1">
<metadata>
Created by FontForge 20170731 at Fri Feb  5 06:47:39 2021
 By Aleksey,,,
Copyright (C) 2000, 2007 Hoefler &#38; Frere-Jones. http://www.typography.com
</metadata>
<defs>
<font id="Archer-Bold" horiz-adv-x="1085" >
  <font-face 
    font-family="Archer Bold"
    font-weight="400"
    font-stretch="normal"
    units-per-em="2048"
    panose-1="0 0 0 0 0 0 0 0 0 0"
    ascent="1638"
    descent="-410"
    x-height="897"
    cap-height="1348"
    bbox="-100 -672 3033 2298"
    underline-thickness="102"
    underline-position="-307"
    unicode-range="U+0020-FB04"
  />
<missing-glyph horiz-adv-x="1024" 
d="M0 -410v2048h1024v-2048h-1024zM145 1536l367 -799l367 799h-734zM102 -156l353 770l-353 770v-1540zM922 1384l-353 -770l353 -770v1540zM512 492l-367 -799h734z" />
    <glyph glyph-name="f_f" unicode="ff" horiz-adv-x="1294" 
d="M430 897h393v174q0 126 26 207t89 143q98 95 246 95q88 0 143 -42.5t55 -109.5q0 -58 -35 -92.5t-85 -34.5q-49 0 -78.5 22t-50.5 62q-34 -15 -48 -37q-41 -59 -41 -180v-207h234v-188h-234v-525h175v-184h-521v184h125v525h-393v-525h164v-184h-520v184h135v525h-154
v188h154v133q0 118 30.5 211.5t84.5 147.5q86 86 225 86q88 0 143.5 -42.5t55.5 -109.5q0 -58 -35.5 -92.5t-85.5 -34.5q-88 0 -129 84q-18 -11 -29 -27q-39 -56 -39 -190v-166z" />
    <glyph glyph-name="fi" unicode="fi" horiz-adv-x="1255" 
d="M1057 897v-713h133v-184h-483v184h127v525h-404v-525h164v-184h-520v184h135v525h-154v188h154v154q0 235 121 356q109 109 270 109q113 0 174.5 -52t61.5 -127q0 -56 -40.5 -96.5t-95.5 -40.5t-94.5 36.5t-42.5 88.5q-52 -4 -86 -51q-47 -64 -47 -191v-186h627z" />
    <glyph glyph-name="fl" unicode="fl" horiz-adv-x="1234" 
d="M694 184h129v525h-393v-525h164v-184h-520v184h135v525h-154v188h154v164q0 217 106 332q117 123 308 123q144 0 237 -74l35 63h152v-1321h133v-184h-486v184zM627 1321q-90 0 -140 -53q-57 -60 -57 -185v-186h393v178v4q-40 14 -66 51t-26 82q0 44 17 72q-46 37 -121 37
z" />
    <glyph glyph-name="f_f_i" unicode="ffi" horiz-adv-x="1869" 
d="M1450 1337q0 -56 -40 -96.5t-95 -40.5t-94.5 38.5t-42.5 86.5q-46 -4 -80 -43q-54 -65 -54 -199v-186h627v-713h133v-184h-483v184h127v525h-404v-525h164v-184h-510v184h125v525h-393v-525h164v-184h-520v184h135v525h-154v188h154v158q0 198 98 305q106 115 285 115
q67 0 121 -23q94 -42 94 -137q0 -54 -36 -87.5t-85 -33.5q-93 0 -129 84q-53 -10 -80 -41q-47 -53 -47 -156v-184h393v154q0 235 121 356q109 109 270 109q113 0 174.5 -52t61.5 -127z" />
    <glyph glyph-name="f_f_l" unicode="ffl" horiz-adv-x="1849" 
d="M430 1081v-184h393v164q0 216 107 332q117 123 307 123q148 0 240 -74l32 63h152v-1321h133v-184h-485v184h129v525h-394v-525h164v-184h-510v184h125v525h-393v-525h164v-184h-520v184h135v525h-154v188h154v158q0 198 98 305q106 115 285 115q67 0 121 -23
q94 -42 94 -137q0 -54 -36 -87.5t-85 -33.5q-93 0 -129 84q-53 -10 -80 -41q-47 -53 -47 -156zM1044 1083v-186h394v178v4q-40 14 -66 51t-26 82t16 72q-46 37 -121 37q-89 0 -139 -53q-58 -61 -58 -185z" />
    <glyph glyph-name="f_b" unicode="fb" horiz-adv-x="1796" 
d="M823 -4v713h-393v-525h164v-184h-520v184h135v525h-154v188h154v164q0 217 106 332q117 123 308 123q144 0 237 -74l35 63h152v-708q122 116 264 116q179 0 297 -129.5t118 -330.5q0 -128 -56.5 -236t-155.5 -170.5t-218 -62.5q-81 0 -145 26.5t-127 77.5l-49 -92h-152z
M1260 176q99 0 168 73.5t69 201.5q0 125 -67.5 197.5t-169.5 72.5q-107 0 -213 -92v-381q104 -72 213 -72zM731 1212q0 44 17 72q-46 37 -121 37q-90 0 -140 -53q-57 -60 -57 -185v-186h393v178v4q-40 14 -66 51t-26 82z" />
    <glyph glyph-name="f_h" unicode="fh" horiz-adv-x="1796" 
d="M823 184v525h-393v-525h164v-184h-520v184h135v525h-154v188h154v164q0 217 106 332q117 123 308 123q144 0 237 -74l35 63h152v-743q75 71 146.5 111t158.5 40q145 0 219 -96q59 -77 59 -203v-430h133v-184h-479v184h123v375q0 69 -29 109q-34 43 -100 43
q-103 0 -231 -105v-422h122v-184h-475v184h129zM731 1212q0 44 17 72q-46 37 -121 37q-90 0 -140 -53q-57 -60 -57 -185v-186h393v178v4q-40 14 -66 51t-26 82z" />
    <glyph glyph-name="f_j" unicode="fj" horiz-adv-x="1183" 
d="M834 709h-404v-525h164v-184h-520v184h135v525h-154v188h154v154q0 235 121 356q109 109 270 109q113 0 174.5 -52t61.5 -127q0 -56 -40.5 -96.5t-95.5 -40.5t-94.5 36.5t-42.5 88.5q-52 -4 -86 -51q-47 -64 -47 -191v-186h627v-883q0 -146 -51 -243q-44 -90 -126 -135.5
t-184 -45.5q-106 0 -162.5 48.5t-56.5 113.5q0 51 36 88t87 37q48 0 80.5 -30.5t40.5 -77.5q64 14 92 92q21 62 21 141v707z" />
    <glyph glyph-name="f_k" unicode="fk" horiz-adv-x="1767" 
d="M1047 1505v-1011l262 225h-125v178h530v-188h-166l-209 -177l228 -344h147v-188h-280l-258 403l-129 -108v-115h112v-180h-465v184h129v525h-393v-525h164v-184h-520v184h135v525h-154v188h154v164q0 217 106 332q117 123 308 123q144 0 237 -74l35 63h152zM430 1083
v-186h393v178v4q-40 14 -66 51t-26 82q0 44 17 72q-46 37 -121 37q-90 0 -140 -53q-57 -60 -57 -185z" />
    <glyph glyph-name="f_f_b" unicode="ffb" horiz-adv-x="2410" 
d="M1438 -4v713h-394v-525h175v-184h-521v184h125v525h-393v-525h164v-184h-520v184h135v525h-154v188h154v158q0 198 98 305q106 115 285 115q67 0 121 -23q94 -42 94 -137q0 -54 -36 -87.5t-85 -33.5q-93 0 -129 84q-53 -10 -80 -41q-47 -53 -47 -156v-184h393v164
q0 216 107 332q117 123 307 123q148 0 240 -74l32 63h152v-708q122 116 264 116q180 0 298 -129.5t118 -330.5q0 -128 -56.5 -236t-155.5 -170.5t-218 -62.5q-143 0 -273 104l-49 -92h-151zM1874 176q99 0 168 73.5t69 201.5q0 125 -67.5 197.5t-169.5 72.5q-107 0 -213 -92
v-381q104 -72 213 -72zM1346 1212q0 45 16 72q-46 37 -121 37q-89 0 -139 -53q-58 -61 -58 -185v-186h394v178v4q-40 14 -66 51t-26 82z" />
    <glyph glyph-name="f_f_h" unicode="ffh" horiz-adv-x="2410" 
d="M1661 1505v-743q75 71 146.5 111t158.5 40q145 0 219 -96q60 -78 60 -203v-430h133v-184h-480v184h123v375q0 70 -28 109q-34 43 -101 43q-103 0 -231 -105v-422h123v-184h-475v184h129v525h-394v-525h164v-184h-510v184h125v525h-393v-525h164v-184h-520v184h135v525
h-154v188h154v158q0 198 98 305q106 115 285 115q67 0 121 -23q94 -42 94 -137q0 -54 -36 -87.5t-85 -33.5q-93 0 -129 84q-53 -10 -80 -41q-47 -53 -47 -156v-184h393v164q0 216 107 332q117 123 307 123q148 0 240 -74l32 63h152zM1044 1083v-186h394v178v4q-40 14 -66 51
t-26 82t16 72q-46 37 -121 37q-89 0 -139 -53q-58 -61 -58 -185z" />
    <glyph glyph-name="f_f_j" unicode="ffj" horiz-adv-x="1798" 
d="M1671 897v-883q0 -146 -51 -243q-44 -90 -125.5 -135.5t-183.5 -45.5q-106 0 -162.5 48.5t-56.5 113.5q0 51 35.5 88t86.5 37q48 0 80.5 -30.5t40.5 -77.5q64 14 92 92q21 62 21 141v707h-404v-525h164v-184h-510v184h125v525h-393v-525h164v-184h-520v184h135v525h-154
v188h154v158q0 198 98 305q106 115 285 115q67 0 121 -23q94 -42 94 -137q0 -54 -36 -87.5t-85 -33.5q-93 0 -129 84q-53 -10 -80 -41q-47 -53 -47 -156v-184h393v154q0 235 121 356q109 109 270 109q113 0 174.5 -52t61.5 -127q0 -56 -40 -96.5t-95 -40.5t-94.5 38.5
t-42.5 86.5q-46 -4 -80 -43q-54 -65 -54 -199v-186h627z" />
    <glyph glyph-name="f_f_k" unicode="ffk" horiz-adv-x="2381" 
d="M1661 1505v-1011l262 225h-125v178h531v-188h-166l-209 -177l227 -344h148v-188h-281l-258 403l-129 -108v-115h113v-180h-465v184h129v525h-394v-525h164v-184h-510v184h125v525h-393v-525h164v-184h-520v184h135v525h-154v188h154v158q0 198 98 305q106 115 285 115
q67 0 121 -23q94 -42 94 -137q0 -54 -36 -87.5t-85 -33.5q-93 0 -129 84q-53 -10 -80 -41q-47 -53 -47 -156v-184h393v164q0 216 107 332q117 123 307 123q148 0 240 -74l32 63h152zM1044 1083v-186h394v178v4q-40 14 -66 51t-26 82t16 72q-46 37 -121 37q-89 0 -139 -53
q-58 -61 -58 -185z" />
    <glyph glyph-name=".notdef" horiz-adv-x="1024" 
d="M0 -410v2048h1024v-2048h-1024zM145 1536l367 -799l367 799h-734zM102 -156l353 770l-353 770v-1540zM922 1384l-353 -770l353 -770v1540zM512 492l-367 -799h734z" />
    <glyph glyph-name=".null" horiz-adv-x="0" 
 />
    <glyph glyph-name="nonmarkingreturn" horiz-adv-x="682" 
 />
    <glyph glyph-name="space" unicode=" " horiz-adv-x="450" 
 />
    <glyph glyph-name="exclam" unicode="!" horiz-adv-x="569" 
d="M223 408l-80 938h283l-80 -938h-123zM285 -16q-63 0 -107.5 44t-44.5 107t44.5 108.5t107.5 45.5t107 -45.5t44 -108.5t-44 -107t-107 -44z" />
    <glyph glyph-name="quotedbl" unicode="&#x22;" horiz-adv-x="868" 
d="M604 766l-88 414q-18 86 23.5 139t113.5 53t114 -53t24 -139l-91 -414h-96zM164 766l-88 414q-18 86 23.5 139t113.5 53t113.5 -53t23.5 -139l-90 -414h-96z" />
    <glyph glyph-name="numbersign" unicode="#" horiz-adv-x="1187" 
d="M133 662v180h193l36 233h205l-37 -233h215l37 233h205l-37 -233h170v-180h-196l-35 -226h166v-180h-195l-39 -256h-205l39 256h-215l-39 -256h-204l39 256h-168v180h196l35 226h-166zM496 670l-37 -242h229l39 242h-231z" />
    <glyph glyph-name="dollar" unicode="$" horiz-adv-x="1089" 
d="M688 1196l-12 -133q58 -8 109.5 -25t97 -44t72 -69t26.5 -94q0 -60 -33.5 -95.5t-87.5 -35.5q-59 0 -94 34.5t-35 88.5q0 37 8 56q-31 12 -94 22l-22 -264q59 -12 105 -25.5t100 -39t89.5 -56.5t59.5 -79.5t24 -108.5q0 -105 -61.5 -180t-157.5 -110t-217 -38l-18 -219
l-164 14l18 217q-85 14 -153.5 41t-119 81t-50.5 126q0 58 35.5 95.5t91.5 37.5q55 0 93 -34.5t38 -88.5q0 -23 -8 -59q28 -17 104 -31l25 275q-56 14 -100 29t-90.5 40t-77.5 55.5t-50.5 76t-19.5 100.5q0 129 106 217t287 98l12 139zM782 305q0 44 -45 71t-143 50
l-23 -254q92 3 151.5 36t59.5 97zM338 778q0 -44 33 -67t114 -43l21 237q-75 -9 -121.5 -43t-46.5 -84z" />
    <glyph glyph-name="percent" unicode="%" horiz-adv-x="1435" 
d="M373 559q-113 0 -194 78t-81 188t81 188.5t194 78.5t193.5 -78.5t80.5 -188.5t-80.5 -188t-193.5 -78zM373 698q49 0 79.5 34.5t30.5 88.5q0 55 -30.5 91t-79.5 36t-80 -36t-31 -91q0 -54 31 -88.5t80 -34.5zM266 -31l-86 84q249 249 504 516q234 245 485 537l86 -84
q-312 -312 -505 -514q-206 -215 -484 -539zM1063 516q113 0 193.5 -78t80.5 -188t-80.5 -188t-193.5 -78t-194 78t-81 188t81 188t194 78zM1063 373q-49 0 -80 -36t-31 -91q0 -54 31 -88.5t80 -34.5t80 34.5t31 88.5q0 55 -31 91t-80 36z" />
    <glyph glyph-name="ampersand" unicode="&#x26;" horiz-adv-x="1376" 
d="M1321 559h-117q-50 -166 -117 -272l193 -164l-127 -148l-192 166q-179 -161 -418 -161q-229 0 -355.5 99.5t-126.5 262.5q0 117 72 211.5t195 155.5q-78 90 -105.5 157.5t-27.5 139.5q0 58 24.5 114.5t69.5 103t116.5 75t157.5 28.5q168 0 269.5 -84.5t101.5 -224.5
q0 -121 -74 -204t-209 -146l60 -54l235 -213q46 72 74 162h-107v180h408v-184zM543 168q148 0 268 94l-233 215q-82 72 -127 117q-70 -39 -114 -100t-44 -134q0 -75 68.5 -133.5t181.5 -58.5zM422 1001q0 -100 106 -223q179 86 179 240q0 57 -39 96t-105 39
q-62 0 -101.5 -47.5t-39.5 -104.5z" />
    <glyph glyph-name="quotesingle" unicode="'" horiz-adv-x="428" 
d="M164 766l-88 414q-18 86 23.5 139t113.5 53t113.5 -53t23.5 -139l-90 -414h-96z" />
    <glyph glyph-name="parenleft" unicode="(" horiz-adv-x="901" 
d="M788 -465q-78 39 -157 95t-169 147.5t-158.5 198t-113.5 253.5t-45 306q0 115 23.5 224.5t63 197t93.5 168.5t111.5 142.5t122 115t120 89t109.5 62.5l107 -158q-57 -37 -102 -69.5t-101 -81t-98 -96.5t-85 -114t-70.5 -135.5t-44.5 -158.5t-17 -186t17 -186t44.5 -159
t70 -135.5t85 -114t98.5 -97t101 -81t102 -69.5z" />
    <glyph glyph-name="parenright" unicode=")" horiz-adv-x="901" 
d="M113 -465l-107 158q57 37 102 69.5t101 81t98.5 97t85 114t70 135.5t44.5 159t17 186t-17 186t-44.5 158.5t-70.5 135.5t-85 114t-98 96.5t-101 81t-102 69.5l107 158q54 -27 109.5 -62.5t120 -89t122 -115t111.5 -142.5t93.5 -168.5t63 -197t23.5 -224.5
q0 -159 -45 -306t-113.5 -253.5t-158.5 -198t-169 -147.5t-157 -95z" />
    <glyph glyph-name="asterisk" unicode="*" horiz-adv-x="942" 
d="M741 1020l-227 -12l176 -140q53 -42 61.5 -92.5t-40.5 -87.5q-52 -33 -96 -10.5t-68 86.5l-76 203l-76 -203q-24 -64 -68 -86.5t-96 10.5q-49 37 -40.5 87.5t61.5 92.5l176 140l-227 12q-69 3 -105 40t-16 95q17 52 68.5 60.5t105.5 -27.5l188 -123l-59 219
q-18 65 4.5 110.5t83.5 45.5t83.5 -45.5t4.5 -110.5l-59 -219l188 123q54 36 105.5 27.5t68.5 -60.5q20 -58 -16 -95t-105 -40z" />
    <glyph glyph-name="plus" unicode="+" horiz-adv-x="950" 
d="M381 211v274h-275v189h275v274h188v-274h275v-189h-275v-274h-188z" />
    <glyph glyph-name="comma" unicode="," horiz-adv-x="524" 
d="M76 -354l-66 84q98 78 152 151.5t57 122.5q-58 15 -92.5 58t-34.5 104q0 62 50 109t118 47q75 0 125.5 -53t50.5 -150q0 -110 -87 -237.5t-273 -235.5z" />
    <glyph glyph-name="hyphen" unicode="-" horiz-adv-x="765" 
d="M86 465v229h594v-229h-594z" />
    <glyph glyph-name="period" unicode="." horiz-adv-x="524" 
d="M262 -16q-69 0 -118.5 49.5t-49.5 118.5q0 70 49.5 120t118.5 50t118.5 -50t49.5 -120q0 -69 -49.5 -118.5t-118.5 -49.5z" />
    <glyph glyph-name="slash" unicode="/" horiz-adv-x="1044" 
d="M195 -436l-183 82l838 1884l182 -82z" />
    <glyph glyph-name="zero" unicode="0" horiz-adv-x="1191" 
d="M596 -16q-222 0 -367 157.5t-145 395.5q0 157 65.5 283.5t183 199t263.5 72.5t263.5 -72.5t183 -199t65.5 -283.5q0 -238 -145 -395.5t-367 -157.5zM596 170q125 0 204 104t79 263q0 160 -79 264t-204 104t-204 -104t-79 -264q0 -159 79 -263t204 -104z" />
    <glyph glyph-name="one" unicode="1" horiz-adv-x="894" 
d="M117 0v184h245v662l-206 -49l-52 184l373 94h109v-891h241v-184h-710z" />
    <glyph glyph-name="two" unicode="2" 
d="M526 905q-127 0 -184 -47q25 -41 25 -76q0 -55 -40 -95t-96 -40q-57 0 -98 45.5t-41 116.5q0 58 47 117q56 72 161 119t235 47q191 0 307 -94.5t116 -219.5q0 -64 -23 -117.5t-72.5 -100t-100 -80.5t-131.5 -79q-118 -66 -183.5 -116.5t-101.5 -106.5h463v172h184v-350
h-895l-39 111q57 131 168.5 235.5t268.5 198.5q62 37 95.5 58.5t70 51.5t52 58t15.5 59q0 58 -58 95.5t-145 37.5z" />
    <glyph glyph-name="three" unicode="3" horiz-adv-x="1030" 
d="M37 47q0 66 39 111t100 45q56 0 95.5 -39.5t39.5 -95.5q0 -42 -28 -82q77 -62 217 -62q105 0 173 57t68 150q0 131 -133 188q-78 35 -213 35h-61v176h67q134 0 222 45q110 58 110 166q0 80 -63.5 123t-159.5 43q-119 0 -172 -41q29 -42 29 -82q0 -55 -40 -95t-96 -40
q-57 0 -98 45.5t-41 116.5q0 61 41 119q48 70 145 116t240 46q193 0 319 -97t126 -245q0 -79 -44 -145t-118 -107q-59 -35 -127 -47q54 -14 117 -48q180 -101 180 -286q0 -169 -133.5 -273t-339.5 -104q-140 0 -251 49.5t-167 128.5q-43 62 -43 129z" />
    <glyph glyph-name="four" unicode="4" horiz-adv-x="1157" 
d="M692 -246v340h-590l-51 111l686 909l162 -129l-534 -706h327v231l217 86v-317h201v-185h-201v-340h-217z" />
    <glyph glyph-name="five" unicode="5" horiz-adv-x="1056" 
d="M74 -4q0 67 41.5 111.5t101.5 44.5q55 0 95 -40t40 -96q0 -29 -18 -65q62 -21 151 -21q123 0 193 71.5t70 180.5q0 103 -68.5 165.5t-204.5 62.5q-139 0 -250 -60l-104 58l82 667h700v-209h-532l-35 -286q78 20 174 20q203 0 333 -110.5t130 -307.5q0 -195 -134 -319.5
t-339 -124.5q-244 0 -359 112q-67 64 -67 146z" />
    <glyph glyph-name="six" unicode="6" horiz-adv-x="1157" 
d="M631 1141q-52 0 -106.5 -29.5t-103 -85t-81 -147.5t-35.5 -205q43 65 129.5 109t186.5 44q197 0 328.5 -118t131.5 -293q0 -184 -139.5 -308t-351.5 -124q-211 0 -348 137q-152 152 -152 463q0 176 45 319t122 234.5t178 140.5t216 49q98 0 180 -28t132 -78
q59 -59 59 -136q0 -62 -41 -105.5t-96 -43.5q-64 0 -106 40.5t-42 96.5q0 28 8 47q-54 21 -114 21zM590 168q114 0 189 72.5t75 175.5q0 96 -70.5 161.5t-183.5 65.5q-116 0 -195 -68t-79 -169q0 -97 75 -166q79 -72 189 -72z" />
    <glyph glyph-name="seven" unicode="7" horiz-adv-x="1087" 
d="M403 -250l-188 98l541 1045h-490v-229h-196v411h891l57 -127z" />
    <glyph glyph-name="eight" unicode="8" horiz-adv-x="1107" 
d="M553 -16q-215 0 -345 107.5t-130 266.5q0 102 60.5 184t168.5 126q-92 47 -146.5 122.5t-54.5 165.5q0 158 127.5 264.5t319.5 106.5t319 -106.5t127 -264.5q0 -90 -54 -165.5t-146 -122.5q108 -45 169.5 -126.5t61.5 -183.5q0 -159 -131 -266.5t-346 -107.5zM553 748
q91 0 154 55.5t63 138.5q0 92 -59 145.5t-158 53.5t-158 -53.5t-59 -145.5q0 -83 63 -138.5t154 -55.5zM553 170q113 0 180.5 59.5t67.5 147.5t-67.5 148.5t-180.5 60.5t-180.5 -60.5t-67.5 -148.5t67.5 -147.5t180.5 -59.5z" />
    <glyph glyph-name="nine" unicode="9" horiz-adv-x="1157" 
d="M506 -260q-101 0 -184 29t-132 81q-55 58 -55 132q0 62 41 105.5t96 43.5q64 0 106 -40.5t42 -96.5q0 -19 -8 -47q51 -21 114 -21q53 0 108 30t103 86t80 148.5t35 204.5q-43 -64 -129.5 -107.5t-185.5 -43.5q-197 0 -329 119t-132 294q0 184 139.5 309.5t351.5 125.5
q211 0 338 -127q162 -162 162 -478q0 -176 -45 -319.5t-122 -236t-178 -142t-216 -49.5zM756 836q-78 71 -189 71q-114 0 -189 -73.5t-75 -176.5q0 -96 70.5 -162.5t183.5 -66.5q116 0 195 69.5t79 170.5q0 99 -75 168z" />
    <glyph glyph-name="colon" unicode=":" horiz-adv-x="565" 
d="M283 524q-67 0 -115.5 48t-48.5 116t48.5 116t115.5 48t115 -48t48 -116t-48 -116t-115 -48zM283 -16q-68 0 -116 48t-48 115t48.5 115.5t115.5 48.5t115 -48t48 -116q0 -67 -48 -115t-115 -48z" />
    <glyph glyph-name="semicolon" unicode=";" horiz-adv-x="565" 
d="M283 524q-67 0 -115.5 48t-48.5 116t48.5 116t115.5 48t115 -48t48 -116t-48 -116t-115 -48zM102 -344l-63 82q95 76 147.5 147.5t55.5 118.5q-56 15 -89.5 56.5t-33.5 99.5q0 61 47.5 106t114.5 45q73 0 122.5 -51t49.5 -145q0 -66 -31.5 -139t-113.5 -160.5
t-206 -159.5z" />
    <glyph glyph-name="less" unicode="&#x3c;" horiz-adv-x="868" 
d="M633 139l-529 381v123l529 381l104 -139l-420 -303l420 -303z" />
    <glyph glyph-name="equal" unicode="=" horiz-adv-x="950" 
d="M106 678v188h738v-188h-738zM106 293v188h738v-188h-738z" />
    <glyph glyph-name="greater" unicode="&#x3e;" horiz-adv-x="868" 
d="M236 139l-105 140l420 303l-420 303l105 139l528 -381v-123z" />
    <glyph glyph-name="question" unicode="?" horiz-adv-x="1001" 
d="M47 1059q0 83 55 153q56 73 154.5 116.5t218.5 43.5q203 0 330 -109t127 -272q0 -150 -94.5 -254t-286.5 -141l-19 -188h-153l-41 331q182 25 266 92t84 156q0 80 -60.5 134.5t-162.5 54.5q-122 0 -178 -62q15 -12 25 -36.5t10 -49.5q0 -56 -31.5 -92.5t-89.5 -36.5
q-61 0 -107.5 44.5t-46.5 115.5zM457 -16q-63 0 -107.5 44t-44.5 107t44.5 108.5t107.5 45.5t107 -45.5t44 -108.5t-44 -107t-107 -44z" />
    <glyph glyph-name="at" unicode="@" horiz-adv-x="1665" 
d="M721 -367q-136 0 -254 48.5t-203.5 135.5t-134.5 215.5t-49 280.5q0 154 43 299.5t122.5 263.5t185.5 207t238.5 138t274.5 49t262.5 -46t204 -126.5t130 -192.5t46.5 -241q0 -165 -53.5 -302t-152.5 -219t-224 -82q-105 0 -170 47.5t-76 127.5q-51 -82 -118.5 -128.5
t-143.5 -46.5q-95 0 -157 78t-62 199q0 126 48.5 237t133 178.5t183.5 67.5q60 0 112.5 -38t87.5 -115l54 137h208l-120 -471q-38 -137 77 -137q99 0 177.5 134.5t78.5 323.5q0 141 -62 256.5t-182.5 184.5t-279.5 69q-157 0 -297 -69t-238.5 -185t-156 -273t-57.5 -329
q0 -256 148.5 -413.5t379.5 -157.5q165 0 324 84l47 -90q-176 -99 -375 -99zM770 252q72 0 133.5 68t61.5 176q0 122 -115 122q-72 0 -128 -73t-56 -168q0 -52 26.5 -88.5t77.5 -36.5z" />
    <glyph glyph-name="A" unicode="A" horiz-adv-x="1425" 
d="M27 0v207h116l336 936h-147v205h762v-205h-148l336 -936h117v-207h-518v205h155l-75 221h-504l-76 -221h164v-205h-518zM520 618h377l-188 531z" />
    <glyph glyph-name="B" unicode="B" horiz-adv-x="1220" 
d="M76 0v207h153v934h-153v207h538q239 0 365.5 -98t126.5 -257q0 -112 -62 -189t-167 -112q268 -78 268 -315q0 -171 -133.5 -274t-374.5 -103h-561zM459 203h182q123 0 194.5 49.5t71.5 144.5q0 94 -70.5 144.5t-201.5 50.5h-176v-389zM459 776h157q120 0 186 51t66 140
q0 86 -67.5 132t-190.5 46h-151v-369z" />
    <glyph glyph-name="C" unicode="C" horiz-adv-x="1437" 
d="M807 -25q-207 0 -369 86.5t-253 246t-91 366.5q0 199 95 359.5t257 249.5t357 89q226 0 374 -99t148 -226q0 -73 -42 -119.5t-105 -46.5q-69 0 -112.5 39.5t-43.5 105.5q0 42 14 70q-77 61 -239 61q-198 0 -330.5 -136t-132.5 -345q0 -135 58 -245.5t167 -175.5t248 -65
q223 0 387 179l154 -160q-100 -110 -241 -172t-300 -62z" />
    <glyph glyph-name="D" unicode="D" horiz-adv-x="1456" 
d="M76 0v207h153v934h-153v207h510q364 0 570 -177.5t206 -484.5q0 -316 -206.5 -501t-594.5 -185h-485zM461 207h133q256 0 392 128t136 349q0 219 -144.5 338t-399.5 119h-117v-934z" />
    <glyph glyph-name="E" unicode="E" horiz-adv-x="1181" 
d="M76 0v207h153v934h-153v207h1005v-385h-221v180h-399v-361h407v-196h-407v-381h401v180h221v-385h-1007z" />
    <glyph glyph-name="F" unicode="F" horiz-adv-x="1144" 
d="M76 0v207h153v934h-153v207h993v-385h-221v180h-387v-385h397v-199h-397v-352h178v-207h-563z" />
    <glyph glyph-name="G" unicode="G" horiz-adv-x="1486" 
d="M741 -25q-125 0 -241 48.5t-206.5 136t-145 220.5t-54.5 290q0 122 36 232t101 195t152.5 147.5t195 95t224.5 32.5q226 0 374 -99t148 -226q0 -73 -42 -119.5t-105 -46.5q-69 0 -112.5 39.5t-43.5 105.5q0 42 14 70q-77 61 -239 61q-199 0 -331 -135t-132 -350
q0 -108 37 -201t99 -155t141.5 -97t164.5 -35q192 0 326 86v232h-336v196h563v-698h-221v100q-159 -125 -367 -125z" />
    <glyph glyph-name="H" unicode="H" horiz-adv-x="1544" 
d="M76 0v207h153v934h-153v207h553v-207h-168v-357h622v357h-168v207h553v-207h-153v-934h153v-207h-553v207h168v375h-622v-375h168v-207h-553z" />
    <glyph glyph-name="I" unicode="I" horiz-adv-x="710" 
d="M76 0v207h164v934h-164v207h559v-207h-164v-934h164v-207h-559z" />
    <glyph glyph-name="J" unicode="J" horiz-adv-x="1105" 
d="M477 -25q-175 0 -298.5 99t-123.5 241q0 79 43 128t111 49q57 0 97 -40.5t40 -97.5q0 -32 -14 -59.5t-33 -42.5q44 -68 178 -68q90 0 137 47q64 64 64 213v697h-203v207h576v-207h-148v-697q0 -235 -121 -356q-113 -113 -305 -113z" />
    <glyph glyph-name="K" unicode="K" horiz-adv-x="1394" 
d="M76 0v207h153v934h-153v207h553v-203h-168v-457l452 457h-153v203h594v-207h-146l-377 -371l345 -563h178v-207h-324l-375 614l-194 -190v-217h168v-207h-553z" />
    <glyph glyph-name="L" unicode="L" horiz-adv-x="1122" 
d="M76 0v207h153v934h-153v207h563v-207h-178v-936h370v190h224v-395h-979z" />
    <glyph glyph-name="M" unicode="M" horiz-adv-x="1765" 
d="M66 0v207h159l43 934h-168v207h369l414 -750l413 750h367v-207h-168l43 -934h160v-207h-553v207h162l-27 694l-385 -676h-31l-385 676l-26 -694h161v-207h-548z" />
    <glyph glyph-name="N" unicode="N" horiz-adv-x="1521" 
d="M1190 -6l-735 936v-723h168v-207h-547v207h153v934h-153v207h350l664 -846v639h-168v207h540v-207h-147v-1143z" />
    <glyph glyph-name="O" unicode="O" horiz-adv-x="1570" 
d="M780 -25q-150 0 -279 54t-217.5 147.5t-139 222.5t-50.5 275q0 196 88 355t248 251t361 92q200 0 357.5 -92.5t243 -251.5t85.5 -354q0 -196 -88 -355.5t-248 -251.5t-361 -92zM786 190q196 0 323.5 136t127.5 348q0 210 -128 346.5t-323 136.5q-197 0 -324.5 -135.5
t-127.5 -347.5q0 -211 127.5 -347.5t324.5 -136.5z" />
    <glyph glyph-name="P" unicode="P" horiz-adv-x="1189" 
d="M76 0v207h153v934h-153v207h542q222 0 366 -120t144 -321q0 -225 -145 -343t-391 -118q-88 0 -131 3v-242h168v-207h-553zM612 649q130 0 203.5 69t73.5 189q0 105 -79 169.5t-204 64.5h-145v-488q50 -4 151 -4z" />
    <glyph glyph-name="Q" unicode="Q" horiz-adv-x="1570" 
d="M1294 -283q-52 0 -103 12t-102 37t-84 44.5t-85.5 54t-69.5 45.5q-80 55 -172 70q-234 39 -399 204q-85 85 -135 212.5t-50 277.5q0 196 88 355t248 251t361 92q200 0 357.5 -92.5t243 -251.5t85.5 -354q0 -128 -36.5 -238t-100 -188.5t-142 -132.5t-168.5 -82
q38 -11 74 -33q56 -33 90 -46t80 -13q29 0 51 3.5t59 20t78 47.5l121 -184q-107 -111 -289 -111zM786 190q196 0 323.5 136t127.5 348q0 210 -128 346.5t-323 136.5q-197 0 -324.5 -135.5t-127.5 -347.5q0 -106 35.5 -198t99.5 -157q126 -129 317 -129z" />
    <glyph glyph-name="R" unicode="R" horiz-adv-x="1269" 
d="M76 0v207h153v934h-153v207h522q241 0 385.5 -104.5t144.5 -303.5q0 -127 -70 -224t-184 -143l207 -366h154v-207h-311l-271 512q-58 -4 -82 -4q-81 0 -110 2v-303h168v-207h-553zM592 705q132 0 214.5 61.5t82.5 165.5q0 103 -80 156t-223 53h-125v-432q50 -4 131 -4z
" />
    <glyph glyph-name="S" unicode="S" horiz-adv-x="1136" 
d="M563 -25q-130 0 -241.5 44t-175.5 116.5t-64 153.5q0 72 39 116t102 44q65 0 106.5 -41t41.5 -93q0 -42 -19 -82q80 -57 213 -57q112 0 177 47.5t65 134.5q0 40 -18.5 72.5t-56 57.5t-76.5 43t-97 38q-72 26 -119 45.5t-101.5 47.5t-87.5 57.5t-62.5 69t-42.5 89.5
t-13 111q0 164 123.5 273.5t323.5 109.5q188 0 317 -84.5t129 -206.5q0 -70 -38.5 -110.5t-98.5 -40.5q-67 0 -107.5 41.5t-40.5 95.5q0 33 15 63q-66 41 -178 41q-98 0 -154.5 -45t-56.5 -120q0 -32 13.5 -59.5t33.5 -47.5t55.5 -39.5t66.5 -32.5t78 -30
q59 -21 100.5 -37.5t89 -39.5t79.5 -45.5t63.5 -54t50 -66t30 -79.5t11.5 -98q0 -188 -131.5 -295t-343.5 -107z" />
    <glyph glyph-name="T" unicode="T" horiz-adv-x="1263" 
d="M348 0v207h168v940h-250v-213h-219v414h1170v-414h-220v213h-249v-940h167v-207h-567z" />
    <glyph glyph-name="U" unicode="U" horiz-adv-x="1417" 
d="M711 -25q-233 0 -370.5 131.5t-137.5 385.5v649h-148v207h541v-207h-162v-637q0 -154 73 -236t204 -82q133 0 205.5 78t72.5 232v645h-162v207h535v-207h-148v-645q0 -256 -136 -388.5t-367 -132.5z" />
    <glyph glyph-name="V" unicode="V" horiz-adv-x="1409" 
d="M639 -14l-489 1155h-123v207h532v-207h-141l291 -740l290 740h-149v207h532v-207h-122l-490 -1155h-131z" />
    <glyph glyph-name="W" unicode="W" horiz-adv-x="2093" 
d="M559 -14l-369 1155h-143v207h574v-207h-179l220 -709l333 785h123l334 -785l205 709h-184v207h573v-207h-143l-363 -1155h-129l-360 829l-363 -829h-129z" />
    <glyph glyph-name="X" unicode="X" horiz-adv-x="1447" 
d="M49 0v207h146l399 487l-365 447h-153v207h563v-203h-141l237 -324l240 324h-158v203h563v-207h-153l-363 -443l389 -491h146v-207h-553v203h139l-262 366l-274 -366h153v-203h-553z" />
    <glyph glyph-name="Y" unicode="Y" horiz-adv-x="1320" 
d="M375 0v207h170v307l-383 627h-135v207h510v-207h-119l248 -432l245 432h-127v207h510v-207h-135l-383 -627v-307h170v-207h-571z" />
    <glyph glyph-name="Z" unicode="Z" horiz-adv-x="1280" 
d="M90 0v131l762 1022h-524v-225h-197v420h1047v-131l-762 -1022h579v225h195v-420h-1100z" />
    <glyph glyph-name="bracketleft" unicode="[" horiz-adv-x="780" 
d="M186 -410v1909h533v-192h-318v-1522h318v-195h-533z" />
    <glyph glyph-name="backslash" unicode="\" horiz-adv-x="1044" 
d="M850 -436l-838 1884l183 82l837 -1884z" />
    <glyph glyph-name="bracketright" unicode="]" horiz-adv-x="780" 
d="M61 -410v195h318v1522h-318v192h533v-1909h-533z" />
    <glyph glyph-name="asciicircum" unicode="^" horiz-adv-x="942" 
d="M209 659l-100 115l362 361l363 -361l-101 -115l-262 172z" />
    <glyph glyph-name="underscore" unicode="_" horiz-adv-x="1171" 
d="M-16 -342v209h1204v-209h-1204z" />
    <glyph glyph-name="grave" unicode="`" horiz-adv-x="479" 
d="M410 1006l-306 221q-63 48 -63 112q0 44 29.5 74.5t70.5 30.5q62 0 113 -64l225 -307z" />
    <glyph glyph-name="a" unicode="a" horiz-adv-x="1042" 
d="M362 -16q-123 0 -206.5 66t-83.5 186q0 125 99 197.5t261 72.5q125 0 227 -25v72q0 80 -34 123q-51 65 -176 65q-54 0 -89 -14q9 -27 9 -45q0 -51 -35 -84t-86 -33q-52 0 -85.5 33t-33.5 88q0 92 92.5 159.5t263.5 67.5q225 0 322 -120q70 -85 70 -226v-383h133v-184
h-346v98q-59 -50 -138 -82t-164 -32zM434 145q114 0 225 80v142q-85 20 -184 20q-82 0 -128 -34.5t-46 -96.5q0 -53 36 -82t97 -29z" />
    <glyph glyph-name="b" unicode="b" horiz-adv-x="1122" 
d="M623 -16q-146 0 -273 102l-49 -90h-151v1315h-136v188h359v-700q119 114 264 114q180 0 298 -129.5t118 -330.5q0 -128 -56.5 -236t-155.5 -170.5t-218 -62.5zM586 176q99 0 168 73.5t69 201.5q0 125 -67.5 197.5t-169.5 72.5q-109 0 -213 -90v-385q101 -70 213 -70z" />
    <glyph glyph-name="c" unicode="c" horiz-adv-x="1021" 
d="M565 -16q-216 0 -355.5 130t-139.5 343q0 117 57 221t162.5 169.5t234.5 65.5q89 0 167 -27t130 -70.5t81.5 -97t29.5 -106.5q0 -69 -41 -110t-103 -41q-56 0 -95.5 39.5t-39.5 95.5q0 43 29 76q-15 22 -58 41.5t-102 19.5q-40 0 -79 -16.5t-73.5 -49t-55.5 -88
t-21 -126.5q0 -126 84 -203.5t207 -77.5q79 0 153.5 22.5t165.5 71.5l-18 -200q-143 -82 -320 -82z" />
    <glyph glyph-name="d" unicode="d" horiz-adv-x="1148" 
d="M485 -16q-179 0 -297 129.5t-118 330.5q0 128 56.5 236t155.5 170.5t218 62.5q148 0 250 -86v484h-136v188h359v-1315h133v-184h-356v98q-119 -114 -265 -114zM537 176q109 0 213 90v385q-101 70 -213 70q-99 0 -168.5 -73.5t-69.5 -201.5q0 -125 68 -197.5t170 -72.5z
" />
    <glyph glyph-name="e" unicode="e" horiz-adv-x="1024" 
d="M950 373h-647q23 -101 100.5 -151t194.5 -50q160 0 326 94l-19 -200q-140 -82 -340 -82q-221 0 -358 127t-137 335q0 127 55 233t160 170t239 64q207 0 322 -121.5t115 -308.5q0 -53 -11 -110zM522 733q-80 0 -141.5 -50.5t-79.5 -154.5h436q-3 93 -60.5 149t-154.5 56z
" />
    <glyph glyph-name="f" unicode="f" horiz-adv-x="700" 
d="M653 1237q-49 0 -78.5 22t-50.5 62q-33 -15 -47 -37q-41 -59 -41 -180v-207h234v-188h-234v-525h174v-184h-530v184h135v525h-154v188h154v174q0 126 26 207t89 143q98 95 245 95q88 0 143.5 -42.5t55.5 -109.5q0 -58 -35.5 -92.5t-85.5 -34.5z" />
    <glyph glyph-name="g" unicode="g" horiz-adv-x="1140" 
d="M961 709v-711q0 -166 -84 -270q-113 -138 -336 -138q-113 0 -208.5 32t-144.5 81t-49 117q0 50 34 87.5t87 37.5t89 -33t36 -84q0 -19 -4 -35q68 -22 133 -22q125 0 182 77q41 56 41 156v129q-57 -57 -116 -86t-142 -29q-174 0 -291.5 122.5t-117.5 318.5
q0 191 122 322.5t297 131.5q145 0 256 -96v80h349v-188h-133zM537 721q-106 0 -172 -68t-66 -192q0 -120 66 -187t172 -67q105 0 200 88v356q-90 70 -200 70z" />
    <glyph glyph-name="h" unicode="h" horiz-adv-x="1159" 
d="M186 1311h-133v188h357v-737q75 71 146.5 111t158.5 40q145 0 219 -96q59 -77 59 -203v-430h133v-184h-479v184h123v375q0 69 -29 109q-34 43 -100 43q-103 0 -231 -105v-422h122v-184h-479v184h133v1127z" />
    <glyph glyph-name="i" unicode="i" horiz-adv-x="624" 
d="M291 1034q-60 0 -104 43.5t-44 104.5t45.5 104t106.5 43q60 0 103.5 -43t43.5 -104t-45 -104.5t-106 -43.5zM66 0v184h137v525h-137v188h360v-713h133v-184h-493z" />
    <glyph glyph-name="j" unicode="j" horiz-adv-x="606" 
d="M-100 -248q0 51 36 88t87 37q48 0 80 -30.5t40 -77.5q65 15 93 92q20 59 20 141v707h-168v188h391v-883q0 -146 -51 -243q-44 -90 -125.5 -135.5t-183.5 -45.5q-106 0 -162.5 48.5t-56.5 113.5zM328 1034q-60 0 -104 43.5t-44 104.5t45.5 104t106.5 43q60 0 103.5 -43
t43.5 -104t-45 -104.5t-106 -43.5z" />
    <glyph glyph-name="k" unicode="k" horiz-adv-x="1130" 
d="M53 0v184h133v1127h-133v188h357v-1005l262 225h-125v178h530v-188h-166l-209 -177l228 -344h147v-188h-280l-258 403l-129 -108v-115h112v-180h-469z" />
    <glyph glyph-name="l" unicode="l" horiz-adv-x="604" 
d="M53 0v184h140v1127h-140v188h363v-1315h133v-184h-496z" />
    <glyph glyph-name="m" unicode="m" horiz-adv-x="1712" 
d="M63 0v184h134v525h-134v188h349v-141q145 157 301 157q140 0 213 -96q13 -17 28 -51q151 147 299 147q187 0 256 -129q37 -67 37 -168v-432h133v-184h-477v184h121v379q0 52 -14 84q-27 64 -107 64q-99 0 -219 -101v-426h121v-184h-467v184h123v379q0 49 -15 84
q-27 64 -106 64q-99 0 -219 -101v-426h119v-184h-476z" />
    <glyph glyph-name="n" unicode="n" horiz-adv-x="1169" 
d="M412 897v-143q77 75 150.5 117t162.5 42q157 0 231 -114q48 -76 48 -185v-430h133v-184h-480v184h123v375q0 57 -18 92q-31 60 -111 60q-103 0 -231 -105v-422h123v-184h-480v184h134v525h-134v188h349z" />
    <glyph glyph-name="o" unicode="o" horiz-adv-x="1093" 
d="M547 -16q-108 0 -199 37.5t-151 101.5t-93.5 148t-33.5 178q0 124 57 229t167.5 170t252.5 65q108 0 199 -37.5t151 -101t93.5 -147.5t33.5 -178q0 -124 -57 -229t-167.5 -170.5t-252.5 -65.5zM547 170q109 0 178.5 78t69.5 201t-69.5 200.5t-178.5 77.5t-178.5 -77.5
t-69.5 -200.5t69.5 -201t178.5 -78z" />
    <glyph glyph-name="p" unicode="p" horiz-adv-x="1146" 
d="M53 -401v184h133v926h-133v188h348v-102q61 57 122 87.5t145 30.5q176 0 292.5 -129.5t116.5 -330.5q0 -128 -56 -236t-153.5 -170.5t-214.5 -62.5q-128 0 -243 86v-287h145v-184h-502zM618 176q95 0 162.5 74t67.5 201q0 125 -65.5 197.5t-164.5 72.5q-108 0 -208 -90
v-385q97 -70 208 -70z" />
    <glyph glyph-name="q" unicode="q" horiz-adv-x="1089" 
d="M588 -401v188h162v311q-119 -114 -265 -114q-179 0 -297 129.5t-118 330.5q0 128 56.5 236t155.5 170.5t218 62.5q145 0 272 -102l49 92h152v-1116h135v-188h-520zM537 176q109 0 213 90v385q-101 70 -213 70q-99 0 -168.5 -73.5t-69.5 -201.5q0 -125 68 -197.5
t170 -72.5z" />
    <glyph glyph-name="r" unicode="r" horiz-adv-x="890" 
d="M696 913q80 0 123 -42t43 -105q0 -57 -39 -98t-94 -41q-48 0 -82 23t-49 57q-48 -17 -98 -64.5t-80 -105.5v-353h155v-184h-512v184h134v525h-134v188h349v-203q138 219 284 219z" />
    <glyph glyph-name="s" unicode="s" horiz-adv-x="937" 
d="M831 698q0 -54 -30.5 -87t-79.5 -33q-55 0 -88 29.5t-33 80.5q0 27 4 39q-61 23 -127 23q-71 0 -110 -27.5t-39 -65.5q0 -37 41 -61t147 -53q90 -24 145.5 -44.5t103.5 -52t69.5 -74.5t21.5 -102q0 -135 -109.5 -211.5t-269.5 -76.5q-101 0 -200 31.5t-144 76.5
q-51 51 -51 121q0 50 33.5 85.5t85.5 35.5q49 0 85 -32t36 -87q0 -7 -5 -37q74 -29 162 -29q72 0 118 25t46 72q0 34 -37 57.5t-139 50.5q-196 52 -274 110t-78 169q0 54 22.5 103.5t65.5 90.5t115 65.5t163 24.5q84 0 170 -28.5t131 -73.5q49 -49 49 -115z" />
    <glyph glyph-name="t" unicode="t" horiz-adv-x="755" 
d="M465 -16q-178 0 -242 122q-30 55 -30 142v461h-175v188h175v188l221 97v-285h272v-188h-272v-418q0 -41 14 -66q24 -43 94 -43q76 0 176 47l-18 -192q-104 -53 -215 -53z" />
    <glyph glyph-name="u" unicode="u" horiz-adv-x="1159" 
d="M444 -16q-161 0 -233 118q-45 73 -45 181v426h-133v188h356v-559q0 -52 19 -92q31 -60 110 -60q104 0 232 105v418h-140v188h363v-713h133v-184h-348v143q-77 -75 -150.5 -117t-163.5 -42z" />
    <glyph glyph-name="v" unicode="v" horiz-adv-x="1101" 
d="M471 -16l-356 725h-105v188h459v-178h-129l215 -467l215 467h-135v178h457v-188h-105l-356 -725h-160z" />
    <glyph glyph-name="w" unicode="w" horiz-adv-x="1486" 
d="M362 -35l-221 744h-131v188h461v-184h-127l123 -441l211 533h153l209 -533l123 441h-147v184h461v-188h-131l-222 -744h-157l-224 549l-223 -549h-158z" />
    <glyph glyph-name="x" unicode="x" horiz-adv-x="1095" 
d="M25 0v188h118l279 265l-270 256h-107v188h453v-176h-113l166 -174l164 174h-115v176h444v-188h-110l-262 -250l284 -271h115v-188h-453v176h105l-182 191l-179 -191h107v-176h-444z" />
    <glyph glyph-name="y" unicode="y" horiz-adv-x="1089" 
d="M481 -291q-102 -117 -237 -117q-86 0 -139.5 42.5t-53.5 99.5q0 54 32 84t79 30q71 0 98 -67q40 10 72 53q19 24 41 70l67 141l-319 664h-111v188h463v-178h-131l207 -473l209 473h-140v178h461v-188h-108l-420 -891q-32 -65 -70 -109z" />
    <glyph glyph-name="z" unicode="z" horiz-adv-x="948" 
d="M59 0v131l541 590h-317v-166h-191v342h787v-129l-541 -590h362v166h189v-344h-830z" />
    <glyph glyph-name="braceleft" unicode="{" horiz-adv-x="794" 
d="M702 -444q-148 4 -257 30.5t-172 72t-93 102.5t-30 128q0 92 43 158.5t124 136.5q48 43 68.5 72t20.5 68q0 54 -56.5 88t-169.5 34h-59v189h59q113 0 169.5 34.5t56.5 88.5q0 39 -20.5 67.5t-68.5 71.5q-81 70 -124 136.5t-43 158.5q0 71 30 128t93 103t172 72.5
t257 30.5v-170q-342 -21 -342 -166q0 -34 29 -74.5t92 -103.5q78 -78 117 -137t39 -125q0 -84 -67 -137.5t-181 -71.5q114 -18 181 -71.5t67 -137.5q0 -66 -39 -125t-117 -137q-63 -63 -92 -104t-29 -75q0 -144 342 -165v-170z" />
    <glyph glyph-name="bar" unicode="|" horiz-adv-x="581" 
d="M195 -410v1909h192v-1909h-192z" />
    <glyph glyph-name="braceright" unicode="}" horiz-adv-x="794" 
d="M92 -444v170q342 21 342 165q0 34 -29 75t-92 104q-78 78 -116.5 137t-38.5 125q0 84 67 137.5t181 71.5q-114 18 -181 71.5t-67 137.5q0 66 38.5 125t116.5 137q63 63 92 103.5t29 74.5q0 145 -342 166v170q148 -4 257 -30.5t172.5 -72.5t93.5 -103t30 -128
q0 -92 -43 -158t-125 -137q-48 -43 -68 -71.5t-20 -67.5q0 -55 56 -89t169 -34h60v-189h-60q-113 0 -169 -34t-56 -88q0 -39 20.5 -68.5t67.5 -71.5q82 -71 125 -137t43 -158q0 -71 -30 -128t-93.5 -102.5t-172.5 -72t-257 -30.5z" />
    <glyph glyph-name="asciitilde" unicode="~" horiz-adv-x="942" 
d="M631 377q-99 0 -182 76q-76 67 -123 67q-37 0 -63 -30t-44 -101l-151 39q17 143 86 226t157 83q101 0 183 -75q77 -68 122 -68q37 0 63 30t44 101l151 -39q-17 -143 -86 -226t-157 -83z" />
    <glyph glyph-name="uni00A0" unicode="&#xa0;" horiz-adv-x="450" 
 />
    <glyph glyph-name="exclamdown" unicode="&#xa1;" horiz-adv-x="569" 
d="M285 1057q-63 0 -107.5 45t-44.5 108t44.5 107.5t107.5 44.5t107 -44.5t44 -107.5t-44 -108t-107 -45zM143 0l80 938h123l80 -938h-283z" />
    <glyph glyph-name="cent" unicode="&#xa2;" horiz-adv-x="1124" 
d="M1014 715q0 -67 -40.5 -106.5t-96.5 -39.5q-53 0 -90 37.5t-37 89.5q0 44 28 84q-49 39 -112 49l-54 -575h17q181 0 356 94l-16 -190q-143 -82 -363 -82h-4l-27 -295l-163 14l28 301q-165 43 -257.5 166.5t-92.5 286.5q0 109 54 206.5t155.5 164.5t228.5 81l19 209
l164 -14l-19 -201q140 -27 231 -108.5t91 -171.5zM309 545q0 -81 42 -151t118 -107l49 540q-95 -21 -152 -93t-57 -189z" />
    <glyph glyph-name="sterling" unicode="&#xa3;" horiz-adv-x="1122" 
d="M864 227h-340v-10q0 -126 -80 -221q88 0 170 -23q134 -39 187 -39q58 0 92.5 28t77.5 104l141 -78q-43 -138 -114.5 -194t-192.5 -56q-61 0 -111.5 11t-130.5 40q-48 17 -67.5 23.5t-61 14t-88.5 7.5q-32 -49 -83 -72.5t-99 -23.5q-58 0 -96.5 33t-38.5 77q0 72 65 120
t172 38q25 39 41.5 99t16.5 106v16h-238v172h211q-1 4 -6.5 17.5t-7.5 21.5q-70 171 -70 262q0 164 113 277t305 113q151 0 254.5 -76.5t103.5 -188.5q0 -70 -39.5 -108.5t-91.5 -38.5t-88.5 36t-36.5 89q0 27 17 65q-13 13 -48 24t-75 11q-51 0 -91 -18.5t-63.5 -48.5
t-35 -64.5t-11.5 -69.5q0 -102 53 -241l21 -62h364v-172z" />
    <glyph glyph-name="yen" unicode="&#xa5;" horiz-adv-x="1112" 
d="M150 510v168h176l-150 229h-141v168h457v-164h-121l184 -303l184 303h-129v164h457v-168h-141l-150 -229h176v-168h-284l-21 -31v-55h305v-168h-305v-92h180v-164h-553v164h181v92h-305v168h305v55l-21 31h-284z" />
    <glyph glyph-name="section" unicode="&#xa7;" horiz-adv-x="952" 
d="M479 1092q141 0 232.5 -51t91.5 -138q0 -44 -31.5 -73t-81.5 -29q-49 0 -80.5 26.5t-31.5 67.5q0 21 6 27q-33 20 -117 20q-52 0 -81.5 -15.5t-29.5 -41.5q0 -17 13 -32t41.5 -28t51 -21t63 -20t57.5 -18q46 -16 63 -22t54 -20.5t52 -23.5t38.5 -26t33 -33t17.5 -38
t8 -48q0 -117 -150 -180q93 -63 93 -162q0 -100 -89.5 -164.5t-240.5 -64.5q-84 0 -155.5 19t-120 63t-48.5 106q0 42 31.5 72t81.5 30q48 0 80 -26.5t32 -67.5q0 -22 -6 -28q32 -19 115 -19q111 0 111 62q0 12 -6 22t-19.5 18.5t-28 15.5t-37.5 14.5t-42 13t-48 14
t-49 14.5q-48 15 -80 26.5t-70.5 30.5t-61 39.5t-38.5 50.5t-16 66q0 126 160 178q-101 63 -101 164q0 94 93 162t241 68zM467 461q41 -13 74 -21q108 24 108 82q0 15 -13 27.5t-38 23.5t-47.5 18t-56.5 17l-21 6l-72 21q-48 -11 -80 -33.5t-32 -50.5q0 -15 13.5 -28
t46.5 -25.5t52 -18t66 -18.5z" />
    <glyph glyph-name="dieresis" unicode="&#xa8;" horiz-adv-x="782" 
d="M600 1034q-60 0 -103.5 43.5t-43.5 104.5t45 104t106 43q60 0 104 -43t44 -104t-45.5 -104.5t-106.5 -43.5zM178 1034q-60 0 -103.5 43.5t-43.5 104.5t45 104t106 43q60 0 104 -43t44 -104t-45.5 -104.5t-106.5 -43.5z" />
    <glyph glyph-name="copyright" unicode="&#xa9;" horiz-adv-x="1269" 
d="M614 -16q-152 0 -279 73.5t-200.5 200.5t-73.5 279t73.5 279.5t200.5 201.5t279 74t279 -74t200.5 -201.5t73.5 -279.5q0 -112 -44 -214.5t-118 -176.5t-176.5 -118t-214.5 -44zM614 78q185 0 316 134t131 325q0 195 -129.5 327.5t-317.5 132.5t-317 -132.5t-129 -327.5
t129 -327t317 -132zM629 731q-76 0 -127 -51.5t-51 -132.5q0 -80 50 -133.5t132 -53.5q83 0 149 66l56 -59q-34 -45 -89.5 -71t-117.5 -26q-123 0 -201 75.5t-78 197.5q0 119 80 196.5t197 77.5q89 0 147 -38.5t58 -90.5q0 -28 -18 -45.5t-44 -17.5q-23 0 -40 17t-17 40
q0 16 6 25q-32 24 -92 24z" />
    <glyph glyph-name="ordfeminine" unicode="&#xaa;" horiz-adv-x="729" 
d="M238 817q-73 0 -124 40t-51 112q0 74 59.5 117.5t156.5 43.5q86 0 137 -14v41q0 61 -35 88q-35 25 -92 25q-32 0 -56 -8q7 -14 7 -29q0 -30 -21 -50t-51 -20t-50 20.5t-20 53.5q0 54 55.5 94.5t157.5 40.5q100 0 158 -39q78 -52 78 -168v-227h80v-111h-209v60
q-81 -70 -180 -70zM80 578v122h547v-122h-547zM281 915q67 0 135 48v84q-47 12 -111 12q-49 0 -76.5 -20.5t-27.5 -57.5q0 -32 22 -49t58 -17z" />
    <glyph glyph-name="guillemotleft" unicode="&#xab;" horiz-adv-x="1161" 
d="M952 186l-407 392l407 391l133 -133l-249 -258l249 -259zM457 186l-408 392l408 391l133 -133l-250 -258l250 -259z" />
    <glyph glyph-name="registered" unicode="&#xae;" horiz-adv-x="831" 
d="M416 688q-154 0 -261.5 106t-107.5 259q0 155 107.5 260.5t261.5 105.5t261 -105.5t107 -260.5q0 -153 -107 -259t-261 -106zM416 1343q-119 0 -203 -83t-84 -209q0 -122 84.5 -204.5t202.5 -82.5t202 82.5t84 204.5q0 126 -83.5 209t-202.5 83zM279 889v63h34v211h-34
v64h137q62 0 100.5 -26.5t38.5 -76.5q0 -63 -59 -92l39 -80h36v-63h-88l-57 123h-41v-60h35v-63h-141zM385 1073h29q61 0 61 45t-63 45h-27v-90z" />
    <glyph glyph-name="macron" unicode="&#xaf;" horiz-adv-x="745" 
d="M31 1073v182h684v-182h-684z" />
    <glyph glyph-name="degree" unicode="&#xb0;" horiz-adv-x="630" 
d="M315 815q-115 0 -196.5 81.5t-81.5 197.5t81.5 197t196.5 81q116 0 197.5 -81.5t81.5 -196.5q0 -116 -82 -197.5t-197 -81.5zM315 954q59 0 99.5 41t40.5 99t-40.5 98.5t-99.5 40.5t-99 -40.5t-40 -98.5q0 -59 40.5 -99.5t98.5 -40.5z" />
    <glyph glyph-name="plusminus" unicode="&#xb1;" horiz-adv-x="950" 
d="M381 391v275h-275v188h275v274h188v-274h275v-188h-275v-275h-188zM106 35v188h738v-188h-738z" />
    <glyph glyph-name="two.sup" unicode="&#xb2;" horiz-adv-x="722" 
d="M109 881q-3 0 -13.5 16.5t-19.5 33.5l-10 17q22 51 53.5 98t58.5 77.5t66 63.5t59.5 48t56.5 39q71 49 90 71q27 31 27 68q0 46 -34.5 73t-94.5 27q-36 0 -73 -11.5t-48 -24.5q15 -8 26 -28t11 -42q0 -35 -25 -59.5t-59 -24.5q-47 0 -68.5 31.5t-21.5 77.5q0 90 74.5 147
t195.5 57q111 0 187 -63t76 -162q0 -42 -14.5 -77.5t-43.5 -63.5t-51.5 -44.5t-58.5 -37.5q-154 -93 -213 -187h282v129h119v-249h-534z" />
    <glyph glyph-name="three.sup" unicode="&#xb3;" horiz-adv-x="722" 
d="M350 866q-123 0 -202.5 51.5t-79.5 133.5q0 39 25 66.5t63 27.5q37 0 61.5 -24.5t24.5 -59.5q0 -25 -11 -51q46 -29 119 -29q55 0 95 27t40 79q0 46 -40 80.5t-136 34.5h-45v113h47q77 0 118.5 30.5t41.5 86.5q0 40 -35.5 62t-85.5 22q-52 0 -84 -21q8 -24 8 -47
q0 -35 -25.5 -60.5t-60.5 -25.5q-36 0 -62 28.5t-26 71.5q0 25 16 53t46 54.5t81 43.5t113 17q111 0 189 -55.5t78 -138.5q0 -63 -43.5 -110.5t-110.5 -65.5q67 -18 117.5 -65t50.5 -122q0 -96 -84 -151.5t-203 -55.5z" />
    <glyph glyph-name="acute" unicode="&#xb4;" horiz-adv-x="479" 
d="M70 1006l-70 67l225 307q51 64 113 64q41 0 70.5 -30.5t29.5 -74.5q0 -64 -63 -112z" />
    <glyph glyph-name="paragraph" unicode="&#xb6;" horiz-adv-x="1243" 
d="M365 0v190h163v205q-35 -2 -102 -2q-160 0 -261.5 87.5t-101.5 234.5q0 135 105.5 223t263.5 88h748v-195h-176v-636h176v-195h-815zM707 186h118v654h-118v-654z" />
    <glyph glyph-name="periodcentered" unicode="&#xb7;" horiz-adv-x="524" 
d="M262 369q-69 0 -118.5 49.5t-49.5 118.5q0 70 49.5 120t118.5 50t118.5 -50t49.5 -120q0 -69 -49.5 -118.5t-118.5 -49.5z" />
    <glyph glyph-name="cedilla" unicode="&#xb8;" horiz-adv-x="491" 
d="M256 -410q-139 0 -256 70l35 68q100 -43 180 -43q36 0 58 14.5t22 38.5q0 8 -4.5 16t-16 17t-37.5 14.5t-63 5.5l-22 -2l-43 51l84 205l65 -8l16 -127q98 -12 158 -55t60 -109q0 -62 -65.5 -109t-170.5 -47z" />
    <glyph glyph-name="one.sup" unicode="&#xb9;" horiz-adv-x="722" 
d="M117 883v131h186v459l-168 -43l-33 120l273 76h76v-612h180v-131h-514z" />
    <glyph glyph-name="ordmasculine" unicode="&#xba;" horiz-adv-x="712" 
d="M92 578v122h529v-122h-529zM356 817q-129 0 -207.5 81t-78.5 198q0 115 79 196.5t207 81.5q130 0 208.5 -80.5t78.5 -197.5q0 -115 -79.5 -197t-207.5 -82zM356 928q66 0 108 47t42 121t-42 121t-108 47t-107.5 -47t-41.5 -121t41.5 -121t107.5 -47z" />
    <glyph glyph-name="guillemotright" unicode="&#xbb;" horiz-adv-x="1161" 
d="M705 186l-134 133l250 259l-250 258l134 133l407 -391zM209 186l-133 133l250 259l-250 258l133 133l407 -391z" />
    <glyph glyph-name="onequarter" unicode="&#xbc;" horiz-adv-x="1628" 
d="M98 575v132h187v458l-168 -43l-33 121l272 76h76v-612h180v-132h-514zM487 -33l-100 66q214 329 410 647q88 141 208.5 351t178.5 317l100 -66q-188 -289 -410 -647q-89 -144 -210.5 -355.5t-176.5 -312.5zM1145 0v106h139v107h-332l-47 86l400 473l104 -84l-338 -375
h213v119l125 49v-155h113v-119h-113v-96h84v-111h-348z" />
    <glyph glyph-name="onehalf" unicode="&#xbd;" horiz-adv-x="1628" 
d="M1012 -4q-3 0 -13.5 16.5t-20.5 33.5l-9 17q22 51 53.5 98t58.5 77.5t66.5 63.5t59.5 47.5t57 39.5q35 24 46.5 32.5t33 28t29 37.5t7.5 41q0 46 -34.5 73.5t-94.5 27.5q-36 0 -73 -12t-48 -25q15 -8 26 -28t11 -42q0 -35 -25 -59.5t-59 -24.5q-47 0 -68.5 31.5
t-21.5 77.5q0 90 75 147.5t196 57.5q111 0 186.5 -63t75.5 -163q0 -42 -14.5 -77.5t-43.5 -63.5t-51.5 -44.5t-58.5 -37.5q-155 -94 -213 -186h282v129h119v-250h-534zM82 575v132h186v458l-168 -43l-32 121l272 76h76v-612h180v-132h-514zM459 -33l-101 66q214 329 410 647
q88 141 208.5 351t178.5 317l100 -66q-165 -254 -409 -647q-89 -144 -210.5 -355.5t-176.5 -312.5z" />
    <glyph glyph-name="threequarters" unicode="&#xbe;" horiz-adv-x="1628" 
d="M379 559q-124 0 -203.5 51.5t-79.5 132.5q0 39 25 67t63 28q37 0 61.5 -24.5t24.5 -59.5q0 -29 -10 -52q45 -28 119 -28q55 0 95 27t40 79q0 46 -40 80.5t-136 34.5h-45v113h47q78 0 119 30t41 86q0 40 -35.5 62t-85.5 22q-54 0 -84 -20q8 -24 8 -47q0 -35 -25.5 -60.5
t-60.5 -25.5q-36 0 -62 28.5t-26 71.5q0 25 16 53t46 54.5t81 43.5t113 17q110 0 188 -55.5t78 -139.5q0 -63 -43 -110.5t-110 -65.5q68 -18 118 -64.5t50 -121.5q0 -96 -84 -151.5t-203 -55.5zM508 -33l-100 66q194 298 409 647q88 141 208.5 351t178.5 317l101 -66
q-188 -289 -410 -647q-89 -144 -210.5 -355.5t-176.5 -312.5zM1149 0v106h139v107h-332l-47 86l400 473l104 -84l-338 -375h213v119l125 49v-155h113v-119h-113v-96h84v-111h-348z" />
    <glyph glyph-name="questiondown" unicode="&#xbf;" horiz-adv-x="1001" 
d="M954 289q0 -84 -55 -154q-56 -73 -154.5 -116.5t-218.5 -43.5q-203 0 -329.5 109t-126.5 272q0 151 94.5 255t286.5 141l18 188h154l41 -332q-182 -25 -266.5 -92t-84.5 -156q0 -79 61 -133.5t163 -54.5q123 0 178 61q-35 21 -35 86q0 57 31.5 93.5t89.5 36.5
q61 0 107 -44.5t46 -115.5zM545 1364q63 0 107 -44.5t44 -107.5t-44 -108t-107 -45t-107.5 45t-44.5 108t44.5 107.5t107.5 44.5z" />
    <glyph glyph-name="Agrave" unicode="&#xc0;" horiz-adv-x="1425" 
d="M27 0v207h116l336 936h-147v205h762v-205h-148l336 -936h117v-207h-518v205h155l-75 221h-504l-76 -221h164v-205h-518zM520 618h377l-188 531zM733 1466l-305 222q-63 48 -63 112q0 44 29.5 74.5t70.5 30.5q62 0 113 -64l225 -307z" />
    <glyph glyph-name="Aacute" unicode="&#xc1;" horiz-adv-x="1425" 
d="M27 0v207h116l336 936h-147v205h762v-205h-148l336 -936h117v-207h-518v205h155l-75 221h-504l-76 -221h164v-205h-518zM520 618h377l-188 531zM688 1466l-70 68l226 307q51 64 112 64q42 0 71.5 -30.5t29.5 -74.5q0 -63 -64 -112z" />
    <glyph glyph-name="Acircumflex" unicode="&#xc2;" horiz-adv-x="1425" 
d="M27 0v207h116l336 936h-147v205h762v-205h-148l336 -936h117v-207h-518v205h155l-75 221h-504l-76 -221h164v-205h-518zM520 618h377l-188 531zM442 1473l-94 108l363 361l362 -361l-94 -108l-268 196z" />
    <glyph glyph-name="Atilde" unicode="&#xc3;" horiz-adv-x="1425" 
d="M27 0v207h116l336 936h-147v205h762v-205h-148l336 -936h117v-207h-518v205h155l-75 221h-504l-76 -221h164v-205h-518zM520 618h377l-188 531zM874 1497q-99 0 -182 76q-76 67 -123 67q-37 0 -62.5 -30t-43.5 -101l-152 39q17 143 86.5 226.5t157.5 83.5q99 0 182 -76
q77 -68 123 -68q37 0 63 30t44 101l151 -39q-17 -143 -86.5 -226t-157.5 -83z" />
    <glyph glyph-name="Adieresis" unicode="&#xc4;" horiz-adv-x="1425" 
d="M27 0v207h116l336 936h-147v205h762v-205h-148l336 -936h117v-207h-518v205h155l-75 221h-504l-76 -221h164v-205h-518zM520 618h377l-188 531zM920 1495q-60 0 -104 43t-44 104t45.5 104.5t106.5 43.5q60 0 103.5 -43.5t43.5 -104.5t-45 -104t-106 -43zM498 1495
q-60 0 -104 43t-44 104t45.5 104.5t106.5 43.5q60 0 103.5 -43.5t43.5 -104.5t-45 -104t-106 -43z" />
    <glyph glyph-name="Aring" unicode="&#xc5;" horiz-adv-x="1425" 
d="M987 1516q0 -96 -72 -168h179v-205h-148l336 -936h117v-207h-518v205h155l-75 221h-504l-76 -221h164v-205h-518v207h116l336 936h-147v205h182q-34 34 -55 80.5t-21 87.5q0 106 79.5 178.5t195.5 72.5q115 0 194.5 -72.5t79.5 -178.5zM520 618h377l-188 531zM713 1380
q46 0 76 36t30 85t-30 85t-76 36t-76.5 -36t-30.5 -85t30.5 -85t76.5 -36z" />
    <glyph glyph-name="AE" unicode="&#xc6;" horiz-adv-x="1871" 
d="M6 0v207h170l451 934h-170v207h1315v-385h-222v180h-399v-361h408v-196h-408v-381h401v180h222v-385h-1008v207h154v219h-414l-105 -221h144v-205h-539zM596 618h324v531h-76z" />
    <glyph glyph-name="Ccedilla" unicode="&#xc7;" horiz-adv-x="1437" 
d="M807 -25q-4 0 -12.5 1t-12.5 1l9 -67q98 -12 157.5 -55t59.5 -109q0 -62 -65.5 -109t-170.5 -47q-139 0 -256 70l35 68q100 -43 180 -43q36 0 58 14.5t22 38.5q0 8 -4.5 16t-16 17t-37.5 14.5t-63 5.5l-22 -2l-43 51l59 144q-265 37 -427.5 223.5t-162.5 466.5
q0 199 95 359.5t257 249.5t357 89q226 0 374 -99t148 -226q0 -73 -42 -119.5t-105 -46.5q-69 0 -112.5 39.5t-43.5 105.5q0 42 14 70q-77 61 -239 61q-198 0 -330.5 -136t-132.5 -345q0 -135 58 -245.5t167 -175.5t248 -65q223 0 387 179l154 -160q-100 -110 -241 -172
t-300 -62z" />
    <glyph glyph-name="Egrave" unicode="&#xc8;" horiz-adv-x="1181" 
d="M76 0v207h153v934h-153v207h1005v-385h-221v180h-399v-361h407v-196h-407v-381h401v180h221v-385h-1007zM621 1466l-306 222q-63 48 -63 112q0 44 29.5 74.5t70.5 30.5q62 0 113 -64l225 -307z" />
    <glyph glyph-name="Eacute" unicode="&#xc9;" horiz-adv-x="1181" 
d="M76 0v207h153v934h-153v207h1005v-385h-221v180h-399v-361h407v-196h-407v-381h401v180h221v-385h-1007zM575 1466l-69 68l225 307q51 64 113 64q41 0 70.5 -30.5t29.5 -74.5q0 -64 -63 -112z" />
    <glyph glyph-name="Ecircumflex" unicode="&#xca;" horiz-adv-x="1181" 
d="M76 0v207h153v934h-153v207h1005v-385h-221v180h-399v-361h407v-196h-407v-381h401v180h221v-385h-1007zM330 1473l-94 108l362 361l363 -361l-95 -108l-268 196z" />
    <glyph glyph-name="Edieresis" unicode="&#xcb;" horiz-adv-x="1181" 
d="M76 0v207h153v934h-153v207h1005v-385h-221v180h-399v-361h407v-196h-407v-381h401v180h221v-385h-1007zM807 1495q-60 0 -104 43t-44 104t45.5 104.5t106.5 43.5q60 0 103.5 -43.5t43.5 -104.5t-45 -104t-106 -43zM385 1495q-60 0 -103.5 43t-43.5 104t45 104.5
t106 43.5q60 0 104 -43.5t44 -104.5t-45.5 -104t-106.5 -43z" />
    <glyph glyph-name="Igrave" unicode="&#xcc;" horiz-adv-x="710" 
d="M76 0v207h164v934h-164v207h559v-207h-164v-934h164v-207h-559zM377 1466l-305 222q-64 49 -64 112q0 44 29.5 74.5t71.5 30.5q61 0 112 -64l225 -307z" />
    <glyph glyph-name="Iacute" unicode="&#xcd;" horiz-adv-x="710" 
d="M76 0v207h164v934h-164v207h559v-207h-164v-934h164v-207h-559zM332 1466l-70 68l225 307q51 64 113 64q41 0 70.5 -30.5t29.5 -74.5q0 -64 -63 -112z" />
    <glyph glyph-name="Icircumflex" unicode="&#xce;" horiz-adv-x="710" 
d="M76 0v207h164v934h-164v207h559v-207h-164v-934h164v-207h-559zM86 1473l-94 108l362 361l363 -361l-94 -108l-269 196z" />
    <glyph glyph-name="Idieresis" unicode="&#xcf;" horiz-adv-x="710" 
d="M76 0v207h164v934h-164v207h559v-207h-164v-934h164v-207h-559zM563 1495q-60 0 -103.5 43t-43.5 104t45 104.5t106 43.5q60 0 104 -43.5t44 -104.5t-45.5 -104t-106.5 -43zM141 1495q-60 0 -103.5 43t-43.5 104t45 104.5t106 43.5q60 0 104 -43.5t44 -104.5t-45.5 -104
t-106.5 -43z" />
    <glyph glyph-name="Eth" unicode="&#xd0;" horiz-adv-x="1476" 
d="M250 596h-174v186h174v359h-154v207h510q356 0 566 -181t210 -481q0 -315 -203 -500.5t-577 -185.5h-506v207h154v389zM481 207h133q256 0 392.5 128t136.5 349q0 219 -145 338t-400 119h-117v-359h281v-186h-281v-389z" />
    <glyph glyph-name="Ntilde" unicode="&#xd1;" horiz-adv-x="1521" 
d="M1190 -6l-735 936v-723h168v-207h-547v207h153v934h-153v207h350l664 -846v639h-168v207h540v-207h-147v-1143zM924 1497q-100 0 -183 76q-76 67 -123 67q-37 0 -62.5 -30t-43.5 -101l-152 39q17 143 86.5 226.5t157.5 83.5q99 0 182 -76q77 -68 123 -68q37 0 63 30
t44 101l151 -39q-17 -143 -86 -226t-157 -83z" />
    <glyph glyph-name="Ograve" unicode="&#xd2;" horiz-adv-x="1570" 
d="M780 -25q-150 0 -279 54t-217.5 147.5t-139 222.5t-50.5 275q0 196 88 355t248 251t361 92q200 0 357.5 -92.5t243 -251.5t85.5 -354q0 -196 -88 -355.5t-248 -251.5t-361 -92zM786 190q196 0 323.5 136t127.5 348q0 210 -128 346.5t-323 136.5q-197 0 -324.5 -135.5
t-127.5 -347.5q0 -211 127.5 -347.5t324.5 -136.5zM807 1466l-305 222q-64 49 -64 112q0 44 29.5 74.5t71.5 30.5q61 0 112 -64l226 -307z" />
    <glyph glyph-name="Oacute" unicode="&#xd3;" horiz-adv-x="1570" 
d="M780 -25q-150 0 -279 54t-217.5 147.5t-139 222.5t-50.5 275q0 196 88 355t248 251t361 92q200 0 357.5 -92.5t243 -251.5t85.5 -354q0 -196 -88 -355.5t-248 -251.5t-361 -92zM786 190q196 0 323.5 136t127.5 348q0 210 -128 346.5t-323 136.5q-197 0 -324.5 -135.5
t-127.5 -347.5q0 -211 127.5 -347.5t324.5 -136.5zM762 1466l-70 68l226 307q51 64 112 64q41 0 70.5 -30.5t29.5 -74.5q0 -64 -63 -112z" />
    <glyph glyph-name="Ocircumflex" unicode="&#xd4;" horiz-adv-x="1570" 
d="M780 -25q-150 0 -279 54t-217.5 147.5t-139 222.5t-50.5 275q0 196 88 355t248 251t361 92q200 0 357.5 -92.5t243 -251.5t85.5 -354q0 -196 -88 -355.5t-248 -251.5t-361 -92zM786 190q196 0 323.5 136t127.5 348q0 210 -128 346.5t-323 136.5q-197 0 -324.5 -135.5
t-127.5 -347.5q0 -211 127.5 -347.5t324.5 -136.5zM516 1473l-94 108l362 361l363 -361l-94 -108l-269 196z" />
    <glyph glyph-name="Otilde" unicode="&#xd5;" horiz-adv-x="1570" 
d="M780 -25q-150 0 -279 54t-217.5 147.5t-139 222.5t-50.5 275q0 196 88 355t248 251t361 92q200 0 357.5 -92.5t243 -251.5t85.5 -354q0 -196 -88 -355.5t-248 -251.5t-361 -92zM786 190q196 0 323.5 136t127.5 348q0 210 -128 346.5t-323 136.5q-197 0 -324.5 -135.5
t-127.5 -347.5q0 -211 127.5 -347.5t324.5 -136.5zM948 1497q-99 0 -182 76q-76 67 -123 67q-37 0 -62.5 -30t-43.5 -101l-152 39q17 143 86.5 226.5t157.5 83.5q99 0 182 -76q77 -68 123 -68q37 0 62.5 30t43.5 101l152 -39q-17 -143 -86.5 -226t-157.5 -83z" />
    <glyph glyph-name="Odieresis" unicode="&#xd6;" horiz-adv-x="1570" 
d="M780 -25q-150 0 -279 54t-217.5 147.5t-139 222.5t-50.5 275q0 196 88 355t248 251t361 92q200 0 357.5 -92.5t243 -251.5t85.5 -354q0 -196 -88 -355.5t-248 -251.5t-361 -92zM786 190q196 0 323.5 136t127.5 348q0 210 -128 346.5t-323 136.5q-197 0 -324.5 -135.5
t-127.5 -347.5q0 -211 127.5 -347.5t324.5 -136.5zM993 1495q-60 0 -103.5 43t-43.5 104t45 104.5t106 43.5q60 0 104 -43.5t44 -104.5t-45.5 -104t-106.5 -43zM571 1495q-60 0 -103.5 43t-43.5 104t45 104.5t106 43.5q60 0 104 -43.5t44 -104.5t-45.5 -104t-106.5 -43z" />
    <glyph glyph-name="multiply" unicode="&#xd7;" horiz-adv-x="950" 
d="M682 215l-207 227l-207 -227l-137 137l207 228l-207 227l137 137l207 -227l207 227l137 -137l-207 -227l207 -228z" />
    <glyph glyph-name="Oslash" unicode="&#xd8;" horiz-adv-x="1570" 
d="M780 -25q-212 0 -374 109l-158 -182l-148 131l156 182q-162 195 -162 459q0 196 88 355t248 251t361 92q217 0 391 -121l164 191l147 -131l-168 -193q152 -196 152 -444q0 -196 -88 -355.5t-248 -251.5t-361 -92zM334 674q0 -183 88 -307l622 716q-113 74 -258 74
q-197 0 -324.5 -135.5t-127.5 -347.5zM786 190q196 0 323.5 136t127.5 348q0 166 -76 287l-618 -707q106 -64 243 -64z" />
    <glyph glyph-name="Ugrave" unicode="&#xd9;" horiz-adv-x="1417" 
d="M711 -25q-233 0 -370.5 131.5t-137.5 385.5v649h-148v207h541v-207h-162v-637q0 -154 73 -236t204 -82q133 0 205.5 78t72.5 232v645h-162v207h535v-207h-148v-645q0 -256 -136 -388.5t-367 -132.5zM731 1466l-305 222q-64 49 -64 112q0 44 29.5 74.5t71.5 30.5
q61 0 112 -64l226 -307z" />
    <glyph glyph-name="Uacute" unicode="&#xda;" horiz-adv-x="1417" 
d="M711 -25q-233 0 -370.5 131.5t-137.5 385.5v649h-148v207h541v-207h-162v-637q0 -154 73 -236t204 -82q133 0 205.5 78t72.5 232v645h-162v207h535v-207h-148v-645q0 -256 -136 -388.5t-367 -132.5zM686 1466l-70 68l226 307q51 64 112 64q42 0 71.5 -30.5t29.5 -74.5
q0 -63 -64 -112z" />
    <glyph glyph-name="Ucircumflex" unicode="&#xdb;" horiz-adv-x="1417" 
d="M711 -25q-233 0 -370.5 131.5t-137.5 385.5v649h-148v207h541v-207h-162v-637q0 -154 73 -236t204 -82q133 0 205.5 78t72.5 232v645h-162v207h535v-207h-148v-645q0 -256 -136 -388.5t-367 -132.5zM440 1473l-94 108l363 361l362 -361l-94 -108l-268 196z" />
    <glyph glyph-name="Udieresis" unicode="&#xdc;" horiz-adv-x="1417" 
d="M711 -25q-233 0 -370.5 131.5t-137.5 385.5v649h-148v207h541v-207h-162v-637q0 -154 73 -236t204 -82q133 0 205.5 78t72.5 232v645h-162v207h535v-207h-148v-645q0 -256 -136 -388.5t-367 -132.5zM918 1495q-60 0 -104 43t-44 104t45.5 104.5t106.5 43.5
q60 0 103.5 -43.5t43.5 -104.5t-45 -104t-106 -43zM496 1495q-60 0 -104 43t-44 104t45.5 104.5t106.5 43.5q60 0 103.5 -43.5t43.5 -104.5t-45 -104t-106 -43z" />
    <glyph glyph-name="Yacute" unicode="&#xdd;" horiz-adv-x="1320" 
d="M375 0v207h170v307l-383 627h-135v207h510v-207h-119l248 -432l245 432h-127v207h510v-207h-135l-383 -627v-307h170v-207h-571zM637 1466l-70 68l226 307q51 64 112 64q42 0 71.5 -30.5t29.5 -74.5q0 -63 -64 -112z" />
    <glyph glyph-name="Thorn" unicode="&#xde;" horiz-adv-x="1189" 
d="M76 0v207h153v934h-153v207h549v-201h-164v-117q29 2 203 2q99 0 181.5 -20t146.5 -60t100 -106.5t36 -153.5q0 -95 -37 -166.5t-103 -113.5t-150 -63t-185 -21q-163 0 -192 2v-129h164v-201h-549zM674 518q89 0 152 40.5t63 123.5q0 86 -61.5 124t-153.5 38
q-163 0 -213 -4v-318q50 -4 213 -4z" />
    <glyph glyph-name="germandbls" unicode="&#xdf;" horiz-adv-x="1259" 
d="M879 -16q-70 0 -127.5 16t-93 41t-60 56.5t-34 60.5t-9.5 55q0 50 33.5 85.5t85.5 35.5q45 0 83 -31t38 -80q0 -25 -15 -59q28 -12 78 -12q63 0 100 30.5t37 93.5q0 56 -38 92.5t-130 90.5q-44 25 -70 41.5t-62.5 46t-56.5 57t-35 67.5t-15 85q0 51 21.5 99t42 73
t59.5 65q45 45 68.5 83t23.5 87q0 68 -51 117t-134 49q-109 0 -157 -106q-31 -67 -31 -160v-1063h-356v184h135v525h-154v188h154v133q0 183 70 303q106 183 352 183q177 0 285 -95.5t108 -246.5q0 -45 -11 -83.5t-35 -71.5t-41.5 -52t-49.5 -49q-50 -46 -74.5 -81
t-24.5 -71q0 -33 33.5 -61.5t102.5 -67.5q55 -31 88.5 -52t75.5 -54.5t65.5 -66t40 -78.5t16.5 -99q0 -151 -93 -227t-238 -76z" />
    <glyph glyph-name="agrave" unicode="&#xe0;" horiz-adv-x="1042" 
d="M362 -16q-123 0 -206.5 66t-83.5 186q0 125 99 197.5t261 72.5q125 0 227 -25v72q0 80 -34 123q-51 65 -176 65q-54 0 -89 -14q9 -27 9 -45q0 -51 -35 -84t-86 -33q-52 0 -85.5 33t-33.5 88q0 92 92.5 159.5t263.5 67.5q225 0 322 -120q70 -85 70 -226v-383h133v-184
h-346v98q-59 -50 -138 -82t-164 -32zM434 145q114 0 225 80v142q-85 20 -184 20q-82 0 -128 -34.5t-46 -96.5q0 -53 36 -82t97 -29zM539 1006l-306 221q-63 48 -63 112q0 44 29.5 74.5t70.5 30.5q62 0 113 -64l225 -307z" />
    <glyph glyph-name="aacute" unicode="&#xe1;" horiz-adv-x="1042" 
d="M362 -16q-123 0 -206.5 66t-83.5 186q0 125 99 197.5t261 72.5q125 0 227 -25v72q0 80 -34 123q-51 65 -176 65q-54 0 -89 -14q9 -27 9 -45q0 -51 -35 -84t-86 -33q-52 0 -85.5 33t-33.5 88q0 92 92.5 159.5t263.5 67.5q225 0 322 -120q70 -85 70 -226v-383h133v-184
h-346v98q-59 -50 -138 -82t-164 -32zM434 145q114 0 225 80v142q-85 20 -184 20q-82 0 -128 -34.5t-46 -96.5q0 -53 36 -82t97 -29zM494 1006l-70 67l225 307q51 64 113 64q41 0 70.5 -30.5t29.5 -74.5q0 -64 -63 -112z" />
    <glyph glyph-name="acircumflex" unicode="&#xe2;" horiz-adv-x="1042" 
d="M362 -16q-123 0 -206.5 66t-83.5 186q0 125 99 197.5t261 72.5q125 0 227 -25v72q0 80 -34 123q-51 65 -176 65q-54 0 -89 -14q9 -27 9 -45q0 -51 -35 -84t-86 -33q-52 0 -85.5 33t-33.5 88q0 92 92.5 159.5t263.5 67.5q225 0 322 -120q70 -85 70 -226v-383h133v-184
h-346v98q-59 -50 -138 -82t-164 -32zM434 145q114 0 225 80v142q-85 20 -184 20q-82 0 -128 -34.5t-46 -96.5q0 -53 36 -82t97 -29zM248 1012l-94 108l362 361l363 -361l-95 -108l-268 196z" />
    <glyph glyph-name="atilde" unicode="&#xe3;" horiz-adv-x="1042" 
d="M362 -16q-123 0 -206.5 66t-83.5 186q0 125 99 197.5t261 72.5q125 0 227 -25v72q0 80 -34 123q-51 65 -176 65q-54 0 -89 -14q9 -27 9 -45q0 -51 -35 -84t-86 -33q-52 0 -85.5 33t-33.5 88q0 92 92.5 159.5t263.5 67.5q225 0 322 -120q70 -85 70 -226v-383h133v-184
h-346v98q-59 -50 -138 -82t-164 -32zM434 145q114 0 225 80v142q-85 20 -184 20q-82 0 -128 -34.5t-46 -96.5q0 -53 36 -82t97 -29zM680 1036q-99 0 -182 76q-77 68 -123 68q-37 0 -63 -30t-44 -101l-151 38q17 143 86 226.5t157 83.5q100 0 183 -76q77 -68 123 -68
q37 0 62.5 30t43.5 101l152 -38q-17 -143 -86.5 -226.5t-157.5 -83.5z" />
    <glyph glyph-name="adieresis" unicode="&#xe4;" horiz-adv-x="1042" 
d="M362 -16q-123 0 -206.5 66t-83.5 186q0 125 99 197.5t261 72.5q125 0 227 -25v72q0 80 -34 123q-51 65 -176 65q-54 0 -89 -14q9 -27 9 -45q0 -51 -35 -84t-86 -33q-52 0 -85.5 33t-33.5 88q0 92 92.5 159.5t263.5 67.5q225 0 322 -120q70 -85 70 -226v-383h133v-184
h-346v98q-59 -50 -138 -82t-164 -32zM434 145q114 0 225 80v142q-85 20 -184 20q-82 0 -128 -34.5t-46 -96.5q0 -53 36 -82t97 -29zM725 1034q-60 0 -103.5 43.5t-43.5 104.5t45 104t106 43q60 0 104 -43t44 -104t-45.5 -104.5t-106.5 -43.5zM303 1034q-60 0 -103.5 43.5
t-43.5 104.5t45 104t106 43q60 0 104 -43t44 -104t-45.5 -104.5t-106.5 -43.5z" />
    <glyph glyph-name="aring" unicode="&#xe5;" horiz-adv-x="1042" 
d="M362 -16q-123 0 -206.5 66t-83.5 186q0 125 99 197.5t261 72.5q125 0 227 -25v72q0 80 -34 123q-51 65 -176 65q-54 0 -89 -14q9 -27 9 -45q0 -51 -35 -84t-86 -33q-52 0 -85.5 33t-33.5 88q0 92 92.5 159.5t263.5 67.5q225 0 322 -120q70 -85 70 -226v-383h133v-184
h-346v98q-59 -50 -138 -82t-164 -32zM434 145q114 0 225 80v142q-85 20 -184 20q-82 0 -128 -34.5t-46 -96.5q0 -53 36 -82t97 -29zM516 995q-116 0 -195 76.5t-79 190.5t79 190t195 76t195.5 -76.5t79.5 -189.5q0 -114 -79.5 -190.5t-195.5 -76.5zM516 1141q46 0 76.5 36
t30.5 85t-30.5 84.5t-76.5 35.5t-76 -35.5t-30 -84.5t30 -85t76 -36z" />
    <glyph glyph-name="ae" unicode="&#xe6;" horiz-adv-x="1587" 
d="M449 741q-54 0 -89 -14q9 -27 9 -45q0 -51 -35 -84t-86 -33q-52 0 -85.5 33t-33.5 88q0 92 92.5 159.5t263.5 67.5q170 0 254 -104q25 -32 35 -61q116 165 334 165q193 0 304.5 -122.5t111.5 -307.5q0 -53 -11 -110h-647q23 -101 100.5 -151t194.5 -50q160 0 326 94
l-19 -200q-140 -82 -319 -82q-129 0 -231.5 45t-167.5 129q-77 -83 -183 -128.5t-184 -45.5q-137 0 -224 65.5t-87 186.5q0 125 99 197.5t261 72.5q125 0 227 -25v72q0 82 -34 125q-50 63 -176 63zM444 145q51 0 116 29.5t128 89.5q-22 65 -29 109q-115 14 -184 14
q-82 0 -128 -34.5t-46 -96.5q0 -54 37.5 -82.5t105.5 -28.5zM1085 733q-80 0 -141.5 -50.5t-79.5 -154.5h436q-3 93 -60.5 149t-154.5 56z" />
    <glyph glyph-name="ccedilla" unicode="&#xe7;" horiz-adv-x="1021" 
d="M537 -410q-139 0 -256 70l34 68q100 -43 181 -43q36 0 57.5 14.5t21.5 38.5q0 8 -4.5 16t-15.5 17t-37 14.5t-63 5.5l-23 -2l-43 51l64 154q-173 33 -278 156t-105 307q0 117 57 221t162.5 169.5t234.5 65.5q89 0 167 -27t130 -70.5t81.5 -97t29.5 -106.5q0 -69 -41 -110
t-103 -41q-56 0 -95.5 39.5t-39.5 95.5q0 43 29 76q-15 22 -58 41.5t-102 19.5q-40 0 -79 -16.5t-73.5 -49t-55.5 -88t-21 -126.5q0 -126 84 -203.5t207 -77.5q79 0 153.5 22.5t165.5 71.5l-18 -200q-143 -82 -320 -82h-20l10 -74q98 -12 157.5 -55t59.5 -109
q0 -62 -65 -109t-170 -47z" />
    <glyph glyph-name="egrave" unicode="&#xe8;" horiz-adv-x="1024" 
d="M950 373h-647q23 -101 100.5 -151t194.5 -50q160 0 326 94l-19 -200q-140 -82 -340 -82q-221 0 -358 127t-137 335q0 127 55 233t160 170t239 64q207 0 322 -121.5t115 -308.5q0 -53 -11 -110zM553 1006l-305 221q-64 49 -64 112q0 44 29.5 74.5t71.5 30.5q61 0 112 -64
l226 -307zM522 733q-80 0 -141.5 -50.5t-79.5 -154.5h436q-3 93 -60.5 149t-154.5 56z" />
    <glyph glyph-name="eacute" unicode="&#xe9;" horiz-adv-x="1024" 
d="M950 373h-647q23 -101 100.5 -151t194.5 -50q160 0 326 94l-19 -200q-140 -82 -340 -82q-221 0 -358 127t-137 335q0 127 55 233t160 170t239 64q207 0 322 -121.5t115 -308.5q0 -53 -11 -110zM508 1006l-70 67l226 307q51 64 112 64q42 0 71.5 -30.5t29.5 -74.5
q0 -63 -64 -112zM522 733q-80 0 -141.5 -50.5t-79.5 -154.5h436q-3 93 -60.5 149t-154.5 56z" />
    <glyph glyph-name="ecircumflex" unicode="&#xea;" horiz-adv-x="1024" 
d="M950 373h-647q23 -101 100.5 -151t194.5 -50q160 0 326 94l-19 -200q-140 -82 -340 -82q-221 0 -358 127t-137 335q0 127 55 233t160 170t239 64q207 0 322 -121.5t115 -308.5q0 -53 -11 -110zM262 1012l-94 108l362 361l363 -361l-94 -108l-269 196zM522 733
q-80 0 -141.5 -50.5t-79.5 -154.5h436q-3 93 -60.5 149t-154.5 56z" />
    <glyph glyph-name="edieresis" unicode="&#xeb;" horiz-adv-x="1024" 
d="M950 373h-647q23 -101 100.5 -151t194.5 -50q160 0 326 94l-19 -200q-140 -82 -340 -82q-221 0 -358 127t-137 335q0 127 55 233t160 170t239 64q207 0 322 -121.5t115 -308.5q0 -53 -11 -110zM522 733q-80 0 -141.5 -50.5t-79.5 -154.5h436q-3 93 -60.5 149t-154.5 56z
M739 1034q-60 0 -103.5 43.5t-43.5 104.5t45 104t106 43q60 0 104 -43t44 -104t-45.5 -104.5t-106.5 -43.5zM317 1034q-60 0 -103.5 43.5t-43.5 104.5t45.5 104t106.5 43q60 0 103.5 -43t43.5 -104t-45.5 -104.5t-106.5 -43.5z" />
    <glyph glyph-name="igrave" unicode="&#xec;" horiz-adv-x="624" 
d="M66 0v184h137v525h-137v188h360v-713h133v-184h-493zM313 1006l-305 221q-63 48 -63 112q0 44 29.5 74.5t70.5 30.5q62 0 113 -64l225 -307z" />
    <glyph glyph-name="iacute" unicode="&#xed;" horiz-adv-x="624" 
d="M66 0v184h137v525h-137v188h360v-713h133v-184h-493zM268 1006l-69 67l225 307q51 64 113 64q41 0 70.5 -30.5t29.5 -74.5q0 -63 -64 -112z" />
    <glyph glyph-name="icircumflex" unicode="&#xee;" horiz-adv-x="624" 
d="M66 0v184h137v525h-137v188h360v-713h133v-184h-493zM23 1012l-95 108l363 361l362 -361l-94 -108l-268 196z" />
    <glyph glyph-name="idieresis" unicode="&#xef;" horiz-adv-x="624" 
d="M66 0v184h137v525h-137v188h360v-713h133v-184h-493zM500 1034q-60 0 -104 43.5t-44 104.5t45.5 104t106.5 43q60 0 103.5 -43t43.5 -104t-45 -104.5t-106 -43.5zM78 1034q-60 0 -104 43.5t-44 104.5t45.5 104t106.5 43q60 0 103.5 -43t43.5 -104t-45 -104.5t-106 -43.5z
" />
    <glyph glyph-name="eth" unicode="&#xf0;" horiz-adv-x="1112" 
d="M457 952l-115 135l176 148q-78 57 -166 86q-43 -84 -129 -84q-50 0 -85.5 34.5t-35.5 92.5q0 67 54 109.5t133 42.5q89 0 176 -37q105 -42 211 -131l198 165l115 -135l-190 -159q112 -140 177.5 -318.5t65.5 -380.5q0 -278 -157 -422q-126 -114 -328 -114
q-215 0 -351 128t-136 316q0 187 134.5 315.5t342.5 128.5q70 0 140.5 -29t125.5 -79q-36 197 -166 350zM831 426q0 109 -78 184.5t-196 75.5t-196 -75.5t-78 -184.5t77.5 -183.5t196.5 -74.5q115 0 191 70q83 74 83 188z" />
    <glyph glyph-name="ntilde" unicode="&#xf1;" horiz-adv-x="1169" 
d="M412 897v-143q77 75 150.5 117t162.5 42q157 0 231 -114q48 -76 48 -185v-430h133v-184h-480v184h123v375q0 57 -18 92q-31 60 -111 60q-103 0 -231 -105v-422h123v-184h-480v184h134v525h-134v188h349zM764 1036q-99 0 -182 76q-77 68 -123 68q-37 0 -63 -30t-44 -101
l-151 38q17 143 86 226.5t157 83.5q100 0 183 -76q77 -68 123 -68q37 0 62.5 30t43.5 101l152 -38q-17 -143 -86.5 -226.5t-157.5 -83.5z" />
    <glyph glyph-name="ograve" unicode="&#xf2;" horiz-adv-x="1093" 
d="M547 -16q-108 0 -199 37.5t-151 101.5t-93.5 148t-33.5 178q0 124 57 229t167.5 170t252.5 65q108 0 199 -37.5t151 -101t93.5 -147.5t33.5 -178q0 -124 -57 -229t-167.5 -170.5t-252.5 -65.5zM547 170q109 0 178.5 78t69.5 201t-69.5 200.5t-178.5 77.5t-178.5 -77.5
t-69.5 -200.5t69.5 -201t178.5 -78zM569 1006l-305 221q-63 48 -63 112q0 44 29.5 74.5t70.5 30.5q62 0 113 -64l225 -307z" />
    <glyph glyph-name="oacute" unicode="&#xf3;" horiz-adv-x="1093" 
d="M547 -16q-108 0 -199 37.5t-151 101.5t-93.5 148t-33.5 178q0 124 57 229t167.5 170t252.5 65q108 0 199 -37.5t151 -101t93.5 -147.5t33.5 -178q0 -124 -57 -229t-167.5 -170.5t-252.5 -65.5zM547 170q109 0 178.5 78t69.5 201t-69.5 200.5t-178.5 77.5t-178.5 -77.5
t-69.5 -200.5t69.5 -201t178.5 -78zM524 1006l-69 67l225 307q51 64 113 64q41 0 70.5 -30.5t29.5 -74.5q0 -63 -64 -112z" />
    <glyph glyph-name="ocircumflex" unicode="&#xf4;" horiz-adv-x="1093" 
d="M547 -16q-108 0 -199 37.5t-151 101.5t-93.5 148t-33.5 178q0 124 57 229t167.5 170t252.5 65q108 0 199 -37.5t151 -101t93.5 -147.5t33.5 -178q0 -124 -57 -229t-167.5 -170.5t-252.5 -65.5zM547 170q109 0 178.5 78t69.5 201t-69.5 200.5t-178.5 77.5t-178.5 -77.5
t-69.5 -200.5t69.5 -201t178.5 -78zM279 1012l-95 108l363 361l362 -361l-94 -108l-268 196z" />
    <glyph glyph-name="otilde" unicode="&#xf5;" horiz-adv-x="1093" 
d="M547 -16q-108 0 -199 37.5t-151 101.5t-93.5 148t-33.5 178q0 124 57 229t167.5 170t252.5 65q108 0 199 -37.5t151 -101t93.5 -147.5t33.5 -178q0 -124 -57 -229t-167.5 -170.5t-252.5 -65.5zM547 170q109 0 178.5 78t69.5 201t-69.5 200.5t-178.5 77.5t-178.5 -77.5
t-69.5 -200.5t69.5 -201t178.5 -78zM711 1036q-100 0 -183 76q-77 68 -122 68q-37 0 -63 -30t-44 -101l-152 38q17 143 86.5 226.5t157.5 83.5q99 0 182 -76q77 -68 123 -68q37 0 63 30t44 101l151 -38q-17 -143 -86 -226.5t-157 -83.5z" />
    <glyph glyph-name="odieresis" unicode="&#xf6;" horiz-adv-x="1093" 
d="M547 -16q-108 0 -199 37.5t-151 101.5t-93.5 148t-33.5 178q0 124 57 229t167.5 170t252.5 65q108 0 199 -37.5t151 -101t93.5 -147.5t33.5 -178q0 -124 -57 -229t-167.5 -170.5t-252.5 -65.5zM547 170q109 0 178.5 78t69.5 201t-69.5 200.5t-178.5 77.5t-178.5 -77.5
t-69.5 -200.5t69.5 -201t178.5 -78zM756 1034q-60 0 -104 43.5t-44 104.5t45.5 104t106.5 43q60 0 103.5 -43t43.5 -104t-45 -104.5t-106 -43.5zM334 1034q-60 0 -104 43.5t-44 104.5t45.5 104t106.5 43q60 0 103.5 -43t43.5 -104t-45 -104.5t-106 -43.5z" />
    <glyph glyph-name="divide" unicode="&#xf7;" horiz-adv-x="950" 
d="M844 485h-738v189h738v-189zM475 756q-54 0 -93.5 39t-39.5 94t41 94t96 39q54 0 93.5 -39t39.5 -94t-41 -94t-96 -39zM475 137q-54 0 -93.5 39t-39.5 94t41 94t96 39q54 0 93.5 -39t39.5 -94t-41 -94t-96 -39z" />
    <glyph glyph-name="oslash" unicode="&#xf8;" horiz-adv-x="1093" 
d="M547 -16q-121 0 -225 49l-101 -121l-137 113l98 116q-112 127 -112 308q0 124 57 229t167.5 170t252.5 65q124 0 235 -57l107 127l137 -113l-106 -127q104 -125 104 -294q0 -124 -57 -229t-167.5 -170.5t-252.5 -65.5zM299 449q0 -99 35 -164l334 415q-59 27 -121 27
q-109 0 -178.5 -77.5t-69.5 -200.5zM547 170q109 0 178.5 78t69.5 201q0 84 -29 147l-332 -406q47 -20 113 -20z" />
    <glyph glyph-name="ugrave" unicode="&#xf9;" horiz-adv-x="1159" 
d="M444 -16q-161 0 -233 118q-45 73 -45 181v426h-133v188h356v-559q0 -52 19 -92q31 -60 110 -60q104 0 232 105v418h-140v188h363v-713h133v-184h-348v143q-77 -75 -150.5 -117t-163.5 -42zM571 1006l-305 221q-63 48 -63 112q0 44 29.5 74.5t70.5 30.5q62 0 113 -64
l225 -307z" />
    <glyph glyph-name="uacute" unicode="&#xfa;" horiz-adv-x="1159" 
d="M444 -16q-161 0 -233 118q-45 73 -45 181v426h-133v188h356v-559q0 -52 19 -92q31 -60 110 -60q104 0 232 105v418h-140v188h363v-713h133v-184h-348v143q-77 -75 -150.5 -117t-163.5 -42zM526 1006l-69 67l225 307q51 64 113 64q41 0 70.5 -30.5t29.5 -74.5
q0 -63 -64 -112z" />
    <glyph glyph-name="ucircumflex" unicode="&#xfb;" horiz-adv-x="1159" 
d="M444 -16q-161 0 -233 118q-45 73 -45 181v426h-133v188h356v-559q0 -52 19 -92q31 -60 110 -60q104 0 232 105v418h-140v188h363v-713h133v-184h-348v143q-77 -75 -150.5 -117t-163.5 -42zM281 1012l-95 108l363 361l362 -361l-94 -108l-268 196z" />
    <glyph glyph-name="udieresis" unicode="&#xfc;" horiz-adv-x="1159" 
d="M444 -16q-161 0 -233 118q-45 73 -45 181v426h-133v188h356v-559q0 -52 19 -92q31 -60 110 -60q104 0 232 105v418h-140v188h363v-713h133v-184h-348v143q-77 -75 -150.5 -117t-163.5 -42zM758 1034q-60 0 -104 43.5t-44 104.5t45.5 104t106.5 43q60 0 103.5 -43
t43.5 -104t-45 -104.5t-106 -43.5zM336 1034q-60 0 -104 43.5t-44 104.5t45.5 104t106.5 43q60 0 103.5 -43t43.5 -104t-45 -104.5t-106 -43.5z" />
    <glyph glyph-name="yacute" unicode="&#xfd;" horiz-adv-x="1089" 
d="M481 -291q-102 -117 -237 -117q-86 0 -139.5 42.5t-53.5 99.5q0 54 32 84t79 30q71 0 98 -67q40 10 72 53q19 24 41 70l67 141l-319 664h-111v188h463v-178h-131l207 -473l209 473h-140v178h461v-188h-108l-420 -891q-32 -65 -70 -109zM522 1006l-69 67l225 307
q51 64 113 64q41 0 70.5 -30.5t29.5 -74.5q0 -63 -64 -112z" />
    <glyph glyph-name="thorn" unicode="&#xfe;" horiz-adv-x="1091" 
d="M-8 -401v184h133v1528h-139v188h362v-700q54 52 114.5 82t143.5 30q176 0 293 -128.5t117 -329.5q0 -195 -123 -331t-301 -136q-129 0 -244 86v-289h146v-184h-502zM557 178q95 0 162 73t67 200q0 125 -65 196.5t-164 71.5q-109 0 -209 -90v-381q97 -70 209 -70z" />
    <glyph glyph-name="ydieresis" unicode="&#xff;" horiz-adv-x="1089" 
d="M481 -291q-102 -117 -237 -117q-86 0 -139.5 42.5t-53.5 99.5q0 54 32 84t79 30q71 0 98 -67q40 10 72 53q19 24 41 70l67 141l-319 664h-111v188h463v-178h-131l207 -473l209 473h-140v178h461v-188h-108l-420 -891q-32 -65 -70 -109zM332 1034q-60 0 -104 43.5
t-44 104.5t45.5 104t106.5 43q60 0 103.5 -43t43.5 -104t-45 -104.5t-106 -43.5zM754 1034q-60 0 -104 43.5t-44 104.5t45.5 104t106.5 43q60 0 103.5 -43t43.5 -104t-45 -104.5t-106 -43.5z" />
    <glyph glyph-name="Amacron" unicode="&#x100;" horiz-adv-x="1425" 
d="M27 0v207h116l336 936h-147v205h762v-205h-148l336 -936h117v-207h-518v205h155l-75 221h-504l-76 -221h164v-205h-518zM520 618h377l-188 531zM369 1534v182h684v-182h-684z" />
    <glyph glyph-name="amacron" unicode="&#x101;" horiz-adv-x="1042" 
d="M362 -16q-123 0 -206.5 66t-83.5 186q0 125 99 197.5t261 72.5q125 0 227 -25v72q0 80 -34 123q-51 65 -176 65q-54 0 -89 -14q9 -27 9 -45q0 -51 -35 -84t-86 -33q-52 0 -85.5 33t-33.5 88q0 92 92.5 159.5t263.5 67.5q225 0 322 -120q70 -85 70 -226v-383h133v-184
h-346v98q-59 -50 -138 -82t-164 -32zM434 145q114 0 225 80v142q-85 20 -184 20q-82 0 -128 -34.5t-46 -96.5q0 -53 36 -82t97 -29zM174 1073v182h684v-182h-684z" />
    <glyph glyph-name="Abreve" unicode="&#x102;" horiz-adv-x="1425" 
d="M27 0v207h116l336 936h-147v205h762v-205h-148l336 -936h117v-207h-518v205h155l-75 221h-504l-76 -221h164v-205h-518zM520 618h377l-188 531zM707 1495q-128 0 -229 88t-148 268l141 56q43 -105 104.5 -158t131.5 -53q69 0 130.5 53t104.5 158l141 -56
q-47 -180 -147.5 -268t-228.5 -88z" />
    <glyph glyph-name="abreve" unicode="&#x103;" horiz-adv-x="1042" 
d="M362 -16q-123 0 -206.5 66t-83.5 186q0 125 99 197.5t261 72.5q125 0 227 -25v72q0 80 -34 123q-51 65 -176 65q-54 0 -89 -14q9 -27 9 -45q0 -51 -35 -84t-86 -33q-52 0 -85.5 33t-33.5 88q0 92 92.5 159.5t263.5 67.5q225 0 322 -120q70 -85 70 -226v-383h133v-184
h-346v98q-59 -50 -138 -82t-164 -32zM434 145q114 0 225 80v142q-85 20 -184 20q-82 0 -128 -34.5t-46 -96.5q0 -53 36 -82t97 -29zM512 1034q-128 0 -229 88.5t-148 268.5l141 55q43 -105 104.5 -158t131.5 -53t131.5 53.5t104.5 157.5l141 -55q-47 -180 -148 -268.5
t-229 -88.5z" />
    <glyph glyph-name="Aogonek" unicode="&#x104;" horiz-adv-x="1425" 
d="M1155 -412q-111 0 -172 58t-61 153q0 116 102 201h-143v205h155l-75 221h-504l-76 -221h164v-205h-518v207h116l336 936h-147v205h762v-205h-148l336 -936h117v-207h-193q-98 -65 -98 -145q0 -95 106 -95q79 0 144 35l-10 -162q-30 -19 -82.5 -32t-110.5 -13zM520 618
h377l-188 531z" />
    <glyph glyph-name="aogonek" unicode="&#x105;" horiz-adv-x="1042" 
d="M788 -412q-111 0 -172 58t-61 153q0 121 109 205v94q-59 -50 -138 -82t-164 -32q-123 0 -206.5 66t-83.5 186q0 125 99 197.5t261 72.5q125 0 227 -25v72q0 80 -34 123q-51 65 -176 65q-54 0 -89 -14q9 -27 9 -45q0 -51 -35 -84t-86 -33q-52 0 -85.5 33t-33.5 88
q0 92 92.5 159.5t263.5 67.5q225 0 322 -120q70 -85 70 -226v-383h133v-184h-170q-99 -65 -99 -145q0 -95 107 -95q78 0 143 35l-10 -162q-30 -19 -82.5 -32t-110.5 -13zM434 145q114 0 225 80v142q-85 20 -184 20q-82 0 -128 -34.5t-46 -96.5q0 -53 36 -82t97 -29z" />
    <glyph glyph-name="Cacute" unicode="&#x106;" horiz-adv-x="1437" 
d="M807 -25q-207 0 -369 86.5t-253 246t-91 366.5q0 199 95 359.5t257 249.5t357 89q226 0 374 -99t148 -226q0 -73 -42 -119.5t-105 -46.5q-69 0 -112.5 39.5t-43.5 105.5q0 42 14 70q-77 61 -239 61q-198 0 -330.5 -136t-132.5 -345q0 -135 58 -245.5t167 -175.5t248 -65
q223 0 387 179l154 -160q-100 -110 -241 -172t-300 -62zM760 1466l-70 68l225 307q51 64 113 64q41 0 70.5 -30.5t29.5 -74.5q0 -64 -63 -112z" />
    <glyph glyph-name="cacute" unicode="&#x107;" horiz-adv-x="1021" 
d="M565 -16q-216 0 -355.5 130t-139.5 343q0 117 57 221t162.5 169.5t234.5 65.5q89 0 167 -27t130 -70.5t81.5 -97t29.5 -106.5q0 -69 -41 -110t-103 -41q-56 0 -95.5 39.5t-39.5 95.5q0 43 29 76q-15 22 -58 41.5t-102 19.5q-40 0 -79 -16.5t-73.5 -49t-55.5 -88
t-21 -126.5q0 -126 84 -203.5t207 -77.5q79 0 153.5 22.5t165.5 71.5l-18 -200q-143 -82 -320 -82zM508 1006l-70 67l226 307q51 64 112 64q42 0 71.5 -30.5t29.5 -74.5q0 -63 -64 -112z" />
    <glyph glyph-name="Cdotaccent" unicode="&#x10a;" horiz-adv-x="1437" 
d="M807 -25q-207 0 -369 86.5t-253 246t-91 366.5q0 199 95 359.5t257 249.5t357 89q226 0 374 -99t148 -226q0 -73 -42 -119.5t-105 -46.5q-69 0 -112.5 39.5t-43.5 105.5q0 42 14 70q-77 61 -239 61q-198 0 -330.5 -136t-132.5 -345q0 -135 58 -245.5t167 -175.5t248 -65
q223 0 387 179l154 -160q-100 -110 -241 -172t-300 -62zM780 1475q-60 0 -103.5 43t-43.5 104t45 104t106 43q60 0 104 -43t44 -104t-45.5 -104t-106.5 -43z" />
    <glyph glyph-name="cdotaccent" unicode="&#x10b;" horiz-adv-x="1021" 
d="M565 -16q-216 0 -355.5 130t-139.5 343q0 117 57 221t162.5 169.5t234.5 65.5q89 0 167 -27t130 -70.5t81.5 -97t29.5 -106.5q0 -69 -41 -110t-103 -41q-56 0 -95.5 39.5t-39.5 95.5q0 43 29 76q-15 22 -58 41.5t-102 19.5q-40 0 -79 -16.5t-73.5 -49t-55.5 -88
t-21 -126.5q0 -126 84 -203.5t207 -77.5q79 0 153.5 22.5t165.5 71.5l-18 -200q-143 -82 -320 -82zM528 1014q-60 0 -103.5 43t-43.5 104t45 104.5t106 43.5q60 0 104 -43.5t44 -104.5t-45.5 -104t-106.5 -43z" />
    <glyph glyph-name="Ccaron" unicode="&#x10c;" horiz-adv-x="1437" 
d="M807 -25q-207 0 -369 86.5t-253 246t-91 366.5q0 199 95 359.5t257 249.5t357 89q226 0 374 -99t148 -226q0 -73 -42 -119.5t-105 -46.5q-69 0 -112.5 39.5t-43.5 105.5q0 42 14 70q-77 61 -239 61q-198 0 -330.5 -136t-132.5 -345q0 -135 58 -245.5t167 -175.5t248 -65
q223 0 387 179l154 -160q-100 -110 -241 -172t-300 -62zM1049 1927l94 -108l-363 -361l-362 361l94 108l268 -196z" />
    <glyph glyph-name="ccaron" unicode="&#x10d;" horiz-adv-x="1021" 
d="M565 -16q-216 0 -355.5 130t-139.5 343q0 117 57 221t162.5 169.5t234.5 65.5q89 0 167 -27t130 -70.5t81.5 -97t29.5 -106.5q0 -69 -41 -110t-103 -41q-56 0 -95.5 39.5t-39.5 95.5q0 43 29 76q-15 22 -58 41.5t-102 19.5q-40 0 -79 -16.5t-73.5 -49t-55.5 -88
t-21 -126.5q0 -126 84 -203.5t207 -77.5q79 0 153.5 22.5t165.5 71.5l-18 -200q-143 -82 -320 -82zM797 1466l94 -108l-363 -361l-362 361l94 108l268 -196z" />
    <glyph glyph-name="Dcaron" unicode="&#x10e;" horiz-adv-x="1456" 
d="M76 0v207h153v934h-153v207h510q364 0 570 -177.5t206 -484.5q0 -316 -206.5 -501t-594.5 -185h-485zM461 207h133q256 0 392 128t136 349q0 219 -144.5 338t-399.5 119h-117v-934zM944 1927l94 -108l-362 -361l-363 361l95 108l268 -196z" />
    <glyph glyph-name="dcaron" unicode="&#x10f;" horiz-adv-x="1148" 
d="M485 -16q-179 0 -297 129.5t-118 330.5q0 128 56.5 236t155.5 170.5t218 62.5q148 0 250 -86v484h-136v188h359v-1315h133v-184h-356v98q-119 -114 -265 -114zM537 176q109 0 213 90v385q-101 70 -213 70q-99 0 -168.5 -73.5t-69.5 -201.5q0 -125 68 -197.5t170 -72.5z
M1094 958l-72 54q86 126 86 229q0 37 -19.5 90t-19.5 94q0 56 34.5 95t96.5 39q59 0 92 -39t33 -105q0 -114 -66 -234.5t-165 -222.5z" />
    <glyph glyph-name="Dcroat" unicode="&#x110;" horiz-adv-x="1476" 
d="M250 596h-174v186h174v359h-154v207h510q356 0 566 -181t210 -481q0 -315 -203 -500.5t-577 -185.5h-506v207h154v389zM481 207h133q256 0 392.5 128t136.5 349q0 219 -145 338t-400 119h-117v-359h281v-186h-281v-389z" />
    <glyph glyph-name="dcroat" unicode="&#x111;" horiz-adv-x="1148" 
d="M453 1022v164h297v125h-136v188h359v-313h133v-164h-133v-838h133v-184h-356v98q-119 -114 -265 -114q-179 0 -297 129.5t-118 330.5q0 128 56.5 236t155.5 170.5t218 62.5q148 0 250 -86v195h-297zM537 176q109 0 213 90v385q-101 70 -213 70q-99 0 -168.5 -73.5
t-69.5 -201.5q0 -125 68 -197.5t170 -72.5z" />
    <glyph glyph-name="Emacron" unicode="&#x112;" horiz-adv-x="1181" 
d="M76 0v207h153v934h-153v207h1005v-385h-221v180h-399v-361h407v-196h-407v-381h401v180h221v-385h-1007zM256 1534v182h684v-182h-684z" />
    <glyph glyph-name="emacron" unicode="&#x113;" horiz-adv-x="1024" 
d="M950 373h-647q23 -101 100.5 -151t194.5 -50q160 0 326 94l-19 -200q-140 -82 -340 -82q-221 0 -358 127t-137 335q0 127 55 233t160 170t239 64q207 0 322 -121.5t115 -308.5q0 -53 -11 -110zM188 1073v182h684v-182h-684zM522 733q-80 0 -141.5 -50.5t-79.5 -154.5h436
q-3 93 -60.5 149t-154.5 56z" />
    <glyph glyph-name="Ebreve" unicode="&#x114;" horiz-adv-x="1181" 
d="M76 0v207h153v934h-153v207h1005v-385h-221v180h-399v-361h407v-196h-407v-381h401v180h221v-385h-1007zM594 1495q-128 0 -229 88t-148 268l141 56q43 -105 104.5 -158t131.5 -53q69 0 130.5 53t104.5 158l142 -56q-47 -180 -148 -268t-229 -88z" />
    <glyph glyph-name="ebreve" unicode="&#x115;" horiz-adv-x="1024" 
d="M950 373h-647q23 -101 100.5 -151t194.5 -50q160 0 326 94l-19 -200q-140 -82 -340 -82q-221 0 -358 127t-137 335q0 127 55 233t160 170t239 64q207 0 322 -121.5t115 -308.5q0 -53 -11 -110zM526 1034q-128 0 -228.5 88.5t-147.5 268.5l141 55q43 -106 104 -158.5
t131 -52.5t131.5 53.5t104.5 157.5l141 -55q-47 -180 -148 -268.5t-229 -88.5zM522 733q-80 0 -141.5 -50.5t-79.5 -154.5h436q-3 93 -60.5 149t-154.5 56z" />
    <glyph glyph-name="Edotaccent" unicode="&#x116;" horiz-adv-x="1181" 
d="M76 0v207h153v934h-153v207h1005v-385h-221v180h-399v-361h407v-196h-407v-381h401v180h221v-385h-1007zM596 1475q-60 0 -103.5 43t-43.5 104t45 104t106 43q60 0 104 -43t44 -104t-45.5 -104t-106.5 -43z" />
    <glyph glyph-name="edotaccent" unicode="&#x117;" horiz-adv-x="1024" 
d="M950 373h-647q23 -101 100.5 -151t194.5 -50q160 0 326 94l-19 -200q-140 -82 -340 -82q-221 0 -358 127t-137 335q0 127 55 233t160 170t239 64q207 0 322 -121.5t115 -308.5q0 -53 -11 -110zM522 733q-80 0 -141.5 -50.5t-79.5 -154.5h436q-3 93 -60.5 149t-154.5 56z
M528 1014q-60 0 -103.5 43t-43.5 104t45 104.5t106 43.5q60 0 104 -43.5t44 -104.5t-45.5 -104t-106.5 -43z" />
    <glyph glyph-name="Eogonek" unicode="&#x118;" horiz-adv-x="1181" 
d="M76 0v207h153v934h-153v207h1005v-385h-221v180h-399v-361h407v-196h-407v-381h401v180h221v-385h-151q-98 -65 -98 -145q0 -95 106 -95q78 0 143 35l-10 -162q-72 -45 -192 -45q-111 0 -172.5 58t-61.5 153q0 115 103 201h-674z" />
    <glyph glyph-name="eogonek" unicode="&#x119;" horiz-adv-x="1024" 
d="M950 373h-647q23 -101 100.5 -151t194.5 -50q160 0 326 94l-19 -205q-256 -93 -256 -211q0 -90 107 -90q78 0 143 35l-10 -162q-30 -19 -82.5 -32t-110.5 -13q-111 0 -172 58t-61 153q0 104 84 185q-213 6 -345 132.5t-132 329.5q0 127 55 233t160 170t239 64
q207 0 322 -121.5t115 -308.5q0 -53 -11 -110zM522 733q-80 0 -141.5 -50.5t-79.5 -154.5h436q-3 93 -60.5 149t-154.5 56z" />
    <glyph glyph-name="Ecaron" unicode="&#x11a;" horiz-adv-x="1181" 
d="M76 0v207h153v934h-153v207h1005v-385h-221v180h-399v-361h407v-196h-407v-381h401v180h221v-385h-1007zM864 1927l94 -108l-362 -361l-363 361l95 108l268 -196z" />
    <glyph glyph-name="ecaron" unicode="&#x11b;" horiz-adv-x="1024" 
d="M950 373h-647q23 -101 100.5 -151t194.5 -50q160 0 326 94l-19 -200q-140 -82 -340 -82q-221 0 -358 127t-137 335q0 127 55 233t160 170t239 64q207 0 322 -121.5t115 -308.5q0 -53 -11 -110zM797 1466l94 -108l-363 -361l-362 361l94 108l268 -196zM522 733
q-80 0 -141.5 -50.5t-79.5 -154.5h436q-3 93 -60.5 149t-154.5 56z" />
    <glyph glyph-name="Gbreve" unicode="&#x11e;" horiz-adv-x="1486" 
d="M741 -25q-125 0 -241 48.5t-206.5 136t-145 220.5t-54.5 290q0 122 36 232t101 195t152.5 147.5t195 95t224.5 32.5q226 0 374 -99t148 -226q0 -73 -42 -119.5t-105 -46.5q-69 0 -112.5 39.5t-43.5 105.5q0 42 14 70q-77 61 -239 61q-199 0 -331 -135t-132 -350
q0 -108 37 -201t99 -155t141.5 -97t164.5 -35q192 0 326 86v232h-336v196h563v-698h-221v100q-159 -125 -367 -125zM778 1495q-128 0 -229 88t-148 268l142 56q43 -106 104 -158.5t131 -52.5t131.5 53.5t104.5 157.5l141 -56q-47 -180 -148 -268t-229 -88z" />
    <glyph glyph-name="gbreve" unicode="&#x11f;" horiz-adv-x="1140" 
d="M961 709v-711q0 -166 -84 -270q-113 -138 -336 -138q-113 0 -208.5 32t-144.5 81t-49 117q0 50 34 87.5t87 37.5t89 -33t36 -84q0 -19 -4 -35q68 -22 133 -22q125 0 182 77q41 56 41 156v129q-57 -57 -116 -86t-142 -29q-174 0 -291.5 122.5t-117.5 318.5
q0 191 122 322.5t297 131.5q145 0 256 -96v80h349v-188h-133zM537 721q-106 0 -172 -68t-66 -192q0 -120 66 -187t172 -67q105 0 200 88v356q-90 70 -200 70zM578 1034q-128 0 -229 88.5t-148 268.5l141 55q43 -105 104.5 -158t131.5 -53q69 0 130.5 53t104.5 158l141 -55
q-47 -180 -147.5 -268.5t-228.5 -88.5z" />
    <glyph glyph-name="Gdotaccent" unicode="&#x120;" horiz-adv-x="1486" 
d="M741 -25q-125 0 -241 48.5t-206.5 136t-145 220.5t-54.5 290q0 122 36 232t101 195t152.5 147.5t195 95t224.5 32.5q226 0 374 -99t148 -226q0 -73 -42 -119.5t-105 -46.5q-69 0 -112.5 39.5t-43.5 105.5q0 42 14 70q-77 61 -239 61q-199 0 -331 -135t-132 -350
q0 -108 37 -201t99 -155t141.5 -97t164.5 -35q192 0 326 86v232h-336v196h563v-698h-221v100q-159 -125 -367 -125zM780 1475q-60 0 -103.5 43t-43.5 104t45 104t106 43q60 0 104 -43t44 -104t-45.5 -104t-106.5 -43z" />
    <glyph glyph-name="gdotaccent" unicode="&#x121;" horiz-adv-x="1140" 
d="M961 709v-711q0 -166 -84 -270q-113 -138 -336 -138q-113 0 -208.5 32t-144.5 81t-49 117q0 50 34 87.5t87 37.5t89 -33t36 -84q0 -19 -4 -35q68 -22 133 -22q125 0 182 77q41 56 41 156v129q-57 -57 -116 -86t-142 -29q-174 0 -291.5 122.5t-117.5 318.5
q0 191 122 322.5t297 131.5q145 0 256 -96v80h349v-188h-133zM537 721q-106 0 -172 -68t-66 -192q0 -120 66 -187t172 -67q105 0 200 88v356q-90 70 -200 70zM559 1014q-60 0 -103.5 43t-43.5 104t45 104.5t106 43.5q60 0 104 -43.5t44 -104.5t-45.5 -104t-106.5 -43z" />
    <glyph glyph-name="Gcommaaccent" unicode="&#x122;" horiz-adv-x="1486" 
d="M741 -25q-125 0 -241 48.5t-206.5 136t-145 220.5t-54.5 290q0 122 36 232t101 195t152.5 147.5t195 95t224.5 32.5q226 0 374 -99t148 -226q0 -73 -42 -119.5t-105 -46.5q-69 0 -112.5 39.5t-43.5 105.5q0 42 14 70q-77 61 -239 61q-199 0 -331 -135t-132 -350
q0 -108 37 -201t99 -155t141.5 -97t164.5 -35q192 0 326 86v232h-336v196h563v-698h-221v100q-159 -125 -367 -125zM631 -641l-53 68q80 62 123.5 122.5t46.5 100.5q-47 12 -75 47.5t-28 85.5t39.5 87.5t95.5 37.5q62 0 104 -43t42 -121q0 -41 -15.5 -86.5t-48.5 -96.5
t-92.5 -104t-138.5 -98z" />
    <glyph glyph-name="gcommaaccent" unicode="&#x123;" horiz-adv-x="1140" 
d="M961 709v-711q0 -166 -84 -270q-113 -138 -336 -138q-113 0 -208.5 32t-144.5 81t-49 117q0 50 34 87.5t87 37.5t89 -33t36 -84q0 -19 -4 -35q68 -22 133 -22q125 0 182 77q41 56 41 156v129q-57 -57 -116 -86t-142 -29q-174 0 -291.5 122.5t-117.5 318.5
q0 191 122 322.5t297 131.5q145 0 256 -96v80h349v-188h-133zM537 721q-106 0 -172 -68t-66 -192q0 -120 66 -187t172 -67q105 0 200 88v356q-90 70 -200 70zM836 1544l53 -67q-79 -62 -123 -123t-47 -101q47 -12 74.5 -47.5t27.5 -85.5t-39.5 -87.5t-95.5 -37.5
q-62 0 -103.5 43t-41.5 121q0 41 15.5 86.5t48.5 96.5t92.5 104t138.5 98z" />
    <glyph glyph-name="Hbar" unicode="&#x126;" horiz-adv-x="1544" 
d="M115 860v170h114v127h-153v191h553v-191h-168v-127h622v127h-168v191h553v-191h-153v-127h115v-170h-115v-653h153v-207h-553v207h168v332h-622v-332h168v-207h-553v207h153v653h-114zM461 741h622v119h-622v-119z" />
    <glyph glyph-name="hbar" unicode="&#x127;" horiz-adv-x="1159" 
d="M186 1311h-133v188h357v-313h297v-164h-297v-260q75 71 146.5 111t158.5 40q145 0 219 -96q59 -77 59 -203v-430h133v-184h-479v184h123v375q0 69 -29 109q-34 43 -100 43q-103 0 -231 -105v-422h122v-184h-479v184h133v838h-133v164h133v125z" />
    <glyph glyph-name="Imacron" unicode="&#x12a;" horiz-adv-x="710" 
d="M76 0v207h164v934h-164v207h559v-207h-164v-934h164v-207h-559zM12 1534v182h684v-182h-684z" />
    <glyph glyph-name="imacron" unicode="&#x12b;" horiz-adv-x="624" 
d="M66 0v184h137v525h-137v188h360v-713h133v-184h-493zM-51 1073v182h684v-182h-684z" />
    <glyph glyph-name="Ibreve" unicode="&#x12c;" horiz-adv-x="710" 
d="M76 0v207h164v934h-164v207h559v-207h-164v-934h164v-207h-559zM350 1495q-128 0 -229 88t-148 268l142 56q43 -106 104 -158.5t131 -52.5t131.5 53.5t104.5 157.5l141 -56q-47 -180 -148 -268t-229 -88z" />
    <glyph glyph-name="ibreve" unicode="&#x12d;" horiz-adv-x="624" 
d="M66 0v184h137v525h-137v188h360v-713h133v-184h-493zM287 1034q-128 0 -229 88.5t-148 268.5l141 55q43 -105 104.5 -158t131.5 -53q69 0 130.5 53t104.5 158l142 -55q-47 -180 -148 -268.5t-229 -88.5z" />
    <glyph glyph-name="Iogonek" unicode="&#x12e;" horiz-adv-x="710" 
d="M76 0v207h164v934h-164v207h559v-207h-164v-934h164v-207h-193q-98 -65 -98 -145q0 -95 107 -95q78 0 143 35l-10 -162q-30 -19 -82.5 -32t-110.5 -13q-111 0 -172 58t-61 153q0 116 102 201h-184z" />
    <glyph glyph-name="iogonek" unicode="&#x12f;" horiz-adv-x="624" 
d="M66 0v184h137v525h-137v188h360v-713h133v-184h-192q-99 -65 -99 -145q0 -95 107 -95q78 0 143 35l-10 -162q-30 -19 -82.5 -32t-110.5 -13q-111 0 -172 58t-61 153q0 116 102 201h-118zM291 1034q-60 0 -104 43.5t-44 104.5t45.5 104t106.5 43q60 0 103.5 -43t43.5 -104
t-45 -104.5t-106 -43.5z" />
    <glyph glyph-name="Idotaccent" unicode="&#x130;" horiz-adv-x="710" 
d="M76 0v207h164v934h-164v207h559v-207h-164v-934h164v-207h-559zM352 1475q-60 0 -103.5 43t-43.5 104t45 104t106 43q60 0 104 -43t44 -104t-45.5 -104t-106.5 -43z" />
    <glyph glyph-name="dotlessi" unicode="&#x131;" horiz-adv-x="624" 
d="M66 0v184h137v525h-137v188h360v-713h133v-184h-493z" />
    <glyph glyph-name="Kcommaaccent" unicode="&#x136;" horiz-adv-x="1394" 
d="M76 0v207h153v934h-153v207h553v-203h-168v-457l452 457h-153v203h594v-207h-146l-377 -371l345 -563h178v-207h-324l-375 614l-194 -190v-217h168v-207h-553zM563 -641l-53 68q80 62 123.5 122.5t46.5 100.5q-47 12 -74.5 47.5t-27.5 85.5t39.5 87.5t95.5 37.5
q62 0 103.5 -43t41.5 -121q0 -41 -15.5 -86.5t-48.5 -96.5t-92.5 -104t-138.5 -98z" />
    <glyph glyph-name="kcommaaccent" unicode="&#x137;" horiz-adv-x="1130" 
d="M53 0v184h133v1127h-133v188h357v-1005l262 225h-125v178h530v-188h-166l-209 -177l228 -344h147v-188h-280l-258 403l-129 -108v-115h112v-180h-469zM414 -641l-54 68q80 62 123.5 122.5t46.5 100.5q-47 12 -74.5 47.5t-27.5 85.5t39.5 87.5t95.5 37.5q62 0 104 -43
t42 -121q0 -41 -15.5 -86.5t-48.5 -96.5t-92.5 -104t-138.5 -98z" />
    <glyph glyph-name="Lacute" unicode="&#x139;" horiz-adv-x="1122" 
d="M76 0v207h153v934h-153v207h563v-207h-178v-936h370v190h224v-395h-979zM416 1466l-70 68l225 307q51 64 113 64q41 0 70.5 -30.5t29.5 -74.5q0 -64 -63 -112z" />
    <glyph glyph-name="lacute" unicode="&#x13a;" horiz-adv-x="604" 
d="M53 0v184h140v1127h-140v188h363v-1315h133v-184h-496zM295 1620l-70 68l226 307q50 63 112 63q42 0 71.5 -30t29.5 -74q0 -64 -64 -113z" />
    <glyph glyph-name="Lcommaaccent" unicode="&#x13b;" horiz-adv-x="1122" 
d="M76 0v207h153v934h-153v207h563v-207h-178v-936h370v190h224v-395h-979zM414 -641l-54 68q80 62 123.5 122.5t46.5 100.5q-47 12 -74.5 47.5t-27.5 85.5t39.5 87.5t95.5 37.5q62 0 104 -43t42 -121q0 -41 -15.5 -86.5t-48.5 -96.5t-92.5 -104t-138.5 -98z" />
    <glyph glyph-name="lcommaaccent" unicode="&#x13c;" horiz-adv-x="604" 
d="M53 0v184h140v1127h-140v188h363v-1315h133v-184h-496zM150 -641l-54 68q80 62 123.5 122.5t46.5 100.5q-47 12 -74.5 47.5t-27.5 85.5t39.5 87.5t95.5 37.5q62 0 103.5 -43t41.5 -121q0 -56 -26 -117.5t-95 -135t-173 -132.5z" />
    <glyph glyph-name="Lcaron" unicode="&#x13d;" horiz-adv-x="1122" 
d="M76 0v207h153v934h-153v207h563v-207h-178v-936h370v190h224v-395h-979zM797 754l-72 53q86 126 86 229q0 38 -19.5 91t-19.5 94q0 56 34.5 94.5t96.5 38.5q59 0 92 -39t33 -105q0 -114 -66 -233.5t-165 -222.5z" />
    <glyph glyph-name="lcaron" unicode="&#x13e;" horiz-adv-x="604" 
d="M53 0v184h140v1127h-140v188h363v-1315h133v-184h-496zM539 958l-72 54q86 126 86 229q0 37 -19.5 90t-19.5 94q0 56 34.5 95t96.5 39q59 0 92 -39t33 -105q0 -114 -66 -234.5t-165 -222.5z" />
    <glyph glyph-name="Ldot" unicode="&#x13f;" horiz-adv-x="1122" 
d="M905 623q-60 0 -103.5 43t-43.5 104t45 104.5t106 43.5q60 0 104 -43.5t44 -104.5t-45.5 -104t-106.5 -43zM76 0v207h153v934h-153v207h563v-207h-178v-936h370v190h224v-395h-979z" />
    <glyph glyph-name="ldot" unicode="&#x140;" horiz-adv-x="763" 
d="M53 0v184h140v1127h-140v188h363v-1315h133v-184h-496zM684 561q-60 0 -103.5 43.5t-43.5 104.5t45 104t106 43q60 0 104 -43t44 -104t-45.5 -104.5t-106.5 -43.5z" />
    <glyph glyph-name="Lslash" unicode="&#x141;" horiz-adv-x="1122" 
d="M76 0v207h153v307l-163 -90l-93 158l256 141v418h-153v207h563v-207h-178v-291l227 127l90 -160l-317 -176v-436h370v190h224v-395h-979z" />
    <glyph glyph-name="lslash" unicode="&#x142;" horiz-adv-x="604" 
d="M53 0v184h140v504l-142 -82l-88 156l230 131v418h-140v188h363v-493l145 84l88 -156l-233 -135v-615h133v-184h-496z" />
    <glyph glyph-name="Nacute" unicode="&#x143;" horiz-adv-x="1521" 
d="M1190 -6l-735 936v-723h168v-207h-547v207h153v934h-153v207h350l664 -846v639h-168v207h540v-207h-147v-1143zM737 1466l-69 68l225 307q51 64 113 64q41 0 70.5 -30.5t29.5 -74.5q0 -63 -64 -112z" />
    <glyph glyph-name="nacute" unicode="&#x144;" horiz-adv-x="1169" 
d="M412 897v-143q77 75 150.5 117t162.5 42q157 0 231 -114q48 -76 48 -185v-430h133v-184h-480v184h123v375q0 57 -18 92q-31 60 -111 60q-103 0 -231 -105v-422h123v-184h-480v184h134v525h-134v188h349zM578 1006l-70 67l225 307q51 64 113 64q41 0 70.5 -30.5
t29.5 -74.5q0 -64 -63 -112z" />
    <glyph glyph-name="Ncommaaccent" unicode="&#x145;" horiz-adv-x="1521" 
d="M1190 -6l-735 936v-723h168v-207h-547v207h153v934h-153v207h350l664 -846v639h-168v207h540v-207h-147v-1143zM629 -627l-54 68q80 62 123.5 122.5t46.5 100.5q-47 12 -74.5 47.5t-27.5 85.5t39.5 87.5t95.5 37.5q62 0 104 -43t42 -121q0 -41 -15.5 -86.5t-48.5 -96.5
t-92.5 -104t-138.5 -98z" />
    <glyph glyph-name="ncommaaccent" unicode="&#x146;" horiz-adv-x="1169" 
d="M412 897v-143q77 75 150.5 117t162.5 42q157 0 231 -114q48 -76 48 -185v-430h133v-184h-480v184h123v375q0 57 -18 92q-31 60 -111 60q-103 0 -231 -105v-422h123v-184h-480v184h134v525h-134v188h349zM449 -641l-54 68q80 62 123.5 122.5t46.5 100.5q-47 12 -74.5 47.5
t-27.5 85.5t39.5 87.5t95.5 37.5q62 0 103.5 -43t41.5 -121q0 -56 -26 -117.5t-95 -135t-173 -132.5z" />
    <glyph glyph-name="Ncaron" unicode="&#x147;" horiz-adv-x="1521" 
d="M1190 -6l-735 936v-723h168v-207h-547v207h153v934h-153v207h350l664 -846v639h-168v207h540v-207h-147v-1143zM1026 1927l94 -108l-362 -361l-363 361l94 108l269 -196z" />
    <glyph glyph-name="ncaron" unicode="&#x148;" horiz-adv-x="1169" 
d="M412 897v-143q77 75 150.5 117t162.5 42q157 0 231 -114q48 -76 48 -185v-430h133v-184h-480v184h123v375q0 57 -18 92q-31 60 -111 60q-103 0 -231 -105v-422h123v-184h-480v184h134v525h-134v188h349zM866 1466l95 -108l-363 -361l-362 361l94 108l268 -196z" />
    <glyph glyph-name="Omacron" unicode="&#x14c;" horiz-adv-x="1570" 
d="M780 -25q-150 0 -279 54t-217.5 147.5t-139 222.5t-50.5 275q0 196 88 355t248 251t361 92q200 0 357.5 -92.5t243 -251.5t85.5 -354q0 -196 -88 -355.5t-248 -251.5t-361 -92zM786 190q196 0 323.5 136t127.5 348q0 210 -128 346.5t-323 136.5q-197 0 -324.5 -135.5
t-127.5 -347.5q0 -211 127.5 -347.5t324.5 -136.5zM442 1534v182h684v-182h-684z" />
    <glyph glyph-name="omacron" unicode="&#x14d;" horiz-adv-x="1093" 
d="M547 -16q-108 0 -199 37.5t-151 101.5t-93.5 148t-33.5 178q0 124 57 229t167.5 170t252.5 65q108 0 199 -37.5t151 -101t93.5 -147.5t33.5 -178q0 -124 -57 -229t-167.5 -170.5t-252.5 -65.5zM547 170q109 0 178.5 78t69.5 201t-69.5 200.5t-178.5 77.5t-178.5 -77.5
t-69.5 -200.5t69.5 -201t178.5 -78zM205 1073v182h684v-182h-684z" />
    <glyph glyph-name="Obreve" unicode="&#x14e;" horiz-adv-x="1570" 
d="M780 -25q-150 0 -279 54t-217.5 147.5t-139 222.5t-50.5 275q0 196 88 355t248 251t361 92q200 0 357.5 -92.5t243 -251.5t85.5 -354q0 -196 -88 -355.5t-248 -251.5t-361 -92zM786 190q196 0 323.5 136t127.5 348q0 210 -128 346.5t-323 136.5q-197 0 -324.5 -135.5
t-127.5 -347.5q0 -211 127.5 -347.5t324.5 -136.5zM780 1495q-128 0 -229 88t-148 268l142 56q43 -106 104 -158.5t131 -52.5t131.5 53.5t104.5 157.5l141 -56q-47 -180 -148 -268t-229 -88z" />
    <glyph glyph-name="obreve" unicode="&#x14f;" horiz-adv-x="1093" 
d="M547 -16q-108 0 -199 37.5t-151 101.5t-93.5 148t-33.5 178q0 124 57 229t167.5 170t252.5 65q108 0 199 -37.5t151 -101t93.5 -147.5t33.5 -178q0 -124 -57 -229t-167.5 -170.5t-252.5 -65.5zM547 170q109 0 178.5 78t69.5 201t-69.5 200.5t-178.5 77.5t-178.5 -77.5
t-69.5 -200.5t69.5 -201t178.5 -78zM543 1034q-128 0 -229 88.5t-148 268.5l141 55q43 -105 104.5 -158t131.5 -53q69 0 130.5 53t104.5 158l142 -55q-47 -180 -148 -268.5t-229 -88.5z" />
    <glyph glyph-name="Ohungarumlaut" unicode="&#x150;" horiz-adv-x="1570" 
d="M780 -25q-150 0 -279 54t-217.5 147.5t-139 222.5t-50.5 275q0 196 88 355t248 251t361 92q200 0 357.5 -92.5t243 -251.5t85.5 -354q0 -196 -88 -355.5t-248 -251.5t-361 -92zM786 190q196 0 323.5 136t127.5 348q0 210 -128 346.5t-323 136.5q-197 0 -324.5 -135.5
t-127.5 -347.5q0 -211 127.5 -347.5t324.5 -136.5zM496 1470l-52 72l299 293q57 57 111 57q45 0 76 -31t31 -73q0 -79 -91 -127zM942 1470l-45 74l334 297q55 49 108 49q44 0 73.5 -31.5t29.5 -74.5q0 -77 -92 -123z" />
    <glyph glyph-name="ohungarumlaut" unicode="&#x151;" horiz-adv-x="1093" 
d="M547 -16q-108 0 -199 37.5t-151 101.5t-93.5 148t-33.5 178q0 124 57 229t167.5 170t252.5 65q108 0 199 -37.5t151 -101t93.5 -147.5t33.5 -178q0 -124 -57 -229t-167.5 -170.5t-252.5 -65.5zM547 170q109 0 178.5 78t69.5 201t-69.5 200.5t-178.5 77.5t-178.5 -77.5
t-69.5 -200.5t69.5 -201t178.5 -78zM258 1010l-51 71l299 293q58 58 110 58q45 0 76 -31.5t31 -73.5q0 -79 -90 -127zM705 1010l-46 73l334 297q56 50 109 50q43 0 72.5 -31.5t29.5 -75.5q0 -77 -92 -123z" />
    <glyph glyph-name="OE" unicode="&#x152;" horiz-adv-x="1906" 
d="M870 0q-356 0 -566 181t-210 481q0 315 203 500.5t577 185.5h932v-385h-221v180h-399v-361h407v-196h-407v-381h401v180h221v-385h-938zM879 207h75v934h-92q-256 0 -392 -128t-136 -349q0 -219 145 -338t400 -119z" />
    <glyph glyph-name="oe" unicode="&#x153;" horiz-adv-x="1728" 
d="M1323 172q160 0 326 94l-19 -200q-140 -82 -330 -82q-123 0 -234 56t-159 138q-54 -88 -152.5 -141t-217.5 -53q-139 0 -247 64.5t-164 169.5t-56 231q0 92 33.5 176t93.5 148t148.5 102t191.5 38q122 0 219.5 -53t150.5 -139q57 90 154.5 141t198.5 51q200 0 313 -122
t113 -308q0 -53 -11 -110h-647q23 -101 100.5 -151t194.5 -50zM547 170q109 0 178.5 78t69.5 201t-69.5 200.5t-178.5 77.5t-178.5 -77.5t-69.5 -200.5t69.5 -201t178.5 -78zM1247 733q-80 0 -141.5 -50.5t-79.5 -154.5h436q-3 93 -60.5 149t-154.5 56z" />
    <glyph glyph-name="Racute" unicode="&#x154;" horiz-adv-x="1269" 
d="M76 0v207h153v934h-153v207h522q241 0 385.5 -104.5t144.5 -303.5q0 -127 -70 -224t-184 -143l207 -366h154v-207h-311l-271 512q-58 -4 -82 -4q-81 0 -110 2v-303h168v-207h-553zM592 705q132 0 214.5 61.5t82.5 165.5q0 103 -80 156t-223 53h-125v-432q50 -4 131 -4z
M592 1466l-70 68l226 307q51 64 112 64q42 0 71.5 -30.5t29.5 -74.5q0 -63 -64 -112z" />
    <glyph glyph-name="racute" unicode="&#x155;" horiz-adv-x="890" 
d="M696 913q80 0 123 -42t43 -105q0 -57 -39 -98t-94 -41q-48 0 -82 23t-49 57q-48 -17 -98 -64.5t-80 -105.5v-353h155v-184h-512v184h134v525h-134v188h349v-203q138 219 284 219zM440 1006l-69 67l225 307q51 64 113 64q41 0 70.5 -30.5t29.5 -74.5q0 -63 -64 -112z" />
    <glyph glyph-name="Rcommaaccent" unicode="&#x156;" horiz-adv-x="1269" 
d="M76 0v207h153v934h-153v207h522q241 0 385.5 -104.5t144.5 -303.5q0 -127 -70 -224t-184 -143l207 -366h154v-207h-311l-271 512q-58 -4 -82 -4q-81 0 -110 2v-303h168v-207h-553zM592 705q132 0 214.5 61.5t82.5 165.5q0 103 -80 156t-223 53h-125v-432q50 -4 131 -4z
M463 -641l-53 68q80 62 123.5 122.5t46.5 100.5q-47 12 -75 47.5t-28 85.5t39.5 87.5t95.5 37.5q62 0 104 -43t42 -121q0 -41 -15.5 -86.5t-48.5 -96.5t-92.5 -104t-138.5 -98z" />
    <glyph glyph-name="rcommaaccent" unicode="&#x157;" horiz-adv-x="890" 
d="M696 913q80 0 123 -42t43 -105q0 -57 -39 -98t-94 -41q-48 0 -82 23t-49 57q-48 -17 -98 -64.5t-80 -105.5v-353h155v-184h-512v184h134v525h-134v188h349v-203q138 219 284 219zM168 -641l-53 68q80 62 123.5 122.5t46.5 100.5q-47 12 -75 47.5t-28 85.5t39.5 87.5
t95.5 37.5q62 0 104 -43t42 -121q0 -41 -15.5 -86.5t-48.5 -96.5t-92.5 -104t-138.5 -98z" />
    <glyph glyph-name="Rcaron" unicode="&#x158;" horiz-adv-x="1269" 
d="M76 0v207h153v934h-153v207h522q241 0 385.5 -104.5t144.5 -303.5q0 -127 -70 -224t-184 -143l207 -366h154v-207h-311l-271 512q-58 -4 -82 -4q-81 0 -110 2v-303h168v-207h-553zM592 705q132 0 214.5 61.5t82.5 165.5q0 103 -80 156t-223 53h-125v-432q50 -4 131 -4z
M881 1927l94 -108l-363 -361l-362 361l94 108l268 -196z" />
    <glyph glyph-name="rcaron" unicode="&#x159;" horiz-adv-x="890" 
d="M696 913q80 0 123 -42t43 -105q0 -57 -39 -98t-94 -41q-48 0 -82 23t-49 57q-48 -17 -98 -64.5t-80 -105.5v-353h155v-184h-512v184h134v525h-134v188h349v-203q138 219 284 219zM729 1466l94 -108l-362 -361l-363 361l95 108l268 -196z" />
    <glyph glyph-name="Sacute" unicode="&#x15a;" horiz-adv-x="1136" 
d="M563 -25q-130 0 -241.5 44t-175.5 116.5t-64 153.5q0 72 39 116t102 44q65 0 106.5 -41t41.5 -93q0 -42 -19 -82q80 -57 213 -57q112 0 177 47.5t65 134.5q0 40 -18.5 72.5t-56 57.5t-76.5 43t-97 38q-72 26 -119 45.5t-101.5 47.5t-87.5 57.5t-62.5 69t-42.5 89.5
t-13 111q0 164 123.5 273.5t323.5 109.5q188 0 317 -84.5t129 -206.5q0 -70 -38.5 -110.5t-98.5 -40.5q-67 0 -107.5 41.5t-40.5 95.5q0 33 15 63q-66 41 -178 41q-98 0 -154.5 -45t-56.5 -120q0 -32 13.5 -59.5t33.5 -47.5t55.5 -39.5t66.5 -32.5t78 -30
q59 -21 100.5 -37.5t89 -39.5t79.5 -45.5t63.5 -54t50 -66t30 -79.5t11.5 -98q0 -188 -131.5 -295t-343.5 -107zM551 1466l-70 68l226 307q51 64 112 64q42 0 71.5 -30.5t29.5 -74.5q0 -63 -64 -112z" />
    <glyph glyph-name="sacute" unicode="&#x15b;" horiz-adv-x="937" 
d="M831 698q0 -54 -30.5 -87t-79.5 -33q-55 0 -88 29.5t-33 80.5q0 27 4 39q-61 23 -127 23q-71 0 -110 -27.5t-39 -65.5q0 -37 41 -61t147 -53q90 -24 145.5 -44.5t103.5 -52t69.5 -74.5t21.5 -102q0 -135 -109.5 -211.5t-269.5 -76.5q-101 0 -200 31.5t-144 76.5
q-51 51 -51 121q0 50 33.5 85.5t85.5 35.5q49 0 85 -32t36 -87q0 -7 -5 -37q74 -29 162 -29q72 0 118 25t46 72q0 34 -37 57.5t-139 50.5q-196 52 -274 110t-78 169q0 54 22.5 103.5t65.5 90.5t115 65.5t163 24.5q84 0 170 -28.5t131 -73.5q49 -49 49 -115zM446 1006l-69 67
l225 307q51 64 113 64q41 0 70.5 -30.5t29.5 -74.5q0 -64 -63 -112z" />
    <glyph glyph-name="Scedilla" unicode="&#x15e;" horiz-adv-x="1136" 
d="M598 -410q-139 0 -256 70l35 68q100 -43 180 -43q36 0 58 14.5t22 38.5q0 8 -4.5 16t-16 17t-37.5 14.5t-63 5.5l-22 -2l-43 51l55 137q-179 15 -301.5 105.5t-122.5 206.5q0 72 39 116t102 44q65 0 106.5 -41t41.5 -93q0 -42 -19 -82q80 -57 213 -57q112 0 177 47.5
t65 134.5q0 40 -18.5 72.5t-56 57.5t-76.5 43t-97 38q-72 26 -119 45.5t-101.5 47.5t-87.5 57.5t-62.5 69t-42.5 89.5t-13 111q0 164 123.5 273.5t323.5 109.5q188 0 317 -84.5t129 -206.5q0 -70 -38.5 -110.5t-98.5 -40.5q-67 0 -107.5 41.5t-40.5 95.5q0 33 15 63
q-66 41 -178 41q-98 0 -154.5 -45t-56.5 -120q0 -32 13.5 -59.5t33.5 -47.5t55.5 -39.5t66.5 -32.5t78 -30q59 -21 100.5 -37.5t89 -39.5t79.5 -45.5t63.5 -54t50 -66t30 -79.5t11.5 -98q0 -178 -118 -283.5t-312 -116.5l8 -67q98 -12 158 -55t60 -109q0 -62 -65.5 -109
t-170.5 -47z" />
    <glyph glyph-name="scedilla" unicode="&#x15f;" horiz-adv-x="937" 
d="M479 -410q-139 0 -256 70l35 68q100 -43 180 -43q36 0 58 14.5t22 38.5q0 8 -4.5 16t-16 17t-37.5 14.5t-63 5.5l-22 -2l-43 51l59 148q-80 9 -151 37.5t-107 64.5q-51 51 -51 121q0 50 33.5 85.5t85.5 35.5q49 0 85 -32t36 -87q0 -7 -5 -37q74 -29 162 -29q72 0 118 25
t46 72q0 34 -37 57.5t-139 50.5q-196 52 -274 110t-78 169q0 54 22.5 103.5t65.5 90.5t115 65.5t163 24.5q84 0 170 -28.5t131 -73.5q49 -49 49 -115q0 -54 -30.5 -87t-79.5 -33q-55 0 -88 29.5t-33 80.5q0 27 4 39q-61 23 -127 23q-71 0 -110 -27.5t-39 -65.5q0 -37 41 -61
t147 -53q90 -24 145.5 -44.5t103.5 -52t69.5 -74.5t21.5 -102q0 -90 -51.5 -155.5t-133.5 -98t-184 -34.5l11 -72q98 -12 157.5 -55t59.5 -109q0 -62 -65.5 -109t-170.5 -47z" />
    <glyph glyph-name="Scaron" unicode="&#x160;" horiz-adv-x="1136" 
d="M563 -25q-130 0 -241.5 44t-175.5 116.5t-64 153.5q0 72 39 116t102 44q65 0 106.5 -41t41.5 -93q0 -42 -19 -82q80 -57 213 -57q112 0 177 47.5t65 134.5q0 40 -18.5 72.5t-56 57.5t-76.5 43t-97 38q-72 26 -119 45.5t-101.5 47.5t-87.5 57.5t-62.5 69t-42.5 89.5
t-13 111q0 164 123.5 273.5t323.5 109.5q188 0 317 -84.5t129 -206.5q0 -70 -38.5 -110.5t-98.5 -40.5q-67 0 -107.5 41.5t-40.5 95.5q0 33 15 63q-66 41 -178 41q-98 0 -154.5 -45t-56.5 -120q0 -32 13.5 -59.5t33.5 -47.5t55.5 -39.5t66.5 -32.5t78 -30
q59 -21 100.5 -37.5t89 -39.5t79.5 -45.5t63.5 -54t50 -66t30 -79.5t11.5 -98q0 -188 -131.5 -295t-343.5 -107zM840 1927l94 -108l-363 -361l-362 361l94 108l268 -196z" />
    <glyph glyph-name="scaron" unicode="&#x161;" horiz-adv-x="937" 
d="M831 698q0 -54 -30.5 -87t-79.5 -33q-55 0 -88 29.5t-33 80.5q0 27 4 39q-61 23 -127 23q-71 0 -110 -27.5t-39 -65.5q0 -37 41 -61t147 -53q90 -24 145.5 -44.5t103.5 -52t69.5 -74.5t21.5 -102q0 -135 -109.5 -211.5t-269.5 -76.5q-101 0 -200 31.5t-144 76.5
q-51 51 -51 121q0 50 33.5 85.5t85.5 35.5q49 0 85 -32t36 -87q0 -7 -5 -37q74 -29 162 -29q72 0 118 25t46 72q0 34 -37 57.5t-139 50.5q-196 52 -274 110t-78 169q0 54 22.5 103.5t65.5 90.5t115 65.5t163 24.5q84 0 170 -28.5t131 -73.5q49 -49 49 -115zM735 1466
l94 -108l-362 -361l-363 361l95 108l268 -196z" />
    <glyph glyph-name="Tcommaaccent" unicode="&#x162;" horiz-adv-x="1263" 
d="M348 0v207h168v940h-250v-213h-219v414h1170v-414h-220v213h-249v-940h167v-207h-567zM479 -641l-53 68q80 62 123.5 122.5t46.5 100.5q-47 12 -74.5 47.5t-27.5 85.5t39.5 87.5t95.5 37.5q62 0 103.5 -43t41.5 -121q0 -41 -15.5 -86.5t-48.5 -96.5t-92.5 -104
t-138.5 -98z" />
    <glyph glyph-name="tcommaaccent" unicode="&#x163;" horiz-adv-x="755" 
d="M465 -16q-178 0 -242 122q-30 55 -30 142v461h-175v188h175v188l221 97v-285h272v-188h-272v-418q0 -41 14 -66q24 -43 94 -43q76 0 176 47l-18 -192q-104 -53 -215 -53zM250 -641l-53 68q80 62 123.5 122.5t46.5 100.5q-47 12 -75 47.5t-28 85.5t39.5 87.5t95.5 37.5
q62 0 104 -43t42 -121q0 -41 -15.5 -86.5t-48.5 -96.5t-92.5 -104t-138.5 -98z" />
    <glyph glyph-name="Tcaron" unicode="&#x164;" horiz-adv-x="1263" 
d="M348 0v207h168v940h-250v-213h-219v414h1170v-414h-220v213h-249v-940h167v-207h-567zM897 1927l94 -108l-362 -361l-363 361l94 108l269 -196z" />
    <glyph glyph-name="tcaron" unicode="&#x165;" horiz-adv-x="755" 
d="M465 -16q-178 0 -242 122q-30 55 -30 142v461h-175v188h175v188l221 97v-285h272v-188h-272v-418q0 -41 14 -66q24 -43 94 -43q76 0 176 47l-18 -192q-104 -53 -215 -53zM543 985l-72 53q86 126 86 230q0 38 -19.5 91t-19.5 93q0 56 34.5 94.5t96.5 38.5q59 0 92 -38.5
t33 -104.5q0 -114 -66 -234.5t-165 -222.5z" />
    <glyph glyph-name="Umacron" unicode="&#x16a;" horiz-adv-x="1417" 
d="M711 -25q-233 0 -370.5 131.5t-137.5 385.5v649h-148v207h541v-207h-162v-637q0 -154 73 -236t204 -82q133 0 205.5 78t72.5 232v645h-162v207h535v-207h-148v-645q0 -256 -136 -388.5t-367 -132.5zM367 1534v182h684v-182h-684z" />
    <glyph glyph-name="umacron" unicode="&#x16b;" horiz-adv-x="1159" 
d="M444 -16q-161 0 -233 118q-45 73 -45 181v426h-133v188h356v-559q0 -52 19 -92q31 -60 110 -60q104 0 232 105v418h-140v188h363v-713h133v-184h-348v143q-77 -75 -150.5 -117t-163.5 -42zM207 1073v182h684v-182h-684z" />
    <glyph glyph-name="Ubreve" unicode="&#x16c;" horiz-adv-x="1417" 
d="M711 -25q-233 0 -370.5 131.5t-137.5 385.5v649h-148v207h541v-207h-162v-637q0 -154 73 -236t204 -82q133 0 205.5 78t72.5 232v645h-162v207h535v-207h-148v-645q0 -256 -136 -388.5t-367 -132.5zM705 1495q-128 0 -229 88t-148 268l141 56q43 -105 104.5 -158
t131.5 -53q69 0 130.5 53t104.5 158l141 -56q-47 -180 -147.5 -268t-228.5 -88z" />
    <glyph glyph-name="ubreve" unicode="&#x16d;" horiz-adv-x="1159" 
d="M444 -16q-161 0 -233 118q-45 73 -45 181v426h-133v188h356v-559q0 -52 19 -92q31 -60 110 -60q104 0 232 105v418h-140v188h363v-713h133v-184h-348v143q-77 -75 -150.5 -117t-163.5 -42zM545 1034q-128 0 -229 88.5t-148 268.5l141 55q43 -105 104.5 -158t131.5 -53
q69 0 130.5 53t104.5 158l142 -55q-47 -180 -148 -268.5t-229 -88.5z" />
    <glyph glyph-name="Uring" unicode="&#x16e;" horiz-adv-x="1417" 
d="M711 -25q-233 0 -370.5 131.5t-137.5 385.5v649h-148v207h541v-207h-162v-637q0 -154 73 -236t204 -82q133 0 205.5 78t72.5 232v645h-162v207h535v-207h-148v-645q0 -256 -136 -388.5t-367 -132.5zM709 1456q-116 0 -195.5 76.5t-79.5 189.5q0 114 79.5 190.5
t195.5 76.5t195 -76.5t79 -190.5t-79 -190t-195 -76zM709 1602q46 0 76 35.5t30 84.5t-30 85t-76 36t-76.5 -36t-30.5 -85t30.5 -84.5t76.5 -35.5z" />
    <glyph glyph-name="uring" unicode="&#x16f;" horiz-adv-x="1159" 
d="M444 -16q-161 0 -233 118q-45 73 -45 181v426h-133v188h356v-559q0 -52 19 -92q31 -60 110 -60q104 0 232 105v418h-140v188h363v-713h133v-184h-348v143q-77 -75 -150.5 -117t-163.5 -42zM549 995q-116 0 -195.5 76.5t-79.5 190.5q0 113 79.5 189.5t195.5 76.5t195 -76
t79 -190t-79 -190.5t-195 -76.5zM549 1141q46 0 76 36t30 85t-30 84.5t-76 35.5t-76.5 -35.5t-30.5 -84.5t30.5 -85t76.5 -36z" />
    <glyph glyph-name="Uhungarumlaut" unicode="&#x170;" horiz-adv-x="1417" 
d="M711 -25q-233 0 -370.5 131.5t-137.5 385.5v649h-148v207h541v-207h-162v-637q0 -154 73 -236t204 -82q133 0 205.5 78t72.5 232v645h-162v207h535v-207h-148v-645q0 -256 -136 -388.5t-367 -132.5zM420 1470l-51 72l299 293q57 57 110 57q45 0 76 -31t31 -73
q0 -79 -90 -127zM866 1470l-45 74l334 297q55 49 109 49q44 0 73 -31t29 -75q0 -77 -92 -123z" />
    <glyph glyph-name="uhungarumlaut" unicode="&#x171;" horiz-adv-x="1159" 
d="M444 -16q-161 0 -233 118q-45 73 -45 181v426h-133v188h356v-559q0 -52 19 -92q31 -60 110 -60q104 0 232 105v418h-140v188h363v-713h133v-184h-348v143q-77 -75 -150.5 -117t-163.5 -42zM260 1010l-51 71l299 293q58 58 110 58q45 0 76 -31.5t31 -73.5q0 -79 -90 -127z
M707 1010l-45 73l333 297q56 50 109 50q43 0 72.5 -31.5t29.5 -75.5q0 -77 -92 -123z" />
    <glyph glyph-name="Uogonek" unicode="&#x172;" horiz-adv-x="1417" 
d="M770 -412q-111 0 -172 58t-61 153q0 105 81 183q-193 24 -304 153.5t-111 356.5v649h-148v207h541v-207h-162v-637q0 -154 73 -236t204 -82q133 0 205.5 78t72.5 232v645h-162v207h535v-207h-148v-645q0 -231 -112.5 -361t-306.5 -153q-72 -59 -72 -127q0 -95 106 -95
q79 0 144 35l-10 -162q-30 -19 -82.5 -32t-110.5 -13z" />
    <glyph glyph-name="uogonek" unicode="&#x173;" horiz-adv-x="1159" 
d="M879 -412q-111 0 -172.5 58t-61.5 153q0 122 113 207v137q-77 -75 -150.5 -117t-163.5 -42q-161 0 -233 118q-45 73 -45 181v426h-133v188h356v-559q0 -52 19 -92q31 -60 110 -60q104 0 232 105v418h-140v188h363v-713h133v-184h-176q-99 -65 -99 -145q0 -95 107 -95
q78 0 143 35l-10 -162q-72 -45 -192 -45z" />
    <glyph glyph-name="Wcircumflex" unicode="&#x174;" horiz-adv-x="2093" 
d="M559 -14l-369 1155h-143v207h574v-207h-179l220 -709l333 785h123l334 -785l205 709h-184v207h573v-207h-143l-363 -1155h-129l-360 829l-363 -829h-129zM778 1473l-94 108l363 361l362 -361l-94 -108l-268 196z" />
    <glyph glyph-name="wcircumflex" unicode="&#x175;" horiz-adv-x="1486" 
d="M362 -35l-221 744h-131v188h461v-184h-127l123 -441l211 533h153l209 -533l123 441h-147v184h461v-188h-131l-222 -744h-157l-224 549l-223 -549h-158zM475 1012l-94 108l362 361l363 -361l-94 -108l-269 196z" />
    <glyph glyph-name="Ycircumflex" unicode="&#x176;" horiz-adv-x="1320" 
d="M375 0v207h170v307l-383 627h-135v207h510v-207h-119l248 -432l245 432h-127v207h510v-207h-135l-383 -627v-307h170v-207h-571zM391 1473l-94 108l362 361l363 -361l-94 -108l-269 196z" />
    <glyph glyph-name="ycircumflex" unicode="&#x177;" horiz-adv-x="1089" 
d="M481 -291q-102 -117 -237 -117q-86 0 -139.5 42.5t-53.5 99.5q0 54 32 84t79 30q71 0 98 -67q40 10 72 53q19 24 41 70l67 141l-319 664h-111v188h463v-178h-131l207 -473l209 473h-140v178h461v-188h-108l-420 -891q-32 -65 -70 -109zM276 1012l-94 108l363 361
l362 -361l-94 -108l-268 196z" />
    <glyph glyph-name="Ydieresis" unicode="&#x178;" horiz-adv-x="1320" 
d="M375 0v207h170v307l-383 627h-135v207h510v-207h-119l248 -432l245 432h-127v207h510v-207h-135l-383 -627v-307h170v-207h-571zM868 1495q-60 0 -103.5 43t-43.5 104t45 104.5t106 43.5q60 0 104 -43.5t44 -104.5t-45.5 -104t-106.5 -43zM446 1495q-60 0 -103.5 43
t-43.5 104t45.5 104.5t106.5 43.5q60 0 103.5 -43.5t43.5 -104.5t-45.5 -104t-106.5 -43z" />
    <glyph glyph-name="Zacute" unicode="&#x179;" horiz-adv-x="1280" 
d="M90 0v131l762 1022h-524v-225h-197v420h1047v-131l-762 -1022h579v225h195v-420h-1100zM616 1466l-69 68l225 307q51 64 113 64q41 0 70.5 -30.5t29.5 -74.5q0 -64 -63 -112z" />
    <glyph glyph-name="zacute" unicode="&#x17a;" horiz-adv-x="948" 
d="M59 0v131l541 590h-317v-166h-191v342h787v-129l-541 -590h362v166h189v-344h-830zM451 1006l-70 67l225 307q51 64 113 64q41 0 70.5 -30.5t29.5 -74.5q0 -64 -63 -112z" />
    <glyph glyph-name="Zdotaccent" unicode="&#x17b;" horiz-adv-x="1280" 
d="M90 0v131l762 1022h-524v-225h-197v420h1047v-131l-762 -1022h579v225h195v-420h-1100zM637 1475q-60 0 -104 43t-44 104t45.5 104t106.5 43q60 0 103.5 -43t43.5 -104t-45 -104t-106 -43z" />
    <glyph glyph-name="zdotaccent" unicode="&#x17c;" horiz-adv-x="948" 
d="M59 0v131l541 590h-317v-166h-191v342h787v-129l-541 -590h362v166h189v-344h-830zM471 1014q-60 0 -103.5 43t-43.5 104t45 104.5t106 43.5q60 0 104 -43.5t44 -104.5t-45.5 -104t-106.5 -43z" />
    <glyph glyph-name="Zcaron" unicode="&#x17d;" horiz-adv-x="1280" 
d="M90 0v131l762 1022h-524v-225h-197v420h1047v-131l-762 -1022h579v225h195v-420h-1100zM905 1927l94 -108l-362 -361l-363 361l95 108l268 -196z" />
    <glyph glyph-name="zcaron" unicode="&#x17e;" horiz-adv-x="948" 
d="M59 0v131l541 590h-317v-166h-191v342h787v-129l-541 -590h362v166h189v-344h-830zM739 1466l95 -108l-363 -361l-362 361l94 108l268 -196z" />
    <glyph glyph-name="Aringacute" unicode="&#x1fa;" horiz-adv-x="1425" 
d="M987 1516q0 -96 -72 -168h179v-205h-148l336 -936h117v-207h-518v205h155l-75 221h-504l-76 -221h164v-205h-518v207h116l336 936h-147v205h182q-34 34 -55 80.5t-21 87.5q0 106 79.5 178.5t195.5 72.5q115 0 194.5 -72.5t79.5 -178.5zM520 618h377l-188 531zM713 1380
q46 0 76 36t30 85t-30 85t-76 36t-76.5 -36t-30.5 -85t30.5 -85t76.5 -36zM707 1860l-70 67l225 307q51 64 113 64q41 0 70.5 -30.5t29.5 -74.5q0 -64 -63 -112z" />
    <glyph glyph-name="aringacute" unicode="&#x1fb;" horiz-adv-x="1042" 
d="M362 -16q-123 0 -206.5 66t-83.5 186q0 125 99 197.5t261 72.5q125 0 227 -25v72q0 80 -34 123q-51 65 -176 65q-54 0 -89 -14q9 -27 9 -45q0 -51 -35 -84t-86 -33q-52 0 -85.5 33t-33.5 88q0 92 92.5 159.5t263.5 67.5q225 0 322 -120q70 -85 70 -226v-383h133v-184
h-346v98q-59 -50 -138 -82t-164 -32zM434 145q114 0 225 80v142q-85 20 -184 20q-82 0 -128 -34.5t-46 -96.5q0 -53 36 -82t97 -29zM520 995q-116 0 -195 76.5t-79 190.5t79 190t195 76t195.5 -76.5t79.5 -189.5q0 -114 -79.5 -190.5t-195.5 -76.5zM520 1141q46 0 76.5 36
t30.5 85t-30.5 84.5t-76.5 35.5t-76 -35.5t-30 -84.5t30 -85t76 -36zM514 1620l-70 68l226 307q50 63 112 63q42 0 71.5 -30t29.5 -74q0 -64 -64 -113z" />
    <glyph glyph-name="AEacute" unicode="&#x1fc;" horiz-adv-x="1871" 
d="M6 0v207h170l451 934h-170v207h1315v-385h-222v180h-399v-361h408v-196h-408v-381h401v180h222v-385h-1008v207h154v219h-414l-105 -221h144v-205h-539zM596 618h324v531h-76zM1012 1466l-70 68l225 307q51 64 113 64q41 0 70.5 -30.5t29.5 -74.5q0 -64 -63 -112z" />
    <glyph glyph-name="aeacute" unicode="&#x1fd;" horiz-adv-x="1587" 
d="M449 741q-54 0 -89 -14q9 -27 9 -45q0 -51 -35 -84t-86 -33q-52 0 -85.5 33t-33.5 88q0 92 92.5 159.5t263.5 67.5q170 0 254 -104q25 -32 35 -61q116 165 334 165q193 0 304.5 -122.5t111.5 -307.5q0 -53 -11 -110h-647q23 -101 100.5 -151t194.5 -50q160 0 326 94
l-19 -200q-140 -82 -319 -82q-129 0 -231.5 45t-167.5 129q-77 -83 -183 -128.5t-184 -45.5q-137 0 -224 65.5t-87 186.5q0 125 99 197.5t261 72.5q125 0 227 -25v72q0 82 -34 125q-50 63 -176 63zM774 1006l-69 67l225 307q51 64 112 64q42 0 71.5 -30.5t29.5 -74.5
q0 -63 -64 -112zM444 145q51 0 116 29.5t128 89.5q-22 65 -29 109q-115 14 -184 14q-82 0 -128 -34.5t-46 -96.5q0 -54 37.5 -82.5t105.5 -28.5zM1085 733q-80 0 -141.5 -50.5t-79.5 -154.5h436q-3 93 -60.5 149t-154.5 56z" />
    <glyph glyph-name="Oslashacute" unicode="&#x1fe;" horiz-adv-x="1570" 
d="M780 -25q-212 0 -374 109l-158 -182l-148 131l156 182q-162 195 -162 459q0 196 88 355t248 251t361 92q217 0 391 -121l164 191l147 -131l-168 -193q152 -196 152 -444q0 -196 -88 -355.5t-248 -251.5t-361 -92zM334 674q0 -183 88 -307l622 716q-113 74 -258 74
q-197 0 -324.5 -135.5t-127.5 -347.5zM786 190q196 0 323.5 136t127.5 348q0 166 -76 287l-618 -707q106 -64 243 -64zM770 1466l-70 68l226 307q51 64 112 64q42 0 71.5 -30.5t29.5 -74.5q0 -63 -64 -112z" />
    <glyph glyph-name="oslashacute" unicode="&#x1ff;" horiz-adv-x="1093" 
d="M547 -16q-121 0 -225 49l-101 -121l-137 113l98 116q-112 127 -112 308q0 124 57 229t167.5 170t252.5 65q124 0 235 -57l107 127l137 -113l-106 -127q104 -125 104 -294q0 -124 -57 -229t-167.5 -170.5t-252.5 -65.5zM524 1006l-69 67l225 307q51 64 113 64
q41 0 70.5 -30.5t29.5 -74.5q0 -63 -64 -112zM299 449q0 -99 35 -164l334 415q-59 27 -121 27q-109 0 -178.5 -77.5t-69.5 -200.5zM547 170q109 0 178.5 78t69.5 201q0 84 -29 147l-332 -406q47 -20 113 -20z" />
    <glyph glyph-name="Scommaaccent" unicode="&#x218;" horiz-adv-x="1136" 
d="M563 -25q-130 0 -241.5 44t-175.5 116.5t-64 153.5q0 72 39 116t102 44q65 0 106.5 -41t41.5 -93q0 -42 -19 -82q80 -57 213 -57q112 0 177 47.5t65 134.5q0 40 -18.5 72.5t-56 57.5t-76.5 43t-97 38q-72 26 -119 45.5t-101.5 47.5t-87.5 57.5t-62.5 69t-42.5 89.5
t-13 111q0 164 123.5 273.5t323.5 109.5q188 0 317 -84.5t129 -206.5q0 -70 -38.5 -110.5t-98.5 -40.5q-67 0 -107.5 41.5t-40.5 95.5q0 33 15 63q-66 41 -178 41q-98 0 -154.5 -45t-56.5 -120q0 -32 13.5 -59.5t33.5 -47.5t55.5 -39.5t66.5 -32.5t78 -30
q59 -21 100.5 -37.5t89 -39.5t79.5 -45.5t63.5 -54t50 -66t30 -79.5t11.5 -98q0 -188 -131.5 -295t-343.5 -107zM422 -641l-53 68q80 62 123.5 122.5t46.5 100.5q-47 12 -75 47.5t-28 85.5t39.5 87.5t95.5 37.5q62 0 104 -43t42 -121q0 -41 -15.5 -86.5t-48.5 -96.5
t-92.5 -104t-138.5 -98z" />
    <glyph glyph-name="scommaaccent" unicode="&#x219;" horiz-adv-x="937" 
d="M831 698q0 -54 -30.5 -87t-79.5 -33q-55 0 -88 29.5t-33 80.5q0 27 4 39q-61 23 -127 23q-71 0 -110 -27.5t-39 -65.5q0 -37 41 -61t147 -53q90 -24 145.5 -44.5t103.5 -52t69.5 -74.5t21.5 -102q0 -135 -109.5 -211.5t-269.5 -76.5q-101 0 -200 31.5t-144 76.5
q-51 51 -51 121q0 50 33.5 85.5t85.5 35.5q49 0 85 -32t36 -87q0 -7 -5 -37q74 -29 162 -29q72 0 118 25t46 72q0 34 -37 57.5t-139 50.5q-196 52 -274 110t-78 169q0 54 22.5 103.5t65.5 90.5t115 65.5t163 24.5q84 0 170 -28.5t131 -73.5q49 -49 49 -115zM317 -641l-53 68
q80 62 123.5 122.5t46.5 100.5q-47 12 -74.5 47.5t-27.5 85.5t39.5 87.5t95.5 37.5q62 0 103.5 -43t41.5 -121q0 -41 -15.5 -86.5t-48.5 -96.5t-92.5 -104t-138.5 -98z" />
    <glyph glyph-name="schwa" unicode="&#x259;" horiz-adv-x="1024" 
d="M500 -16q-207 0 -322 121.5t-115 308.5q0 53 11 110h647q-24 100 -102.5 150.5t-192.5 50.5q-160 0 -326 -94l19 200q140 82 340 82q221 0 358 -127t137 -335q0 -127 -55 -233t-160 -170t-239 -64zM502 164q80 0 142 50t79 155h-436q3 -93 60.5 -149t154.5 -56z" />
    <glyph glyph-name="circumflex" unicode="&#x2c6;" horiz-adv-x="786" 
d="M125 1012l-94 108l362 361l363 -361l-94 -108l-269 196z" />
    <glyph glyph-name="caron" unicode="&#x2c7;" horiz-adv-x="786" 
d="M662 1466l94 -108l-363 -361l-362 361l94 108l268 -196z" />
    <glyph glyph-name="breve" unicode="&#x2d8;" horiz-adv-x="815" 
d="M408 1034q-128 0 -229 88.5t-148 268.5l141 55q43 -105 104.5 -158t131.5 -53q69 0 130.5 53t104.5 158l141 -55q-47 -180 -147.5 -268.5t-228.5 -88.5z" />
    <glyph glyph-name="dotaccent" unicode="&#x2d9;" horiz-adv-x="380" 
d="M188 1014q-60 0 -103.5 43t-43.5 104t45.5 104.5t106.5 43.5q60 0 103.5 -43.5t43.5 -104.5t-45.5 -104t-106.5 -43z" />
    <glyph glyph-name="ring" unicode="&#x2da;" horiz-adv-x="630" 
d="M315 995q-116 0 -195 76.5t-79 190.5t79 190t195 76t195.5 -76.5t79.5 -189.5q0 -114 -79.5 -190.5t-195.5 -76.5zM315 1141q46 0 76.5 36t30.5 85t-30.5 84.5t-76.5 35.5t-76 -35.5t-30 -84.5t30 -85t76 -36z" />
    <glyph glyph-name="ogonek" unicode="&#x2db;" horiz-adv-x="436" 
d="M233 -412q-111 0 -172 58t-61 153t65 163t179 126l186 -20q-107 -35 -175.5 -90.5t-68.5 -122.5q0 -95 107 -95q78 0 143 35l-10 -162q-30 -19 -82.5 -32t-110.5 -13z" />
    <glyph glyph-name="tilde" unicode="&#x2dc;" horiz-adv-x="868" 
d="M594 1036q-99 0 -182 76q-77 68 -123 68q-37 0 -63 -30t-44 -101l-151 38q17 143 86 226.5t157 83.5q100 0 183 -76q77 -68 123 -68q37 0 62.5 30t43.5 101l152 -38q-17 -143 -86.5 -226.5t-157.5 -83.5z" />
    <glyph glyph-name="hungarumlaut" unicode="&#x2dd;" horiz-adv-x="1038" 
d="M51 1010l-51 71l299 293q58 58 111 58q45 0 75.5 -31.5t30.5 -73.5q0 -79 -90 -127zM498 1010l-45 73l333 297q56 50 109 50q43 0 72.5 -31.5t29.5 -75.5q0 -77 -92 -123z" />
    <glyph glyph-name="commaaccent" unicode="&#x326;" horiz-adv-x="348" 
d="M53 -641l-53 68q80 62 123.5 122.5t46.5 100.5q-47 12 -74.5 47.5t-27.5 85.5t39.5 87.5t95.5 37.5q62 0 103.5 -43t41.5 -121q0 -41 -15.5 -86.5t-48.5 -96.5t-92.5 -104t-138.5 -98z" />
    <glyph glyph-name="Wgrave" unicode="&#x1e80;" horiz-adv-x="2093" 
d="M559 -14l-369 1155h-143v207h574v-207h-179l220 -709l333 785h123l334 -785l205 709h-184v207h573v-207h-143l-363 -1155h-129l-360 829l-363 -829h-129zM1069 1466l-305 222q-64 49 -64 112q0 44 29.5 74.5t71.5 30.5q61 0 112 -64l226 -307z" />
    <glyph glyph-name="wgrave" unicode="&#x1e81;" horiz-adv-x="1486" 
d="M362 -35l-221 744h-131v188h461v-184h-127l123 -441l211 533h153l209 -533l123 441h-147v184h461v-188h-131l-222 -744h-157l-224 549l-223 -549h-158zM766 1006l-305 221q-64 49 -64 112q0 44 29.5 74.5t71.5 30.5q61 0 112 -64l226 -307z" />
    <glyph glyph-name="Wacute" unicode="&#x1e82;" horiz-adv-x="2093" 
d="M559 -14l-369 1155h-143v207h574v-207h-179l220 -709l333 785h123l334 -785l205 709h-184v207h573v-207h-143l-363 -1155h-129l-360 829l-363 -829h-129zM1024 1466l-70 68l226 307q51 64 112 64q42 0 71.5 -30.5t29.5 -74.5q0 -63 -64 -112z" />
    <glyph glyph-name="wacute" unicode="&#x1e83;" horiz-adv-x="1486" 
d="M362 -35l-221 744h-131v188h461v-184h-127l123 -441l211 533h153l209 -533l123 441h-147v184h461v-188h-131l-222 -744h-157l-224 549l-223 -549h-158zM721 1006l-70 67l226 307q51 64 112 64q42 0 71.5 -30.5t29.5 -74.5q0 -63 -64 -112z" />
    <glyph glyph-name="Wdieresis" unicode="&#x1e84;" horiz-adv-x="2093" 
d="M559 -14l-369 1155h-143v207h574v-207h-179l220 -709l333 785h123l334 -785l205 709h-184v207h573v-207h-143l-363 -1155h-129l-360 829l-363 -829h-129zM1255 1495q-60 0 -103.5 43t-43.5 104t45.5 104.5t106.5 43.5q60 0 103.5 -43.5t43.5 -104.5t-45.5 -104
t-106.5 -43zM834 1495q-60 0 -104 43t-44 104t45.5 104.5t106.5 43.5q60 0 103.5 -43.5t43.5 -104.5t-45 -104t-106 -43z" />
    <glyph glyph-name="wdieresis" unicode="&#x1e85;" horiz-adv-x="1486" 
d="M362 -35l-221 744h-131v188h461v-184h-127l123 -441l211 533h153l209 -533l123 441h-147v184h461v-188h-131l-222 -744h-157l-224 549l-223 -549h-158zM952 1034q-60 0 -103.5 43.5t-43.5 104.5t45 104t106 43q60 0 104 -43t44 -104t-45.5 -104.5t-106.5 -43.5zM530 1034
q-60 0 -103.5 43.5t-43.5 104.5t45.5 104t106.5 43q60 0 103.5 -43t43.5 -104t-45.5 -104.5t-106.5 -43.5z" />
    <glyph glyph-name="Ygrave" unicode="&#x1ef2;" horiz-adv-x="1320" 
d="M375 0v207h170v307l-383 627h-135v207h510v-207h-119l248 -432l245 432h-127v207h510v-207h-135l-383 -627v-307h170v-207h-571zM682 1466l-305 222q-64 49 -64 112q0 44 29.5 74.5t71.5 30.5q61 0 112 -64l226 -307z" />
    <glyph glyph-name="ygrave" unicode="&#x1ef3;" horiz-adv-x="1089" 
d="M481 -291q-102 -117 -237 -117q-86 0 -139.5 42.5t-53.5 99.5q0 54 32 84t79 30q71 0 98 -67q40 10 72 53q19 24 41 70l67 141l-319 664h-111v188h463v-178h-131l207 -473l209 473h-140v178h461v-188h-108l-420 -891q-32 -65 -70 -109zM567 1006l-305 221q-63 48 -63 112
q0 44 29.5 74.5t70.5 30.5q62 0 113 -64l225 -307z" />
    <glyph glyph-name="enspace" unicode="&#x2002;" horiz-adv-x="1024" 
 />
    <glyph glyph-name="emspace" unicode="&#x2003;" horiz-adv-x="2048" 
 />
    <glyph glyph-name="threeperemspace" unicode="&#x2004;" horiz-adv-x="681" 
 />
    <glyph glyph-name="fourperemspace" unicode="&#x2005;" horiz-adv-x="512" 
 />
    <glyph glyph-name="figurespace" unicode="&#x2007;" 
 />
    <glyph glyph-name="thinspace" unicode="&#x2009;" horiz-adv-x="272" 
 />
    <glyph glyph-name="hairspace" unicode="&#x200a;" horiz-adv-x="153" 
 />
    <glyph glyph-name="endash" unicode="&#x2013;" horiz-adv-x="1165" 
d="M45 475v209h1075v-209h-1075z" />
    <glyph glyph-name="emdash" unicode="&#x2014;" horiz-adv-x="1751" 
d="M45 475v209h1661v-209h-1661z" />
    <glyph glyph-name="quoteleft" unicode="&#x2018;" horiz-adv-x="499" 
d="M236 741q-70 0 -118 50t-48 141q0 65 30 136t109.5 156t200.5 154l61 -80q-92 -73 -143 -142.5t-54 -115.5q55 -15 87 -55t32 -96q0 -59 -46 -103.5t-111 -44.5z" />
    <glyph glyph-name="quoteright" unicode="&#x2019;" horiz-adv-x="499" 
d="M90 735l-61 80q92 72 142.5 142t53.5 116q-55 15 -87 55.5t-32 96.5q0 59 46.5 103t111.5 44q70 0 118 -49.5t48 -140.5q0 -65 -30 -136t-109.5 -156.5t-200.5 -154.5z" />
    <glyph glyph-name="quotesinglbase" unicode="&#x201a;" horiz-adv-x="544" 
d="M86 -354l-66 84q98 78 152 151.5t57 122.5q-58 15 -92.5 58t-34.5 104q0 62 50 109t118 47q75 0 125.5 -53t50.5 -150q0 -110 -87 -237.5t-273 -235.5z" />
    <glyph glyph-name="quotedblleft" unicode="&#x201c;" horiz-adv-x="972" 
d="M709 741q-70 0 -118 50t-48 141q0 65 30 136t109.5 156t200.5 154l61 -80q-92 -72 -142.5 -142t-53.5 -116q55 -15 86.5 -55t31.5 -96q0 -59 -46 -103.5t-111 -44.5zM236 741q-70 0 -118 50t-48 141q0 65 30 136t109.5 156t200.5 154l61 -80q-92 -73 -143 -142.5
t-54 -115.5q55 -15 87 -55t32 -96q0 -59 -46 -103.5t-111 -44.5z" />
    <glyph glyph-name="quotedblright" unicode="&#x201d;" horiz-adv-x="972" 
d="M563 735l-61 80q92 72 142.5 142t53.5 116q-55 15 -86.5 55.5t-31.5 96.5q0 59 46 103t111 44q70 0 118 -49.5t48 -140.5q0 -65 -30 -136t-109.5 -156.5t-200.5 -154.5zM90 735l-61 80q92 72 142.5 142t53.5 116q-55 15 -87 55.5t-32 96.5q0 59 46.5 103t111.5 44
q70 0 118 -49.5t48 -140.5q0 -65 -30 -136t-109.5 -156.5t-200.5 -154.5z" />
    <glyph glyph-name="quotedblbase" unicode="&#x201e;" horiz-adv-x="1013" 
d="M563 -338l-61 80q92 72 142.5 142t53.5 116q-55 15 -86.5 55.5t-31.5 96.5q0 59 46 103t111 44q70 0 118 -49.5t48 -140.5q0 -228 -340 -447zM90 -338l-61 80q92 72 142.5 142t53.5 116q-55 15 -87 55.5t-32 96.5q0 59 46.5 103t111.5 44q70 0 118 -49.5t48 -140.5
q0 -228 -340 -447z" />
    <glyph glyph-name="dagger" unicode="&#x2020;" horiz-adv-x="1052" 
d="M475 -4l-51 762l-139 14q-7 -51 -43 -82t-80 -31q-51 0 -87 36t-36 87q0 64 48.5 105t125.5 41q34 0 70 -8l186 -39l-61 295q-13 62 25 106.5t93 44.5t93.5 -44.5t25.5 -106.5l-61 -295l186 39q36 8 70 8q77 0 125.5 -41t48.5 -105q0 -51 -36 -87t-87 -36q-44 0 -80 31
t-43 82l-139 -14l-51 -762h-103z" />
    <glyph glyph-name="daggerdbl" unicode="&#x2021;" horiz-adv-x="1114" 
d="M557 -262q-58 0 -92 48t-16 120l61 258l-180 -33q-30 -6 -58 -6q-76 0 -125 35t-49 100q0 49 33.5 81t81.5 32q45 0 79 -29.5t38 -83.5l125 8l45 264l-45 265l-125 8q-4 -54 -38 -83.5t-79 -29.5q-48 0 -81.5 32t-33.5 81q0 65 49 100t125 35q28 0 58 -6l180 -33l-61 258
q-18 75 15.5 121.5t92.5 46.5t93 -47.5t16 -120.5l-62 -258l180 33q30 6 58 6q76 0 125 -35t49 -100q0 -49 -33.5 -81t-81.5 -32q-45 0 -79 29.5t-38 83.5l-125 -8l-45 -265l45 -264l125 -8q4 54 38 83.5t79 29.5q48 0 81.5 -32t33.5 -81q0 -65 -49 -100t-125 -35
q-28 0 -58 6l-180 33l62 -258q18 -73 -16 -120.5t-93 -47.5z" />
    <glyph glyph-name="bullet" unicode="&#x2022;" horiz-adv-x="704" 
d="M352 305q-109 0 -185.5 78t-76.5 188q0 111 77 190t185 79t185 -79t77 -190q0 -110 -76.5 -188t-185.5 -78z" />
    <glyph glyph-name="ellipsis" unicode="&#x2026;" horiz-adv-x="1400" 
d="M1171 -16q-66 0 -111.5 45.5t-45.5 111.5t45.5 112t111.5 46t112 -46t46 -112t-46 -111.5t-112 -45.5zM700 -16q-66 0 -111.5 45.5t-45.5 111.5t45.5 112t111.5 46t112 -46t46 -112t-46 -111.5t-112 -45.5zM229 -16q-66 0 -111.5 45.5t-45.5 111.5t45.5 112t111.5 46
t112 -46t46 -112t-46 -111.5t-112 -45.5z" />
    <glyph glyph-name="perthousand" unicode="&#x2030;" horiz-adv-x="2050" 
d="M373 559q-113 0 -194 78t-81 188t81 188.5t194 78.5t193.5 -78.5t80.5 -188.5t-80.5 -188t-193.5 -78zM266 -31l-86 84q249 249 504 516q234 245 485 537l86 -84q-312 -312 -505 -514q-206 -215 -484 -539zM373 698q49 0 79.5 34.5t30.5 88.5q0 55 -30.5 91t-79.5 36
t-80 -36t-31 -91q0 -54 31 -88.5t80 -34.5zM1063 -16q-113 0 -194 78t-81 188t81 188t194 78t193.5 -78t80.5 -188t-80.5 -188t-193.5 -78zM1063 123q49 0 80 34.5t31 88.5q0 55 -31 91t-80 36t-80 -36t-31 -91q0 -54 31 -88.5t80 -34.5zM1677 -16q-113 0 -193.5 78
t-80.5 188t80.5 188t193.5 78t194 -78t81 -188t-81 -188t-194 -78zM1677 123q49 0 80 34.5t31 88.5q0 55 -31 91t-80 36t-79.5 -36t-30.5 -91q0 -54 30.5 -88.5t79.5 -34.5z" />
    <glyph glyph-name="guilsinglleft" unicode="&#x2039;" horiz-adv-x="665" 
d="M457 186l-408 392l408 391l133 -133l-250 -258l250 -259z" />
    <glyph glyph-name="guilsinglright" unicode="&#x203a;" horiz-adv-x="665" 
d="M209 186l-133 133l250 259l-250 258l133 133l407 -391z" />
    <glyph glyph-name="fraction" unicode="&#x2044;" horiz-adv-x="1024" 
d="M162 -33l-101 66q214 329 410 647q88 141 208.5 351t178.5 317l100 -66q-165 -254 -409 -647q-89 -144 -210.5 -355.5t-176.5 -312.5z" />
    <glyph glyph-name="zero.sup" unicode="&#x2070;" horiz-adv-x="722" 
d="M360 866q-136 0 -219.5 105.5t-83.5 273.5q0 173 84 279t221 106q135 0 219.5 -105.5t84.5 -275.5q0 -173 -84.5 -278t-221.5 -105zM360 1001q70 0 111 68.5t41 175.5q0 110 -41 180t-111 70q-69 0 -109 -69.5t-40 -176.5q0 -109 40 -178.5t109 -69.5z" />
    <glyph glyph-name="four.sup" unicode="&#x2074;" horiz-adv-x="722" 
d="M283 885v106h139v107h-332l-47 86l399 473l105 -84l-338 -375h213v119l125 49v-156h112v-118h-112v-97h84v-110h-348z" />
    <glyph glyph-name="five.sup" unicode="&#x2075;" horiz-adv-x="722" 
d="M352 866q-134 0 -203 48t-69 108q0 41 23 65.5t65 24.5t66 -25.5t24 -58.5q0 -17 -4 -29q56 -8 82 -8q76 0 119 35.5t43 97.5q0 55 -39.5 88t-110.5 33q-88 0 -166 -33l-69 39l34 371h445v-133h-326l-10 -127q38 10 100 10q121 0 202 -68t81 -180q0 -111 -81 -184.5
t-206 -73.5z" />
    <glyph glyph-name="six.sup" unicode="&#x2076;" horiz-adv-x="722" 
d="M612 1489q0 -39 -23.5 -61.5t-60.5 -22.5q-42 0 -63 25t-21 57q0 12 2 18q-36 6 -47 6q-72 0 -126.5 -65.5t-57.5 -153.5q70 60 164 60q116 0 191 -67.5t75 -168.5q0 -106 -79 -178t-201 -72q-119 0 -201 82q-51 51 -71.5 119t-20.5 170q0 171 93 285t234 114
q115 0 174 -59q39 -39 39 -88zM367 991q56 0 94.5 36.5t38.5 84.5q0 53 -36 84t-102 31q-60 0 -99.5 -32t-39.5 -81q0 -57 43 -92q43 -31 101 -31z" />
    <glyph glyph-name="seven.sup" unicode="&#x2077;" horiz-adv-x="722" 
d="M193 881l305 620h-275v-153h-129v274h529l39 -86l-308 -655h-161z" />
    <glyph glyph-name="eight.sup" unicode="&#x2078;" horiz-adv-x="722" 
d="M360 868q-135 0 -214.5 61t-79.5 142q0 61 41 111.5t129 79.5q-152 42 -152 168q0 80 77.5 141t198.5 61q120 0 199.5 -61t79.5 -141q0 -126 -156 -168q90 -29 132 -80t42 -111q0 -80 -81.5 -141.5t-215.5 -61.5zM360 1311q49 0 85 28.5t36 71.5q0 45 -34.5 71.5
t-86.5 26.5q-53 0 -86.5 -26.5t-33.5 -71.5q0 -44 35 -72t85 -28zM360 995q61 0 100.5 31t39.5 72q0 43 -39 73.5t-101 30.5q-64 0 -101.5 -30.5t-37.5 -73.5q0 -42 38.5 -72.5t100.5 -30.5z" />
    <glyph glyph-name="nine.sup" unicode="&#x2079;" horiz-adv-x="722" 
d="M111 1014q0 39 23.5 61.5t60.5 22.5q42 0 63 -25t21 -57q0 -4 -1.5 -11t-1.5 -8q18 -6 48 -6q72 0 126.5 64.5t57.5 152.5q-73 -57 -164 -57q-116 0 -191 67t-75 168q0 106 79 178t201 72q119 0 201 -82q51 -51 71.5 -118.5t20.5 -169.5q0 -171 -93 -285.5t-234 -114.5
q-114 0 -174 60q-39 39 -39 88zM356 1511q-56 0 -94.5 -36t-38.5 -84q0 -54 35.5 -84.5t101.5 -30.5q60 0 100 32t40 81q0 57 -43 92q-42 30 -101 30z" />
    <glyph glyph-name="zero.inf" unicode="&#x2080;" horiz-adv-x="722" 
d="M360 -301q-136 0 -219.5 105.5t-83.5 273.5q0 173 84 279t221 106q135 0 219.5 -105.5t84.5 -275.5q0 -173 -84.5 -278t-221.5 -105zM360 -166q70 0 111 68.5t41 175.5q0 110 -41 180t-111 70q-69 0 -109 -69.5t-40 -176.5q0 -109 40 -178.5t109 -69.5z" />
    <glyph glyph-name="one.inf" unicode="&#x2081;" horiz-adv-x="722" 
d="M117 -285v131h186v459l-168 -43l-33 121l273 76h76v-613h180v-131h-514z" />
    <glyph glyph-name="two.inf" unicode="&#x2082;" horiz-adv-x="722" 
d="M109 -287q-3 0 -13.5 17t-19.5 34l-10 17q28 63 64.5 116t83 95t73.5 62.5t73 51.5q44 30 61.5 43t36.5 40t19 57q0 46 -34.5 73t-94.5 27q-36 0 -73 -12t-48 -25q15 -8 26 -28t11 -41q0 -35 -25 -59.5t-59 -24.5q-47 0 -68.5 31.5t-21.5 76.5q0 90 74.5 147.5
t195.5 57.5q111 0 187 -63t76 -162q0 -42 -15 -78t-43.5 -64t-51.5 -44.5t-58 -37.5q-155 -94 -213 -186h282v129h119v-250h-534z" />
    <glyph glyph-name="three.inf" unicode="&#x2083;" horiz-adv-x="722" 
d="M350 -301q-124 0 -203 51.5t-79 132.5q0 39 25 66.5t63 27.5q37 0 61.5 -24t24.5 -59q0 -26 -11 -52q45 -28 119 -28q55 0 95 27t40 79q0 46 -40 80.5t-136 34.5h-45v112h47q77 0 118.5 30.5t41.5 86.5q0 40 -35.5 62t-85.5 22q-54 0 -84 -20q8 -24 8 -47
q0 -35 -25.5 -60.5t-60.5 -25.5q-36 0 -62 28.5t-26 71.5q0 25 16 53t46 54.5t81 43.5t113 17q110 0 188.5 -55.5t78.5 -139.5q0 -63 -43.5 -110.5t-110.5 -65.5q68 -18 118 -64.5t50 -121.5q0 -96 -84 -151.5t-203 -55.5z" />
    <glyph glyph-name="four.inf" unicode="&#x2084;" horiz-adv-x="722" 
d="M283 -283v107h139v106h-332l-47 86l399 473l105 -83l-338 -375h213v119l125 49v-156h112v-119h-112v-96h84v-111h-348z" />
    <glyph glyph-name="five.inf" unicode="&#x2085;" horiz-adv-x="722" 
d="M352 -301q-134 0 -203 48t-69 108q0 41 23 65.5t65 24.5t66 -25.5t24 -58.5q0 -17 -4 -29q56 -8 82 -8q76 0 119 35.5t43 97.5q0 55 -39.5 88t-110.5 33q-88 0 -166 -33l-69 39l34 371h445v-133h-326l-10 -127q38 10 100 10q121 0 202 -68t81 -180q0 -111 -81 -184.5
t-206 -73.5z" />
    <glyph glyph-name="six.inf" unicode="&#x2086;" horiz-adv-x="722" 
d="M612 322q0 -39 -23.5 -61.5t-60.5 -22.5q-42 0 -63 24.5t-21 56.5q0 13 2 19q-36 6 -47 6q-72 0 -126.5 -65.5t-57.5 -153.5q69 59 164 59q116 0 191 -67t75 -168q0 -106 -79 -178t-201 -72q-119 0 -201 82q-51 51 -71.5 119t-20.5 170q0 171 93 285t234 114
q115 0 174 -59q39 -39 39 -88zM367 -176q56 0 94.5 36.5t38.5 84.5q0 53 -35.5 83.5t-102.5 30.5q-60 0 -99.5 -31.5t-39.5 -80.5q0 -57 43 -92q43 -31 101 -31z" />
    <glyph glyph-name="seven.inf" unicode="&#x2087;" horiz-adv-x="722" 
d="M193 -287l305 621h-275v-154h-129v275h529l39 -86l-308 -656h-161z" />
    <glyph glyph-name="eight.inf" unicode="&#x2088;" horiz-adv-x="722" 
d="M360 -299q-135 0 -214.5 61t-79.5 142q0 60 41 110.5t129 79.5q-152 42 -152 168q0 80 77.5 141.5t198.5 61.5q120 0 199.5 -61.5t79.5 -141.5q0 -126 -156 -168q90 -29 132 -79.5t42 -110.5q0 -80 -81.5 -141.5t-215.5 -61.5zM360 143q49 0 85 29t36 72q0 45 -34.5 71.5
t-86.5 26.5q-53 0 -86.5 -26.5t-33.5 -71.5q0 -44 35 -72.5t85 -28.5zM360 -172q61 0 100.5 30.5t39.5 71.5q0 43 -39 74t-101 31q-63 0 -101 -31t-38 -74q0 -42 38.5 -72t100.5 -30z" />
    <glyph glyph-name="nine.inf" unicode="&#x2089;" horiz-adv-x="722" 
d="M111 -154q0 39 23.5 61.5t60.5 22.5q42 0 63 -25t21 -57q0 -3 -1.5 -9t-1.5 -9q36 -6 48 -6q72 0 126.5 65t57.5 152q-73 -57 -164 -57q-116 0 -191 67t-75 168q0 106 79 178t201 72q119 0 201 -82q51 -51 71.5 -119t20.5 -170q0 -171 -93 -285t-234 -114q-115 0 -174 59
q-39 39 -39 88zM356 344q-56 0 -94.5 -36.5t-38.5 -84.5q0 -53 35.5 -83.5t101.5 -30.5q60 0 100 31.5t40 80.5q0 57 -43 92q-43 31 -101 31z" />
    <glyph glyph-name="Euro" unicode="&#x20ac;" horiz-adv-x="1372" 
d="M106 596v168h193q63 150 202.5 239t315.5 89q191 0 311.5 -92t120.5 -203q0 -69 -45.5 -112.5t-105.5 -43.5q-57 0 -96 39t-39 96q0 26 9.5 50.5t18.5 33.5q-52 45 -178 45q-95 0 -173 -40t-126 -111h289v-158h-348q-2 -18 -2 -55q0 -38 2 -54h348v-157h-291
q49 -74 128 -117t179 -43q163 0 297 137l131 -137q-79 -88 -190 -137t-238 -49q-190 0 -329 89t-199 246h-185v168h150q-2 16 -2 50q0 39 2 59h-150z" />
    <glyph glyph-name="published" unicode="&#x2117;" horiz-adv-x="1269" 
d="M614 -16q-152 0 -279 73.5t-200.5 200.5t-73.5 279t73.5 279.5t200.5 201.5t279 74t279 -74t200.5 -201.5t73.5 -279.5q0 -112 -44 -214.5t-118 -176.5t-176.5 -118t-214.5 -44zM614 78q185 0 316 134t131 325q0 195 -129.5 327.5t-317.5 132.5t-317 -132.5t-129 -327.5
t129 -327t317 -132zM639 444h-53v-96h67v-82h-221v82h62v375h-62v82h217q89 0 146 -47.5t57 -128.5q0 -90 -57.5 -137.5t-155.5 -47.5zM647 526q52 0 81.5 27.5t29.5 75.5q0 42 -32 68t-83 26h-57v-195q10 -2 61 -2z" />
    <glyph glyph-name="servicemark" unicode="&#x2120;" horiz-adv-x="1234" 
d="M500 825v99h63l17 325h-74v99h215l119 -271l110 271h215v-99h-73l16 -325h63v-99h-241v99h65l-10 256l-123 -265h-53l-125 265l-10 -256h65v-99h-239zM240 813q-85 0 -139 36t-54 89q0 29 19.5 47.5t46.5 18.5q29 0 46 -15.5t17 -34.5q0 -17 -8 -28q32 -21 68 -21
q81 0 81 58q0 28 -21.5 46t-62.5 33q-85 31 -126 66.5t-41 103.5q0 64 50.5 106t129.5 42q83 0 131.5 -32t48.5 -81q0 -29 -18 -47t-43 -18q-29 0 -44.5 15t-15.5 34q0 14 4 22q-23 13 -59 13q-33 0 -52.5 -14t-19.5 -38q0 -18 14 -32t28 -20t44 -17q168 -59 168 -178
q0 -74 -53 -114t-139 -40z" />
    <glyph glyph-name="trademark" unicode="&#x2122;" horiz-adv-x="1345" 
d="M610 825v99h64l16 325h-74v99h215l119 -271l111 271h215v-99h-74l17 -325h63v-99h-242v99h66l-10 256l-123 -265h-53l-125 265l-11 -256h66v-99h-240zM164 825v99h67v327h-86v-90h-98v187h490v-187h-99v90h-86v-327h68v-99h-256z" />
    <glyph glyph-name="onethird" unicode="&#x2153;" horiz-adv-x="1628" 
d="M84 575v132h186v458l-168 -43l-32 121l272 76h76v-612h180v-132h-514zM457 -33l-101 66q214 329 410 647q88 141 208.5 351t178.5 317l100 -66q-165 -254 -409 -647q-89 -144 -210.5 -355.5t-176.5 -312.5zM1255 -18q-124 0 -203 51.5t-79 132.5q0 39 25 66.5t63 27.5
q37 0 61.5 -24.5t24.5 -59.5q0 -28 -10 -51q46 -29 118 -29q55 0 95.5 27.5t40.5 79.5q0 46 -40 80t-137 34h-45v113h48q77 0 118 30.5t41 86.5q0 40 -35.5 62t-85.5 22q-53 0 -84 -21q9 -27 9 -47q0 -35 -25.5 -60.5t-60.5 -25.5q-36 0 -62 29t-26 72q0 57 68.5 112
t187.5 55q111 0 188.5 -55t77.5 -139q0 -63 -43.5 -110.5t-110.5 -65.5q67 -18 117.5 -65t50.5 -122q0 -95 -84 -150.5t-203 -55.5z" />
    <glyph glyph-name="twothirds" unicode="&#x2154;" horiz-adv-x="1628" 
d="M104 573q-3 0 -13.5 17t-20.5 34l-9 17q22 51 53.5 98t58.5 77.5t66.5 63.5t59.5 47.5t57 39.5q71 49 90 71q27 31 27 68q0 46 -34.5 73t-94.5 27q-36 0 -73 -12t-48 -25q15 -8 26 -28t11 -41q0 -35 -25 -59.5t-59 -24.5q-47 0 -68.5 31.5t-21.5 76.5q0 90 74.5 147.5
t195.5 57.5q111 0 186.5 -63t75.5 -162q0 -42 -14.5 -77.5t-43.5 -63.5t-51.5 -44.5t-57.5 -37.5q-154 -93 -213 -187h282v129h119v-250h-535zM1264 -18q-124 0 -203.5 51.5t-79.5 132.5q0 39 25 66.5t63 27.5q37 0 61.5 -24.5t24.5 -59.5q0 -28 -10 -51q46 -29 119 -29
q55 0 95 27.5t40 79.5q0 46 -39.5 80t-136.5 34h-45v113h47q77 0 118 30.5t41 86.5q0 40 -35 62t-85 22q-52 0 -84 -21q8 -24 8 -47q0 -35 -25.5 -60.5t-60.5 -25.5q-36 0 -62 29t-26 72q0 57 68.5 112t187.5 55q111 0 188.5 -55t77.5 -139q0 -63 -43.5 -110.5t-110.5 -65.5
q67 -18 117.5 -65t50.5 -122q0 -96 -83.5 -151t-202.5 -55zM504 -33l-101 66q214 329 410 647q88 141 208.5 351t178.5 317l100 -66q-165 -254 -409 -647q-89 -144 -210.5 -355.5t-176.5 -312.5z" />
    <glyph glyph-name="onefifth" unicode="&#x2155;" horiz-adv-x="1628" 
d="M90 575v132h186v458l-167 -43l-33 121l272 76h76v-612h180v-132h-514zM469 -33l-100 66q194 298 409 647q88 141 208.5 351t178.5 317l101 -66q-188 -289 -410 -647q-89 -144 -210.5 -355.5t-176.5 -312.5zM1268 -18q-134 0 -203.5 48t-69.5 107q0 41 23 65.5t65 24.5
t66.5 -25.5t24.5 -58.5q0 -13 -5 -28q63 -9 82 -9q76 0 119 36t43 98q0 55 -39 87.5t-110 32.5q-91 0 -166 -32l-70 39l35 370h444v-133h-325l-11 -127q38 10 101 10q121 0 201.5 -67.5t80.5 -179.5q0 -111 -80.5 -184.5t-205.5 -73.5z" />
    <glyph glyph-name="twofifths" unicode="&#x2156;" horiz-adv-x="1628" 
d="M104 573q-3 0 -13.5 17t-20.5 34l-9 17q22 51 53.5 98t58.5 77.5t66.5 63.5t59.5 47.5t57 39.5q71 49 90 71q27 31 27 68q0 46 -34.5 73t-94.5 27q-36 0 -73 -12t-48 -25q15 -8 26 -28t11 -41q0 -35 -25 -59.5t-59 -24.5q-47 0 -68.5 31.5t-21.5 76.5q0 90 74.5 147.5
t195.5 57.5q111 0 186.5 -63t75.5 -162q0 -42 -14.5 -77.5t-43.5 -63.5t-51.5 -44.5t-57.5 -37.5q-154 -93 -213 -187h282v129h119v-250h-535zM1282 -18q-134 0 -203 48t-69 107q0 41 23 65.5t65 24.5t66 -25.5t24 -58.5q0 -16 -4 -28q63 -9 82 -9q76 0 118.5 36t42.5 98
q0 55 -39 87.5t-110 32.5q-91 0 -166 -32l-70 39l35 370h445v-133h-326l-10 -127q38 10 100 10q121 0 202 -67.5t81 -179.5q0 -111 -81 -184.5t-206 -73.5zM516 -33l-100 66q194 298 409 647q88 141 208.5 351t178.5 317l101 -66q-188 -289 -410 -647
q-89 -144 -210.5 -355.5t-176.5 -312.5z" />
    <glyph glyph-name="threefifths" unicode="&#x2157;" horiz-adv-x="1628" 
d="M360 559q-124 0 -203 51.5t-79 132.5q0 39 25 67t63 28q37 0 61.5 -24.5t24.5 -59.5q0 -29 -10 -52q45 -28 118 -28q55 0 95.5 27t40.5 79q0 46 -40 80.5t-137 34.5h-45v113h48q78 0 118.5 30t40.5 86q0 40 -35.5 62t-85.5 22q-54 0 -84 -20q9 -27 9 -47
q0 -35 -25.5 -60.5t-60.5 -25.5q-36 0 -62 28.5t-26 71.5q0 25 16 53t46 54.5t81 43.5t113 17q110 0 188 -55.5t78 -139.5q0 -63 -43.5 -110.5t-110.5 -65.5q68 -18 118 -64.5t50 -121.5q0 -96 -84 -151.5t-203 -55.5zM479 -33l-100 66q194 298 409 647q88 142 210 353
t178 315l100 -66q-188 -289 -410 -647q-89 -144 -210.5 -355.5t-176.5 -312.5zM1264 -18q-134 0 -203.5 48t-69.5 107q0 41 23 65.5t65 24.5t66 -25.5t24 -58.5q0 -16 -4 -28q63 -9 82 -9q76 0 119 36t43 98q0 55 -39 87.5t-110 32.5q-91 0 -166 -32l-70 39l35 370h444v-133
h-325l-11 -127q38 10 101 10q121 0 201.5 -67.5t80.5 -179.5q0 -111 -80.5 -184.5t-205.5 -73.5z" />
    <glyph glyph-name="fourfifths" unicode="&#x2158;" horiz-adv-x="1628" 
d="M295 578v106h139v107h-332l-47 86l400 473l104 -84l-338 -375h213v119l125 49v-156h113v-119h-113v-96h84v-110h-348zM530 -33l-100 66q214 329 410 647q88 141 208.5 351t178.5 317l100 -66q-165 -254 -409 -647q-90 -146 -212.5 -357.5t-175.5 -310.5zM1284 -18
q-134 0 -203 48t-69 107q0 41 23 65.5t65 24.5t66 -25.5t24 -58.5q0 -16 -4 -28q63 -9 82 -9q76 0 119 36t43 98q0 55 -39.5 87.5t-110.5 32.5q-91 0 -166 -32l-70 39l35 370h445v-133h-326l-10 -127q38 10 100 10q121 0 202 -67.5t81 -179.5q0 -111 -81 -184.5t-206 -73.5z
" />
    <glyph glyph-name="onesixth" unicode="&#x2159;" horiz-adv-x="1628" 
d="M1507 604q0 -39 -23.5 -61.5t-60.5 -22.5q-42 0 -63 25t-21 57q0 13 2 19q-36 6 -47 6q-72 0 -126.5 -65.5t-57.5 -153.5q69 59 164 59q116 0 191 -67.5t75 -168.5q0 -105 -79 -177t-201 -72q-120 0 -201 81q-51 51 -71.5 119t-20.5 170q0 171 93 285.5t234 114.5
q114 0 174 -60q39 -39 39 -88zM98 575v132h187v458l-168 -43l-33 121l272 76h76v-612h180v-132h-514zM477 -33l-100 66q194 298 409 647q88 142 210 353t178 315l100 -66q-188 -289 -410 -647q-89 -144 -210.5 -355.5t-176.5 -312.5zM1262 106q56 0 94.5 36.5t38.5 84.5
q0 53 -36 84t-102 31q-60 0 -99.5 -32t-39.5 -81q0 -57 43 -92q43 -31 101 -31z" />
    <glyph glyph-name="fivesixths" unicode="&#x215a;" horiz-adv-x="1628" 
d="M1503 604q0 -39 -23.5 -61.5t-60.5 -22.5q-42 0 -63 25t-21 57q0 13 2 19q-36 6 -47 6q-72 0 -126.5 -65.5t-57.5 -153.5q69 59 164 59q116 0 191 -67.5t75 -168.5q0 -105 -79.5 -177t-201.5 -72q-119 0 -200 81q-51 51 -71.5 119t-20.5 170q0 171 93 285.5t234 114.5
q114 0 174 -60q39 -39 39 -88zM354 559q-134 0 -203 48t-69 108q0 41 23 65.5t65 24.5t66 -25.5t24 -58.5q0 -17 -4 -29q56 -8 82 -8q76 0 119 35.5t43 97.5q0 55 -39.5 88t-110.5 33q-88 0 -166 -33l-69 39l35 371h444v-133h-326l-10 -127q38 10 100 10q121 0 202 -68
t81 -180q0 -111 -81 -184.5t-206 -73.5zM473 -33l-100 66q194 298 409 647q88 141 208.5 351t178.5 317l101 -66q-188 -289 -410 -647q-89 -144 -210.5 -355.5t-176.5 -312.5zM1257 106q56 0 95 36.5t39 84.5q0 53 -36 84t-102 31q-60 0 -99.5 -32t-39.5 -81q0 -57 43 -92
q43 -31 100 -31z" />
    <glyph glyph-name="oneeighth" unicode="&#x215b;" horiz-adv-x="1628" 
d="M84 575v132h186v458l-168 -43l-32 121l272 76h76v-612h180v-132h-514zM459 -33l-101 66q214 329 410 647q88 141 208.5 351t178.5 317l100 -66q-165 -254 -409 -647q-89 -144 -210.5 -355.5t-176.5 -312.5zM1251 -16q-135 0 -215 60.5t-80 141.5q0 61 41 111.5t129 79.5
q-151 41 -151 168q0 80 77.5 141.5t198.5 61.5q120 0 199.5 -61.5t79.5 -141.5q0 -126 -156 -168q90 -29 132 -80t42 -111q0 -80 -81.5 -141t-215.5 -61zM1251 426q49 0 85 28.5t36 71.5q0 45 -34.5 72t-86.5 27q-53 0 -87 -27t-34 -72q0 -43 35.5 -71.5t85.5 -28.5z
M1251 111q61 0 100.5 30.5t39.5 71.5q0 43 -39 73.5t-101 30.5q-64 0 -101.5 -30.5t-37.5 -73.5q0 -42 38.5 -72t100.5 -30z" />
    <glyph glyph-name="threeeighths" unicode="&#x215c;" horiz-adv-x="1628" 
d="M356 559q-124 0 -203 51.5t-79 132.5q0 39 25 67t63 28q37 0 61.5 -24.5t24.5 -59.5q0 -29 -10 -52q45 -28 118 -28q55 0 95.5 27t40.5 79q0 46 -40 80.5t-137 34.5h-45v113h47q78 0 119 30t41 86q0 40 -35.5 62t-85.5 22q-54 0 -84 -20q9 -27 9 -47q0 -35 -25.5 -60.5
t-60.5 -25.5q-36 0 -62.5 28.5t-26.5 71.5q0 57 69 112.5t187 55.5q110 0 188.5 -55.5t78.5 -139.5q0 -63 -43.5 -110.5t-110.5 -65.5q68 -18 118 -64.5t50 -121.5q0 -96 -84 -151.5t-203 -55.5zM469 -33l-100 66q194 298 409 647q88 141 208.5 351t178.5 317l101 -66
q-188 -289 -410 -647q-89 -144 -210.5 -355.5t-176.5 -312.5zM1245 -16q-135 0 -215 60.5t-80 141.5q0 61 41 111.5t129 79.5q-151 41 -151 168q0 80 77.5 141.5t198.5 61.5q120 0 199.5 -61.5t79.5 -141.5q0 -126 -156 -168q90 -29 132 -80t42 -111q0 -80 -81.5 -141
t-215.5 -61zM1245 426q49 0 85 28.5t36 71.5q0 45 -34.5 72t-86.5 27q-53 0 -87 -27t-34 -72q0 -43 35.5 -71.5t85.5 -28.5zM1245 111q61 0 100 30.5t39 71.5q0 43 -38.5 73.5t-100.5 30.5q-64 0 -101.5 -30.5t-37.5 -73.5q0 -42 38.5 -72t100.5 -30z" />
    <glyph glyph-name="fiveeighths" unicode="&#x215d;" horiz-adv-x="1628" 
d="M352 559q-134 0 -203 48t-69 108q0 41 23 65.5t65 24.5t66 -25.5t24 -58.5q0 -17 -4 -29q56 -8 82 -8q76 0 119 35.5t43 97.5q0 55 -39.5 88t-110.5 33q-88 0 -166 -33l-69 39l34 371h445v-133h-326l-10 -127q38 10 100 10q121 0 202 -68t81 -180q0 -111 -81 -184.5
t-206 -73.5zM461 -33l-101 66q214 329 410 647q88 141 208.5 351t178.5 317l100 -66q-165 -254 -409 -647q-89 -144 -210.5 -355.5t-176.5 -312.5zM1247 -16q-135 0 -215 60.5t-80 141.5q0 61 41 111.5t129 79.5q-151 41 -151 168q0 80 77.5 141.5t198.5 61.5
q120 0 199.5 -61.5t79.5 -141.5q0 -126 -156 -168q90 -29 132 -80t42 -111q0 -80 -81.5 -141t-215.5 -61zM1247 426q49 0 85 28.5t36 71.5q0 45 -34.5 72t-86.5 27q-53 0 -87 -27t-34 -72q0 -43 35.5 -71.5t85.5 -28.5zM1247 111q61 0 100 30.5t39 71.5q0 43 -38.5 73.5
t-100.5 30.5q-64 0 -101.5 -30.5t-37.5 -73.5q0 -42 38.5 -72t100.5 -30z" />
    <glyph glyph-name="seveneighths" unicode="&#x215e;" horiz-adv-x="1628" 
d="M227 573l305 621h-274v-154h-129v275h528l39 -86l-307 -656h-162zM399 -33l-100 66q214 329 410 647q88 141 208.5 351t178.5 317l100 -66q-188 -289 -410 -647q-89 -144 -210.5 -355.5t-176.5 -312.5zM1208 -16q-135 0 -215 60.5t-80 141.5q0 61 41 111.5t129 79.5
q-151 41 -151 168q0 80 77.5 141.5t198.5 61.5q120 0 199.5 -61.5t79.5 -141.5q0 -126 -156 -168q90 -29 132 -80t42 -111q0 -80 -81.5 -141t-215.5 -61zM1208 426q49 0 85 28.5t36 71.5q0 45 -34.5 72t-86.5 27q-53 0 -87 -27t-34 -72q0 -43 35.5 -71.5t85.5 -28.5z
M1208 111q61 0 100.5 30.5t39.5 71.5q0 43 -39 73.5t-101 30.5q-64 0 -101.5 -30.5t-37.5 -73.5q0 -42 38.5 -72t100.5 -30z" />
    <glyph glyph-name="minus" unicode="&#x2212;" horiz-adv-x="950" 
d="M106 485v189h738v-189h-738z" />
    <glyph glyph-name="Q.alt" horiz-adv-x="1570" 
d="M1204 -231l-164 254q-132 -48 -260 -48q-150 0 -279 54t-217.5 147.5t-139 222.5t-50.5 275q0 196 88 355t248 251t361 92q200 0 357.5 -92.5t243 -251.5t85.5 -354q0 -165 -67.5 -308t-188.5 -239l159 -248zM786 186q70 0 138 19l-136 215l175 110l141 -221
q133 136 133 365q0 210 -128 346.5t-323 136.5q-197 0 -324.5 -135.5t-127.5 -347.5q0 -211 128 -349.5t324 -138.5z" />
    <glyph glyph-name="a.sc" horiz-adv-x="1224" 
d="M252 1075h721v-186h-142l250 -703h113v-186h-485v182h149l-55 156h-387l-54 -156h150v-182h-481v186h114l250 703h-143v186zM608 903l-133 -389h268z" />
    <glyph glyph-name="b.sc" horiz-adv-x="1114" 
d="M463 182h162q83 0 131.5 37.5t48.5 106.5q0 66 -47.5 102.5t-136.5 36.5h-158v-283zM463 621h141q82 0 127 37t45 102q0 63 -46 98t-130 35h-137v-272zM621 0h-539v186h158v703h-158v186h522q197 0 297 -77t100 -205q0 -90 -49.5 -151t-132.5 -89q213 -62 213 -252
q0 -139 -105.5 -220t-305.5 -81z" />
    <glyph glyph-name="c.sc" horiz-adv-x="1173" 
d="M958 324l140 -150q-84 -95 -204 -148t-255 -53q-169 0 -299.5 76t-199 203.5t-68.5 284.5q0 166 76.5 296.5t209.5 201.5t299 71q185 0 306.5 -87.5t121.5 -199.5q0 -69 -39 -112t-102 -43q-66 0 -105.5 36t-39.5 99q0 43 16 69q-68 39 -172 39q-150 0 -246 -101.5
t-96 -266.5q0 -162 97.5 -262.5t240.5 -100.5q184 0 319 148z" />
    <glyph glyph-name="d.sc" horiz-adv-x="1241" 
d="M463 186h100q187 0 284 96t97 263q0 165 -103 254.5t-290 89.5h-88v-703zM530 0h-448v186h158v703h-158v186h469q289 0 453.5 -141.5t164.5 -386.5q0 -252 -164.5 -399.5t-474.5 -147.5z" />
    <glyph glyph-name="e.sc" horiz-adv-x="1073" 
d="M975 0h-893v186h158v703h-158v186h891v-375h-205v193h-305v-272h307v-175h-307v-264h307v185h205v-367z" />
    <glyph glyph-name="f.sc" horiz-adv-x="1028" 
d="M631 0h-549v186h158v703h-158v186h885v-375h-207v193h-297v-283h301v-174h-301v-250h168v-186z" />
    <glyph glyph-name="g.sc" horiz-adv-x="1214" 
d="M643 907q-149 0 -245.5 -101t-96.5 -265q0 -160 99 -267.5t241 -107.5t223 61v162h-258v176h477v-565h-213v70q-125 -97 -280 -97q-101 0 -194 39.5t-165.5 110.5t-115.5 179.5t-43 236.5q0 167 75.5 297t208.5 200t301 70q185 0 306.5 -87.5t121.5 -199.5
q0 -69 -39 -112t-102 -43q-66 0 -105.5 36t-39.5 99q0 43 16 69q-68 39 -172 39z" />
    <glyph glyph-name="h.sc" horiz-adv-x="1374" 
d="M82 0v186h158v703h-158v186h543v-186h-162v-264h448v264h-161v186h542v-186h-157v-703h157v-186h-542v186h161v256h-448v-256h162v-186h-543z" />
    <glyph glyph-name="i.sc" horiz-adv-x="714" 
d="M633 0h-551v186h164v703h-164v186h551v-186h-164v-703h164v-186z" />
    <glyph glyph-name="j.sc" horiz-adv-x="983" 
d="M408 172q72 0 108 39q45 48 45 162v516h-166v186h537v-186h-152v-518q0 -201 -102 -303q-98 -95 -264 -95q-151 0 -257 84t-106 205q0 71 41.5 115.5t106.5 44.5q54 0 93.5 -38.5t39.5 -90.5q0 -55 -37 -92q42 -29 113 -29z" />
    <glyph glyph-name="k.sc" horiz-adv-x="1249" 
d="M1075 889l-313 -299l270 -404h162v-186h-305l-291 449l-135 -125v-138h155v-186h-536v186h158v703h-158v186h514v-182h-133v-342l358 342h-129v182h494v-186h-111z" />
    <glyph glyph-name="l.sc" horiz-adv-x="1017" 
d="M770 186v201h207v-387h-895v186h158v703h-158v186h547v-186h-166v-703h307z" />
    <glyph glyph-name="m.sc" horiz-adv-x="1544" 
d="M1075 1075h369v-186h-158l31 -703h158v-186h-535v186h152l-21 516l-280 -509h-41l-287 509l-21 -516h162v-186h-534v186h157l31 703h-158v186h373l307 -547z" />
    <glyph glyph-name="n.sc" horiz-adv-x="1349" 
d="M428 1075l500 -647v461h-154v186h524v-186h-157v-895h-154l-530 698v-506h143v-186h-518v186h158v703h-158v186h346z" />
    <glyph glyph-name="o.sc" horiz-adv-x="1273" 
d="M637 1106q167 0 297 -76t199 -203.5t69 -283.5q0 -118 -40 -222.5t-112 -181.5t-179 -121.5t-234 -44.5t-234 44.5t-179 121.5t-112 181.5t-40 222.5q0 156 69 283.5t199 203.5t297 76zM637 176q146 0 242 99.5t96 263.5q0 163 -95.5 263.5t-242.5 100.5t-241.5 -100
t-94.5 -264t95.5 -263.5t240.5 -99.5z" />
    <glyph glyph-name="p.sc" horiz-adv-x="1060" 
d="M82 1075h491q183 0 304.5 -98t121.5 -260q0 -180 -123 -275.5t-327 -95.5q-55 0 -86 2v-162h162v-186h-543v186h158v703h-158v186zM571 528q94 0 148.5 51.5t54.5 137.5q0 76 -58 124t-149 48h-104v-357q50 -4 108 -4z" />
    <glyph glyph-name="q.sc" horiz-adv-x="1273" 
d="M1022 -246q-50 0 -93 8t-87 30t-62.5 32.5t-67 46t-53.5 39.5q-39 28 -65.5 40.5t-71.5 24.5q-98 25 -171.5 65t-137.5 112q-141 156 -141 391q0 156 69 283.5t199 203.5t297 76t297 -76t199 -203.5t69 -283.5q0 -184 -92 -327t-252 -204l23 -14q68 -45 118 -45
q76 0 162 72l111 -162q-106 -109 -250 -109zM637 176q146 0 242 99.5t96 263.5q0 163 -95.5 263.5t-242.5 100.5t-241.5 -100t-94.5 -264q0 -155 86 -254q95 -109 250 -109z" />
    <glyph glyph-name="q.sc_alt" horiz-adv-x="1273" 
d="M1202 543q0 -136 -50.5 -251.5t-143.5 -191.5l112 -172l-166 -106l-118 182q-102 -31 -199 -31q-127 0 -234 44.5t-179 121.5t-112 181.5t-40 222.5q0 156 69 283.5t199 203.5t297 76t297 -76t199 -203.5t69 -283.5zM975 539q0 163 -95.5 263.5t-242.5 100.5t-241.5 -100
t-94.5 -264t95.5 -263.5t240.5 -99.5q48 0 84 8l-94 148l164 106l98 -153q86 102 86 254z" />
    <glyph glyph-name="r.sc" horiz-adv-x="1163" 
d="M582 889h-119v-309q63 -7 129 -7q99 0 157 44t58 118q0 72 -59.5 113t-165.5 41zM463 391v-205h143v-186h-524v186h158v703h-158v186h514q199 0 318.5 -86t119.5 -252q0 -95 -50.5 -170t-135.5 -118l127 -263h147v-186h-313l-176 393q-39 -4 -80 -4q-61 0 -90 2z" />
    <glyph glyph-name="s.sc" horiz-adv-x="1034" 
d="M657 829q0 30 13 56q-64 37 -160 37q-76 0 -123 -32t-47 -89q0 -14 4 -26.5t12.5 -23.5t17 -19.5t24 -17.5t26 -14.5t30 -13t29.5 -11t31.5 -11t28.5 -9.5q45 -15 68.5 -23t64 -23.5t63 -26.5t55 -29.5t50.5 -35t39.5 -40t32.5 -48.5t18.5 -57t7.5 -67q0 -164 -116 -248
t-312 -84q-114 0 -213.5 37t-159 102.5t-59.5 143.5q0 68 35.5 107.5t99.5 39.5t106 -39.5t42 -91.5q0 -39 -15 -69q62 -45 174 -45q201 0 201 127q0 21 -8 38.5t-27.5 33t-34.5 25.5t-48 22.5t-46.5 17t-50.5 16.5q-46 15 -70.5 23.5t-65 23.5t-62.5 26t-53.5 28.5
t-49 33.5t-38 39t-30.5 47.5t-17 55t-7 65.5q0 144 112.5 235t296.5 91q176 0 292 -75.5t116 -188.5q0 -65 -36 -103.5t-93 -38.5q-69 0 -108.5 39.5t-39.5 89.5z" />
    <glyph glyph-name="t.sc" horiz-adv-x="1136" 
d="M293 0v186h164v709h-195v-217h-205v397h1022v-397h-205v217h-194v-709h164v-186h-551z" />
    <glyph glyph-name="u.sc" horiz-adv-x="1277" 
d="M426 889v-477q0 -119 57.5 -185.5t157.5 -66.5q101 0 158 63t57 183v483h-151v186h522v-186h-152v-467q0 -221 -118 -336t-318 -115q-205 0 -320.5 113t-115.5 332v473h-152v186h527v-186h-152z" />
    <glyph glyph-name="v.sc" horiz-adv-x="1193" 
d="M516 -14l-375 903h-121v186h500v-186h-143l227 -594l227 594h-143v186h486v-186h-121l-375 -903h-162z" />
    <glyph glyph-name="w.sc" horiz-adv-x="1669" 
d="M440 -14l-282 903h-133v186h526v-186h-156l160 -549l233 606h109l233 -604l162 547h-162v186h515v-186h-134l-282 -903h-162l-233 592l-232 -592h-162z" />
    <glyph glyph-name="x.sc" horiz-adv-x="1239" 
d="M1198 186v-186h-518v182h141l-213 252l-202 -252h145v-182h-510v186h137l305 367l-290 336h-138v186h504v-182h-119l189 -227l180 227h-121v182h496v-186h-148l-280 -340l315 -363h127z" />
    <glyph glyph-name="y.sc" horiz-adv-x="1112" 
d="M1100 1075v-186h-113l-319 -496v-207h163v-186h-550v186h163v207l-319 496h-113v186h488v-182h-140l201 -326l203 326h-148v182h484z" />
    <glyph glyph-name="z.sc" 
d="M84 0v129l606 766h-389v-209h-188v389h884v-129l-604 -766h416v207h188v-387h-913z" />
    <glyph glyph-name="aacute.sc" horiz-adv-x="1224" 
d="M252 1075h721v-186h-142l250 -703h113v-186h-485v182h149l-55 156h-387l-54 -156h150v-182h-481v186h114l250 703h-143v186zM586 1200l-70 68l225 307q50 63 113 63q42 0 71 -30t29 -74q0 -65 -63 -113zM608 903l-133 -389h268z" />
    <glyph glyph-name="abreve.sc" horiz-adv-x="1224" 
d="M252 1075h721v-186h-142l250 -703h113v-186h-485v182h149l-55 156h-387l-54 -156h150v-182h-481v186h114l250 703h-143v186zM604 1229q-128 0 -229 88t-148 268l142 55q43 -105 104 -157.5t131 -52.5t131.5 53t104.5 157l141 -55q-47 -180 -148 -268t-229 -88zM608 903
l-133 -389h268z" />
    <glyph glyph-name="acircumflex.sc" horiz-adv-x="1224" 
d="M252 1075h721v-186h-142l250 -703h113v-186h-485v182h149l-55 156h-387l-54 -156h150v-182h-481v186h114l250 703h-143v186zM340 1206l-94 109l362 360l363 -360l-94 -109l-269 197zM608 903l-133 -389h268z" />
    <glyph glyph-name="adieresis.sc" horiz-adv-x="1224" 
d="M252 1075h721v-186h-142l250 -703h113v-186h-485v182h149l-55 156h-387l-54 -156h150v-182h-481v186h114l250 703h-143v186zM817 1229q-60 0 -103.5 43t-43.5 104t45 104.5t106 43.5q60 0 104 -43.5t44 -104.5t-45.5 -104t-106.5 -43zM395 1229q-60 0 -103.5 43
t-43.5 104t45 104.5t106 43.5q60 0 104 -43.5t44 -104.5t-45.5 -104t-106.5 -43zM608 903l-133 -389h268z" />
    <glyph glyph-name="ae.sc" horiz-adv-x="1544" 
d="M561 0v182h150v156h-314l-75 -156h141v-182h-463v186h106l355 703h-135v186h1118v-375h-205v193h-305v-272h307v-175h-307v-264h307v185h205v-367h-885zM668 889l-187 -377h230v377h-43z" />
    <glyph glyph-name="aeacute.sc" horiz-adv-x="1544" 
d="M561 0v182h150v156h-314l-75 -156h141v-182h-463v186h106l355 703h-135v186h1118v-375h-205v193h-305v-272h307v-175h-307v-264h307v185h205v-367h-885zM809 1200l-70 68l226 307q50 63 112 63q42 0 71.5 -30t29.5 -74q0 -64 -64 -113zM668 889l-187 -377h230v377h-43z
" />
    <glyph glyph-name="agrave.sc" horiz-adv-x="1224" 
d="M252 1075h721v-186h-142l250 -703h113v-186h-485v182h149l-55 156h-387l-54 -156h150v-182h-481v186h114l250 703h-143v186zM631 1200l-305 221q-64 49 -64 113q0 44 29 74t71 30q63 0 113 -63l225 -307zM608 903l-133 -389h268z" />
    <glyph glyph-name="amacron.sc" horiz-adv-x="1224" 
d="M252 1075h721v-186h-142l250 -703h113v-186h-485v182h149l-55 156h-387l-54 -156h150v-182h-481v186h114l250 703h-143v186zM266 1268v182h684v-182h-684zM608 903l-133 -389h268z" />
    <glyph glyph-name="aogonek.sc" horiz-adv-x="1224" 
d="M989 -412q-111 0 -172 58t-61 153q0 116 102 201h-149v182h149l-55 156h-387l-54 -156h150v-182h-481v186h114l250 703h-143v186h721v-186h-142l250 -703h113v-186h-154q-98 -65 -98 -145q0 -95 107 -95q78 0 143 35l-10 -162q-30 -19 -82.5 -32t-110.5 -13zM608 903
l-133 -389h268z" />
    <glyph glyph-name="aring.sc" horiz-adv-x="1224" 
d="M512 0h-481v186h114l250 703h-143v186h121q-37 60 -37 129q0 114 79 190t195 76t195.5 -76.5t79.5 -189.5q0 -69 -37 -129h125v-186h-142l250 -703h113v-186h-485v182h149l-55 156h-387l-54 -156h150v-182zM608 903l-133 -389h268zM610 1083q46 0 76.5 36t30.5 85
t-30.5 85t-76.5 36t-76 -36t-30 -85t30 -85t76 -36z" />
    <glyph glyph-name="aringacute.sc" horiz-adv-x="1224" 
d="M512 0h-481v186h114l250 703h-143v186h121q-37 60 -37 129q0 114 79 190t195 76t195.5 -76.5t79.5 -189.5q0 -69 -37 -129h125v-186h-142l250 -703h113v-186h-485v182h149l-55 156h-387l-54 -156h150v-182zM590 1534l-70 68l225 307q50 63 113 63q42 0 71 -30t29 -74
q0 -65 -63 -113zM608 903l-133 -389h268zM610 1083q46 0 76.5 36t30.5 85t-30.5 85t-76.5 36t-76 -36t-30 -85t30 -85t76 -36z" />
    <glyph glyph-name="atilde.sc" horiz-adv-x="1224" 
d="M252 1075h721v-186h-142l250 -703h113v-186h-485v182h149l-55 156h-387l-54 -156h150v-182h-481v186h114l250 703h-143v186zM772 1231q-99 0 -182 76q-76 67 -123 67q-37 0 -63 -30t-44 -101l-151 39q17 143 86.5 226t157.5 83q100 0 182 -75q77 -68 123 -68
q37 0 62.5 30t43.5 101l152 -39q-17 -143 -86.5 -226t-157.5 -83zM608 903l-133 -389h268z" />
    <glyph glyph-name="cacute.sc" horiz-adv-x="1183" 
d="M958 324l140 -150q-84 -95 -204 -148t-255 -53q-169 0 -299.5 76t-199 203.5t-68.5 284.5q0 166 76.5 296.5t209.5 201.5t299 71q185 0 306.5 -87.5t121.5 -199.5q0 -69 -39 -112t-102 -43q-66 0 -105.5 36t-39.5 99q0 43 16 69q-68 39 -172 39q-150 0 -246 -101.5
t-96 -266.5q0 -162 97.5 -262.5t240.5 -100.5q184 0 319 148zM594 1200l-70 68l226 307q50 63 112 63q42 0 71.5 -30t29.5 -74q0 -64 -64 -113z" />
    <glyph glyph-name="ccaron.sc" horiz-adv-x="1183" 
d="M958 324l140 -150q-84 -95 -204 -148t-255 -53q-169 0 -299.5 76t-199 203.5t-68.5 284.5q0 166 76.5 296.5t209.5 201.5t299 71q185 0 306.5 -87.5t121.5 -199.5q0 -69 -39 -112t-102 -43q-66 0 -105.5 36t-39.5 99q0 43 16 69q-68 39 -172 39q-150 0 -246 -101.5
t-96 -266.5q0 -162 97.5 -262.5t240.5 -100.5q184 0 319 148zM883 1661l94 -109l-363 -360l-362 360l94 109l268 -197z" />
    <glyph glyph-name="ccedilla.sc" horiz-adv-x="1183" 
d="M606 -410q-139 0 -256 70l35 68q100 -43 180 -43q36 0 58 14.5t22 38.5q0 8 -4.5 16t-16 17t-37.5 14.5t-63 5.5l-22 -2l-43 51l59 146q-204 36 -325 188.5t-121 362.5q0 166 76.5 296.5t209.5 201.5t299 71q185 0 306.5 -87.5t121.5 -199.5q0 -69 -39 -112t-102 -43
q-66 0 -105.5 36t-39.5 99q0 43 16 69q-68 39 -172 39q-150 0 -246 -101.5t-96 -266.5q0 -162 97.5 -262.5t240.5 -100.5q184 0 319 148l140 -150q-84 -95 -204 -148t-255 -53h-23l9 -63q98 -12 157.5 -55t59.5 -109q0 -62 -65.5 -109t-170.5 -47z" />
    <glyph glyph-name="cdotaccent.sc" horiz-adv-x="1183" 
d="M958 324l140 -150q-84 -95 -204 -148t-255 -53q-169 0 -299.5 76t-199 203.5t-68.5 284.5q0 166 76.5 296.5t209.5 201.5t299 71q185 0 306.5 -87.5t121.5 -199.5q0 -69 -39 -112t-102 -43q-66 0 -105.5 36t-39.5 99q0 43 16 69q-68 39 -172 39q-150 0 -246 -101.5
t-96 -266.5q0 -162 97.5 -262.5t240.5 -100.5q184 0 319 148zM614 1208q-60 0 -103.5 43.5t-43.5 104.5t45 104t106 43q60 0 104 -43t44 -104t-45.5 -104.5t-106.5 -43.5z" />
    <glyph glyph-name="dcaron.sc" horiz-adv-x="1241" 
d="M463 186h100q187 0 284 96t97 263q0 165 -103 254.5t-290 89.5h-88v-703zM530 0h-448v186h158v703h-158v186h469q289 0 453.5 -141.5t164.5 -386.5q0 -252 -164.5 -399.5t-474.5 -147.5zM858 1661l94 -109l-362 -360l-363 360l95 109l268 -197z" />
    <glyph glyph-name="dcroat.sc" horiz-adv-x="1241" 
d="M530 0h-448v186h158v256h-134v187h134v260h-158v186h469q289 0 453.5 -141.5t164.5 -386.5q0 -252 -164.5 -399.5t-474.5 -147.5zM463 186h100q187 0 284 96t97 263q0 165 -103 254.5t-290 89.5h-88v-260h223v-187h-223v-256z" />
    <glyph glyph-name="eacute.sc" horiz-adv-x="1073" 
d="M975 0h-893v186h158v703h-158v186h891v-375h-205v193h-305v-272h307v-175h-307v-264h307v185h205v-367zM522 1200l-69 68l225 307q50 63 113 63q42 0 71 -30t29 -74q0 -64 -64 -113z" />
    <glyph glyph-name="ebreve.sc" horiz-adv-x="1073" 
d="M975 0h-893v186h158v703h-158v186h891v-375h-205v193h-305v-272h307v-175h-307v-264h307v185h205v-367zM541 1229q-128 0 -229 88t-148 268l141 55q43 -105 104.5 -157.5t131.5 -52.5t131 53t104 157l142 -55q-47 -180 -148 -268t-229 -88z" />
    <glyph glyph-name="ecaron.sc" horiz-adv-x="1073" 
d="M975 0h-893v186h158v703h-158v186h891v-375h-205v193h-305v-272h307v-175h-307v-264h307v185h205v-367zM811 1661l94 -109l-362 -360l-363 360l94 109l269 -197z" />
    <glyph glyph-name="ecircumflex.sc" horiz-adv-x="1073" 
d="M975 0h-893v186h158v703h-158v186h891v-375h-205v193h-305v-272h307v-175h-307v-264h307v185h205v-367zM276 1206l-94 109l363 360l362 -360l-94 -109l-268 197z" />
    <glyph glyph-name="edieresis.sc" horiz-adv-x="1073" 
d="M975 0h-893v186h158v703h-158v186h891v-375h-205v193h-305v-272h307v-175h-307v-264h307v185h205v-367zM754 1229q-60 0 -104 43t-44 104t45.5 104.5t106.5 43.5q60 0 103.5 -43.5t43.5 -104.5t-45 -104t-106 -43zM332 1229q-60 0 -104 43t-44 104t45.5 104.5t106.5 43.5
q60 0 103.5 -43.5t43.5 -104.5t-45 -104t-106 -43z" />
    <glyph glyph-name="edotaccent.sc" horiz-adv-x="1073" 
d="M975 0h-893v186h158v703h-158v186h891v-375h-205v193h-305v-272h307v-175h-307v-264h307v185h205v-367zM543 1208q-60 0 -104 43.5t-44 104.5t45.5 104t106.5 43q60 0 103.5 -43t43.5 -104t-45 -104.5t-106 -43.5z" />
    <glyph glyph-name="egrave.sc" horiz-adv-x="1073" 
d="M975 0h-893v186h158v703h-158v186h891v-375h-205v193h-305v-272h307v-175h-307v-264h307v185h205v-367zM567 1200l-305 221q-63 48 -63 113q0 44 29 74t71 30q63 0 113 -63l225 -307z" />
    <glyph glyph-name="emacron.sc" horiz-adv-x="1073" 
d="M975 0h-893v186h158v703h-158v186h891v-375h-205v193h-305v-272h307v-175h-307v-264h307v185h205v-367zM203 1268v182h684v-182h-684z" />
    <glyph glyph-name="eogonek.sc" horiz-adv-x="1073" 
d="M772 -412q-111 0 -172 58t-61 153q0 116 102 201h-559v186h158v703h-158v186h891v-375h-205v193h-305v-272h307v-175h-307v-264h307v185h205v-367h-152q-98 -65 -98 -145q0 -95 106 -95q79 0 144 35l-10 -162q-30 -19 -82.5 -32t-110.5 -13z" />
    <glyph glyph-name="eth.sc" horiz-adv-x="1241" 
d="M530 0h-448v186h158v256h-134v187h134v260h-158v186h469q289 0 453.5 -141.5t164.5 -386.5q0 -252 -164.5 -399.5t-474.5 -147.5zM463 186h100q187 0 284 96t97 263q0 165 -103 254.5t-290 89.5h-88v-260h223v-187h-223v-256z" />
    <glyph glyph-name="gbreve.sc" horiz-adv-x="1208" 
d="M643 907q-149 0 -245.5 -101t-96.5 -265q0 -160 99 -267.5t241 -107.5t223 61v162h-258v176h477v-565h-213v70q-125 -97 -280 -97q-101 0 -194 39.5t-165.5 110.5t-115.5 179.5t-43 236.5q0 167 75.5 297t208.5 200t301 70q185 0 306.5 -87.5t121.5 -199.5
q0 -69 -39 -112t-102 -43q-66 0 -105.5 36t-39.5 99q0 43 16 69q-68 39 -172 39zM633 1229q-128 0 -229 88t-148 268l141 55q43 -105 104.5 -157.5t131.5 -52.5t131 53t104 157l142 -55q-47 -180 -148 -268t-229 -88z" />
    <glyph glyph-name="gcommaaccent.sc" horiz-adv-x="1208" 
d="M643 907q-149 0 -245.5 -101t-96.5 -265q0 -160 99 -267.5t241 -107.5t223 61v162h-258v176h477v-565h-213v70q-125 -97 -280 -97q-101 0 -194 39.5t-165.5 110.5t-115.5 179.5t-43 236.5q0 167 75.5 297t208.5 200t301 70q185 0 306.5 -87.5t121.5 -199.5
q0 -69 -39 -112t-102 -43q-66 0 -105.5 36t-39.5 99q0 43 16 69q-68 39 -172 39zM485 -672l-53 68q80 62 123.5 122.5t46.5 100.5q-47 12 -74.5 47.5t-27.5 85.5t39.5 87.5t95.5 37.5q62 0 103.5 -43t41.5 -121q0 -41 -15.5 -86.5t-48.5 -96.5t-92.5 -104t-138.5 -98z" />
    <glyph glyph-name="gdotaccent.sc" horiz-adv-x="1208" 
d="M643 907q-149 0 -245.5 -101t-96.5 -265q0 -160 99 -267.5t241 -107.5t223 61v162h-258v176h477v-565h-213v70q-125 -97 -280 -97q-101 0 -194 39.5t-165.5 110.5t-115.5 179.5t-43 236.5q0 167 75.5 297t208.5 200t301 70q185 0 306.5 -87.5t121.5 -199.5
q0 -69 -39 -112t-102 -43q-66 0 -105.5 36t-39.5 99q0 43 16 69q-68 39 -172 39zM635 1208q-60 0 -104 43.5t-44 104.5t45.5 104t106.5 43q60 0 103.5 -43t43.5 -104t-45 -104.5t-106 -43.5z" />
    <glyph glyph-name="hbar.sc" horiz-adv-x="1374" 
d="M1247 813v-151h-112v-476h157v-186h-542v186h161v240h-448v-240h162v-186h-543v186h158v476h-113v151h113v76h-158v186h543v-180h-162v-90h448v90h-161v180h542v-186h-157v-76h112zM463 584h448v84h-448v-84z" />
    <glyph glyph-name="iacute.sc" horiz-adv-x="714" 
d="M633 0h-551v186h164v703h-164v186h551v-186h-164v-703h164v-186zM334 1200l-70 68l225 307q50 63 113 63q42 0 71 -30t29 -74q0 -65 -63 -113z" />
    <glyph glyph-name="ibreve.sc" horiz-adv-x="714" 
d="M633 0h-551v186h164v703h-164v186h551v-186h-164v-703h164v-186zM352 1229q-128 0 -229 88t-148 268l142 55q43 -105 104 -157.5t131 -52.5t131.5 53t104.5 157l141 -55q-47 -180 -148 -268t-229 -88z" />
    <glyph glyph-name="icircumflex.sc" horiz-adv-x="714" 
d="M633 0h-551v186h164v703h-164v186h551v-186h-164v-703h164v-186zM88 1206l-94 109l362 360l363 -360l-94 -109l-269 197z" />
    <glyph glyph-name="idieresis.sc" horiz-adv-x="714" 
d="M633 0h-551v186h164v703h-164v186h551v-186h-164v-703h164v-186zM565 1229q-60 0 -103.5 43t-43.5 104t45 104.5t106 43.5q60 0 104 -43.5t44 -104.5t-45.5 -104t-106.5 -43zM143 1229q-60 0 -103.5 43t-43.5 104t45 104.5t106 43.5q60 0 104 -43.5t44 -104.5t-45.5 -104
t-106.5 -43z" />
    <glyph glyph-name="idotaccent.sc" horiz-adv-x="714" 
d="M633 0h-551v186h164v703h-164v186h551v-186h-164v-703h164v-186zM354 1208q-60 0 -103.5 43.5t-43.5 104.5t45 104t106 43q60 0 104 -43t44 -104t-45.5 -104.5t-106.5 -43.5z" />
    <glyph glyph-name="dotlessi.sc" horiz-adv-x="714" 
d="M633 0h-551v186h164v703h-164v186h551v-186h-164v-703h164v-186z" />
    <glyph glyph-name="igrave.sc" horiz-adv-x="714" 
d="M633 0h-551v186h164v703h-164v186h551v-186h-164v-703h164v-186zM379 1200l-305 221q-64 49 -64 113q0 44 29.5 74t71.5 30q62 0 112 -63l226 -307z" />
    <glyph glyph-name="imacron.sc" horiz-adv-x="714" 
d="M633 0h-551v186h164v703h-164v186h551v-186h-164v-703h164v-186zM14 1268v182h684v-182h-684z" />
    <glyph glyph-name="iogonek.sc" horiz-adv-x="714" 
d="M377 -412q-111 0 -172.5 58t-61.5 153q0 115 103 201h-164v186h164v703h-164v186h551v-186h-164v-703h164v-186h-205q-98 -65 -98 -145q0 -95 106 -95q79 0 144 35l-11 -162q-72 -45 -192 -45z" />
    <glyph glyph-name="kcommaaccent.sc" horiz-adv-x="1249" 
d="M1075 889l-313 -299l270 -404h162v-186h-305l-291 449l-135 -125v-138h155v-186h-536v186h158v703h-158v186h514v-182h-133v-342l358 342h-129v182h494v-186h-111zM487 -672l-53 68q80 62 123.5 122.5t46.5 100.5q-47 12 -74.5 47.5t-27.5 85.5t39.5 87.5t95.5 37.5
q62 0 103.5 -43t41.5 -121q0 -41 -15.5 -86.5t-48.5 -96.5t-92.5 -104t-138.5 -98z" />
    <glyph glyph-name="lacute.sc" horiz-adv-x="1017" 
d="M770 186v201h207v-387h-895v186h158v703h-158v186h547v-186h-166v-703h307zM342 1180l-70 67l226 307q51 64 112 64q42 0 71.5 -30.5t29.5 -74.5q0 -63 -64 -112z" />
    <glyph glyph-name="lcaron.sc" horiz-adv-x="1017" 
d="M770 186v201h207v-387h-895v186h158v703h-158v186h547v-186h-166v-703h307zM756 557l-72 53q86 126 86 230q0 38 -19.5 91t-19.5 93q0 56 34.5 94.5t96.5 38.5q59 0 92 -38.5t33 -104.5q0 -114 -66 -234.5t-165 -222.5z" />
    <glyph glyph-name="lcommaaccent.sc" horiz-adv-x="1017" 
d="M770 186v201h207v-387h-895v186h158v703h-158v186h547v-186h-166v-703h307zM377 -672l-53 68q80 62 123.5 122.5t46.5 100.5q-47 12 -75 47.5t-28 85.5t39.5 87.5t95.5 37.5q62 0 104 -43t42 -121q0 -41 -15.5 -86.5t-48.5 -96.5t-92.5 -104t-138.5 -98z" />
    <glyph glyph-name="ldot.sc" horiz-adv-x="1017" 
d="M770 186v201h207v-387h-895v186h158v703h-158v186h547v-186h-166v-703h307zM858 487q-60 0 -103.5 43.5t-43.5 104.5t45 104t106 43q60 0 104 -43t44 -104t-45.5 -104.5t-106.5 -43.5z" />
    <glyph glyph-name="lslash.sc" horiz-adv-x="1017" 
d="M770 186v201h207v-387h-895v186h158v203l-154 -70l-78 156l232 107v307h-158v186h547v-186h-166v-205l203 94l73 -157l-276 -127v-308h307z" />
    <glyph glyph-name="nacute.sc" horiz-adv-x="1359" 
d="M428 1075l500 -647v461h-154v186h524v-186h-157v-895h-154l-530 698v-506h143v-186h-518v186h158v703h-158v186h346zM659 1200l-69 68l225 307q50 63 113 63q42 0 71 -30t29 -74q0 -65 -63 -113z" />
    <glyph glyph-name="ncaron.sc" horiz-adv-x="1359" 
d="M428 1075l500 -647v461h-154v186h524v-186h-157v-895h-154l-530 698v-506h143v-186h-518v186h158v703h-158v186h346zM948 1661l94 -109l-362 -360l-363 360l95 109l268 -197z" />
    <glyph glyph-name="ncommaaccent.sc" horiz-adv-x="1359" 
d="M428 1075l500 -647v461h-154v186h524v-186h-157v-895h-154l-530 698v-506h143v-186h-518v186h158v703h-158v186h346zM530 -672l-53 68q80 62 123.5 122.5t46.5 100.5q-47 12 -74.5 47.5t-27.5 85.5t39.5 87.5t95.5 37.5q62 0 103.5 -43t41.5 -121q0 -41 -15.5 -86.5
t-48.5 -96.5t-92.5 -104t-138.5 -98z" />
    <glyph glyph-name="ntilde.sc" horiz-adv-x="1359" 
d="M428 1075l500 -647v461h-154v186h524v-186h-157v-895h-154l-530 698v-506h143v-186h-518v186h158v703h-158v186h346zM846 1231q-99 0 -182 76q-76 67 -123 67q-37 0 -63 -30t-44 -101l-151 39q17 143 86 226t157 83q101 0 183 -75q77 -68 122 -68q37 0 63 30t44 101
l152 -39q-17 -143 -86.5 -226t-157.5 -83z" />
    <glyph glyph-name="oacute.sc" horiz-adv-x="1273" 
d="M637 1106q167 0 297 -76t199 -203.5t69 -283.5q0 -118 -40 -222.5t-112 -181.5t-179 -121.5t-234 -44.5t-234 44.5t-179 121.5t-112 181.5t-40 222.5q0 156 69 283.5t199 203.5t297 76zM637 176q146 0 242 99.5t96 263.5q0 163 -95.5 263.5t-242.5 100.5t-241.5 -100
t-94.5 -264t95.5 -263.5t240.5 -99.5zM618 1200l-69 68l225 307q50 63 113 63q42 0 71 -30t29 -74q0 -65 -63 -113z" />
    <glyph glyph-name="obreve.sc" horiz-adv-x="1273" 
d="M637 1106q167 0 297 -76t199 -203.5t69 -283.5q0 -118 -40 -222.5t-112 -181.5t-179 -121.5t-234 -44.5t-234 44.5t-179 121.5t-112 181.5t-40 222.5q0 156 69 283.5t199 203.5t297 76zM637 176q146 0 242 99.5t96 263.5q0 163 -95.5 263.5t-242.5 100.5t-241.5 -100
t-94.5 -264t95.5 -263.5t240.5 -99.5zM637 1229q-128 0 -229 88t-148 268l141 55q43 -105 104.5 -157.5t131.5 -52.5t131 53t104 157l142 -55q-47 -180 -148 -268t-229 -88z" />
    <glyph glyph-name="ocircumflex.sc" horiz-adv-x="1273" 
d="M637 1106q167 0 297 -76t199 -203.5t69 -283.5q0 -118 -40 -222.5t-112 -181.5t-179 -121.5t-234 -44.5t-234 44.5t-179 121.5t-112 181.5t-40 222.5q0 156 69 283.5t199 203.5t297 76zM637 176q146 0 242 99.5t96 263.5q0 163 -95.5 263.5t-242.5 100.5t-241.5 -100
t-94.5 -264t95.5 -263.5t240.5 -99.5zM373 1206l-94 109l362 360l363 -360l-95 -109l-268 197z" />
    <glyph glyph-name="odieresis.sc" horiz-adv-x="1273" 
d="M637 1106q167 0 297 -76t199 -203.5t69 -283.5q0 -118 -40 -222.5t-112 -181.5t-179 -121.5t-234 -44.5t-234 44.5t-179 121.5t-112 181.5t-40 222.5q0 156 69 283.5t199 203.5t297 76zM637 176q146 0 242 99.5t96 263.5q0 163 -95.5 263.5t-242.5 100.5t-241.5 -100
t-94.5 -264t95.5 -263.5t240.5 -99.5zM850 1229q-60 0 -104 43t-44 104t45.5 104.5t106.5 43.5q60 0 103.5 -43.5t43.5 -104.5t-45 -104t-106 -43zM428 1229q-60 0 -103.5 43t-43.5 104t45 104.5t106 43.5q60 0 104 -43.5t44 -104.5t-45.5 -104t-106.5 -43z" />
    <glyph glyph-name="oe.sc" horiz-adv-x="1593" 
d="M760 186v703h-82q-187 0 -284 -96t-97 -263q0 -165 103 -254.5t290 -89.5h70zM711 1075h782v-375h-205v193h-305v-272h307v-175h-307v-264h307v185h205v-367h-805q-289 0 -453.5 141.5t-164.5 386.5q0 252 164.5 399.5t474.5 147.5z" />
    <glyph glyph-name="ograve.sc" horiz-adv-x="1273" 
d="M637 1106q167 0 297 -76t199 -203.5t69 -283.5q0 -118 -40 -222.5t-112 -181.5t-179 -121.5t-234 -44.5t-234 44.5t-179 121.5t-112 181.5t-40 222.5q0 156 69 283.5t199 203.5t297 76zM637 176q146 0 242 99.5t96 263.5q0 163 -95.5 263.5t-242.5 100.5t-241.5 -100
t-94.5 -264t95.5 -263.5t240.5 -99.5zM664 1200l-306 221q-63 48 -63 113q0 44 29 74t71 30q63 0 113 -63l225 -307z" />
    <glyph glyph-name="ohungarumlaut.sc" horiz-adv-x="1273" 
d="M637 1106q167 0 297 -76t199 -203.5t69 -283.5q0 -118 -40 -222.5t-112 -181.5t-179 -121.5t-234 -44.5t-234 44.5t-179 121.5t-112 181.5t-40 222.5q0 156 69 283.5t199 203.5t297 76zM637 176q146 0 242 99.5t96 263.5q0 163 -95.5 263.5t-242.5 100.5t-241.5 -100
t-94.5 -264t95.5 -263.5t240.5 -99.5zM352 1204l-51 72l299 293q57 57 111 57q45 0 75.5 -31t30.5 -73q0 -79 -90 -127zM799 1204l-45 74l333 297q55 49 109 49q44 0 73 -31t29 -75q0 -77 -92 -123z" />
    <glyph glyph-name="omacron.sc" horiz-adv-x="1273" 
d="M637 1106q167 0 297 -76t199 -203.5t69 -283.5q0 -118 -40 -222.5t-112 -181.5t-179 -121.5t-234 -44.5t-234 44.5t-179 121.5t-112 181.5t-40 222.5q0 156 69 283.5t199 203.5t297 76zM637 176q146 0 242 99.5t96 263.5q0 163 -95.5 263.5t-242.5 100.5t-241.5 -100
t-94.5 -264t95.5 -263.5t240.5 -99.5zM299 1268v182h684v-182h-684z" />
    <glyph glyph-name="oslash.sc" horiz-adv-x="1273" 
d="M637 -27q-173 0 -305 80l-121 -137l-145 127l122 137q-116 150 -116 363q0 156 69 283.5t199 203.5t297 76q180 0 319 -90l131 147l146 -127l-139 -149q108 -148 108 -344q0 -118 -40 -222.5t-112 -181.5t-179 -121.5t-234 -44.5zM301 539q0 -126 53 -209l465 520
q-77 53 -182 53q-147 0 -241.5 -100t-94.5 -264zM637 176q146 0 242 99.5t96 263.5q0 111 -47 194l-463 -514q73 -43 172 -43z" />
    <glyph glyph-name="oslashacute.sc" horiz-adv-x="1273" 
d="M637 -27q-173 0 -305 80l-121 -137l-145 127l122 137q-116 150 -116 363q0 156 69 283.5t199 203.5t297 76q180 0 319 -90l131 147l146 -127l-139 -149q108 -148 108 -344q0 -118 -40 -222.5t-112 -181.5t-179 -121.5t-234 -44.5zM301 539q0 -126 53 -209l465 520
q-77 53 -182 53q-147 0 -241.5 -100t-94.5 -264zM637 176q146 0 242 99.5t96 263.5q0 111 -47 194l-463 -514q73 -43 172 -43zM627 1200l-70 68l225 307q50 63 113 63q42 0 71 -30t29 -74q0 -65 -63 -113z" />
    <glyph glyph-name="otilde.sc" horiz-adv-x="1273" 
d="M637 1106q167 0 297 -76t199 -203.5t69 -283.5q0 -118 -40 -222.5t-112 -181.5t-179 -121.5t-234 -44.5t-234 44.5t-179 121.5t-112 181.5t-40 222.5q0 156 69 283.5t199 203.5t297 76zM637 176q146 0 242 99.5t96 263.5q0 163 -95.5 263.5t-242.5 100.5t-241.5 -100
t-94.5 -264t95.5 -263.5t240.5 -99.5zM805 1231q-99 0 -182 76q-76 67 -123 67q-37 0 -63 -30t-44 -101l-151 39q17 143 86 226t157 83q101 0 183 -75q77 -68 123 -68q37 0 62.5 30t43.5 101l152 -39q-17 -143 -86.5 -226t-157.5 -83z" />
    <glyph glyph-name="racute.sc" horiz-adv-x="1163" 
d="M582 889h-119v-309q63 -7 129 -7q99 0 157 44t58 118q0 72 -59.5 113t-165.5 41zM463 391v-205h143v-186h-524v186h158v703h-158v186h514q199 0 318.5 -86t119.5 -252q0 -95 -50.5 -170t-135.5 -118l127 -263h147v-186h-313l-176 393q-39 -4 -80 -4q-61 0 -90 2z
M543 1200l-70 68l225 307q50 63 113 63q42 0 71 -30t29 -74q0 -65 -63 -113z" />
    <glyph glyph-name="rcaron.sc" horiz-adv-x="1163" 
d="M582 889h-119v-309q63 -7 129 -7q99 0 157 44t58 118q0 72 -59.5 113t-165.5 41zM463 391v-205h143v-186h-524v186h158v703h-158v186h514q199 0 318.5 -86t119.5 -252q0 -95 -50.5 -170t-135.5 -118l127 -263h147v-186h-313l-176 393q-39 -4 -80 -4q-61 0 -90 2z
M831 1661l95 -109l-363 -360l-362 360l94 109l268 -197z" />
    <glyph glyph-name="rcommaaccent.sc" horiz-adv-x="1163" 
d="M582 889h-119v-309q63 -7 129 -7q99 0 157 44t58 118q0 72 -59.5 113t-165.5 41zM463 391v-205h143v-186h-524v186h158v703h-158v186h514q199 0 318.5 -86t119.5 -252q0 -95 -50.5 -170t-135.5 -118l127 -263h147v-186h-313l-176 393q-39 -4 -80 -4q-61 0 -90 2z
M438 -672l-53 68q80 62 123.5 122.5t46.5 100.5q-47 12 -74.5 47.5t-27.5 85.5t39.5 87.5t95.5 37.5q62 0 103.5 -43t41.5 -121q0 -41 -15.5 -86.5t-48.5 -96.5t-92.5 -104t-138.5 -98z" />
    <glyph glyph-name="sacute.sc" horiz-adv-x="1044" 
d="M668 829q0 32 12 56q-64 37 -160 37q-76 0 -123 -32t-47 -89q0 -14 4 -26.5t12.5 -23.5t17 -19.5t24 -17.5t26 -14.5t30 -13t29.5 -11t31.5 -11t28.5 -9.5q45 -15 68.5 -23t64 -23.5t63 -26.5t55 -29.5t50.5 -35t39.5 -40t32.5 -48.5t18.5 -57t7.5 -67q0 -164 -116 -248
t-312 -84q-114 0 -213.5 37t-159 102.5t-59.5 143.5q0 68 35.5 107.5t99.5 39.5t106 -39.5t42 -91.5q0 -39 -15 -69q62 -45 175 -45q200 0 200 127q0 21 -8 38.5t-27.5 33t-34.5 25.5t-48 22.5t-46.5 17t-50.5 16.5q-46 15 -70.5 23.5t-65 23.5t-62.5 26t-53.5 28.5
t-49 33.5t-38 39t-30.5 47.5t-17 55t-7 65.5q0 144 113 235t297 91q176 0 291.5 -75.5t115.5 -188.5q0 -65 -36 -103.5t-93 -38.5q-69 0 -108 39.5t-39 89.5zM512 1200l-70 68l226 307q50 63 112 63q42 0 71.5 -30t29.5 -74q0 -64 -64 -113z" />
    <glyph glyph-name="scaron.sc" horiz-adv-x="1044" 
d="M668 829q0 32 12 56q-64 37 -160 37q-76 0 -123 -32t-47 -89q0 -14 4 -26.5t12.5 -23.5t17 -19.5t24 -17.5t26 -14.5t30 -13t29.5 -11t31.5 -11t28.5 -9.5q45 -15 68.5 -23t64 -23.5t63 -26.5t55 -29.5t50.5 -35t39.5 -40t32.5 -48.5t18.5 -57t7.5 -67q0 -164 -116 -248
t-312 -84q-114 0 -213.5 37t-159 102.5t-59.5 143.5q0 68 35.5 107.5t99.5 39.5t106 -39.5t42 -91.5q0 -39 -15 -69q62 -45 175 -45q200 0 200 127q0 21 -8 38.5t-27.5 33t-34.5 25.5t-48 22.5t-46.5 17t-50.5 16.5q-46 15 -70.5 23.5t-65 23.5t-62.5 26t-53.5 28.5
t-49 33.5t-38 39t-30.5 47.5t-17 55t-7 65.5q0 144 113 235t297 91q176 0 291.5 -75.5t115.5 -188.5q0 -65 -36 -103.5t-93 -38.5q-69 0 -108 39.5t-39 89.5zM801 1661l94 -109l-363 -360l-362 360l94 109l268 -197z" />
    <glyph glyph-name="scedilla.sc" horiz-adv-x="1044" 
d="M551 -410q-139 0 -256 70l35 68q100 -43 180 -43q36 0 58 14.5t22 38.5q0 8 -4.5 16t-16 17t-37.5 14.5t-63 5.5l-23 -2l-43 51l56 137q-155 15 -261 93.5t-106 185.5q0 68 35.5 107.5t99.5 39.5t106 -39.5t42 -91.5q0 -39 -15 -69q62 -45 175 -45q200 0 200 127
q0 21 -8 38.5t-27.5 33t-34.5 25.5t-48 22.5t-46.5 17t-50.5 16.5q-46 15 -70.5 23.5t-65 23.5t-62.5 26t-53.5 28.5t-49 33.5t-38 39t-30.5 47.5t-17 55t-7 65.5q0 144 113 235t297 91q176 0 291.5 -75.5t115.5 -188.5q0 -65 -36 -103.5t-93 -38.5q-69 0 -108 39.5
t-39 89.5q0 32 12 56q-64 37 -160 37q-76 0 -123 -32t-47 -89q0 -14 4 -26.5t12.5 -23.5t17 -19.5t24 -17.5t26 -14.5t30 -13t29.5 -11t31.5 -11t28.5 -9.5q45 -15 68.5 -23t64 -23.5t63 -26.5t55 -29.5t50.5 -35t39.5 -40t32.5 -48.5t18.5 -57t7.5 -67
q0 -157 -105.5 -239.5t-285.5 -90.5l8 -65q98 -12 157.5 -55t59.5 -109q0 -62 -65 -109t-170 -47z" />
    <glyph glyph-name="scommaaccent.sc" horiz-adv-x="1044" 
d="M668 829q0 32 12 56q-64 37 -160 37q-76 0 -123 -32t-47 -89q0 -14 4 -26.5t12.5 -23.5t17 -19.5t24 -17.5t26 -14.5t30 -13t29.5 -11t31.5 -11t28.5 -9.5q45 -15 68.5 -23t64 -23.5t63 -26.5t55 -29.5t50.5 -35t39.5 -40t32.5 -48.5t18.5 -57t7.5 -67q0 -164 -116 -248
t-312 -84q-114 0 -213.5 37t-159 102.5t-59.5 143.5q0 68 35.5 107.5t99.5 39.5t106 -39.5t42 -91.5q0 -39 -15 -69q62 -45 175 -45q200 0 200 127q0 21 -8 38.5t-27.5 33t-34.5 25.5t-48 22.5t-46.5 17t-50.5 16.5q-46 15 -70.5 23.5t-65 23.5t-62.5 26t-53.5 28.5
t-49 33.5t-38 39t-30.5 47.5t-17 55t-7 65.5q0 144 113 235t297 91q176 0 291.5 -75.5t115.5 -188.5q0 -65 -36 -103.5t-93 -38.5q-69 0 -108 39.5t-39 89.5zM383 -672l-53 68q80 62 123.5 122.5t46.5 100.5q-47 12 -75 47.5t-28 85.5t39.5 87.5t95.5 37.5q62 0 104 -43
t42 -121q0 -41 -15.5 -86.5t-48.5 -96.5t-92.5 -104t-138.5 -98z" />
    <glyph glyph-name="tcaron.sc" horiz-adv-x="1116" 
d="M283 0v186h163v709h-194v-217h-205v397h1022v-397h-205v217h-194v-709h164v-186h-551zM823 1661l95 -109l-363 -360l-362 360l94 109l268 -197z" />
    <glyph glyph-name="tcommaaccent.sc" horiz-adv-x="1116" 
d="M283 0v186h163v709h-194v-217h-205v397h1022v-397h-205v217h-194v-709h164v-186h-551zM406 -672l-54 68q80 62 123.5 122.5t46.5 100.5q-47 12 -74.5 47.5t-27.5 85.5t39.5 87.5t95.5 37.5q62 0 103.5 -43t41.5 -121q0 -56 -26 -117.5t-95 -135t-173 -132.5z" />
    <glyph glyph-name="thorn.sc" horiz-adv-x="1030" 
d="M463 813q63 2 147 2q105 0 185.5 -26.5t132 -88.5t51.5 -155q0 -143 -105 -211t-272 -68q-76 0 -139 2v-86h162v-182h-543v186h158v703h-158v186h543v-182h-162v-80zM463 440q39 -2 153 -2q62 0 106 25t44 74q0 53 -43.5 77.5t-106.5 24.5q-104 0 -153 -2v-197z" />
    <glyph glyph-name="uacute.sc" horiz-adv-x="1277" 
d="M426 889v-477q0 -119 57.5 -185.5t157.5 -66.5q101 0 158 63t57 183v483h-151v186h522v-186h-152v-467q0 -221 -118 -336t-318 -115q-205 0 -320.5 113t-115.5 332v473h-152v186h527v-186h-152zM616 1200l-69 68l225 307q50 63 113 63q42 0 71 -30t29 -74q0 -65 -63 -113
z" />
    <glyph glyph-name="ubreve.sc" horiz-adv-x="1277" 
d="M426 889v-477q0 -119 57.5 -185.5t157.5 -66.5q101 0 158 63t57 183v483h-151v186h522v-186h-152v-467q0 -221 -118 -336t-318 -115q-205 0 -320.5 113t-115.5 332v473h-152v186h527v-186h-152zM635 1229q-128 0 -229 88t-148 268l141 55q43 -105 104.5 -157.5
t131.5 -52.5t131 53t104 157l142 -55q-47 -180 -148 -268t-229 -88z" />
    <glyph glyph-name="ucircumflex.sc" horiz-adv-x="1277" 
d="M426 889v-477q0 -119 57.5 -185.5t157.5 -66.5q101 0 158 63t57 183v483h-151v186h522v-186h-152v-467q0 -221 -118 -336t-318 -115q-205 0 -320.5 113t-115.5 332v473h-152v186h527v-186h-152zM371 1206l-95 109l363 360l362 -360l-94 -109l-268 197z" />
    <glyph glyph-name="udieresis.sc" horiz-adv-x="1277" 
d="M426 889v-477q0 -119 57.5 -185.5t157.5 -66.5q101 0 158 63t57 183v483h-151v186h522v-186h-152v-467q0 -221 -118 -336t-318 -115q-205 0 -320.5 113t-115.5 332v473h-152v186h527v-186h-152zM848 1229q-60 0 -104 43t-44 104t45.5 104.5t106.5 43.5q60 0 103.5 -43.5
t43.5 -104.5t-45 -104t-106 -43zM426 1229q-60 0 -103.5 43t-43.5 104t45 104.5t106 43.5q60 0 104 -43.5t44 -104.5t-45.5 -104t-106.5 -43z" />
    <glyph glyph-name="ugrave.sc" horiz-adv-x="1277" 
d="M426 889v-477q0 -119 57.5 -185.5t157.5 -66.5q101 0 158 63t57 183v483h-151v186h522v-186h-152v-467q0 -221 -118 -336t-318 -115q-205 0 -320.5 113t-115.5 332v473h-152v186h527v-186h-152zM662 1200l-306 221q-63 48 -63 113q0 44 29 74t71 30q63 0 113 -63
l225 -307z" />
    <glyph glyph-name="uhungarumlaut.sc" horiz-adv-x="1277" 
d="M426 889v-477q0 -119 57.5 -185.5t157.5 -66.5q101 0 158 63t57 183v483h-151v186h522v-186h-152v-467q0 -221 -118 -336t-318 -115q-205 0 -320.5 113t-115.5 332v473h-152v186h527v-186h-152zM350 1204l-51 72l299 293q57 57 111 57q45 0 75.5 -31t30.5 -73
q0 -79 -90 -127zM797 1204l-45 74l333 297q55 49 109 49q44 0 73 -31t29 -75q0 -77 -92 -123z" />
    <glyph glyph-name="umacron.sc" horiz-adv-x="1277" 
d="M426 889v-477q0 -119 57.5 -185.5t157.5 -66.5q101 0 158 63t57 183v483h-151v186h522v-186h-152v-467q0 -221 -118 -336t-318 -115q-205 0 -320.5 113t-115.5 332v473h-152v186h527v-186h-152zM297 1268v182h684v-182h-684z" />
    <glyph glyph-name="uogonek.sc" horiz-adv-x="1277" 
d="M426 889v-477q0 -119 57.5 -185.5t157.5 -66.5q101 0 158 63t57 183v483h-151v186h522v-186h-152v-467q0 -206 -103.5 -320.5t-281.5 -128.5q-63 -57 -63 -118q0 -95 106 -95q79 0 144 35l-11 -162q-72 -45 -192 -45q-111 0 -172.5 58t-61.5 153q0 102 84 183
q-153 28 -237 137.5t-84 296.5v473h-152v186h527v-186h-152z" />
    <glyph glyph-name="uring.sc" horiz-adv-x="1277" 
d="M426 889v-477q0 -119 57.5 -185.5t157.5 -66.5q101 0 158 63t57 183v483h-151v186h522v-186h-152v-467q0 -221 -118 -336t-318 -115q-205 0 -320.5 113t-115.5 332v473h-152v186h527v-186h-152zM639 1190q-116 0 -195 76t-79 190t79 190t195 76t195 -76t79 -190t-79 -190
t-195 -76zM639 1335q46 0 76 36t30 85t-30 85t-76 36t-76.5 -36t-30.5 -85t30.5 -85t76.5 -36z" />
    <glyph glyph-name="wacute.sc" horiz-adv-x="1669" 
d="M440 -14l-282 903h-133v186h526v-186h-156l160 -549l233 606h109l233 -604l162 547h-162v186h515v-186h-134l-282 -903h-162l-233 592l-232 -592h-162zM813 1200l-70 68l226 307q50 63 112 63q42 0 71.5 -30t29.5 -74q0 -64 -64 -113z" />
    <glyph glyph-name="wcircumflex.sc" horiz-adv-x="1669" 
d="M440 -14l-282 903h-133v186h526v-186h-156l160 -549l233 606h109l233 -604l162 547h-162v186h515v-186h-134l-282 -903h-162l-233 592l-232 -592h-162zM567 1206l-94 109l363 360l362 -360l-94 -109l-268 197z" />
    <glyph glyph-name="wdieresis.sc" horiz-adv-x="1669" 
d="M440 -14l-282 903h-133v186h526v-186h-156l160 -549l233 606h109l233 -604l162 547h-162v186h515v-186h-134l-282 -903h-162l-233 592l-232 -592h-162zM1044 1229q-60 0 -103.5 43t-43.5 104t45.5 104.5t106.5 43.5q60 0 103.5 -43.5t43.5 -104.5t-45.5 -104t-106.5 -43z
M623 1229q-60 0 -104 43t-44 104t45.5 104.5t106.5 43.5q60 0 103.5 -43.5t43.5 -104.5t-45 -104t-106 -43z" />
    <glyph glyph-name="wgrave.sc" horiz-adv-x="1669" 
d="M440 -14l-282 903h-133v186h526v-186h-156l160 -549l233 606h109l233 -604l162 547h-162v186h515v-186h-134l-282 -903h-162l-233 592l-232 -592h-162zM858 1200l-305 221q-64 49 -64 113q0 44 29.5 74t71.5 30q62 0 112 -63l226 -307z" />
    <glyph glyph-name="yacute.sc" horiz-adv-x="1112" 
d="M1100 1075v-186h-113l-319 -496v-207h163v-186h-550v186h163v207l-319 496h-113v186h488v-182h-140l201 -326l203 326h-148v182h484zM532 1200l-69 68l225 307q50 63 113 63q42 0 71 -30t29 -74q0 -65 -63 -113z" />
    <glyph glyph-name="ycircumflex.sc" horiz-adv-x="1112" 
d="M1100 1075v-186h-113l-319 -496v-207h163v-186h-550v186h163v207l-319 496h-113v186h488v-182h-140l201 -326l203 326h-148v182h484zM287 1206l-94 109l362 360l363 -360l-95 -109l-268 197z" />
    <glyph glyph-name="ydieresis.sc" horiz-adv-x="1112" 
d="M1100 1075v-186h-113l-319 -496v-207h163v-186h-550v186h163v207l-319 496h-113v186h488v-182h-140l201 -326l203 326h-148v182h484zM764 1229q-60 0 -104 43t-44 104t45.5 104.5t106.5 43.5q60 0 103.5 -43.5t43.5 -104.5t-45 -104t-106 -43zM342 1229q-60 0 -103.5 43
t-43.5 104t45 104.5t106 43.5q60 0 104 -43.5t44 -104.5t-45.5 -104t-106.5 -43z" />
    <glyph glyph-name="ygrave.sc" horiz-adv-x="1112" 
d="M1100 1075v-186h-113l-319 -496v-207h163v-186h-550v186h163v207l-319 496h-113v186h488v-182h-140l201 -326l203 326h-148v182h484zM578 1200l-306 221q-63 48 -63 113q0 44 29 74t71 30q63 0 113 -63l225 -307z" />
    <glyph glyph-name="zacute.sc" 
d="M84 0v129l606 766h-389v-209h-188v389h884v-129l-604 -766h416v207h188v-387h-913zM518 1200l-69 68l225 307q50 63 112 63q42 0 71.5 -30t29.5 -74q0 -64 -64 -113z" />
    <glyph glyph-name="zcaron.sc" 
d="M84 0v129l606 766h-389v-209h-188v389h884v-129l-604 -766h416v207h188v-387h-913zM807 1661l94 -109l-362 -360l-363 360l94 109l269 -197z" />
    <glyph glyph-name="zdotaccent.sc" 
d="M84 0v129l606 766h-389v-209h-188v389h884v-129l-604 -766h416v207h188v-387h-913zM539 1208q-60 0 -104 43.5t-44 104.5t45.5 104t106.5 43q60 0 103.5 -43t43.5 -104t-45 -104.5t-106 -43.5z" />
    <glyph glyph-name="zero.lin" horiz-adv-x="1357" 
d="M676 -25q-116 0 -220.5 51.5t-182 142t-123.5 221.5t-46 282q0 154 46 286t124.5 222t184.5 141t223 51q115 0 219.5 -51t182 -141t123.5 -221t46 -283q0 -153 -46 -285t-124.5 -222.5t-184 -142t-222.5 -51.5zM678 190q153 0 244.5 135.5t91.5 346.5q0 214 -91.5 349.5
t-244.5 135.5q-152 0 -243 -134.5t-91 -346.5q0 -213 91.5 -349.5t242.5 -136.5z" />
    <glyph glyph-name="one.lin" horiz-adv-x="894" 
d="M117 0v207h241v903l-221 -53l-53 196l389 101h117v-1147h237v-207h-710z" />
    <glyph glyph-name="two.lin" horiz-adv-x="1196" 
d="M117 1018q0 81 41 149q54 93 170 149t272 56q129 0 236 -49t171 -140.5t64 -207.5q0 -62 -20 -118t-48 -95.5t-76 -81.5t-84 -67t-93 -60q-59 -37 -105.5 -69.5t-103 -78.5t-103 -99.5t-78.5 -110.5h547v225h195v-420h-957q-4 0 -21.5 26.5t-32.5 53.5l-15 26
q36 90 88.5 171.5t101.5 138t115.5 114t111 90t107.5 74.5q49 33 75.5 52t61 49t52 55t30 58.5t12.5 70.5q0 79 -70.5 134.5t-178.5 55.5q-75 0 -138 -21t-94 -56q62 -42 62 -115q0 -58 -41.5 -99.5t-100.5 -41.5q-77 0 -115 52.5t-38 129.5z" />
    <glyph glyph-name="three.lin" horiz-adv-x="1163" 
d="M559 172q112 0 193.5 54.5t81.5 144.5q0 133 -140 186q-91 33 -221 33h-86v207h92q135 0 217 43q109 58 109 172q0 80 -71.5 122t-172.5 42q-123 0 -188 -46q26 -37 26 -79q0 -57 -41.5 -98.5t-99.5 -41.5q-59 0 -102 46.5t-43 119.5q0 60 47 125q55 74 158.5 122
t250.5 48q202 0 338.5 -100.5t136.5 -251.5q0 -84 -42.5 -155t-114.5 -115q-54 -35 -119 -48q69 -20 121 -51q184 -105 184 -295q0 -116 -71 -203.5t-187 -132.5t-258 -45q-145 0 -265.5 52.5t-182.5 134.5q-50 66 -50 135q0 67 41 113.5t105 46.5q60 0 100.5 -40.5
t40.5 -99.5q0 -45 -27 -84q81 -61 240 -61z" />
    <glyph glyph-name="four.lin" horiz-adv-x="1200" 
d="M481 0v188h228v197h-619l-55 111l737 901l168 -133l-582 -697h351v217l231 93v-306h207v-190h-207v-186h156v-195h-615z" />
    <glyph glyph-name="five.lin" horiz-adv-x="1105" 
d="M524 176q135 0 211 73.5t76 190.5q0 103 -76.5 170.5t-212.5 67.5q-64 0 -138 -15.5t-128 -44.5l-104 58l61 672h741v-213h-553l-24 -275q108 21 180 21q132 0 240 -53t173.5 -155t65.5 -233q0 -203 -140 -334t-353 -131q-251 0 -377 119q-72 69 -72 152q0 65 41 107
t105 42q66 0 104.5 -41t38.5 -98q0 -21 -8 -53q59 -27 149 -27z" />
    <glyph glyph-name="six.lin" horiz-adv-x="1196" 
d="M1071 1120q0 -73 -40 -109t-99 -36q-67 0 -104 41t-37 94q0 17 4 45q-50 16 -113 16q-147 0 -250 -129t-106 -327q21 21 45 39q59 45 134 69.5t146 24.5q207 0 344.5 -122t137.5 -304q0 -124 -65 -226t-181 -161.5t-258 -59.5q-221 0 -367 146q-85 85 -123.5 208.5
t-38.5 297.5q0 173 45.5 314.5t124 235t184.5 144.5t228 51q183 0 297 -84q92 -69 92 -168zM633 174q111 0 187.5 71.5t76.5 170.5q0 105 -78.5 169t-206.5 64q-114 0 -193 -63t-79 -160q0 -105 86 -178q87 -74 207 -74z" />
    <glyph glyph-name="seven.lin" horiz-adv-x="1050" 
d="M209 0l547 1153h-480v-258h-206v453h891l57 -127l-559 -1221h-250z" />
    <glyph glyph-name="eight.lin" horiz-adv-x="1183" 
d="M590 -25q-236 0 -375 112t-139 278q0 113 66.5 203.5t193.5 125.5q-110 39 -170 117.5t-60 177.5q0 163 136.5 273t347.5 110q212 0 349.5 -110t137.5 -273q0 -98 -61 -177t-172 -118q127 -35 195.5 -126t68.5 -203q0 -165 -141 -277.5t-377 -112.5zM590 776
q98 0 168.5 57t70.5 142q0 91 -67 145t-172 54t-171.5 -54t-66.5 -145q0 -85 70 -142t168 -57zM590 176q121 0 196.5 60.5t75.5 148.5q0 89 -76 152t-196 63t-195.5 -63t-75.5 -152q0 -88 75.5 -148.5t195.5 -60.5z" />
    <glyph glyph-name="nine.lin" horiz-adv-x="1196" 
d="M127 227q0 73 40 109.5t99 36.5q67 0 104.5 -41t37.5 -94q0 -3 -7 -45q49 -17 115 -17q147 0 251 131t105 326q-60 -61 -148 -97t-177 -36q-207 0 -344 122t-137 304q0 124 65 226t180.5 161t257.5 59q222 0 367 -145q85 -85 123.5 -208.5t38.5 -297.5q0 -173 -45.5 -315
t-124 -235.5t-184.5 -144.5t-228 -51q-183 0 -297 84q-92 69 -92 168zM586 698q114 0 193 63.5t79 160.5q0 102 -84 176q-86 76 -209 76q-111 0 -187.5 -71.5t-76.5 -170.5q0 -105 78.5 -169.5t206.5 -64.5z" />
    <glyph glyph-name="bullet.alt" horiz-adv-x="1312" 
d="M655 -100q-130 0 -239 45t-181 121.5t-111.5 178t-39.5 214.5q0 111 40.5 211.5t113 177.5t181 122.5t236.5 45.5q173 0 305.5 -77.5t200.5 -203t68 -276.5q0 -149 -69 -275.5t-202 -205t-303 -78.5z" />
    <glyph glyph-name="hyphen.lin" horiz-adv-x="765" 
d="M86 567v230h594v-230h-594z" />
    <glyph glyph-name="endash.lin" horiz-adv-x="1165" 
d="M45 578v208h1075v-208h-1075z" />
    <glyph glyph-name="emdash.lin" horiz-adv-x="1751" 
d="M45 578v208h1661v-208h-1661z" />
    <glyph glyph-name="parenleft.lin" horiz-adv-x="901" 
d="M788 -342q-54 27 -109.5 62.5t-120 89t-122 115t-111.5 142.5t-93.5 168.5t-63 197t-23.5 224.5q0 159 45 306t113.5 253.5t158.5 198t169 147.5t157 95l107 -158q-81 -53 -142.5 -101t-133.5 -125.5t-118.5 -161t-78 -201.5t-31.5 -253t31.5 -253t78 -201.5
t118.5 -160.5t133.5 -125t142.5 -101z" />
    <glyph glyph-name="parenright.lin" horiz-adv-x="901" 
d="M113 -342l-107 158q81 53 142.5 101t133.5 125t118.5 160.5t78 201.5t31.5 253t-31.5 253t-78 201.5t-118.5 161t-133.5 125.5t-142.5 101l107 158q78 -39 157 -95t169 -147.5t158.5 -198t113.5 -253.5t45 -306q0 -115 -23.5 -224.5t-63 -197t-93.5 -168.5t-111.5 -142.5
t-122 -115t-120 -89t-109.5 -62.5z" />
    <glyph glyph-name="bracketleft.lin" horiz-adv-x="780" 
d="M186 -287v1909h533v-192h-332v-1522h332v-195h-533z" />
    <glyph glyph-name="bracketright.lin" horiz-adv-x="780" 
d="M61 -287v195h332v1522h-332v192h533v-1909h-533z" />
    <glyph glyph-name="braceleft.lin" horiz-adv-x="794" 
d="M702 -322q-148 4 -257 30.5t-172 72.5t-93 103t-30 128q0 92 43 158.5t124 136.5q48 43 68.5 71.5t20.5 67.5q0 54 -56.5 88.5t-169.5 34.5h-59v189h59q113 0 169.5 34.5t56.5 88.5q0 39 -20.5 67.5t-68.5 71.5q-81 70 -124 136.5t-43 158.5q0 71 30 128t93 103t172 72.5
t257 30.5v-170q-342 -21 -342 -166q0 -34 29 -74.5t92 -103.5q78 -78 117 -137.5t39 -125.5q0 -84 -67 -137t-181 -71q114 -18 181 -71.5t67 -137.5q0 -66 -39 -125t-117 -137q-63 -63 -92 -104t-29 -75q0 -145 342 -166v-170z" />
    <glyph glyph-name="braceright.lin" horiz-adv-x="794" 
d="M92 -322v170q342 21 342 166q0 34 -29 75t-92 104q-78 78 -116.5 137t-38.5 125q0 84 67 137.5t181 71.5q-114 18 -181 71t-67 137q0 66 39 126t116 137q63 63 92 103.5t29 74.5q0 145 -342 166v170q148 -4 257 -30.5t172.5 -72.5t93.5 -103t30 -128q0 -92 -43 -158
t-125 -137q-48 -43 -68 -71.5t-20 -67.5q0 -55 56 -89t169 -34h60v-189h-60q-113 0 -169 -34t-56 -89q0 -39 20 -67.5t68 -71.5q82 -71 125 -137t43 -158q0 -71 -30 -128t-93.5 -103t-172.5 -72.5t-257 -30.5z" />
    <glyph glyph-name="registered.alt" horiz-adv-x="1269" 
d="M614 -16q-152 0 -279 73.5t-200.5 200.5t-73.5 279t73.5 279.5t200.5 201.5t279 74t279 -74t200.5 -201.5t73.5 -279.5q0 -112 -44 -214.5t-118 -176.5t-176.5 -118t-214.5 -44zM614 78q185 0 316 134t131 325q0 195 -129.5 327.5t-317.5 132.5t-317 -132.5t-129 -327.5
t129 -327t317 -132zM623 276h-222v84h62v373h-62v82h209q97 0 155 -41.5t58 -120.5q0 -51 -28 -89t-74 -58l84 -146h61v-84h-125l-108 205h-78v-121h68v-84zM606 733h-51v-172h53q54 0 86.5 23.5t32.5 64.5q0 42 -32 63t-89 21z" />
    <glyph glyph-name="copyright.lin" horiz-adv-x="1601" 
d="M801 -25q-189 0 -346.5 94t-247.5 254.5t-90 350.5q0 142 53 271t144 222.5t218 149t269 55.5t269 -55.5t218 -149t144 -222.5t53 -271q0 -190 -90 -350.5t-247.5 -254.5t-346.5 -94zM801 76q163 0 295 80.5t205 217t73 300.5t-73 300.5t-205 217t-295 80.5t-295.5 -80.5
t-205.5 -217t-73 -300.5t73 -300.5t205.5 -217t295.5 -80.5zM813 909q-88 0 -151.5 -62.5t-63.5 -158.5q0 -92 59.5 -155.5t147.5 -63.5q68 0 112.5 20.5t86.5 65.5l88 -90q-93 -127 -287 -127q-141 0 -245.5 97t-104.5 253q0 145 107.5 246.5t252.5 101.5q122 0 198.5 -53
t76.5 -117q0 -38 -27 -65t-62 -27q-34 0 -57.5 24t-23.5 58q0 21 6 27q-33 26 -113 26z" />
    <glyph glyph-name="published.lin" horiz-adv-x="1601" 
d="M801 -25q-189 0 -346.5 94t-247.5 254.5t-90 350.5q0 142 53 271t144 222.5t218 149t269 55.5t269 -55.5t218 -149t144 -222.5t53 -271q0 -190 -90 -350.5t-247.5 -254.5t-346.5 -94zM801 76q163 0 295 80.5t205 217t73 300.5t-73 300.5t-205 217t-295 80.5t-295.5 -80.5
t-205.5 -217t-73 -300.5t73 -300.5t205.5 -217t295.5 -80.5zM819 551h-53v-98h80v-119h-285v119h72v436h-72v119h277q111 0 183.5 -62t72.5 -164q0 -117 -74 -174t-201 -57zM831 659q59 0 92 33.5t33 89.5q0 46 -35.5 76.5t-93.5 30.5h-61v-227q16 -3 65 -3z" />
    <glyph glyph-name="registered.lin" horiz-adv-x="1601" 
d="M801 -25q-189 0 -346.5 94t-247.5 254.5t-90 350.5q0 142 53 271t144 222.5t218 149t269 55.5t269 -55.5t218 -149t144 -222.5t53 -271q0 -190 -90 -350.5t-247.5 -254.5t-346.5 -94zM801 76q163 0 295 80.5t205 217t73 300.5t-73 300.5t-205 217t-295 80.5t-295.5 -80.5
t-205.5 -217t-73 -300.5t73 -300.5t205.5 -217t295.5 -80.5zM737 600v-129h84v-119h-289v119h74v436h-74v119h265q123 0 197.5 -52t74.5 -155q0 -135 -117 -184l86 -164h74v-119h-164l-123 248h-88zM737 707h74q55 0 88 26t33 74q0 100 -127 100h-68v-200z" />
    <glyph glyph-name="dollar.lin" horiz-adv-x="1230" 
d="M623 -215l-181 14l19 213q-166 28 -272.5 108.5t-106.5 180.5q0 71 43.5 116.5t107.5 45.5q59 0 98.5 -40.5t39.5 -92.5q0 -42 -19 -82q37 -29 142 -47l34 399q-64 18 -116 37.5t-105.5 51.5t-89 70.5t-58 94.5t-22.5 123q0 156 123 258t330 111l16 192l180 -14l-16 -189
q156 -25 253 -97.5t97 -170.5q0 -70 -38.5 -111t-98.5 -41q-67 0 -107 41.5t-40 96.5q0 35 14 63q-40 21 -117 33l-33 -377q99 -25 169 -53.5t134 -72.5t97 -108.5t33 -148.5q0 -181 -135 -282t-357 -107zM901 379q0 71 -52.5 112.5t-170.5 73.5l-33 -375q112 8 184 58.5
t72 130.5zM371 985q0 -67 46.5 -107.5t133.5 -68.5l31 346q-93 -11 -152 -58t-59 -112z" />
    <glyph glyph-name="sterling.lin" horiz-adv-x="1224" 
d="M47 98q0 33 12 59.5t40 49t83 31t133 0.5q68 70 68 219v18h-277v191h240l-12 34q-2 5 -15.5 39t-17 44.5t-13.5 40t-13.5 46t-7 41.5t-3.5 47q0 176 130.5 294t320.5 118q158 0 272.5 -80t114.5 -190q0 -62 -40 -111t-106 -49q-64 0 -102.5 38t-38.5 91q0 41 19 72
q-14 14 -49 26.5t-76 12.5q-92 0 -158 -61.5t-66 -162.5q0 -98 52 -233q2 -6 9.5 -26t10.5 -31h389v-191h-356v-12q0 -79 -15 -131t-55 -88q92 0 174 -23q140 -39 193 -39q60 0 95 28t79 105l145 -79q-45 -142 -118 -199t-197 -57q-62 0 -114.5 11t-135.5 40
q-113 38 -254 41q-82 -97 -199 -97q-69 0 -105 33t-36 90z" />
    <glyph glyph-name="Euro.lin" horiz-adv-x="1466" 
d="M86 743v191h207q67 203 227.5 320.5t368.5 117.5q102 0 192.5 -33.5t150.5 -86.5t95 -116.5t35 -123.5q0 -74 -45 -126t-113 -52q-60 0 -102.5 42.5t-42.5 102.5q0 65 47 106q-69 72 -221 72q-136 0 -228.5 -61.5t-140.5 -171.5h418v-176h-459q-4 -54 -4 -78q0 -57 4 -84
h459v-176h-414q48 -105 135.5 -161t208.5 -56q104 0 191.5 38t177.5 125l133 -149q-96 -112 -226 -171t-278 -59q-196 0 -349 111.5t-220 310.5h-207v191h174q-4 50 -4 80q0 23 4 73h-174z" />
    <glyph glyph-name="yen.lin" horiz-adv-x="1320" 
d="M375 2v168h170v104h-326v168h326v121h-326v168h209l-276 426h-125v191h510v-191h-129l258 -442l256 442h-138v191h510v-191h-125l-278 -426h211v-168h-326v-121h326v-168h-326v-104h170v-168h-571z" />
    <glyph glyph-name="cent.lin" horiz-adv-x="1083" 
d="M412 -35l28 301q-165 43 -257.5 166.5t-92.5 286.5q0 109 54 206.5t155.5 164.5t228.5 81l19 209l164 -14l-19 -201q140 -27 231 -108.5t91 -171.5q0 -67 -40.5 -106.5t-96.5 -39.5q-53 0 -90 37.5t-37 89.5q0 44 28 84q-49 39 -112 49l-54 -575h17q181 0 356 94
l-16 -190q-143 -82 -363 -82h-4l-27 -295zM309 715q0 -81 42 -151t118 -107l49 540q-95 -21 -152 -93t-57 -189z" />
    <glyph glyph-name="numbersign.lin" horiz-adv-x="1277" 
d="M123 793v204h225l53 351h230l-53 -351h225l53 351h229l-53 -351h201v-204h-234l-38 -263h194l-12 -204h-213l-49 -326h-230l49 326h-225l-49 -326h-229l49 326h-201v204h231l39 263h-192zM537 803l-43 -283h245l43 283h-245z" />
    <glyph glyph-name="paragraph.lin" horiz-adv-x="1533" 
d="M479 0v207h209v239q-37 -2 -84 -2q-245 0 -390.5 118.5t-145.5 344.5q0 201 144 321t366 120h888v-207h-153v-934h153v-207h-987zM913 197h174v954h-174v-954z" />
    <glyph glyph-name="section.lin" horiz-adv-x="1095" 
d="M260 322q61 0 99 -36t38 -93q0 -15 -2 -29q49 -19 142 -19q90 0 130 26t40 67q0 23 -14 40.5t-45 32t-65.5 25.5t-90.5 27q-5 1 -7.5 2t-6.5 2l-8 2t-7 2q-74 21 -124.5 38t-104.5 42.5t-86 52.5t-53 65.5t-21 83.5q0 161 192 232q-121 70 -121 207q0 49 26.5 97.5t76 90
t131 67t180.5 25.5q164 0 272 -51q132 -61 132 -172q0 -52 -35.5 -88.5t-91.5 -36.5q-61 0 -99.5 36t-38.5 93v31q-49 16 -139 16q-170 0 -170 -92q0 -23 14 -40.5t45 -32t65.5 -25.5t90.5 -27q19 -5 29 -8q73 -21 124 -38t105 -42.5t86 -53t53 -66t21 -83.5
q0 -162 -193 -231q121 -74 121 -207q0 -49 -26.5 -97.5t-76 -90t-130.5 -67.5t-180 -26q-107 0 -198.5 24.5t-145.5 72.5q-60 54 -60 127q0 52 35.5 88.5t91.5 36.5zM553 784q-45 10 -102 27q-142 -52 -142 -121q0 -19 10.5 -34.5t27.5 -27t49.5 -23.5t64 -21.5t82.5 -22.5
q16 -5 98 -26q145 49 145 120q0 44 -54.5 70.5t-178.5 58.5z" />
    <glyph glyph-name="ordfeminine.lin" horiz-adv-x="729" 
d="M238 920q-73 0 -124 39.5t-51 111.5q0 74 60 118t156 44q86 0 137 -14v41q0 61 -35 88q-33 24 -92 24q-32 0 -56 -8q7 -14 7 -29q0 -30 -21 -49.5t-51 -19.5t-50 20t-20 53q0 55 55.5 95.5t157.5 40.5q100 0 158 -39q78 -52 78 -168v-228h80v-110h-209v59
q-80 -69 -180 -69zM80 680v123h547v-123h-547zM281 1018q69 0 135 47v84q-47 12 -111 12q-49 0 -76.5 -20.5t-27.5 -57.5q0 -31 22 -48t58 -17z" />
    <glyph glyph-name="ordmasculine.lin" horiz-adv-x="712" 
d="M92 680v123h529v-123h-529zM356 920q-129 0 -207.5 80.5t-78.5 197.5q0 115 79 197t207 82q129 0 208 -81t79 -198q0 -114 -79.5 -196t-207.5 -82zM356 1030q66 0 108 47t42 121t-42 121t-108 47t-107.5 -47t-41.5 -121t41.5 -121t107.5 -47z" />
    <glyph glyph-name="degree.lin" horiz-adv-x="630" 
d="M315 918q-115 0 -196.5 81t-81.5 197t81.5 197.5t196.5 81.5t197 -81.5t82 -197.5q0 -115 -81.5 -196.5t-197.5 -81.5zM315 1057q59 0 99.5 40.5t40.5 98.5t-40.5 98.5t-99.5 40.5t-99 -40.5t-40 -98.5t40 -98.5t99 -40.5z" />
    <glyph glyph-name="percent.lin" horiz-adv-x="1361" 
d="M59 1067q0 126 89.5 215.5t216.5 89.5t215 -89t88 -216q0 -128 -88 -217.5t-215 -89.5t-216.5 89.5t-89.5 217.5zM188 1067q0 -80 51.5 -137.5t125.5 -57.5q73 0 123.5 57.5t50.5 137.5q0 79 -50.5 136t-123.5 57q-74 0 -125.5 -57t-51.5 -136zM248 -27l-84 60
q50 66 477 667q375 528 473 676l86 -59q-23 -30 -481 -672q-386 -543 -471 -672zM692 281q0 128 89 217.5t216 89.5t216.5 -89.5t89.5 -217.5q0 -126 -89.5 -216t-216.5 -90t-216 90t-89 216zM821 281q0 -79 51 -136t125 -57q73 0 123.5 57t50.5 136q0 80 -50.5 137
t-123.5 57q-74 0 -125 -57t-51 -137z" />
    <glyph glyph-name="perthousand.lin" horiz-adv-x="2078" 
d="M59 1067q0 126 89.5 215.5t216.5 89.5t215 -89t88 -216q0 -128 -88 -217.5t-215 -89.5t-216.5 89.5t-89.5 217.5zM188 1067q0 -80 51.5 -137.5t125.5 -57.5q73 0 123.5 57.5t50.5 137.5q0 79 -50.5 136t-123.5 57q-74 0 -125.5 -57t-51.5 -136zM248 -27l-84 60
q50 66 477 667q375 528 473 676l86 -59q-23 -30 -481 -672q-386 -543 -471 -672zM692 281q0 128 89 217.5t216 89.5t216.5 -89.5t89.5 -217.5q0 -126 -89.5 -216t-216.5 -90t-216 90t-89 216zM821 281q0 -79 51 -136t125 -57q73 0 123.5 57t50.5 136q0 80 -50.5 137
t-123.5 57q-74 0 -125 -57t-51 -137zM1409 281q0 128 89 217.5t216 89.5t216 -89.5t89 -217.5q0 -126 -89 -216t-216 -90t-216 90t-89 216zM1540 281q0 -79 50.5 -136t123.5 -57q74 0 125 57t51 136q0 80 -51 137t-125 57q-73 0 -123.5 -57t-50.5 -137z" />
    <glyph glyph-name="quotedbl.lin" horiz-adv-x="868" 
d="M604 868l-88 414q-18 86 23.5 139.5t113.5 53.5t114 -53.5t24 -139.5l-91 -414h-96zM164 868l-88 414q-18 86 23.5 139.5t113.5 53.5t113.5 -53.5t23.5 -139.5l-90 -414h-96z" />
    <glyph glyph-name="quotesingle.lin" horiz-adv-x="428" 
d="M164 868l-88 414q-18 86 23.5 139.5t113.5 53.5t113.5 -53.5t23.5 -139.5l-90 -414h-96z" />
    <glyph glyph-name="plus.lin" horiz-adv-x="950" 
d="M381 313v275h-275v188h275v275h188v-275h275v-188h-275v-275h-188z" />
    <glyph glyph-name="minus.lin" horiz-adv-x="950" 
d="M106 588v188h738v-188h-738z" />
    <glyph glyph-name="divide.lin" horiz-adv-x="950" 
d="M844 588h-738v188h738v-188zM475 858q-54 0 -93.5 39t-39.5 94t41 94t96 39q54 0 93.5 -39t39.5 -94t-41 -94t-96 -39zM475 240q-54 0 -93.5 39t-39.5 94t41 94t96 39q54 0 93.5 -39t39.5 -94t-41 -94t-96 -39z" />
    <glyph glyph-name="equal.lin" horiz-adv-x="950" 
d="M106 780v189h738v-189h-738zM106 395v189h738v-189h-738z" />
    <glyph glyph-name="multiply.lin" horiz-adv-x="950" 
d="M682 317l-207 228l-207 -228l-137 138l207 227l-207 227l137 138l207 -228l207 228l137 -138l-207 -227l207 -227z" />
    <glyph glyph-name="less.lin" horiz-adv-x="868" 
d="M633 242l-529 381v122l529 381l104 -139l-420 -303l420 -303z" />
    <glyph glyph-name="greater.lin" horiz-adv-x="868" 
d="M236 242l-105 139l420 303l-420 303l105 139l528 -381v-122z" />
    <glyph glyph-name="plusminus.lin" horiz-adv-x="950" 
d="M381 494v274h-275v188h275v275h188v-275h275v-188h-275v-274h-188zM106 137v189h738v-189h-738z" />
    <glyph glyph-name="zero.tab" 
d="M545 -25q-219 0 -346 189t-127 508q0 324 126.5 512t346.5 188t346.5 -188t126.5 -512q0 -319 -127 -508t-346 -189zM545 1155q-119 0 -176.5 -129t-57.5 -350q0 -107 13.5 -193.5t41 -152t73 -101.5t106.5 -36t106.5 36t72.5 101.5t40.5 152t13.5 193.5q0 221 -57 350
t-176 129z" />
    <glyph glyph-name="one.tab" 
d="M152 0v207h303v903l-283 -70l-53 197l450 117h117v-1147h299v-207h-833z" />
    <glyph glyph-name="two.tab" 
d="M979 975q0 -45 -10 -87t-23 -73.5t-40 -66.5t-45 -56t-55.5 -52t-55.5 -44t-58 -43q-131 -95 -213 -176.5t-127 -181.5h449v221h194v-416h-858l-69 113q36 103 89 193t120 162t123 121.5t130 104.5q45 34 67.5 51.5t55.5 48.5t48.5 55.5t27.5 58.5t12 71q0 80 -59 135
t-152 55q-66 0 -119 -21t-79 -56q61 -38 61 -115q0 -59 -41.5 -100t-99.5 -41q-77 0 -115.5 52.5t-38.5 129.5q0 82 37 149q49 93 158 149t256 56q182 0 306 -111t124 -286z" />
    <glyph glyph-name="three.tab" 
d="M518 -25q-137 0 -250 51t-170 132q-47 62 -47 139q0 67 41 113.5t105 46.5q60 0 100.5 -40.5t40.5 -99.5q0 -46 -29 -86q70 -59 211 -59q100 0 173 54.5t73 144.5q0 133 -129 186q-84 33 -203 33h-86v207h92q130 0 199 41q100 59 100 174q0 80 -63.5 122t-155.5 42
q-111 0 -170 -43q29 -37 29 -82q0 -57 -41.5 -98.5t-99.5 -41.5q-59 0 -102.5 46.5t-43.5 119.5q0 61 43 125q51 74 150 122t241 48q194 0 323.5 -100t129.5 -252q0 -85 -42.5 -155t-117.5 -115q-65 -37 -121 -48q69 -20 121 -51q83 -47 134 -121t51 -174q0 -115 -67 -203
t-176.5 -133t-242.5 -45z" />
    <glyph glyph-name="four.tab" 
d="M424 0v182h207v195h-557l-56 110l652 910l168 -133l-504 -705h297v225l231 93v-314h187v-190h-187v-185h135v-188h-573z" />
    <glyph glyph-name="five.tab" 
d="M532 -25q-246 0 -372 119q-72 69 -72 152q0 65 40.5 107t104.5 42q66 0 105 -41t39 -98q0 -21 -8 -53q56 -27 145 -27q134 0 208.5 73t74.5 191q0 103 -74.5 170.5t-210.5 67.5q-63 0 -135.5 -15.5t-126.5 -44.5l-105 58l62 672h733v-213h-545l-24 -275q108 21 176 21
q131 0 238.5 -53t172 -154.5t64.5 -233.5q0 -203 -138.5 -334t-351.5 -131z" />
    <glyph glyph-name="six.tab" 
d="M829 975q-67 0 -104 41t-37 94q0 32 6 53q-35 15 -86 15q-117 0 -201 -121.5t-94 -311.5l2 3q52 48 129 73t148 25q196 0 317 -119t121 -305q0 -189 -132 -318t-329 -129q-205 0 -338 146q-76 84 -109.5 207.5t-33.5 298.5q0 173 41 314.5t112.5 235t167.5 144.5t207 51
q164 0 269 -84q84 -68 84 -168q0 -73 -40 -109t-100 -36zM571 174q94 0 159 71.5t65 170.5q0 106 -66.5 170.5t-173.5 64.5q-95 0 -160 -64t-65 -161q0 -106 69 -178q71 -74 172 -74z" />
    <glyph glyph-name="seven.tab" 
d="M231 0l549 1153h-491v-258h-207v453h903l57 -127l-561 -1221h-250z" />
    </font>
</defs>
</svg>
